<?xml version="1.0" encoding="utf-8"?>
<!-- Generator: Adobe Illustrator 26.1.0, SVG Export Plug-In . SVG Version: 6.00 Build 0)  -->
<svg version="1.1" id="Layer_1" xmlns="http://www.w3.org/2000/svg" xmlns:xlink="http://www.w3.org/1999/xlink" x="0px" y="0px"
	 viewBox="0 0 24 24" style="enable-background:new 0 0 24 24;" xml:space="preserve">
<style type="text/css">
	.st0{fill:none;stroke:#090E58;stroke-width:2;stroke-linecap:round;stroke-linejoin:round;}
</style>
<g id="Group_24944" transform="translate(-1 -289)">
	<path id="Path_13369" class="st0" d="M24,299.8v-7.5c0-1.6-0.7-2.3-2.5-2.3h-4.4c-1.7,0-2.5,0.7-2.5,2.3v7.5c0,1.6,0.7,2.3,2.5,2.3
		h4.4C23.3,302.1,24,301.4,24,299.8z"/>
	<path id="Path_13370" class="st0" d="M24,309.7v-2c0-1.6-0.7-2.3-2.5-2.3h-4.4c-1.7,0-2.5,0.7-2.5,2.3v2c0,1.6,0.7,2.3,2.5,2.3h4.4
		C23.3,312,24,311.3,24,309.7z"/>
	<path id="Path_13371" class="st0" d="M11.4,302.2v7.5c0,1.6-0.7,2.3-2.5,2.3H4.5c-1.8,0-2.5-0.7-2.5-2.3v-7.5
		c0-1.6,0.7-2.3,2.5-2.3h4.4C10.6,299.9,11.4,300.6,11.4,302.2z"/>
	<path id="Path_13372" class="st0" d="M11.4,292.3v2c0,1.6-0.7,2.3-2.5,2.3H4.5c-1.8,0-2.5-0.7-2.5-2.3v-2c0-1.6,0.7-2.3,2.5-2.3
		h4.4C10.6,290,11.4,290.7,11.4,292.3z"/>
</g>
</svg>
