<svg id="setting-2" xmlns="http://www.w3.org/2000/svg" width="27.269" height="27.269" viewBox="0 0 27.269 27.269">
  <path id="Vector" d="M6.817,3.409A3.409,3.409,0,1,1,3.409,0,3.409,3.409,0,0,1,6.817,3.409Z" transform="translate(10.226 10.226)" fill="none" stroke="#090e58" stroke-linecap="round" stroke-linejoin="round" stroke-width="2"/>
  <path id="Vector-2" data-name="Vector" d="M0,11.724v-2A2.165,2.165,0,0,1,2.159,7.566c2.057,0,2.9-1.454,1.863-3.238a2.158,2.158,0,0,1,.8-2.943L6.783.26A1.9,1.9,0,0,1,9.374.942l.125.216c1.023,1.784,2.7,1.784,3.738,0l.125-.216A1.9,1.9,0,0,1,15.952.26l1.966,1.125a2.158,2.158,0,0,1,.8,2.943c-1.034,1.784-.193,3.238,1.863,3.238a2.165,2.165,0,0,1,2.159,2.159v2a2.165,2.165,0,0,1-2.159,2.159c-2.057,0-2.9,1.454-1.863,3.238a2.155,2.155,0,0,1-.8,2.943l-1.966,1.125a1.9,1.9,0,0,1-2.591-.682l-.125-.216c-1.023-1.784-2.7-1.784-3.738,0l-.125.216a1.9,1.9,0,0,1-2.591.682L4.817,20.064a2.158,2.158,0,0,1-.8-2.943c1.034-1.784.193-3.238-1.863-3.238A2.165,2.165,0,0,1,0,11.724Z" transform="translate(2.272 2.91)" fill="none" stroke="#090e58" stroke-linecap="round" stroke-linejoin="round" stroke-width="2"/>
  <path id="Vector-3" data-name="Vector" d="M0,0H27.269V27.269H0Z" fill="none" opacity="0"/>
</svg>
