<?xml version="1.0" encoding="utf-8"?>
<!-- Generator: Adobe Illustrator 26.1.0, SVG Export Plug-In . SVG Version: 6.00 Build 0)  -->
<svg version="1.1" id="Layer_1" xmlns="http://www.w3.org/2000/svg" xmlns:xlink="http://www.w3.org/1999/xlink" x="0px" y="0px"
	 viewBox="0 0 158.9 103.7" style="enable-background:new 0 0 158.9 103.7;" xml:space="preserve">
<style type="text/css">
	.st0{fill:#0E1254;}
</style>
<g id="g30" transform="translate(-180.774 -128.839)">
	<path id="path4" class="st0" d="M212.8,160.3c0.1,1.7,0.8,2.4,12.1,2.2c0.4,0,0.6,0.7,0.8,1.7c0.5,2.9-0.1,19.9-5.3,21.9
		c-1.7,0.8-3.7,0.8-5.4-0.1c-1.3-0.6-2.1-1.9-2.1-3.3c0-4.7-3.8-3.9-3.8,0.1c0.1,2.2,1.2,4.3,2.9,5.7c2.3,1.6,8.2,2.3,11.4-0.9
		c3-3,5.5-9.9,5.2-25.2c-0.2-0.9,0.9-3.9-2.4-3.9c-1.5,0.1-3.1,0.4-5.6,0.7C216.9,159.8,213,159.1,212.8,160.3z"/>
	<path id="path6" class="st0" d="M251.6,157.6c-0.5,0-1,0-1.6,0c-3.9,0.2-9.7,2.2-10,7.6c0,0.6,2.1,0.4,3.3-1.3
		c1.6-2.3,3.4-3.2,7.8-3.2c2.1,0.1,4.1,0.9,5.6,2.3c3.7,4.2,1.4,12,1.3,11.9c-5.1-2.9-10.3-3.8-14.1-2.6c-6.5,2.1-7.4,9.3-1.4,12.4
		c5.7,3,14,0.4,14,0.4c0.1,1.1,0.5,2.1,1.2,2.9c1.3,1.7,3.7,2,5.3,0.7c0.1-0.1,0.2-0.1,0.2-0.2c1.6-1.5,0.5-3.4-1.2-1.8
		c-0.4,0.4-2.7,1.2-2.7-2.8c0-3.5,1.1-7.1,2.5-11.4c0.8-2.2,0.8-4.5,0.2-6.7C261.5,162.7,259.1,157.8,251.6,157.6L251.6,157.6z
		 M247,174.6c4.7,0,10.8,2.8,10.8,2.8L257,182c-2.7,0.7-5.5,1.2-8.3,1.4c-1,0-7.3,0.6-7-4.7C241.9,175.6,244.2,174.6,247,174.6
		L247,174.6z"/>
	<path id="path8" class="st0" d="M271.7,162.2c0.2-0.7,0.2-2.7,4.9-3c1.6-0.1,3.8,0.7,4,3.1c0,0.4,0.9-1.5,3.5-2.5
		c1.9-0.7,7.7-1.7,10.6,2c0.6,0.8,1,1.7,1.2,2.7c1-1.5,1.3-2.6,2.7-3.6c2.2-1.6,12.1-4.2,14,4.9c0.6,2.7-0.2,5.3-0.9,11
		c-0.4,3.2-0.8,5.5,0.5,7.3s4-0.1,4.6-0.6c1.4-1,2.8,0.2,0.3,2.6c-1.8,1.7-8.2,2.9-9-1.1c-0.9-3.9,0.7-15.1,0.4-18.6
		c-0.4-5.4-8.2-5.3-10.2,0.1c-0.6,2-0.9,4.1-0.9,6.3c-0.2,4.6,1.1,14.1-2,14.5c-0.8,0.1-1.4-0.9-1.4-2.5c-0.2-4.5-0.1-9.4-0.1-12.6
		c0.2-4.1-0.5-5.7-1.6-7.2c-2.4-3.3-8.7-5.1-11.4,2.7c-1,3-1.7,12.2-2.1,17.9c-0.2,2.7-1.3,2.6-2,2.6c-0.4,0-1.4-0.4-1.3-1.9
		c0.2-6.2,2-21.2,2-22.7c0-1.9-2-1.8-3.6-0.1C272.5,164.9,271.5,163.1,271.7,162.2L271.7,162.2z"/>
	<path id="path10" class="st0" d="M243,138.3c2.5-2.8,5.4-6.4,13.3-6.9c4.1-0.3,0.6-2.8-3.1-2.6c-2.4,0.1-7,1.1-10.2,3.8
		c-1.3,1.3-2.5,2.8-3.6,4.3c-1.4-0.6-2.8-1.3-4.2-2.1c-6-3.2-18-5.4-24.9,8.5c-0.3,0.8-0.6,1.7-0.8,2.5c-2.4-0.6-4.8-0.9-7.3-0.8
		c-4.7,0.2-11.8,2.6-14.4,11.9c0,0-0.9,4,1,6.2c0.9,1,2.7,3,2.7,3c-2.2,0.5-4.2,1.4-6,2.8c-4.1,3.3-6.2,11.5-3.4,16.1
		c2,3.1,3.2,4.1,6.2,5.2c1.4,0.4,2.8,0.6,4.2,0.5c-0.6,1-1.1,2.2-1.4,3.3c-0.4,2.2-0.3,4.5,0.4,6.6c0.8,2.5,2.5,4.7,4.9,5.9
		c3.8,2.1,4.4-0.1,2.1-1.8c-1.6-1.2-2.5-1.7-3.5-3.3s-2.6-7.6,1.1-11.5c2.3-2.5,1.1-3-1.2-2.6c-3.9,0.7-8.3-1.4-9.5-4
		c-2.7-5.9,1.8-12.8,8.7-14.1s3.4-2.5,0.8-4.6c-5.9-4.8-1.2-12,0.8-13.5c3.8-2.5,8.5-3.2,12.8-1.9c6.5,2.3,2.5-0.2,5.6-5.5
		c3.1-5.4,10.8-11.3,20.8-5.7c1.8,1,3.2,2.1,4,2.5C240.8,141.7,240.7,140.9,243,138.3L243,138.3z"/>
	<path id="path12" class="st0" d="M332.4,187c2.2,6.1-1,12.9-7.1,15c-0.3,0.1-0.7,0.2-1,0.3c-3.7,1-6.8-0.2-7,0.4
		c-0.6,2,4.6,10.2-2.7,17.7c-7.1,7.3-19.3,0.3-19.5,1.1c-0.7,3.2-1,5-6.2,7.3c-2.9,1.3-8.8,0.4-7.6,2c1.3,1.8,1.7,2.4,7.6,1.1
		c2.4-0.5,4.6-1.8,6.2-3.6c1.1-1.1,1.7-2.6,2.2-2.8c0.3-0.1,11,3.9,19.1-1c7.7-4.6,5.3-16.7,5.3-17.2c0-0.5,0.3-1,0.8-1
		c0,0,0.1,0,0.1,0c3.8-0.3,8.2-2.7,11.9-7.3c5.8-7.2-0.8-15.9-0.5-16.3c1-1,3.5-2.3,5.1-8.5c1-4.1-0.3-6.8-1.7-7.9
		c-0.7-0.5-1.6-0.5-2.4,0c0,0,2.7,2.9-0.7,9.3c-2.1,3.8-6.2,5.8-6.2,6.1C328.3,181.9,331.1,183.5,332.4,187z"/>
	<path id="path14" class="st0" d="M225.8,200.6c-2.6-0.4-5.1,1.3-5.6,3.9c-0.6,2.1-0.3,2.6,1,3.9c1.1,1,4.5,1.3,4.9,0
		c0.4-1.3-0.6-1.5-1.4-1.5c-0.7,0-2.7,0.4-2.5-1.9s2.2-2.4,4-2.7S227.1,200.8,225.8,200.6z"/>
	<path id="path16" class="st0" d="M232.6,201.1c-1.9,0-2.7,1.9-3.2,3.6c0,0-0.9,3.2,0.6,4.3c1.2,1,3.1,1,4.2-0.1
		c1.5-1.3,2.2-3.3,1.9-5.2C235.7,202,234.3,201,232.6,201.1z M233.2,203.3c0.2,0,0.3,0,0.5,0.1c0.3,0.2,0.4,0.5,0.3,1.1
		c0,0.2-0.1,0.6-0.1,0.6s-0.6,1.8-1.5,2.1c-0.8,0.3-1.4,0.2-1.6-0.6c0-0.8,0.2-1.6,0.7-2.2C231.9,203.8,232.5,203.4,233.2,203.3
		L233.2,203.3z"/>
	<path id="path18" class="st0" d="M239.7,201.8c0.2,1.4,0.2,2.7,0,4.1c-0.6,1.7-1.3,2.7-0.5,3.3c0.9,0.7,2.5-2.4,3-3.6
		c0.6-1.5,2.3-4.1,2.6-1.7c0.3,2.5-0.9,4.3-0.7,5.2c0.1,0.6,0.8,0.9,1.4,0.2c0.9-1,1.6-3.7,2.3-5c0.4-0.7,1.8-2,2,0
		c0.2,1.3-0.9,3.7-0.1,4.8c0.6,0.8,1.7,0.1,1.9-1.3s1.1-6.4-2.4-6.7c-1-0.1-1.8,0.7-2.5,2c-0.3,0.6,0.2-1.9-1.8-2.3
		c-1.9-0.3-1.9,0.7-2.5,1.4c-0.6,0.7,0.1-2.5-1.3-2C239.7,200.7,239.6,201.1,239.7,201.8z"/>
	<path id="path20" class="st0" d="M254.9,201.8c0.2,1.3,0.2,2.7-0.1,4c-0.5,1.9-0.7,2.6,0.2,3.1s1.3-1.1,1.8-2.3s1.4-3,2-2.9
		s1.3,1.3,0.6,2.6c-0.6,1.3-0.9,2.8,0.3,3s1.3-1.7,1.9-3.4c0.4-1.2,1.4-2.6,1.6-1.4c0.3,1.5-1.3,3.7,0.5,4.5
		c0.6,0.3,1.2,0.1,1.4-1.4s0.2-4.5-0.7-5.6s-2.1-0.2-2.7,0.8c-0.4,0.7-1.2-1-2.2-1.2c-1-0.3-2,0.2-2.4,1.1c-0.6,0.9,0.1-1.9-1.2-1.9
		C254.7,200.8,254.9,201.1,254.9,201.8z"/>
	<path id="path22" class="st0" d="M272.8,201.1c-0.4,0-0.8,0.1-1.1,0.3c-4.1,2-3.2,4.6-3,5.4c0.5,1.8,1.2,2.9,2.6,2.9
		c1.5,0,2.9-0.8,3.8-2c0.4-0.7-1.2-0.2-2.8,0.4c-0.8,0.2-1.7-0.4-1.8-1.2c0-0.1,0-0.2,0-0.3c0.2-1.1,1.4-0.5,3.1-1
		c1.1-0.3,1.1-1,0.9-2.9C274.3,201.8,273.6,201.2,272.8,201.1L272.8,201.1z M272.4,203c0.5,0,0.8,0.3,0.6,0.8
		c-0.1,0.2-0.6,0.5-1.2,0.2c-0.2-0.1-0.3-0.3-0.3-0.5c0,0,0-0.1,0-0.1C271.7,203.2,272,203,272.4,203L272.4,203z"/>
	<path id="path24" class="st0" d="M278.5,202.5c0.2,1.3,0.1,2.7-0.4,4c-0.5,1.3-0.6,2.5,0.5,2.6s1.3-1.6,1.7-2.6
		c0.7-1.6,1.6-3.1,2-2.4c0.5,0.9,0.5,2,0.2,3c-0.3,1.1-0.1,2.4,0.9,1.9s1.5-3.1,1.3-3.9s-0.2-2-1.3-2.6c-1.5-0.9-2.3-0.6-2.7,0.1
		c-0.3,0.4,0-1.8-1.9-1C278.4,201.8,278.4,202.2,278.5,202.5z"/>
	<path id="path26" class="st0" d="M290.3,196.1c-0.6,0-1.1,0.4-1.2,1c-0.1,0.7,0.3,1.5-0.5,1.6c-0.7,0.1-1.4,0.1-2.1,0.1
		c0,0-0.9,0.5-0.5,1.3c0.2,0.5,0.7,0.8,1.2,0.6c0.1,0,0.2-0.1,0.3-0.1c0.6-0.3,1.6-0.7,1.5,0s-0.5,4.6-0.7,5.4s-0.9,2.7,0,3.1
		c0.9,0.4,1.9,0.2,2.6-0.4c0.5-0.3,0.9-0.7,1.3-1.2c0.5-0.7,0-1.2-0.7-0.8c-0.4,0.3-0.8,0.5-1.2,0.8c0.2-1.1,0.3-2.5,0.4-3.5
		c0.1-1.4-0.1-4,1.2-4s1.2-0.3,1.9-0.3c0.8-0.1,2.2-0.3,2-0.9s-0.7-0.7-2-0.5s-2.6,0.8-2.4,0.1s0.7-1.8-0.5-2.1
		C290.8,196.1,290.5,196,290.3,196.1z"/>
	<path id="path28" class="st0" d="M298.4,201.2c-1.5,0.4-2,0.6-2.7,2.1c-0.5,1.1,0.2,1.6,1.1,2.3c1,0.5,2,0.8,3.1,0.9
		c0.5,0.1,0.5,0.5-0.8,0.7c-1.1,0.1-2.3,0.1-3.4,0c-0.8,0-1.8,0.2-1.1,1.1c0.6,0.8,3.2,1.1,4.6,0.8s3.7-1,3.5-2.6s-1.3-1.7-2.8-2.3
		s-1.8-1-0.3-1.3s0.4,0.3,1.3,0.5s1.8-1,1.3-1.7S299.8,200.9,298.4,201.2L298.4,201.2z"/>
</g>
</svg>
