<?xml version="1.0" encoding="utf-8"?>
<!-- Generator: Adobe Illustrator 26.1.0, SVG Export Plug-In . SVG Version: 6.00 Build 0)  -->
<svg version="1.1" id="Group_24942" xmlns="http://www.w3.org/2000/svg" xmlns:xlink="http://www.w3.org/1999/xlink" x="0px"
	 y="0px" viewBox="0 0 462.6 292.4" style="enable-background:new 0 0 462.6 292.4;" xml:space="preserve">
<style type="text/css">
	.st0{fill:none;stroke:#090E58;stroke-width:3;}
	.st1{fill:#FFFFFF;stroke:#090E58;}
	.st2{fill:#090E58;stroke:#090E58;}
	.st3{opacity:0.17;fill:url(#Union_10_00000135673719340711226440000004794749348932191669_);enable-background:new    ;}
	.st4{fill:#FFFFFF;stroke:#090E58;stroke-width:3;}
	.st5{fill:none;stroke:#090E58;stroke-width:4;stroke-linecap:round;}
	.st6{clip-path:url(#SVGID_00000132068359739575392170000018186495834778730902_);}
	.st7{fill:#FFFFFF;}
	.st8{fill:#090E58;}
	.st9{opacity:0.41;}
	.st10{opacity:0.88;fill:url(#Polygon_1_00000153664527783370599220000015949929613957758606_);enable-background:new    ;}
	.st11{fill:none;stroke:#090E58;stroke-width:3;stroke-linecap:round;}
	.st12{opacity:0.91;}
	.st13{fill:#FFFFFF;stroke:#090E58;stroke-width:4;}
	.st14{clip-path:url(#SVGID_00000109028908414496197210000013747648200689826223_);}
	.st15{clip-path:url(#SVGID_00000160903791729366139730000006400084746893212085_);}
	.st16{clip-path:url(#SVGID_00000062915202243420993880000001521500790133914029_);}
	.st17{fill:#0E1254;}
	.st18{fill:#FFFFFF;stroke:#FFFFFF;stroke-miterlimit:10;}
</style>
<g id="Group_24940" transform="translate(369.716 222.415)">
	<g id="Group_24937" transform="translate(2.839 15.748)">
		<g id="Group_24912">
			<path id="Path_14148" class="st0" d="M35.5,50.1c-1.2,0.9-2.6,1.5-4,1.8c-1.9,0.5-3.9,0.7-5.9,0.8c-2.3,0.1-4.7,0-7-0.2
				c-2.5-0.2-5-0.6-7.4-1.2c-1.5-0.5-2.8-1.5-3.6-2.9c-1-1.9-1.8-3.9-2.2-5.9c-0.6-2.6-1-5.1-1.3-7.7c-0.3-2.7-0.5-5.6-0.7-8.3
				c-0.1-1.7-0.3-3.5-0.5-5.1S2.5,18,2.4,16.7c-0.2-1.3-0.3-2.4-0.4-3.2c-0.1-0.8-0.2-1.2-0.2-1.2h41.2c0,0,0,0.5-0.1,1.5
				s-0.2,2.3-0.4,4c-0.2,1.7-0.4,3.7-0.7,6s-0.6,4.7-0.9,7.3s-0.6,4.9-0.9,6.9s-0.5,3.8-0.9,5.4c-0.3,1.4-0.7,2.7-1.3,4
				C37.3,48.4,36.5,49.3,35.5,50.1z"/>
		</g>
	</g>
	<path id="Path_14170" class="st1" d="M2.1,28.1h46.3l-2.6-7.7H4.4L2.1,28.1L2.1,28.1z"/>
	<path id="Path_14150" class="st0" d="M2.1,28.1h46.3l-2.6-7.7H4.4L2.1,28.1L2.1,28.1z"/>
	<path id="Path_14151" class="st0" d="M15.9,20.4l0.6-3.6c0.1-0.6,0.2-1.2,0.4-1.8c0.1-0.5,0.4-1,0.7-1.4c0.4-0.4,0.9-0.8,1.5-0.9
		c0.9-0.3,1.8-0.4,2.7-0.3H29c0.9,0,1.8,0.1,2.7,0.4c0.6,0.2,1.1,0.5,1.5,1c0.3,0.4,0.6,0.9,0.7,1.4c0.2,0.6,0.3,1.2,0.4,1.8
		l0.6,3.5"/>
	<path id="Path_14152" class="st2" d="M20.9,51.2c0.7-0.4,1.4-0.7,2.2-0.9c1.5-0.4,3.1-0.4,4.7,0c0.8,0.2,1.5,0.5,2.2,0.9
		c-0.7,0.4-1.4,0.7-2.2,0.9c-0.8,0.2-1.5,0.3-2.3,0.3c-0.8,0-1.6-0.1-2.3-0.3C22.3,51.9,21.6,51.6,20.9,51.2"/>
	<path id="Path_14153" class="st2" d="M18.6,40.3c1.1-0.4,2.2-0.7,3.4-0.9c2.3-0.4,4.6-0.4,6.9,0c1.1,0.2,2.3,0.5,3.4,0.9
		c-1.1,0.4-2.2,0.7-3.4,0.9c-1.1,0.2-2.3,0.3-3.4,0.3c-1.2,0-2.3-0.1-3.4-0.3C20.8,41,19.7,40.7,18.6,40.3"/>
</g>
<g id="Group_24939" transform="translate(0 0)">
	
		<linearGradient id="Union_10_00000150064791997468877670000007029056626992784520_" gradientUnits="userSpaceOnUse" x1="-447.8218" y1="533.8646" x2="-447.9037" y2="534.5587" gradientTransform="matrix(170.6512 0 0 -119.6317 76637.7109 63974.8711)">
		<stop  offset="0" style="stop-color:#FBBEB5;stop-opacity:0.302"/>
		<stop  offset="1" style="stop-color:#C6CEF9"/>
	</linearGradient>
	
		<path id="Union_10" style="opacity:0.17;fill:url(#Union_10_00000150064791997468877670000007029056626992784520_);enable-background:new    ;" d="
		M160.9,108.2c-0.6,0.2-1.3,0.3-1.9,0.4c-0.7,0.1-1.3,0.2-2,0.3c-0.7,0.1-1.3,0.2-2,0.2c-0.7,0-1.4,0.1-2.1,0.1
		c-3.7,0-7.4-0.7-10.9-1.9c-3.3-1.2-6.3-3-8.9-5.3c-2.5-2.2-4.5-4.9-6-7.9c-2.4-5.1-2.9-10.9-1.2-16.3c0.7-2.1,1.7-4.1,2.9-6
		c1.3-1.9,2.8-3.6,4.5-5.1c1.8-1.5,3.7-2.8,5.8-3.9c-0.6-0.8-1.1-1.7-1.5-2.5c-0.4-0.9-0.8-1.8-1.1-2.7c-1.3-3.9-1.3-8.2,0.1-12.1
		c0.7-1.9,1.6-3.8,2.8-5.4c1.2-1.7,2.7-3.1,4.3-4.4c1.7-1.3,3.6-2.3,5.5-3.1c4.8-12,18.5-17.7,30.4-12.9c2.7,1.1,5.2,2.7,7.4,4.7
		c11-15,32-18.2,47-7.3c4.6,3.4,8.2,7.8,10.6,13c1.2-0.2,2.5-0.4,3.7-0.5s2.5-0.2,3.8-0.3s2.5-0.1,3.7-0.2c1.2,0,2.4,0,3.5,0
		c4.8,0,9.5,0.8,14.1,2.4c4.2,1.5,8.1,3.7,11.5,6.6c3.2,2.7,5.8,6,7.7,9.7c1.9,3.7,2.8,7.8,2.8,11.9c0,2.4-0.3,4.8-1,7.1
		c-0.6,2.3-1.6,4.5-2.8,6.5c-1.2,2.1-2.7,4-4.4,5.7c-1.7,1.8-3.6,3.4-5.7,4.7c0.7,1.1,1.3,2.2,1.9,3.4c0.5,1.2,1,2.4,1.4,3.7
		c0.8,2.5,1.1,5.2,1.1,7.8c0.1,3.8-0.3,7.6-1.1,11.4c-0.6,3.1-1.9,6-3.8,8.6c-1.9,2.5-4.4,4.3-7.4,5.4c-3.8,1.4-7.7,2-11.7,1.9
		c-3.3,0-6.5-0.3-9.7-0.8c-3.4-0.6-6.7-1.4-9.9-2.4c-3.2-1-6.3-2.3-9.3-3.9c-2.8-1.4-5.4-3.2-7.8-5.2c-1.5,2.5-3.3,4.8-5.4,6.8
		c-2.2,2.1-4.6,3.8-7.2,5.3c-2.7,1.5-5.6,2.6-8.7,3.4c-6.9,1.8-14.2,1.6-21-0.4c-3.5-1-6.8-2.6-9.8-4.6c-2.9-1.9-5.5-4.3-7.6-7
		C163.6,114.4,162,111.4,160.9,108.2z"/>
	<g id="Group_24934" transform="translate(293.973 186.356)">
		<path id="Union_5" class="st4" d="M27.7,43.5L7.2,50.6l-0.1,0l-0.1,0l-0.1,0l-0.1,0l-0.1,0l-0.1,0l-0.1,0l-0.1,0l-0.1,0l-0.1,0
			l-0.1,0l-0.1,0H5.7H5.6H5.5l-0.1,0l-0.1,0l-0.1,0l-0.1,0l-0.1,0l-0.1,0l-0.1,0l-0.1,0l-0.1,0l-0.1,0l-0.1,0l-0.1,0l-0.1,0l-0.1,0
			l-0.1,0l-0.1,0L4,50.4l-0.1,0l-0.1-0.1l-0.1-0.1l-0.1-0.1l-0.1-0.1l-0.1-0.1L3.6,50L3.5,50c0,0,0,0,0-0.1c0,0,0,0,0-0.1
			c0,0,0,0,0-0.1c0,0,0-0.1,0-0.1c0,0,0-0.1,0-0.1c0,0,0-0.1,0-0.1c0,0,0-0.1,0-0.1c0,0,0-0.1,0-0.1c0,0,0-0.1,0-0.1s0-0.1,0-0.1
			c0,0,0-0.1,0-0.1s0-0.1,0-0.1c0,0,0-0.1,0-0.1c0,0,0-0.1,0-0.1c0,0,0-0.1,0-0.1c0,0,0-0.1,0-0.1c0,0,0-0.1,0-0.1c0,0,0-0.1,0-0.1
			s0-0.1,0-0.1s0-0.1,0-0.1s0-0.1,0-0.1c0,0,0-0.1,0-0.1c0,0,0-0.1,0-0.1c0,0,0-0.1,0-0.1l2.5-16.5c0,0,0-0.1,0-0.1c0,0,0-0.1,0-0.1
			c0,0,0-0.1,0-0.1s0-0.1,0-0.1c0,0,0-0.1,0-0.1s0-0.1,0-0.1c0,0,0-0.1,0-0.1c0,0,0-0.1,0-0.1s0-0.1,0-0.1c0,0,0-0.1,0-0.1
			c0,0,0-0.1,0-0.1c0,0,0-0.1,0-0.1l0.1-0.1l0.1-0.1l0.1-0.1l0.1-0.1l0.1-0.1l0.1-0.1L6.5,29l0.1-0.1l0.1-0.1l0.1-0.1l0.1-0.1
			l0.1-0.1l0.1-0.1L7,28.2l0.1-0.1l0.1-0.1l0.1-0.1l0.1-0.1l0.1-0.1l0.1-0.1l0.1-0.1l0.1-0.1l0.1-0.1l0.1-0.1L8,27l0.1-0.1l0.1-0.1
			l0.1-0.1l0.1-0.1l0.1-0.1l0.1-0.1l0.1-0.1l0.1-0.1l0.1-0.1L9,26.1L9.1,26l0.1-0.1l0.1-0.1l0.1-0.1l0.1-0.1l0.1-0.1l0.1-0.1
			l0.1-0.1l0.1-0.1l0.1-0.1l0.1-0.1l0.1-0.1l0.1-0.1l0.1-0.1l0.1-0.1l0.1,0l0.1,0l29.6-10.9l0.1,0l0.1,0l0.1,0l0.1,0l0.1,0l0.1,0
			l0.1,0l0.1,0l0.1,0l0.1,0l0.1,0l0.1,0l0.1,0l0.1,0h0.1h0.1h0.1l0.1,0l0.1,0l0.1,0l0.1,0l0.1,0l0.1,0l0.1,0l0.1,0l0.1,0l0.1,0
			l0.1,0l0.1,0l0.1,0l0.1,0l0.1,0l0.1,0l0.1,0l0.1,0.1l0.1,0.1l0.1,0.1l0.1,0.1l0.1,0.1l0.1,0.1l0.1,0.1l0.1,0.1c0,0,0,0,0,0.1
			s0,0,0,0.1c0,0,0,0.1,0,0.1c0,0,0,0.1,0,0.1c0,0,0,0.1,0,0.1c0,0,0,0.1,0,0.1s0,0.1,0,0.1c0,0,0,0.1,0,0.1c0,0,0,0.1,0,0.1
			c0,0,0,0.1,0,0.1c0,0,0,0.1,0,0.1c0,0,0,0.1,0,0.1c0,0,0,0.1,0,0.1c0,0,0,0.1,0,0.1c0,0,0,0.1,0,0.1c0,0,0,0.1,0,0.1
			c0,0,0,0.1,0,0.1s0,0.1,0,0.1s0,0.1,0,0.1c0,0,0,0.1,0,0.1c0,0,0,0.1,0,0.1c0,0,0,0.1,0,0.1l-1.9,16.8c0,0,0,0.1,0,0.1
			c0,0,0,0.1,0,0.1c0,0,0,0.1,0,0.1c0,0,0,0.1,0,0.1c0,0,0,0.1,0,0.1c0,0,0,0.1,0,0.1c0,0,0,0.1,0,0.1c0,0,0,0.1,0,0.1
			c0,0,0,0.1,0,0.1c0,0,0,0.1,0,0.1c0,0,0,0.1,0,0.1c0,0,0,0.1,0,0.1c0,0,0,0.1-0.1,0.1c0,0,0,0.1-0.1,0.1c0,0,0,0.1-0.1,0.1
			l-0.1,0.1l-0.1,0.1l-0.1,0.1l-0.1,0.1L42.3,36l-0.1,0.1l-0.1,0.1L42,36.4L42,36.5l-0.1,0.1l-0.1,0.1l-0.1,0.1L41.6,37l-0.1,0.1
			l-0.1,0.1l-0.1,0.1l-0.1,0.1l-0.1,0.1l-0.1,0.1L41,37.7l-0.1,0.1l-0.1,0.1L40.7,38l-0.1,0.1l-0.1,0.1l-0.1,0.1l-0.1,0.1l-0.1,0.1
			L40,38.6l-0.1,0.1l-0.1,0.1l-0.1,0.1L39.5,39l-0.1,0.1l-0.1,0.1l-0.1,0.1L39,39.3l-0.1,0.1l-0.1,0.1l-0.1,0.1l-0.1,0.1l-0.1,0.1
			l-0.1,0.1l-0.1,0.1L38,39.8l-0.1,0.1L37.8,40l-0.1,0l-0.1,0L35,40.9l-0.7,5.4L27.7,43.5z"/>
		<path id="Line_621" class="st5" d="M11.7,32.5l26-9.4"/>
		<path id="Line_622" class="st5" d="M11.8,38.7l11.3-4"/>
	</g>
	<g id="Group_24851" transform="translate(9.337 189.876)">
		<g>
			<defs>
				<rect id="SVGID_1_" x="0" y="10.7" width="129.5" height="89.4"/>
			</defs>
			<clipPath id="SVGID_00000045583594520722499060000017270856781613822883_">
				<use xlink:href="#SVGID_1_"  style="overflow:visible;"/>
			</clipPath>
			<g id="Group_24850" style="clip-path:url(#SVGID_00000045583594520722499060000017270856781613822883_);">
				<path id="Path_14166" class="st7" d="M53.3,82.9h23c0,0,0.2,0.5,0.6,1.2s0.8,1.7,1.2,2.6c0.4,0.8,0.7,1.7,0.9,2.5
					c0.2,0.6,0.2,1-0.1,0.9c-1.4-0.2-2.8-0.3-4.3-0.2c-2.3,0-5.3,0-8.3,0c-3,0-5.9,0.1-8,0.1c-2.2,0-3.6,0.1-3.6,0.1h-1.4V82.9z"/>
				<path id="Path_14112" class="st8" d="M128.2,88.5c-0.5-0.7-1.1-1.4-1.7-2c-0.6-0.6-1.3-1.2-2-1.8s-1.4-1.1-2.2-1.7
					s-1.4-1.1-2.1-1.6c-1-0.7-1.9-1.5-2.9-2.3s-1.8-1.6-2.7-2.4s-1.8-1.6-2.7-2.5c-0.9-0.8-1.8-1.6-2.7-2.4c1.2-0.9,2.2-2.1,2.6-3.6
					c0.6-1.6,0.9-3.3,1-5c0.1-1.8,0.1-3.5,0.1-5.3c-0.1-1.7-0.2-3.3-0.2-4.5c0-2.7-0.1-5.4-0.1-8c-0.1-2.7-0.1-5.4-0.2-8
					c-0.1-2.7-0.2-5.4-0.2-8s-0.2-5.4-0.2-8c0-0.8,0-1.6-0.1-2.4c0-0.8-0.2-1.6-0.3-2.4c-0.2-0.8-0.4-1.5-0.8-2.2
					c-0.4-0.7-1-1.3-1.6-1.8c-0.9-0.6-1.8-1-2.9-1.2c-1.2-0.2-2.3-0.4-3.5-0.4c-1.2,0-2.5,0-3.7,0c-1.2,0-2.3,0-3.2-0.1
					c-2.6-0.2-5.2-0.3-7.8-0.3c-2.6,0-5.3,0.1-7.9,0.1c-2.6,0.1-5.3,0.2-7.9,0.2c-2.6,0-5.3,0.1-7.9,0l-8.8,0.1l-8.8,0l-8.8,0
					l-8.8,0.1c-0.8,0-1.6,0-2.4,0c-0.7,0-1.5,0.1-2.2,0.2c-0.7,0.1-1.4,0.4-2,0.7c-0.7,0.4-1.3,0.9-1.7,1.6c-0.7,0.9-1.2,1.9-1.5,3
					c-0.3,1.1-0.5,2.2-0.6,3.3c-0.1,1.1-0.1,2.3,0,3.4c0,1.1,0.1,2.2,0.2,3.3c0.1,3.3,0.1,6.5,0.1,9.8s-0.1,6.6-0.2,9.8
					s-0.1,6.6-0.1,9.8s0.1,6.6,0.3,9.9c0,0.7,0.2,1.4,0.3,2c0.2,0.6,0.4,1.1,0.7,1.6c0.3,0.5,0.6,0.9,1,1.3c0.4,0.4,0.8,0.7,1.2,1
					c-1.2,0.9-2.5,1.7-3.7,2.6s-2.5,1.7-3.7,2.6c-1.2,0.9-2.4,1.7-3.7,2.6c-1.2,0.9-2.4,1.8-3.6,2.7c-0.9,0.7-1.8,1.4-2.6,2.1
					c-0.8,0.7-1.6,1.4-2.4,2.2c-0.7,0.8-1.3,1.7-1.7,2.6c-0.4,1-0.7,2.1-0.7,3.2c0,0.9,0.1,1.9,0.4,2.8c0.2,0.8,0.6,1.4,1.1,2
					c0.5,0.6,1.2,1,1.9,1.3c0.8,0.4,1.7,0.6,2.6,0.7c2,0.2,4,0.4,6.1,0.5s4.1,0.1,6.1,0.1s4.1,0,6.2-0.1s4.1-0.1,6.1-0.2
					c4.6-0.2,9.3-0.3,13.9-0.3s9.3-0.1,13.9-0.1s9.3,0,13.9,0s9.3-0.1,13.9-0.2c2-0.1,4-0.1,6-0.1c2,0,4,0,6,0c2,0,4,0,6,0.1
					c2,0,4,0.1,6,0.1c1.2,0,2.7,0.1,4.3,0.2s3.3,0.2,4.9,0.2c1.6,0,3.2-0.2,4.7-0.6c1.4-0.3,2.6-1.1,3.6-2.1c0.5-0.6,1-1.3,1.3-2
					c0.6-1.4,0.7-3,0.2-4.4C129,89.8,128.7,89.1,128.2,88.5 M22.1,55.9c0-1.4-0.1-2.8-0.1-4.2c0-1.4-0.1-2.8-0.1-4.2
					c0-1.4,0-2.8,0-4.2c0-1.4,0-2.8,0.1-4.2c0-1.3,0.1-2.6,0.1-3.8c0-1.3,0.1-2.5,0.1-3.8c0-1.3,0-2.5,0-3.8c0-1.3,0-2.6,0-3.8
					c0-0.8,0-1.7,0-2.6c0-0.9,0.2-1.8,0.4-2.6c0.2-0.8,0.6-1.6,1.2-2.2c0.6-0.7,1.4-1.2,2.3-1.5c0.6-0.2,1.2-0.3,1.8-0.3
					c0.7,0,1.4,0,2,0c0.7,0,1.4,0.1,2.1,0.1c0.7,0,1.3,0.1,1.8,0.1l7.6,0l7.6,0l7.6,0l7.6,0c1.6,0.1,3.3,0.1,4.9,0.2
					c1.6,0,3.3,0.1,4.9,0.1s3.3,0,4.9,0c1.6,0,3.3-0.1,4.9-0.2c1.2-0.1,3.2-0.2,5.6-0.3s5.1-0.2,7.7,0c2.4,0.1,4.8,0.5,7.1,1.2
					c2,0.7,3.4,1.7,3.9,3.2c0.2,0.6,0.3,1.1,0.3,1.7c0,0.6,0,1.3,0,1.9c0,0.6-0.1,1.3-0.1,1.9s-0.1,1.2-0.1,1.8c0,1.2,0,2.5,0,3.7
					c0,1.2,0,2.5,0.1,3.7c0,1.2,0.1,2.5,0.1,3.7c0,1.2,0.1,2.5,0.1,3.7c0,1,0.1,2,0.1,2.9s0.1,2,0.1,2.9c0,1,0.1,2,0.1,2.9
					s0.1,2,0.1,2.9c0,0.6,0,1.2,0,1.8c0,0.6,0,1.2,0,1.8c0,0.6,0,1.2,0,1.8c0,0.6,0,1.2,0,1.8c0,0.9,0,1.7,0,2.5
					c0,0.8-0.1,1.5-0.2,2.2c-0.1,0.7-0.4,1.3-0.8,1.9c-0.5,0.7-1,1.2-1.7,1.6c-1,0.5-2,0.9-3.1,1c-1.2,0.2-2.5,0.2-3.7,0.2
					c-1.3,0-2.6-0.1-3.8-0.2c-1.2-0.1-2.4-0.2-3.4-0.2c-1.1,0-2.3,0-3.4,0c-1.1,0-2.3,0-3.4,0c-1.1,0-2.3,0-3.4,0
					c-1.1,0-2.3,0-3.4,0c-2.2,0-4.5,0.1-6.7,0.2s-4.5,0.1-6.7,0.2c-2.2,0.1-4.5,0.2-6.7,0.2c-2.2,0.1-4.5,0.1-6.7,0.1
					c-1.1,0-2.1,0-3.2,0c-1.1,0-2.1,0-3.2,0c-1.1,0-2.1,0-3.2,0c-1.1,0-2.1,0-3.2,0.1c-1,0-2.1,0.2-3.4,0.3s-2.6,0.3-3.9,0.4
					c-1.3,0.1-2.6,0.1-3.8,0c-1.1-0.1-2.2-0.4-3.2-0.9c-1-0.6-1.7-1.4-2.1-2.5c-0.4-1.2-0.7-2.4-0.7-3.7c-0.1-1.3,0-2.7,0-4
					S22.1,56.8,22.1,55.9 M123.5,95.3c-0.9,0.4-1.8,0.6-2.7,0.6c-1.1,0.1-2.3,0.1-3.4,0c-1.2,0-2.4-0.1-3.5-0.2s-2.1-0.1-2.9-0.2
					c-4,0-7.9-0.1-11.9-0.1s-8-0.1-11.9-0.2c-4-0.1-8-0.1-11.9-0.1c-4,0-7.9,0-11.9,0c-4.1,0.1-8.3,0.2-12.4,0.3s-8.3,0.3-12.4,0.4
					s-8.3,0.2-12.4,0.3s-8.3,0-12.4-0.1c-0.8,0-1.8,0-2.9,0c-1.1,0-2.1-0.1-3.2-0.2c-1-0.1-1.9-0.5-2.7-1c-0.7-0.5-1.2-1.4-1.3-2.3
					C3.6,92,3.7,91.3,4,90.8c0.3-0.6,0.6-1.1,1.1-1.5c0.5-0.5,0.9-0.9,1.4-1.3c0.5-0.4,1-0.8,1.5-1.2c1.4-1.2,2.8-2.3,4.3-3.4
					s3-2.2,4.5-3.2s3-2.1,4.5-3.1s3-2.1,4.5-3.1c0,0,0.1-0.1,0.1-0.1c0,0,0.1-0.1,0.1-0.1c0,0,0.1-0.1,0.1-0.1s0.1-0.1,0.1-0.1
					c0.7,0.1,1.5,0.2,2.2,0.2c0.8,0,1.5,0.1,2.3,0.1s1.5,0,2.3-0.1s1.5-0.1,2.2-0.1c2.9-0.2,5.8-0.3,8.7-0.3
					c2.9-0.1,5.8-0.1,8.7-0.2s5.8-0.1,8.7-0.1c2.9,0,5.8-0.1,8.7-0.2c1.4,0,2.9-0.1,4.3-0.1c1.4,0,2.9-0.1,4.3-0.1
					c1.4,0,2.9,0,4.3,0c1.4,0,2.9,0,4.3,0c1.4,0,2.9,0.1,4.4,0.2c1.5,0.1,3,0.2,4.5,0.2c1.5,0.1,3,0.1,4.5,0.2c1.5,0,3,0,4.4-0.1
					l0,0l0,0l0,0l0,0c1.5,1.2,3,2.4,4.5,3.6c1.5,1.2,3,2.5,4.5,3.7c1.5,1.2,3,2.5,4.4,3.8c1.5,1.3,2.9,2.5,4.3,3.8
					c0.5,0.5,1.2,1.1,1.8,1.7c0.6,0.6,1,1.2,1.4,1.9c0.3,0.6,0.3,1.3,0,2C125.3,94.3,124.5,95,123.5,95.3"/>
				<path id="Path_14113" class="st8" d="M29.7,64.9c3,0,5.9-0.1,8.9-0.1c3,0,6-0.1,8.9-0.1c3,0,6-0.1,8.9-0.2s6-0.2,8.9-0.3
					c3-0.1,6-0.3,9-0.4s6.1-0.2,9.1-0.3c3-0.1,6.1-0.1,9.1,0c3,0,6,0.1,9,0.3c0.2,0,0.4,0,0.5-0.1c0.2-0.1,0.3-0.2,0.4-0.3
					c0.1-0.1,0.2-0.3,0.3-0.4c0.1-0.2,0.1-0.3,0.1-0.5c-0.1-3.4-0.2-6.8-0.2-10.1c-0.1-3.4-0.1-6.8-0.2-10.1
					c-0.1-3.4-0.1-6.8-0.2-10.1s-0.2-6.8-0.3-10.2c0-0.2,0-0.4-0.1-0.5c-0.1-0.2-0.2-0.3-0.3-0.4c-0.1-0.1-0.3-0.2-0.4-0.3
					c-0.2-0.1-0.4-0.1-0.5-0.1c-6,0.1-11.9,0.1-17.9,0.1c-6,0-11.9,0-17.9-0.1c-6,0-11.9-0.1-17.9-0.1s-11.9,0-17.9,0.1
					c-0.1,0-0.2,0-0.2,0c-0.1,0-0.1,0-0.2,0.1c-0.1,0-0.1,0.1-0.2,0.1c-0.1,0-0.1,0.1-0.2,0.1c-0.1,0.1-0.2,0.1-0.2,0.2
					c-0.2,0.1-0.3,0.3-0.3,0.5c0,0.1,0,0.2,0,0.4l0.2,10.4c0.1,3.5,0.1,7,0.2,10.4s0.1,7,0.2,10.4s0.1,7,0.2,10.4
					c0,0.2,0,0.4,0.1,0.5c0.1,0.2,0.2,0.3,0.3,0.4c0.1,0.1,0.3,0.2,0.4,0.3C29.4,64.8,29.6,64.9,29.7,64.9 M99.5,23.2
					c0.1,3.2,0.2,6.3,0.3,9.5s0.1,6.3,0.2,9.4c0.1,3.1,0.1,6.3,0.2,9.4c0.1,3.1,0.1,6.3,0.2,9.4c-2.9-0.2-5.8-0.2-8.7-0.3
					c-2.9,0-5.8,0-8.7,0.1s-5.8,0.2-8.7,0.3c-2.9,0.1-5.8,0.2-8.7,0.4c-2.9,0.1-5.7,0.2-8.6,0.3c-2.9,0.1-5.7,0.1-8.6,0.2
					S42.6,62,39.7,62c-2.9,0-5.7,0.1-8.6,0.1c0-3.2-0.1-6.5-0.1-9.7c0-3.2-0.1-6.5-0.2-9.7c0-3.2-0.1-6.5-0.1-9.7
					c0-3.2-0.1-6.5-0.1-9.7c5.7-0.1,11.5-0.1,17.2,0s11.5,0.1,17.2,0.1c5.7,0,11.5,0.1,17.2,0.1C88,23.3,93.7,23.3,99.5,23.2"/>
				<path id="Path_14114" class="st8" d="M77.9,82.9c-0.1-0.1-0.1-0.3-0.2-0.4c-0.1-0.1-0.2-0.2-0.3-0.3c-0.1-0.1-0.2-0.2-0.4-0.2
					c-0.1-0.1-0.3-0.1-0.4-0.1c-1.9-0.1-3.8-0.2-5.6-0.2c-1.9,0-3.8,0-5.6,0.1c-1.9,0.1-3.8,0.1-5.6,0.2c-1.9,0.1-3.8,0.1-5.6,0.1
					c-0.2,0-0.3,0-0.5,0.1c-0.1,0-0.3,0.1-0.4,0.2c-0.1,0.1-0.2,0.2-0.3,0.3c-0.1,0.1-0.2,0.3-0.2,0.4c-0.2,0.6-0.5,1.2-0.7,1.8
					c-0.2,0.6-0.4,1.2-0.6,1.8s-0.3,1.2-0.5,1.8c-0.2,0.6-0.3,1.2-0.4,1.9c0,0.1,0,0.1,0,0.2c0,0.1,0,0.1,0,0.2c0,0.1,0,0.1,0,0.2
					c0,0.1,0,0.1,0.1,0.2c0,0.1,0.1,0.2,0.2,0.4c0.1,0.1,0.2,0.2,0.3,0.3c0.1,0.1,0.2,0.2,0.4,0.2c0.2,0.1,0.3,0.1,0.5,0.1
					c2.3,0,4.6,0,6.9,0.1s4.6,0.1,7,0.1c2.3,0,4.7,0,7-0.2c2.3-0.1,4.6-0.4,6.8-0.7c0.2,0,0.3-0.1,0.5-0.2c0.1-0.1,0.3-0.3,0.4-0.4
					c0.1-0.2,0.2-0.3,0.2-0.5c0-0.2,0-0.4,0-0.5c-0.2-0.6-0.4-1.1-0.6-1.7c-0.2-0.6-0.4-1.1-0.6-1.7c-0.2-0.6-0.4-1.1-0.6-1.7
					C78.3,84.1,78.1,83.5,77.9,82.9 M53.6,89.4c0.1-0.3,0.2-0.6,0.3-0.8c0.1-0.3,0.2-0.6,0.3-0.8c0.1-0.3,0.2-0.6,0.2-0.8
					c0.1-0.3,0.1-0.6,0.2-0.8l0.1-0.3l0.1-0.3l0.1-0.3l0.1-0.3h0h0h0h0c0.9-0.1,1.8-0.1,2.7-0.2c0.9,0,1.8-0.1,2.7-0.1
					c0.9,0,1.8,0,2.7-0.1s1.8,0,2.7-0.1c0.8,0,1.6-0.1,2.4-0.1c0.8,0,1.6-0.1,2.5-0.1s1.6,0,2.4,0c0.8,0,1.6,0.1,2.4,0.2l0.1,0
					l0.1,0.3l0.1,0.3l0.1,0.3l0.1,0.3c0,0.2,0.1,0.5,0.2,0.7c0.1,0.3,0.2,0.5,0.2,0.8c0.1,0.3,0.2,0.5,0.3,0.8
					c0.1,0.3,0.2,0.5,0.3,0.8c-1.9,0.2-3.9,0.4-5.8,0.5c-2,0.1-3.9,0.1-5.9,0.1c-2,0-4-0.1-5.9-0.1C57.5,89.5,55.5,89.4,53.6,89.4"
					/>
				<path id="Path_14115" class="st8" d="M64.3,18.9c0.4,0,0.7-0.1,1-0.4c0.2-0.3,0.3-0.6,0.3-0.9c0-0.3-0.1-0.7-0.3-0.9
					c-0.2-0.3-0.6-0.4-1-0.4c-0.4,0-0.7,0.1-1,0.4c-0.2,0.3-0.3,0.6-0.3,0.9c0,0.3,0.1,0.7,0.3,0.9C63.6,18.7,64,18.9,64.3,18.9"/>
				<path id="Path_14116" class="st8" d="M32.7,51.1c0.3,0.4,0.5,0.8,0.8,1.2c0.3,0.4,0.5,0.8,0.8,1.2c0.3,0.4,0.6,0.8,0.8,1.2
					c0.3,0.4,0.6,0.8,0.9,1.2c0.1,0.1,0.2,0.3,0.4,0.4c0.1,0.1,0.3,0.2,0.5,0.2c0.2,0.1,0.3,0.1,0.5,0c0.2,0,0.4-0.1,0.5-0.2
					c0.2-0.1,0.3-0.2,0.4-0.3c0.1-0.1,0.2-0.3,0.2-0.5c0.1-0.2,0.1-0.4,0.1-0.5c0-0.2-0.1-0.4-0.2-0.5c-0.3-0.4-0.6-0.8-0.9-1.2
					c-0.3-0.4-0.6-0.8-0.8-1.2c-0.3-0.4-0.6-0.8-0.8-1.2c-0.3-0.4-0.5-0.8-0.8-1.2c-0.2-0.3-0.5-0.6-0.9-0.6c-0.3-0.1-0.7,0-1,0.2
					c-0.3,0.2-0.5,0.4-0.6,0.8C32.4,50.4,32.5,50.8,32.7,51.1"/>
				<path id="Path_14117" class="st8" d="M41.5,55.6c0.2,0.3,0.6,0.4,1,0.4c0.3,0,0.7-0.2,0.9-0.4c0.2-0.2,0.4-0.6,0.4-0.9
					c0-0.4-0.1-0.8-0.4-1l-1.1-1.1l-1.1-1.1l-1.1-1.1l-1.1-1.1c-0.2-0.3-0.6-0.4-1-0.4c-0.3,0-0.7,0.2-0.9,0.4
					c-0.2,0.2-0.4,0.6-0.4,0.9c0,0.4,0.1,0.8,0.4,1l1.1,1.1l1.1,1.1l1.1,1.1L41.5,55.6"/>
			</g>
		</g>
	</g>
	<g id="Group_24925" transform="translate(43.077 207.554)">
		<path id="https:_www.mysite.com" class="st8" d="M0.3,14.6h0.5v-1.2c0-0.1,0-0.2,0-0.2c0-0.1,0.1-0.1,0.1-0.2c0,0,0.1-0.1,0.2-0.1
			c0.1,0,0.1,0,0.2,0c0.1,0,0.1,0,0.2,0c0.1,0,0.1,0.1,0.2,0.1c0,0,0.1,0.1,0.1,0.2c0,0.1,0,0.2,0,0.2v1.2h0.5v-1.3
			c0-0.1,0-0.3-0.1-0.4c0-0.1-0.1-0.2-0.2-0.3c-0.1-0.1-0.2-0.1-0.3-0.2c-0.1,0-0.2-0.1-0.3-0.1c-0.1,0-0.1,0-0.2,0
			c-0.1,0-0.1,0-0.2,0.1c-0.1,0-0.1,0.1-0.2,0.1c0,0-0.1,0.1-0.1,0.1v-1H0.3V14.6z M2.9,13.9c0,0.1,0,0.2,0,0.3
			c0,0.1,0.1,0.2,0.1,0.2c0.1,0.1,0.1,0.1,0.2,0.1c0.1,0,0.2,0,0.3,0H4v-0.5H3.7c0,0-0.1,0-0.1,0c0,0-0.1,0-0.1,0c0,0,0,0,0-0.1
			c0,0,0-0.1,0-0.1v-1H4v-0.4H3.5v-0.5H2.9v0.5H2.7v0.4h0.3L2.9,13.9z M4.4,13.9c0,0.1,0,0.2,0.1,0.3c0,0.1,0.1,0.2,0.1,0.2
			c0.1,0.1,0.1,0.1,0.2,0.1c0.1,0,0.2,0,0.3,0h0.3v-0.5H5.2c0,0-0.1,0-0.1,0c0,0-0.1,0-0.1,0c0,0,0,0,0-0.1c0,0,0-0.1,0-0.1v-1h0.5
			v-0.4H5v-0.5H4.4v0.5H4.2v0.4h0.3V13.9z M6.4,12.8v-0.3H5.9v3.2h0.5v-1.3c0,0,0.1,0.1,0.1,0.1c0,0,0.1,0.1,0.2,0.1
			c0.1,0,0.1,0.1,0.2,0.1c0.2,0.1,0.4,0,0.6-0.1c0.1-0.1,0.2-0.1,0.3-0.2C7.9,14.2,8,14.1,8.1,14c0.1-0.1,0.1-0.3,0.1-0.5
			c0-0.2,0-0.3-0.1-0.5c0-0.1-0.1-0.2-0.2-0.3c-0.1-0.1-0.2-0.2-0.3-0.2c-0.1-0.1-0.3-0.1-0.4-0.1c-0.1,0-0.2,0-0.2,0
			c-0.1,0-0.1,0-0.2,0.1c-0.1,0-0.1,0.1-0.2,0.1C6.5,12.7,6.5,12.7,6.4,12.8z M7.6,13.5c0,0.1,0,0.2,0,0.3c0,0.1-0.1,0.1-0.1,0.2
			c-0.1,0.1-0.2,0.2-0.4,0.2c-0.1,0-0.1,0-0.2,0c-0.1,0-0.1-0.1-0.2-0.1c-0.1-0.1-0.1-0.1-0.1-0.2c-0.1-0.2-0.1-0.4,0-0.5
			c0-0.1,0.1-0.1,0.1-0.2C6.7,13,6.7,13,6.8,12.9c0.1,0,0.1,0,0.2,0c0.1,0,0.1,0,0.2,0C7.3,13,7.3,13,7.4,13
			c0.1,0.1,0.1,0.1,0.1,0.2C7.6,13.3,7.6,13.4,7.6,13.5L7.6,13.5z M10.2,14c0-0.2-0.1-0.3-0.2-0.4c-0.1-0.1-0.3-0.2-0.4-0.2
			c-0.2,0-0.3-0.1-0.4-0.1S9,13.1,9,13C9,13,9,13,9,13c0,0,0,0,0.1-0.1c0,0,0.1,0,0.1,0c0,0,0.1,0,0.1,0c0,0,0.1,0,0.1,0
			c0,0,0.1,0,0.1,0.1c0,0,0.1,0.1,0.1,0.1c0,0,0,0.1,0,0.1h0.5c0-0.1,0-0.2-0.1-0.3c0-0.1-0.1-0.2-0.2-0.2c-0.1-0.1-0.2-0.1-0.3-0.1
			c-0.1,0-0.2-0.1-0.4-0.1c-0.1,0-0.2,0-0.4,0.1c-0.1,0-0.2,0.1-0.3,0.1c-0.1,0.1-0.1,0.1-0.2,0.2c0,0.1-0.1,0.2-0.1,0.3
			c0,0.2,0.1,0.3,0.2,0.4c0.1,0.1,0.3,0.2,0.4,0.2c0.2,0,0.3,0.1,0.4,0.1c0.1,0,0.2,0.1,0.2,0.2c0,0,0,0.1,0,0.1c0,0,0,0.1-0.1,0.1
			c0,0-0.1,0-0.1,0c0,0-0.1,0-0.1,0c-0.1,0-0.1,0-0.1,0c0,0-0.1,0-0.1-0.1c0,0-0.1-0.1-0.1-0.1c0,0,0-0.1,0-0.1H8.4
			c0,0.1,0,0.2,0.1,0.3c0.1,0.1,0.1,0.2,0.2,0.2c0.1,0.1,0.2,0.1,0.3,0.2c0.1,0,0.2,0.1,0.4,0.1c0.1,0,0.2,0,0.4-0.1
			c0.1,0,0.2-0.1,0.3-0.1c0.1-0.1,0.1-0.1,0.2-0.2C10.2,14.2,10.2,14.1,10.2,14L10.2,14z M11.2,14.3c0,0,0-0.1,0-0.1
			c0,0,0-0.1-0.1-0.1c0,0-0.1-0.1-0.1-0.1c0,0-0.1,0-0.1,0c0,0-0.1,0-0.1,0c0,0-0.1,0-0.1,0.1c0,0-0.1,0.1-0.1,0.1
			c0,0.1,0,0.2,0,0.3c0,0,0,0.1,0.1,0.1c0,0,0.1,0.1,0.1,0.1c0,0,0.1,0,0.1,0c0,0,0.1,0,0.1,0c0,0,0.1,0,0.1-0.1
			c0,0,0.1-0.1,0.1-0.1C11.2,14.4,11.2,14.4,11.2,14.3L11.2,14.3z M11.2,12.7c0,0,0-0.1,0-0.1c0,0,0-0.1-0.1-0.1
			c0,0-0.1-0.1-0.1-0.1c0,0-0.1,0-0.1,0c0,0-0.1,0-0.1,0c0,0-0.1,0-0.1,0.1c0,0-0.1,0.1-0.1,0.1c0,0.1,0,0.2,0,0.3
			c0,0,0,0.1,0.1,0.1c0,0,0.1,0.1,0.1,0.1c0,0,0.1,0,0.1,0c0,0,0.1,0,0.1,0c0,0,0.1,0,0.1-0.1c0,0,0.1-0.1,0.1-0.1
			C11.2,12.8,11.2,12.7,11.2,12.7L11.2,12.7z M11.6,15.3h0.5l1.1-4.4h-0.5L11.6,15.3z M13.5,15.3H14l1.1-4.4h-0.5L13.5,15.3z
			 M15.9,14.6h0.6l0.4-1.5l0.4,1.5h0.6l0.6-2.2h-0.5l-0.4,1.6l-0.4-1.6h-0.6l-0.4,1.6l-0.4-1.6h-0.6L15.9,14.6z M19.2,14.6h0.6
			l0.4-1.5l0.4,1.5h0.6l0.6-2.2h-0.5l-0.4,1.6l-0.4-1.6h-0.6l-0.4,1.6l-0.4-1.6h-0.6L19.2,14.6z M22.5,14.6h0.6l0.4-1.5l0.4,1.5h0.6
			l0.6-2.2h-0.5l-0.4,1.6l-0.4-1.6h-0.6l-0.4,1.6l-0.4-1.6h-0.6L22.5,14.6z M25.9,14.3c0,0,0-0.1,0-0.1c0,0,0-0.1-0.1-0.1
			c0,0-0.1-0.1-0.1-0.1c0,0-0.1,0-0.1,0c0,0-0.1,0-0.1,0c0,0-0.1,0-0.1,0.1c0,0-0.1,0.1-0.1,0.1c0,0.1,0,0.2,0,0.3
			c0,0,0,0.1,0.1,0.1c0,0,0.1,0.1,0.1,0.1c0,0,0.1,0,0.1,0c0,0,0.1,0,0.1,0c0,0,0.1,0,0.1-0.1c0,0,0.1-0.1,0.1-0.1
			C25.9,14.4,25.9,14.4,25.9,14.3L25.9,14.3z M29.4,14.6h0.5v-1.3c0-0.1,0-0.3-0.1-0.4c0-0.1-0.1-0.2-0.2-0.3
			c-0.1-0.1-0.2-0.1-0.3-0.2c-0.1,0-0.2-0.1-0.4-0.1c-0.2,0-0.3,0-0.4,0.1c-0.1,0-0.1,0.1-0.2,0.1c-0.1,0-0.1,0.1-0.1,0.2
			c0-0.1-0.1-0.1-0.1-0.2c-0.1-0.1-0.1-0.1-0.2-0.1c-0.1,0-0.1-0.1-0.2-0.1c-0.1,0-0.2,0-0.2,0c-0.1,0-0.1,0-0.2,0
			c-0.1,0-0.1,0-0.2,0.1c-0.1,0-0.1,0.1-0.1,0.1c0,0-0.1,0.1-0.1,0.1v-0.3h-0.5v2.2h0.5v-1.2c0-0.1,0-0.2,0-0.2
			c0-0.1,0.1-0.1,0.1-0.2c0,0,0.1-0.1,0.2-0.1c0.1,0,0.1,0,0.2,0c0.1,0,0.1,0,0.2,0c0.1,0,0.1,0.1,0.2,0.1c0,0,0.1,0.1,0.1,0.2
			c0,0.1,0,0.1,0,0.2v1.2h0.5v-1.2c0-0.1,0-0.2,0-0.2c0-0.1,0.1-0.1,0.1-0.2c0,0,0.1-0.1,0.2-0.1c0.1,0,0.1,0,0.2,0
			c0.1,0,0.1,0,0.2,0c0.1,0,0.1,0.1,0.2,0.1c0,0,0.1,0.1,0.1,0.2c0,0.1,0,0.1,0,0.2L29.4,14.6z M31.4,13.9l-0.6-1.5h-0.6l0.9,2.1
			l-0.5,1.1h0.6l1.3-3.2H32L31.4,13.9z M34.5,14c0-0.2-0.1-0.3-0.2-0.4c-0.1-0.1-0.3-0.2-0.4-0.2c-0.2,0-0.3-0.1-0.4-0.1
			s-0.2-0.1-0.2-0.2c0,0,0-0.1,0-0.1c0,0,0,0,0.1-0.1c0,0,0.1,0,0.1,0c0,0,0.1,0,0.1,0c0,0,0.1,0,0.1,0c0,0,0.1,0,0.1,0.1
			c0,0,0.1,0.1,0.1,0.1c0,0,0,0.1,0,0.1h0.5c0-0.1,0-0.2-0.1-0.3c0-0.1-0.1-0.2-0.2-0.2c-0.1-0.1-0.2-0.1-0.3-0.1
			c-0.1,0-0.2-0.1-0.4-0.1c-0.1,0-0.2,0-0.4,0.1c-0.1,0-0.2,0.1-0.3,0.1c-0.1,0.1-0.1,0.1-0.2,0.2c0,0.1-0.1,0.2-0.1,0.3
			c0,0.2,0.1,0.3,0.2,0.4c0.1,0.1,0.3,0.2,0.4,0.2c0.2,0,0.3,0.1,0.4,0.1c0.1,0,0.2,0.1,0.2,0.2c0,0,0,0.1,0,0.1c0,0,0,0.1-0.1,0.1
			c0,0-0.1,0-0.1,0c0,0-0.1,0-0.1,0c-0.1,0-0.1,0-0.2,0c0,0-0.1,0-0.1-0.1c0,0-0.1-0.1-0.1-0.1c0,0,0-0.1,0-0.1h-0.5
			c0,0.1,0,0.2,0.1,0.3c0.1,0.1,0.1,0.2,0.2,0.2c0.1,0.1,0.2,0.1,0.3,0.2c0.1,0,0.2,0.1,0.4,0.1c0.1,0,0.2,0,0.4-0.1
			c0.1,0,0.2-0.1,0.3-0.1c0.1-0.1,0.1-0.1,0.2-0.2C34.5,14.2,34.5,14.1,34.5,14L34.5,14z M35,14.6h0.5v-2.2H35L35,14.6z M35.2,12.2
			c0,0,0.1,0,0.1,0c0,0,0.1,0,0.1-0.1c0,0,0.1-0.1,0.1-0.1c0-0.1,0-0.2,0-0.3c0,0,0-0.1-0.1-0.1c0,0-0.1-0.1-0.1-0.1
			c0,0-0.1,0-0.1,0c0,0-0.1,0-0.1,0c0,0-0.1,0-0.1,0.1c0,0-0.1,0.1-0.1,0.1c0,0.1,0,0.2,0,0.3c0,0,0,0.1,0.1,0.1
			c0,0,0.1,0.1,0.1,0.1C35.1,12.2,35.2,12.2,35.2,12.2L35.2,12.2z M36.1,13.9c0,0.1,0,0.2,0,0.3c0,0.1,0.1,0.2,0.1,0.2
			c0.1,0.1,0.1,0.1,0.2,0.1c0.1,0,0.2,0,0.3,0h0.3v-0.5h-0.3c0,0-0.1,0-0.1,0c0,0-0.1,0-0.1,0c0,0,0,0,0-0.1c0,0,0-0.1,0-0.1v-1h0.5
			v-0.4h-0.5v-0.5h-0.5v0.5h-0.3v0.4h0.3L36.1,13.9z M38.5,12.9c0.1,0,0.1,0,0.2,0c0.1,0,0.1,0.1,0.2,0.1c0,0,0.1,0.1,0.1,0.1
			c0,0.1,0,0.1,0,0.2h-1c0-0.1,0-0.1,0.1-0.2c0-0.1,0.1-0.1,0.1-0.1c0,0,0.1-0.1,0.2-0.1C38.4,12.9,38.4,12.9,38.5,12.9L38.5,12.9z
			 M39.5,13.9h-0.6c0,0,0,0.1-0.1,0.1c0,0-0.1,0.1-0.1,0.1c0,0-0.1,0-0.1,0.1c-0.1,0-0.1,0-0.2,0c-0.1,0-0.1,0-0.2,0
			c-0.1,0-0.1-0.1-0.2-0.1c0,0-0.1-0.1-0.1-0.2c0-0.1,0-0.1-0.1-0.2h1.6c0,0,0,0,0-0.1c0,0,0,0,0-0.1c0,0,0,0,0-0.1c0,0,0,0,0-0.1
			c0-0.1,0-0.3-0.1-0.4c-0.1-0.3-0.3-0.5-0.6-0.6c-0.1-0.1-0.3-0.1-0.4-0.1c-0.2,0-0.3,0-0.4,0.1c-0.1,0-0.2,0.1-0.3,0.2
			c-0.1,0.1-0.2,0.2-0.2,0.4c-0.1,0.1-0.1,0.3-0.1,0.5c0,0.2,0,0.3,0.1,0.5c0.1,0.1,0.1,0.3,0.2,0.4c0.1,0.1,0.2,0.2,0.3,0.2
			c0.3,0.1,0.5,0.1,0.8,0c0.1,0,0.2-0.1,0.3-0.2c0.1-0.1,0.2-0.1,0.2-0.2C39.4,14.1,39.5,14,39.5,13.9L39.5,13.9z M40.5,14.3
			c0,0,0-0.1,0-0.1c0,0,0-0.1-0.1-0.1c0,0-0.1-0.1-0.1-0.1c0,0-0.1,0-0.1,0c0,0-0.1,0-0.1,0c0,0-0.1,0-0.1,0.1c0,0-0.1,0.1-0.1,0.1
			c0,0.1,0,0.2,0,0.3c0,0,0,0.1,0.1,0.1c0,0,0.1,0.1,0.1,0.1c0,0,0.1,0,0.1,0c0,0,0.1,0,0.1,0c0,0,0.1,0,0.1-0.1
			c0,0,0.1-0.1,0.1-0.1C40.5,14.4,40.5,14.4,40.5,14.3L40.5,14.3z M40.8,13.5c0,0.2,0,0.3,0.1,0.5c0,0.1,0.1,0.3,0.2,0.4
			c0.1,0.1,0.2,0.2,0.3,0.2c0.1,0.1,0.3,0.1,0.4,0.1c0.1,0,0.3,0,0.4-0.1c0.1,0,0.2-0.1,0.3-0.2c0.1-0.1,0.2-0.1,0.2-0.2
			c0.1-0.1,0.1-0.2,0.1-0.3h-0.6c0,0,0,0.1-0.1,0.1c0,0-0.1,0.1-0.1,0.1c0,0-0.1,0-0.1,0.1c-0.1,0-0.1,0-0.2,0c-0.1,0-0.1,0-0.2,0
			c-0.1,0-0.1-0.1-0.2-0.1c0-0.1-0.1-0.1-0.1-0.2c0-0.2,0-0.4,0-0.6c0-0.1,0.1-0.1,0.1-0.2c0-0.1,0.1-0.1,0.2-0.1c0.1,0,0.1,0,0.2,0
			c0.1,0,0.1,0,0.2,0c0,0,0.1,0,0.1,0.1c0,0,0.1,0.1,0.1,0.1c0,0,0,0.1,0.1,0.1h0.6c0-0.1-0.1-0.2-0.1-0.3c-0.1-0.1-0.1-0.2-0.2-0.2
			c-0.1-0.1-0.2-0.1-0.3-0.1c-0.1,0-0.2-0.1-0.4-0.1c-0.1,0-0.3,0-0.4,0.1c-0.1,0.1-0.2,0.1-0.3,0.2c-0.1,0.1-0.2,0.2-0.2,0.4
			C40.9,13.2,40.8,13.4,40.8,13.5L40.8,13.5z M45.4,13.5c0-0.2,0-0.3-0.1-0.5c-0.1-0.1-0.1-0.3-0.2-0.4c-0.1-0.1-0.2-0.2-0.4-0.2
			c-0.3-0.1-0.6-0.1-0.9,0c-0.1,0.1-0.3,0.1-0.4,0.2c-0.1,0.1-0.2,0.2-0.2,0.4c-0.1,0.1-0.1,0.3-0.1,0.5c0,0.2,0,0.3,0.1,0.5
			c0.1,0.3,0.3,0.5,0.6,0.6c0.1,0.1,0.3,0.1,0.4,0.1c0.2,0,0.3,0,0.4-0.1c0.1-0.1,0.3-0.1,0.4-0.2c0.1-0.1,0.2-0.2,0.2-0.4
			C45.4,13.8,45.4,13.7,45.4,13.5L45.4,13.5z M43.7,13.5c0-0.1,0-0.2,0-0.3c0-0.1,0.1-0.1,0.1-0.2c0-0.1,0.1-0.1,0.2-0.1
			c0.1,0,0.1,0,0.2,0c0.1,0,0.1,0,0.2,0c0.1,0,0.1,0.1,0.2,0.1c0.1,0.1,0.1,0.1,0.1,0.2c0,0.1,0,0.2,0,0.3c0,0.1,0,0.2-0.1,0.3
			c0,0.1-0.1,0.1-0.1,0.2c-0.1,0.1-0.1,0.1-0.2,0.1c-0.1,0-0.1,0-0.2,0c-0.1,0-0.1,0-0.2,0c-0.1,0-0.1-0.1-0.2-0.1
			c-0.1-0.1-0.1-0.1-0.1-0.2C43.8,13.7,43.7,13.6,43.7,13.5L43.7,13.5z M48.8,14.6h0.5v-1.3c0-0.1,0-0.3-0.1-0.4
			c0-0.1-0.1-0.2-0.2-0.3c-0.1-0.1-0.2-0.1-0.3-0.2c-0.1,0-0.2-0.1-0.4-0.1c-0.2,0-0.3,0-0.4,0.1c-0.1,0-0.1,0.1-0.2,0.1
			c-0.1,0-0.1,0.1-0.1,0.2c0-0.1-0.1-0.1-0.1-0.2c-0.1-0.1-0.1-0.1-0.2-0.1c-0.1,0-0.1-0.1-0.2-0.1c-0.1,0-0.2,0-0.2,0
			c-0.1,0-0.1,0-0.2,0c-0.1,0-0.1,0-0.2,0.1c-0.1,0-0.1,0.1-0.1,0.1c0,0-0.1,0.1-0.1,0.1v-0.3h-0.5v2.2h0.5v-1.2c0-0.1,0-0.2,0-0.2
			c0-0.1,0.1-0.1,0.1-0.2c0,0,0.1-0.1,0.2-0.1c0.1,0,0.1,0,0.2,0c0.1,0,0.1,0,0.2,0c0.1,0,0.1,0.1,0.2,0.1c0,0,0.1,0.1,0.1,0.2
			c0,0.1,0,0.1,0,0.2v1.2h0.5v-1.2c0-0.1,0-0.2,0-0.2c0-0.1,0.1-0.1,0.1-0.2c0,0,0.1-0.1,0.2-0.1c0.1,0,0.1,0,0.2,0
			c0.1,0,0.1,0,0.2,0c0.1,0,0.1,0.1,0.2,0.1c0,0,0.1,0.1,0.1,0.2c0,0.1,0,0.1,0,0.2L48.8,14.6z"/>
	</g>
	<g id="Group_24909" transform="translate(281.091 219.134)">
		<g id="Group_24908">
			<g id="Group_24901" transform="translate(10.32 10.195)">
				<g id="Group_24911">
					<path id="Path_14154" class="st0" d="M2,12.3h57.4c0,0,0,0.7,0.1,2.1s0.1,3.2,0.2,5.4s0.1,4.9,0,7.7s-0.1,5.9-0.3,8.9
						c-0.1,1.8-0.1,3.5-0.1,5.1c0,1.7,0,3.3-0.1,5c-0.1,1.7-0.4,3.3-0.8,4.9c-0.5,1.8-1.2,3.4-2.2,5c-0.5,0.5-1.2,0.9-1.9,1.1
						c-0.9,0.3-1.7,0.4-2.6,0.5c-0.9,0.1-1.9,0.2-2.8,0.3s-1.8,0.1-2.5,0.3c-1.2,0.2-2.3,0.3-3.5,0.3c-1.2,0-2.4,0-3.7,0
						s-2.5-0.1-3.9-0.2s-2.7-0.1-4-0.1c-2.1,0-4.2,0.1-6.4,0.1s-4.4,0-6.5-0.1c-2.1-0.1-4.2-0.3-6.3-0.7c-2-0.3-4-0.8-5.9-1.5
						C5,55.6,4,54.3,3.5,52.9c-0.6-1.6-1-3.3-1.1-5.1C2.2,46,2.2,44,2.2,42.1c0-1.9,0-3.8-0.1-5.6c-0.2-3-0.3-6.1-0.4-8.9
						s0-5.5,0-7.7s0.1-4.2,0.2-5.5S2,12.3,2,12.3z"/>
				</g>
			</g>
			<path id="Path_14145" class="st1" d="M4.9,22.7h75l-6.4-11.5H8.4L1,22.7H4.9z"/>
		</g>
	</g>
	<g id="Group_24800" transform="translate(135.343 127.66)" class="st9">
		
			<linearGradient id="Polygon_1_00000156582578950543298560000003964185511592088227_" gradientUnits="userSpaceOnUse" x1="-582.6913" y1="406.3233" x2="-582.6913" y2="407.0634" gradientTransform="matrix(143.1 0 0 -141.053 83454.6875 57464.875)">
			<stop  offset="0" style="stop-color:#FEEAE7;stop-opacity:0"/>
			<stop  offset="1" style="stop-color:#C8CDFF"/>
		</linearGradient>
		
			<path id="Polygon_1" style="opacity:0.88;fill:url(#Polygon_1_00000156582578950543298560000003964185511592088227_);enable-background:new    ;" d="
			M71.6,10.7l71.5,141.1H0L71.6,10.7z"/>
	</g>
	<g id="Group_24805" transform="translate(386.835 177.99)">
		<path id="Union_2" class="st4" d="M20.6,20.5L9.3,24.1c-0.2,0.1-0.3,0.1-0.5,0.2s-0.3,0.1-0.5,0.2S8,24.7,7.9,24.8
			c-0.2,0.1-0.3,0.2-0.5,0.3c-0.2,0.1-0.3,0.2-0.4,0.3s-0.3,0.2-0.4,0.4c-0.1,0.1-0.3,0.2-0.4,0.4s-0.3,0.3-0.4,0.4
			c-0.1,0.1-0.2,0.3-0.4,0.4c-0.1,0.1-0.2,0.3-0.3,0.4c-0.1,0.1-0.2,0.3-0.3,0.4c-0.1,0.2-0.2,0.3-0.3,0.5c-0.1,0.2-0.2,0.3-0.2,0.5
			c-0.1,0.2-0.1,0.3-0.2,0.5C4,29.4,4,29.5,3.9,29.7c0,0.2-0.1,0.3-0.1,0.5l-1.6,8.5c0,0.2-0.1,0.3-0.1,0.5c0,0.1,0,0.3,0,0.4
			c0,0.1,0,0.3,0,0.4c0,0.1,0,0.3,0.1,0.4c0,0.1,0.1,0.2,0.1,0.3c0,0.1,0.1,0.2,0.2,0.3c0.1,0.1,0.1,0.2,0.2,0.3
			c0.1,0.1,0.2,0.2,0.2,0.2c0.1,0.1,0.2,0.1,0.3,0.2c0.1,0.1,0.2,0.1,0.3,0.2c0.1,0,0.2,0.1,0.3,0.1c0.1,0,0.3,0.1,0.4,0.1
			c0.1,0,0.3,0,0.4,0c0.1,0,0.3,0,0.4,0c0.1,0,0.3,0,0.5-0.1c0.2,0,0.3-0.1,0.5-0.1l16.5-5.1c0.2-0.1,0.3-0.1,0.5-0.2
			c0.2-0.1,0.3-0.1,0.5-0.2c0.2-0.1,0.3-0.2,0.5-0.3c0.2-0.1,0.3-0.2,0.5-0.3c0.2-0.1,0.3-0.2,0.5-0.3c0.2-0.1,0.3-0.2,0.4-0.4
			c0.1-0.1,0.3-0.3,0.4-0.4c0.1-0.1,0.3-0.3,0.4-0.4s0.3-0.3,0.4-0.4c0.1-0.1,0.2-0.3,0.4-0.4c0.1-0.2,0.2-0.3,0.3-0.5
			c0.1-0.2,0.2-0.3,0.3-0.5c0.1-0.2,0.2-0.3,0.2-0.5s0.1-0.3,0.2-0.5c0.1-0.2,0.1-0.3,0.2-0.5c0-0.2,0.1-0.3,0.1-0.5l1.4-8.6
			c0-0.2,0-0.3,0.1-0.5c0-0.1,0-0.3,0-0.4c0-0.1,0-0.3,0-0.4c0-0.1-0.1-0.2-0.1-0.4c0-0.1-0.1-0.2-0.1-0.3c-0.1-0.1-0.1-0.2-0.2-0.3
			c-0.1-0.2-0.3-0.3-0.5-0.5c-0.1-0.1-0.2-0.1-0.3-0.2c-0.1-0.1-0.2-0.1-0.3-0.1c-0.1,0-0.2-0.1-0.4-0.1c-0.1,0-0.3,0-0.4,0
			c-0.1,0-0.3,0-0.4,0c-0.1,0-0.3,0-0.4,0c-0.1,0-0.3,0-0.4,0.1c-0.1,0-0.3,0.1-0.4,0.1l0.6-3.8L20.6,20.5z"/>
		<path id="Line_621-2" class="st11" d="M7.3,35.9l16.1-5.1"/>
		<path id="Line_622-2" class="st11" d="M8.2,31.2l8.2-2.6"/>
	</g>
	<g id="Group_24919" transform="translate(10.968 92.576)">
		<path id="Path_14158" class="st7" d="M446.8,77.8l4.8,1.7l-4.8,1.7l-1.7,4.8l-1.7-4.8l-4.8-1.7l4.8-1.7l1.7-4.8L446.8,77.8z"/>
		<path id="Path_14157" class="st8" d="M433.1,121.9l6.7,2.4l-6.7,2.4l-2.4,6.7l-2.4-6.7l-6.7-2.4l6.7-2.4l2.4-6.7L433.1,121.9z"/>
		<g id="Group_6625" transform="translate(0 51.995)">
			<path id="Path_251" class="st7" d="M8.2,27.1c-4.5,0-8.2-3.7-8.2-8.2c0-3.3,2-6.3,5-7.6c4.2-1.7,9,0.3,10.7,4.5
				c1.7,4.1-0.2,8.9-4.3,10.7C10.4,26.9,9.3,27.1,8.2,27.1z M8.2,15c-2.2,0-3.9,1.7-3.9,3.9c0,2.2,1.7,3.9,3.9,3.9
				c0.5,0,1-0.1,1.5-0.3c0.9-0.4,1.7-1.1,2.1-2.1c0.4-1,0.4-2.1,0-3C11.2,15.9,9.8,15,8.2,15z"/>
		</g>
		<g id="Group_24920" transform="translate(434.763 15.836)">
			<path id="Path_251-2" class="st7" d="M5.2,21C2.3,21,0,18.7,0,15.9c0-2.1,1.2-3.9,3.2-4.8c2.6-1.1,5.7,0.2,6.7,2.8
				c1.1,2.6-0.1,5.6-2.7,6.7C6.5,20.9,5.9,21,5.2,21z M5.2,13.4c-1.4,0-2.5,1.1-2.5,2.5c0,1.4,1.1,2.5,2.5,2.5c0.3,0,0.7-0.1,1-0.2
				c0.6-0.3,1.1-0.7,1.3-1.3c0.3-0.6,0.3-1.3,0-1.9C7.1,14,6.2,13.4,5.2,13.4L5.2,13.4z"/>
		</g>
		<g id="Group_24921" transform="translate(384.82)">
			<path id="Path_251-3" class="st8" d="M7.9,26.5C3.5,26.5,0,23,0,18.6c0-3.2,1.9-6,4.8-7.3c4-1.7,8.7,0.2,10.4,4.2
				S15,24.2,11,25.9l0,0C10,26.3,9,26.5,7.9,26.5z M7.9,14.9c-2.1,0-3.8,1.7-3.8,3.8c0,2.1,1.7,3.8,3.8,3.8c0.5,0,1-0.1,1.5-0.3
				c0.9-0.4,1.6-1.1,2-2c0.4-0.9,0.4-2,0-2.9C10.8,15.8,9.4,14.9,7.9,14.9L7.9,14.9z"/>
		</g>
		<g id="Group_23856" transform="translate(5.71 0)">
			<path id="Path_251-4" class="st8" d="M5.4,21.4C2.4,21.4,0,19,0,16c0-2.1,1.3-4.1,3.3-4.9c2.7-1.1,5.9,0.2,7,2.9
				c1.1,2.7-0.1,5.8-2.8,6.9C6.8,21.3,6.1,21.4,5.4,21.4z M5.4,13.5c-1.4,0-2.5,1.1-2.5,2.5c0,1.4,1.1,2.5,2.5,2.5
				c0.3,0,0.7-0.1,1-0.2C7,18.1,7.4,17.7,7.7,17c0.3-0.6,0.3-1.3,0-2C7.3,14.1,6.4,13.5,5.4,13.5z"/>
		</g>
		<g id="Group_23855" transform="translate(49.67 19.774)">
			<path id="Path_3384" class="st7" d="M26.5,22.4c0,0-1.6,1.5-4.1,3.6s-5.7,5.1-9,8s-6.6,5.8-9.1,7.9S0.1,45.4,0,45.3
				c-0.1-0.1,1.3-1.7,3.6-4s5.3-5.4,8.4-8.4s6.2-6.1,8.5-8.4s3.9-3.8,3.9-3.8L26.5,22.4z"/>
			<path id="Path_3385" class="st7" d="M27.8,17.1c0,0,0.4,0.1,1,0.2c0.6,0.1,1.4,0.3,2.2,0.5c0.8,0.2,1.5,0.4,2.2,0.7
				c0.6,0.3,1,0.6,1,0.9c0,0.3-0.4,0.6-1,0.9c-0.7,0.3-1.5,0.6-2.2,0.7c-0.8,0.2-1.6,0.4-2.2,0.5s-1,0.2-1,0.2s-0.1,0.4-0.2,1
				c-0.1,0.6-0.3,1.4-0.5,2.2c-0.2,0.8-0.4,1.5-0.7,2.2c-0.3,0.6-0.6,1-0.9,1s-0.6-0.4-0.9-1c-0.3-0.7-0.6-1.5-0.7-2.2
				c-0.2-0.8-0.4-1.6-0.5-2.2s-0.2-1-0.2-1s-0.5-0.1-1.3-0.2c-0.8-0.1-1.9-0.3-2.9-0.5c-1-0.2-2-0.4-2.9-0.7
				c-0.8-0.3-1.3-0.6-1.3-0.9c0-0.3,0.5-0.6,1.3-0.9c1-0.3,2-0.6,2.9-0.7c1.1-0.2,2.1-0.4,2.9-0.5c0.8-0.1,1.3-0.2,1.3-0.2
				s0.1-0.4,0.2-1c0.1-0.6,0.3-1.4,0.5-2.2c0.2-0.8,0.4-1.5,0.7-2.2c0.3-0.6,0.6-1,0.9-1s0.6,0.4,0.9,1c0.3,0.7,0.6,1.5,0.7,2.2
				c0.2,0.8,0.4,1.6,0.5,2.2C27.7,16.7,27.8,17.1,27.8,17.1z"/>
		</g>
	</g>
	<g id="Group_24855" transform="translate(321.986 140.113)" class="st12">
		<path id="Union_2-2" class="st13" d="M24.6,17.4l-13.2-1c-0.1,0-0.3,0-0.4,0c-0.1,0-0.3,0-0.4,0c-0.1,0-0.2,0-0.3,0
			c-0.1,0-0.2,0-0.3,0.1c-0.1,0-0.2,0.1-0.2,0.1c-0.1,0-0.1,0.1-0.2,0.1c0,0-0.1,0.1-0.1,0.2c0,0.1-0.1,0.1-0.1,0.2
			c0,0.1,0,0.1,0,0.2c0,0.1,0,0.1,0,0.2c0,0.1,0,0.2,0.1,0.2c0,0.1,0.1,0.2,0.1,0.3c0.1,0.1,0.1,0.2,0.2,0.3
			c0.1,0.1,0.1,0.2,0.2,0.3s0.2,0.2,0.3,0.3c0.1,0.1,0.2,0.2,0.3,0.3l9.6,8.8c0.1,0.1,0.2,0.2,0.4,0.3c0.1,0.1,0.3,0.2,0.4,0.3
			c0.1,0.1,0.3,0.2,0.4,0.3c0.2,0.1,0.3,0.2,0.5,0.3c0.2,0.1,0.3,0.2,0.5,0.3c0.2,0.1,0.3,0.2,0.5,0.3c0.2,0.1,0.3,0.2,0.5,0.3
			s0.3,0.2,0.5,0.2c0.2,0.1,0.4,0.2,0.5,0.2c0.2,0.1,0.4,0.1,0.5,0.2c0.2,0.1,0.4,0.1,0.5,0.2s0.3,0.1,0.5,0.2
			c0.2,0,0.3,0.1,0.5,0.1c0.2,0,0.3,0.1,0.5,0.1c0.2,0,0.3,0.1,0.5,0.1s0.3,0,0.4,0l19.4,1.1c0.1,0,0.3,0,0.4,0c0.1,0,0.2,0,0.3,0
			c0.1,0,0.2,0,0.3-0.1c0.1,0,0.2-0.1,0.2-0.1c0.1,0,0.1-0.1,0.2-0.1c0.1,0,0.1-0.1,0.2-0.1c0,0,0.1-0.1,0.1-0.2
			c0-0.1,0-0.1,0.1-0.2c0-0.1,0-0.1,0-0.2c0-0.1,0-0.2,0-0.2c0-0.1-0.1-0.2-0.1-0.2c0-0.1-0.1-0.2-0.1-0.3c-0.1-0.1-0.1-0.2-0.2-0.3
			s-0.2-0.2-0.2-0.3c-0.1-0.1-0.2-0.2-0.3-0.3s-0.2-0.2-0.3-0.3l-9.7-8.6c-0.1-0.1-0.2-0.2-0.4-0.3s-0.3-0.2-0.4-0.3
			c-0.1-0.1-0.3-0.2-0.4-0.3c-0.1-0.1-0.3-0.2-0.4-0.3c-0.1-0.1-0.3-0.2-0.5-0.3c-0.2-0.1-0.3-0.2-0.5-0.3c-0.2-0.1-0.3-0.2-0.5-0.2
			c-0.2-0.1-0.3-0.2-0.5-0.2c-0.2-0.1-0.3-0.1-0.5-0.2s-0.3-0.1-0.5-0.2c-0.2-0.1-0.3-0.1-0.5-0.2s-0.3-0.1-0.5-0.2
			c-0.2,0-0.3-0.1-0.5-0.1C32,18,31.8,18,31.6,18c-0.2,0-0.3-0.1-0.4-0.1c-0.1,0-0.3,0-0.4,0L30,17.8l-3.5-3.1L24.6,17.4z"/>
		<path id="Line_621-3" class="st5" d="M23.6,26.6l17.1,1.1"/>
		<path id="Line_622-3" class="st5" d="M19.2,22.6l8.9,0.6"/>
	</g>
	<g id="Group_24928" transform="translate(0 205.269)">
		<g>
			<defs>
				<rect id="SVGID_00000137847041759568197280000002905729164132636828_" y="10.7" width="35.8" height="35.8"/>
			</defs>
			<clipPath id="SVGID_00000142857978631880240140000016021527561843240844_">
				<use xlink:href="#SVGID_00000137847041759568197280000002905729164132636828_"  style="overflow:visible;"/>
			</clipPath>
			<g id="Group_24927" style="clip-path:url(#SVGID_00000142857978631880240140000016021527561843240844_);">
				<path id="Path_14167" class="st7" d="M35.8,29.2c0,0,0-0.1,0-0.1s0-0.1,0-0.1c0,0,0-0.1,0-0.1s0-0.1,0-0.1c0,0,0-0.1,0-0.1
					s0-0.1,0-0.2s0-0.1,0-0.2s0-0.1,0-0.2c0-0.2,0-0.5,0-0.8c0-0.3,0-0.5-0.1-0.8c0-0.3-0.1-0.5-0.2-0.8c-0.1-0.2-0.3-0.4-0.4-0.6
					c-0.2-0.1-0.4-0.2-0.6-0.3c-0.2-0.1-0.5-0.1-0.7-0.2c-0.3,0-0.5-0.1-0.8-0.1c-0.3,0-0.5,0-0.8,0h-0.2h-0.2h-0.2h-0.1l0-0.1
					l0-0.1l0-0.1l0-0.1c0-0.2-0.1-0.3-0.1-0.5c0-0.2-0.1-0.3-0.1-0.5c0-0.2-0.1-0.3-0.2-0.5c-0.1-0.2-0.1-0.3-0.2-0.5
					c0,0,0-0.1-0.1-0.1c0,0,0-0.1-0.1-0.1s0-0.1-0.1-0.1l-0.1-0.1l-0.1-0.1c0,0-0.1-0.1-0.1-0.1s0-0.1-0.1-0.1s0-0.1-0.1-0.1
					c0,0,0.1-0.1,0.1-0.1c0.1,0,0.1-0.1,0.2-0.1s0.1-0.1,0.2-0.2l0.2-0.1c0.1-0.1,0.2-0.1,0.3-0.2s0.2-0.1,0.3-0.2
					c0.1-0.1,0.2-0.1,0.3-0.2c0.1-0.1,0.1-0.1,0.2-0.2c0.1-0.1,0.1-0.2,0.2-0.3c0.1-0.1,0.1-0.2,0.2-0.4c0-0.1,0.1-0.3,0.1-0.4
					c0-0.2,0-0.3-0.1-0.5c-0.1-0.2-0.1-0.4-0.2-0.5c-0.1-0.2-0.2-0.3-0.4-0.5c-0.1-0.1-0.3-0.3-0.4-0.4c-0.1-0.1-0.3-0.3-0.4-0.4
					L31,16.4l-0.1-0.1l-0.1-0.1l-0.1-0.1c0,0-0.1-0.1-0.1-0.1l-0.1-0.1l-0.1-0.1l-0.1-0.1c-0.1-0.1-0.2-0.3-0.4-0.4
					c-0.1-0.1-0.3-0.3-0.4-0.4c-0.1-0.1-0.3-0.2-0.4-0.3c-0.1-0.1-0.3-0.2-0.5-0.2c0,0-0.1,0-0.2-0.1c-0.1,0-0.1,0-0.2,0
					s-0.1,0-0.2,0c-0.1,0-0.1,0-0.2,0c-0.3,0-0.6,0.1-0.8,0.2c-0.3,0.1-0.5,0.3-0.7,0.5c-0.2,0.2-0.5,0.4-0.7,0.6
					c-0.2,0.2-0.4,0.5-0.6,0.7l0,0l0,0l0,0l0,0C25,16,24.8,16,24.7,15.9s-0.3-0.1-0.4-0.2c-0.1-0.1-0.3-0.1-0.4-0.2l-0.4-0.2
					l-0.3-0.1l-0.3-0.1l-0.3-0.1c-0.1,0-0.2-0.1-0.3-0.1l-0.1-0.1c-0.1-0.1-0.2-0.1-0.3-0.1c-0.1,0-0.1-0.1-0.2-0.1
					c0,0-0.1-0.1-0.1-0.1c0-0.1,0-0.1-0.1-0.2c0-0.1,0-0.1,0-0.2c0-0.1,0-0.1,0-0.2c0-0.1,0-0.1,0-0.2s0-0.1,0-0.2
					c0-0.1,0-0.2,0-0.3c0-0.1,0-0.2,0-0.3s0-0.2,0-0.3c0-0.1,0-0.2,0-0.3c-0.1-0.3-0.2-0.5-0.3-0.7c-0.1-0.2-0.3-0.4-0.5-0.5
					c-0.2-0.1-0.4-0.3-0.7-0.3c-0.3-0.1-0.6-0.1-0.9-0.1c-0.1,0-0.2,0-0.3,0s-0.2,0-0.3,0s-0.2,0-0.3,0l-0.3,0l-0.2,0l-0.2,0l-0.2,0
					l-0.2,0l-0.2,0l-0.2,0l-0.2,0l-0.2,0c-0.3,0-0.6,0-1,0.1c-0.3,0-0.6,0.1-0.9,0.3c-0.3,0.1-0.5,0.3-0.7,0.6
					C14.1,12.2,14,12.6,14,13c0,0.1,0,0.1,0,0.2s0,0.1,0,0.2s0,0.1,0,0.2c0,0.1,0,0.1,0,0.2c0,0.1,0,0.2,0,0.3c0,0.1,0,0.2,0,0.2
					c0,0.1,0,0.1,0,0.2c0,0.1,0,0.1,0,0.2l0,0l0,0l0,0l0,0l0,0l0,0l0,0l0,0l-0.1,0l-0.1,0l-0.1,0l-0.1,0c-0.2,0.1-0.5,0.2-0.7,0.3
					s-0.4,0.2-0.6,0.3c-0.2,0.1-0.4,0.2-0.6,0.3s-0.4,0.2-0.6,0.3c-0.2-0.2-0.3-0.4-0.5-0.6c-0.2-0.2-0.4-0.4-0.6-0.6
					c-0.2-0.2-0.5-0.3-0.7-0.4c-0.3-0.1-0.6-0.2-0.8-0.2H8.1c-0.3,0-0.6,0.1-0.9,0.2c-0.3,0.1-0.6,0.3-0.8,0.5
					c-0.3,0.2-0.5,0.4-0.7,0.7C5.4,16,5.2,16.3,5,16.5l-0.1,0.1l-0.1,0.1l-0.1,0.1l-0.1,0.1c-0.1,0.1-0.3,0.3-0.4,0.4
					c-0.1,0.1-0.2,0.3-0.3,0.4c-0.1,0.1-0.1,0.3-0.1,0.4c0,0.1,0,0.3,0,0.4c0,0.2,0.1,0.5,0.1,0.7C4,19.6,4.2,19.8,4.3,20
					c0.2,0.2,0.3,0.4,0.5,0.6C5,20.8,5.2,21,5.4,21.2l0.1,0l0.1,0l0.1,0l0.1,0c-0.2,0.3-0.3,0.5-0.5,0.8c-0.1,0.3-0.3,0.5-0.4,0.8
					c-0.1,0.3-0.2,0.5-0.4,0.8s-0.2,0.6-0.3,0.9c-0.1,0-0.2,0-0.3,0c-0.1,0-0.2,0-0.3,0c-0.1,0-0.2,0-0.3,0c-0.1,0-0.2,0-0.3,0
					c-0.2,0-0.5,0-0.7,0c-0.2,0-0.4,0.1-0.6,0.1c-0.2,0.1-0.3,0.1-0.5,0.2c-0.1,0.1-0.3,0.2-0.4,0.3c-0.2,0.2-0.4,0.5-0.5,0.8
					C0.1,26.3,0,26.6,0,27c0,0.3,0,0.7,0,1c0,0.3,0.1,0.7,0.1,1c0,0,0,0.1,0,0.1l0,0.1c0,0,0,0.1,0,0.1c0,0,0,0.1,0,0.1l0,0.1l0,0.1
					l0,0.1l0,0.1c0,0.2,0,0.4,0.1,0.7c0,0.2,0.1,0.5,0.1,0.7c0.1,0.2,0.2,0.4,0.3,0.6c0.1,0.2,0.3,0.4,0.6,0.5
					c0.1,0.1,0.2,0.1,0.3,0.2c0.1,0,0.2,0.1,0.4,0.1c0.1,0,0.3,0.1,0.4,0.1c0.1,0,0.3,0,0.5,0c0.1,0,0.2,0,0.4,0c0.1,0,0.2,0,0.4,0
					c0.1,0,0.2,0,0.3,0c0.1,0,0.2,0,0.3,0c0.1,0.2,0.1,0.4,0.2,0.6c0.1,0.2,0.1,0.4,0.2,0.6c0.1,0.2,0.1,0.4,0.2,0.5
					s0.1,0.3,0.2,0.5c0,0,0,0,0,0.1c0,0,0,0.1,0,0.1l0,0.1L5.2,35l0,0.1l0,0.1l0,0.1l0,0.1l0,0.1l0,0.1c0,0,0,0,0,0.1c0,0,0,0,0,0.1
					c0,0.1-0.1,0.1-0.1,0.2c0,0.1-0.1,0.1-0.2,0.2S4.8,36,4.7,36s-0.1,0.1-0.2,0.2c-0.2,0.1-0.3,0.3-0.5,0.5
					c-0.2,0.2-0.3,0.4-0.4,0.6c-0.1,0.2-0.2,0.4-0.3,0.7c0,0.3,0,0.5,0.1,0.8c0.2,0.4,0.4,0.8,0.7,1.1c0.3,0.4,0.7,0.8,1.1,1.2
					c0.4,0.4,0.8,0.7,1.3,1c0.3,0.2,0.7,0.5,1.1,0.6c0.1,0,0.1,0,0.2,0.1c0.1,0,0.1,0,0.2,0c0.1,0,0.1,0,0.2,0c0.1,0,0.1,0,0.2,0
					c0.3,0,0.5-0.1,0.8-0.2c0.2-0.1,0.5-0.2,0.7-0.4c0.2-0.2,0.4-0.3,0.6-0.5c0.2-0.2,0.4-0.4,0.6-0.6c0.3,0.2,0.5,0.3,0.8,0.5
					c0.3,0.1,0.5,0.3,0.8,0.4c0.3,0.1,0.6,0.2,0.8,0.3s0.6,0.2,0.9,0.2c0,0,0,0.1,0,0.1c0,0,0,0.1,0,0.1l0,0.1c0,0,0,0.1,0,0.1
					c0,0.3-0.1,0.5-0.1,0.8c0,0.3,0,0.5,0,0.8c0,0.3,0.1,0.5,0.1,0.8c0.1,0.2,0.2,0.5,0.4,0.7c0.1,0.1,0.3,0.3,0.4,0.3
					c0.2,0.1,0.3,0.2,0.5,0.2c0.2,0,0.4,0.1,0.6,0.1c0.2,0,0.4,0,0.6,0h0.5h0.1h0.1h0.1h0.1h0.1l0.2,0l0.2,0h0.2h0.2
					c0.1,0,0.2,0,0.4,0s0.3,0,0.4,0c0.2,0,0.3,0,0.5-0.1c0.2,0,0.3-0.1,0.5-0.1c0.2-0.1,0.4-0.2,0.5-0.3c0.1-0.1,0.3-0.2,0.4-0.3
					c0.1-0.1,0.2-0.3,0.3-0.4c0.1-0.2,0.1-0.4,0.2-0.5c0-0.1,0-0.2,0-0.3c0-0.1,0-0.2,0-0.3c0-0.1,0-0.2-0.1-0.3s0-0.2-0.1-0.3
					c0-0.1,0-0.2-0.1-0.2s0-0.2,0-0.3c0-0.1,0-0.2,0-0.2c0,0,0-0.1,0-0.1c0.1,0,0.1-0.1,0.2-0.1c0.1,0,0.2-0.1,0.3-0.1
					s0.2-0.1,0.3-0.1c0.1,0,0.2-0.1,0.3-0.1l0.3-0.1c0.1,0,0.2-0.1,0.2-0.1s0.2-0.1,0.2-0.1c0.1,0,0.1-0.1,0.2-0.1
					c0.1,0,0.1-0.1,0.2-0.1l0.1-0.1l0.1-0.1l0.1-0.1c0.1-0.1,0.2-0.1,0.3-0.2c0.1-0.1,0.2-0.1,0.2-0.1c0.1,0,0.2-0.1,0.2-0.1
					c0.1,0,0.1,0,0.2,0c0,0,0.1,0,0.1,0c0,0,0.1,0,0.1,0c0,0,0.1,0,0.1,0.1c0.1,0,0.1,0.1,0.2,0.1c0.1,0.1,0.1,0.1,0.2,0.2
					c0.1,0.1,0.1,0.1,0.2,0.2s0.1,0.1,0.2,0.2s0.1,0.1,0.2,0.2c0.1,0.1,0.2,0.3,0.4,0.4c0.1,0.1,0.3,0.3,0.4,0.4
					c0.1,0.1,0.3,0.2,0.5,0.3c0.2,0.1,0.4,0.1,0.6,0.1c0.1,0,0.2,0,0.2,0c0.1,0,0.2,0,0.3-0.1c0.1,0,0.2-0.1,0.3-0.1
					c0.1,0,0.2-0.1,0.3-0.1c0.3-0.2,0.6-0.4,0.8-0.6c0.3-0.2,0.6-0.5,0.8-0.7c0.3-0.3,0.5-0.5,0.7-0.8c0.2-0.3,0.4-0.6,0.6-0.9
					c0.2-0.3,0.3-0.6,0.4-1c0-0.3,0-0.5-0.1-0.8c-0.1-0.2-0.3-0.5-0.5-0.7c-0.2-0.2-0.4-0.4-0.6-0.6l-0.1-0.1L31,36.3l-0.1-0.1
					l-0.1-0.1c-0.1-0.1-0.2-0.2-0.3-0.2c-0.1-0.1-0.1-0.1-0.1-0.2c0-0.1,0-0.2,0-0.2c0-0.1,0.1-0.2,0.2-0.4c0.1-0.2,0.2-0.5,0.3-0.7
					c0.1-0.2,0.2-0.5,0.3-0.7c0.1-0.2,0.2-0.5,0.2-0.7c0.1-0.2,0.1-0.5,0.2-0.7h0.1h0.1h0.1h0.1l0.3,0l0.3,0c0.1,0,0.2,0,0.3,0
					c0.1,0,0.2,0,0.3,0c0.2,0,0.4,0,0.6,0c0.2,0,0.3,0,0.5-0.1c0.1,0,0.3-0.1,0.4-0.1c0.1,0,0.2-0.1,0.4-0.2
					c0.2-0.1,0.4-0.3,0.5-0.6c0.1-0.2,0.2-0.5,0.2-0.7c0-0.3,0.1-0.5,0-0.8C35.8,29.6,35.8,29.4,35.8,29.2 M17.9,35.8
					c-3.5,0-6.3-2.8-6.3-6.3c0-3.5,2.8-6.3,6.3-6.3s6.3,2.8,6.3,6.3c0,2.5-1.5,4.8-3.9,5.8C19.6,35.6,18.8,35.8,17.9,35.8"/>
				<path id="Path_14168" class="st8" d="M35.8,29.2c0,0,0-0.1,0-0.1s0-0.1,0-0.1c0,0,0-0.1,0-0.1s0-0.1,0-0.1c0,0,0-0.1,0-0.1
					s0-0.1,0-0.2s0-0.1,0-0.2s0-0.1,0-0.2c0-0.2,0-0.5,0-0.8c0-0.3,0-0.5-0.1-0.8c0-0.3-0.1-0.5-0.2-0.8c-0.1-0.2-0.3-0.4-0.4-0.6
					c-0.2-0.1-0.4-0.2-0.6-0.3c-0.2-0.1-0.5-0.1-0.7-0.2c-0.3,0-0.5-0.1-0.8-0.1c-0.3,0-0.5,0-0.8,0h-0.2h-0.2h-0.2h-0.1l0-0.1
					l0-0.1l0-0.1l0-0.1c0-0.2-0.1-0.3-0.1-0.5c0-0.2-0.1-0.3-0.1-0.5c0-0.2-0.1-0.3-0.2-0.5c-0.1-0.2-0.1-0.3-0.2-0.5
					c0,0,0-0.1-0.1-0.1c0,0,0-0.1-0.1-0.1s0-0.1-0.1-0.1l-0.1-0.1l-0.1-0.1c0,0-0.1-0.1-0.1-0.1s0-0.1-0.1-0.1s0-0.1-0.1-0.1
					c0,0,0.1-0.1,0.1-0.1c0.1,0,0.1-0.1,0.2-0.1s0.1-0.1,0.2-0.2l0.2-0.1c0.1-0.1,0.2-0.1,0.3-0.2s0.2-0.1,0.3-0.2
					c0.1-0.1,0.2-0.1,0.3-0.2c0.1-0.1,0.1-0.1,0.2-0.2c0.1-0.1,0.1-0.2,0.2-0.3c0.1-0.1,0.1-0.2,0.2-0.4c0-0.1,0.1-0.3,0.1-0.4
					c0-0.2,0-0.3-0.1-0.5c-0.1-0.2-0.1-0.4-0.2-0.5c-0.1-0.2-0.2-0.3-0.4-0.5c-0.1-0.1-0.3-0.3-0.4-0.4c-0.1-0.1-0.3-0.3-0.4-0.4
					L31,16.4l-0.1-0.1l-0.1-0.1l-0.1-0.1c0,0-0.1-0.1-0.1-0.1l-0.1-0.1l-0.1-0.1l-0.1-0.1c-0.1-0.1-0.2-0.3-0.4-0.4
					c-0.1-0.1-0.3-0.3-0.4-0.4c-0.1-0.1-0.3-0.2-0.4-0.3c-0.1-0.1-0.3-0.2-0.5-0.2c0,0-0.1,0-0.2-0.1c-0.1,0-0.1,0-0.2,0
					s-0.1,0-0.2,0c-0.1,0-0.1,0-0.2,0c-0.3,0-0.6,0.1-0.8,0.2c-0.3,0.1-0.5,0.3-0.7,0.5c-0.2,0.2-0.5,0.4-0.7,0.6
					c-0.2,0.2-0.4,0.5-0.6,0.7l0,0l0,0l0,0l0,0C25,16,24.8,16,24.7,15.9s-0.3-0.1-0.4-0.2c-0.1-0.1-0.3-0.1-0.4-0.2l-0.4-0.2
					l-0.3-0.1l-0.3-0.1l-0.3-0.1c-0.1,0-0.2-0.1-0.3-0.1l-0.1-0.1c-0.1-0.1-0.2-0.1-0.3-0.1c-0.1,0-0.1-0.1-0.2-0.1
					c0,0-0.1-0.1-0.1-0.1c0-0.1,0-0.1-0.1-0.2c0-0.1,0-0.1,0-0.2c0-0.1,0-0.1,0-0.2c0-0.1,0-0.1,0-0.2s0-0.1,0-0.2
					c0-0.1,0-0.2,0-0.3c0-0.1,0-0.2,0-0.3s0-0.2,0-0.3c0-0.1,0-0.2,0-0.3c-0.1-0.3-0.2-0.5-0.3-0.7c-0.1-0.2-0.3-0.4-0.5-0.5
					c-0.2-0.1-0.4-0.3-0.7-0.3c-0.3-0.1-0.6-0.1-0.9-0.1c-0.1,0-0.2,0-0.3,0s-0.2,0-0.3,0s-0.2,0-0.3,0l-0.3,0l-0.2,0l-0.2,0l-0.2,0
					l-0.2,0l-0.2,0l-0.2,0l-0.2,0l-0.2,0c-0.3,0-0.6,0-1,0.1c-0.3,0-0.6,0.1-0.9,0.3c-0.3,0.1-0.5,0.3-0.7,0.6
					C14.1,12.2,14,12.6,14,13c0,0.1,0,0.1,0,0.2s0,0.1,0,0.2s0,0.1,0,0.2c0,0.1,0,0.1,0,0.2c0,0.1,0,0.2,0,0.3c0,0.1,0,0.2,0,0.2
					c0,0.1,0,0.1,0,0.2c0,0.1,0,0.1,0,0.2l0,0l0,0l0,0l0,0l0,0l0,0l0,0l0,0l-0.1,0l-0.1,0l-0.1,0l-0.1,0c-0.2,0.1-0.5,0.2-0.7,0.3
					s-0.4,0.2-0.6,0.3c-0.2,0.1-0.4,0.2-0.6,0.3s-0.4,0.2-0.6,0.3c-0.2-0.2-0.3-0.4-0.5-0.6c-0.2-0.2-0.4-0.4-0.6-0.6
					c-0.2-0.2-0.5-0.3-0.7-0.4c-0.3-0.1-0.6-0.2-0.8-0.2H8.1c-0.3,0-0.6,0.1-0.9,0.2c-0.3,0.1-0.6,0.3-0.8,0.5
					c-0.3,0.2-0.5,0.4-0.7,0.7C5.4,16,5.2,16.3,5,16.5l-0.1,0.1l-0.1,0.1l-0.1,0.1l-0.1,0.1c-0.1,0.1-0.3,0.3-0.4,0.4
					c-0.1,0.1-0.2,0.3-0.3,0.4c-0.1,0.1-0.1,0.3-0.1,0.4c0,0.1,0,0.3,0,0.4c0,0.2,0.1,0.5,0.1,0.7C4,19.6,4.2,19.8,4.3,20
					c0.2,0.2,0.3,0.4,0.5,0.6C5,20.8,5.2,21,5.4,21.2l0.1,0l0.1,0l0.1,0l0.1,0c-0.2,0.3-0.3,0.5-0.5,0.8c-0.1,0.3-0.3,0.5-0.4,0.8
					c-0.1,0.3-0.2,0.5-0.4,0.8s-0.2,0.6-0.3,0.9c-0.1,0-0.2,0-0.3,0c-0.1,0-0.2,0-0.3,0c-0.1,0-0.2,0-0.3,0c-0.1,0-0.2,0-0.3,0
					c-0.2,0-0.5,0-0.7,0c-0.2,0-0.4,0.1-0.6,0.1c-0.2,0.1-0.3,0.1-0.5,0.2c-0.1,0.1-0.3,0.2-0.4,0.3c-0.2,0.2-0.4,0.5-0.5,0.8
					C0.1,26.3,0,26.6,0,27c0,0.3,0,0.7,0,1c0,0.3,0.1,0.7,0.1,1c0,0,0,0.1,0,0.1l0,0.1c0,0,0,0.1,0,0.1c0,0,0,0.1,0,0.1l0,0.1l0,0.1
					l0,0.1l0,0.1c0,0.2,0,0.4,0.1,0.7c0,0.2,0.1,0.5,0.1,0.7c0.1,0.2,0.2,0.4,0.3,0.6c0.1,0.2,0.3,0.4,0.6,0.5
					c0.1,0.1,0.2,0.1,0.3,0.2c0.1,0,0.2,0.1,0.4,0.1c0.1,0,0.3,0.1,0.4,0.1c0.1,0,0.3,0,0.5,0c0.1,0,0.2,0,0.4,0c0.1,0,0.2,0,0.4,0
					c0.1,0,0.2,0,0.3,0c0.1,0,0.2,0,0.3,0c0.1,0.2,0.1,0.4,0.2,0.6c0.1,0.2,0.1,0.4,0.2,0.6c0.1,0.2,0.1,0.4,0.2,0.5
					s0.1,0.3,0.2,0.5c0,0,0,0,0,0.1c0,0,0,0.1,0,0.1l0,0.1L5.2,35l0,0.1l0,0.1l0,0.1l0,0.1l0,0.1l0,0.1c0,0,0,0,0,0.1c0,0,0,0,0,0.1
					c0,0.1-0.1,0.1-0.1,0.2c0,0.1-0.1,0.1-0.2,0.2S4.8,36,4.7,36s-0.1,0.1-0.2,0.2c-0.2,0.1-0.3,0.3-0.5,0.5
					c-0.2,0.2-0.3,0.4-0.4,0.6c-0.1,0.2-0.2,0.4-0.3,0.7c0,0.3,0,0.5,0.1,0.8c0.2,0.4,0.4,0.8,0.7,1.1c0.3,0.4,0.7,0.8,1.1,1.2
					c0.4,0.4,0.8,0.7,1.3,1c0.3,0.2,0.7,0.5,1.1,0.6c0.1,0,0.1,0,0.2,0.1c0.1,0,0.1,0,0.2,0c0.1,0,0.1,0,0.2,0c0.1,0,0.1,0,0.2,0
					c0.3,0,0.5-0.1,0.8-0.2c0.2-0.1,0.5-0.2,0.7-0.4c0.2-0.2,0.4-0.3,0.6-0.5c0.2-0.2,0.4-0.4,0.6-0.6c0.3,0.2,0.5,0.3,0.8,0.5
					c0.3,0.1,0.5,0.3,0.8,0.4c0.3,0.1,0.6,0.2,0.8,0.3s0.6,0.2,0.9,0.2c0,0,0,0.1,0,0.1c0,0,0,0.1,0,0.1l0,0.1c0,0,0,0.1,0,0.1
					c0,0.3-0.1,0.5-0.1,0.8c0,0.3,0,0.5,0,0.8c0,0.3,0.1,0.5,0.1,0.8c0.1,0.2,0.2,0.5,0.4,0.7c0.1,0.1,0.3,0.3,0.4,0.3
					c0.2,0.1,0.3,0.2,0.5,0.2c0.2,0,0.4,0.1,0.6,0.1c0.2,0,0.4,0,0.6,0h0.5h0.1h0.1h0.1h0.1h0.1l0.2,0l0.2,0h0.2h0.2
					c0.1,0,0.2,0,0.4,0s0.3,0,0.4,0c0.2,0,0.3,0,0.5-0.1c0.2,0,0.3-0.1,0.5-0.1c0.2-0.1,0.4-0.2,0.5-0.3c0.1-0.1,0.3-0.2,0.4-0.3
					c0.1-0.1,0.2-0.3,0.3-0.4c0.1-0.2,0.1-0.4,0.2-0.5c0-0.1,0-0.2,0-0.3c0-0.1,0-0.2,0-0.3c0-0.1,0-0.2-0.1-0.3s0-0.2-0.1-0.3
					c0-0.1,0-0.2-0.1-0.2s0-0.2,0-0.3c0-0.1,0-0.2,0-0.2c0,0,0-0.1,0-0.1c0.1,0,0.1-0.1,0.2-0.1c0.1,0,0.2-0.1,0.3-0.1
					s0.2-0.1,0.3-0.1c0.1,0,0.2-0.1,0.3-0.1l0.3-0.1c0.1,0,0.2-0.1,0.2-0.1s0.2-0.1,0.2-0.1c0.1,0,0.1-0.1,0.2-0.1
					c0.1,0,0.1-0.1,0.2-0.1l0.1-0.1l0.1-0.1l0.1-0.1c0.1-0.1,0.2-0.1,0.3-0.2c0.1-0.1,0.2-0.1,0.2-0.1c0.1,0,0.2-0.1,0.2-0.1
					c0.1,0,0.1,0,0.2,0c0,0,0.1,0,0.1,0c0,0,0.1,0,0.1,0c0,0,0.1,0,0.1,0.1c0.1,0,0.1,0.1,0.2,0.1c0.1,0.1,0.1,0.1,0.2,0.2
					c0.1,0.1,0.1,0.1,0.2,0.2s0.1,0.1,0.2,0.2s0.1,0.1,0.2,0.2c0.1,0.1,0.2,0.3,0.4,0.4c0.1,0.1,0.3,0.3,0.4,0.4
					c0.1,0.1,0.3,0.2,0.5,0.3c0.2,0.1,0.4,0.1,0.6,0.1c0.1,0,0.2,0,0.2,0c0.1,0,0.2,0,0.3-0.1c0.1,0,0.2-0.1,0.3-0.1
					c0.1,0,0.2-0.1,0.3-0.1c0.3-0.2,0.6-0.4,0.8-0.6c0.3-0.2,0.6-0.5,0.8-0.7c0.3-0.3,0.5-0.5,0.7-0.8c0.2-0.3,0.4-0.6,0.6-0.9
					c0.2-0.3,0.3-0.6,0.4-1c0-0.3,0-0.5-0.1-0.8c-0.1-0.2-0.3-0.5-0.5-0.7c-0.2-0.2-0.4-0.4-0.6-0.6l-0.1-0.1L31,36.3l-0.1-0.1
					l-0.1-0.1c-0.1-0.1-0.2-0.2-0.3-0.2c-0.1-0.1-0.1-0.1-0.1-0.2c0-0.1,0-0.2,0-0.2c0-0.1,0.1-0.2,0.2-0.4c0.1-0.2,0.2-0.5,0.3-0.7
					c0.1-0.2,0.2-0.5,0.3-0.7c0.1-0.2,0.2-0.5,0.2-0.7c0.1-0.2,0.1-0.5,0.2-0.7h0.1h0.1h0.1h0.1l0.3,0l0.3,0c0.1,0,0.2,0,0.3,0
					c0.1,0,0.2,0,0.3,0c0.2,0,0.4,0,0.6,0c0.2,0,0.3,0,0.5-0.1c0.1,0,0.3-0.1,0.4-0.1c0.1,0,0.2-0.1,0.4-0.2
					c0.2-0.1,0.4-0.3,0.5-0.6c0.1-0.2,0.2-0.5,0.2-0.7c0-0.3,0.1-0.5,0-0.8C35.8,29.6,35.8,29.4,35.8,29.2 M33.5,30.2
					c0,0-0.1,0-0.1,0c-0.1,0-0.1,0-0.2,0s-0.1,0-0.2,0c-0.1,0-0.1,0-0.2,0c-0.1,0-0.2,0-0.2,0l-0.2,0l-0.2,0l-0.2,0l-0.2,0l-0.2,0
					l-0.2,0c-0.1,0-0.1,0-0.2,0l0,0c-0.1,0-0.1,0-0.2,0c-0.1,0-0.1,0-0.2,0.1c-0.1,0-0.1,0.1-0.2,0.1c-0.1,0-0.1,0.1-0.2,0.1
					c0,0.1-0.1,0.1-0.1,0.2c0,0,0,0.1,0,0.1c0,0,0,0.1,0,0.1c-0.1,0.2-0.1,0.4-0.2,0.6s-0.1,0.4-0.2,0.6c-0.1,0.2-0.2,0.4-0.2,0.6
					c-0.1,0.2-0.2,0.4-0.2,0.6c-0.1,0.1-0.1,0.3-0.2,0.4c-0.1,0.1-0.1,0.3-0.2,0.4s-0.1,0.3-0.2,0.4c-0.1,0.1-0.1,0.3-0.2,0.4
					c-0.1,0.2-0.1,0.3-0.1,0.5c0,0.2,0,0.3,0,0.5c0,0.2,0.1,0.3,0.1,0.5c0.1,0.2,0.2,0.3,0.3,0.5c0.1,0.1,0.1,0.1,0.2,0.2
					c0.1,0.1,0.1,0.1,0.2,0.2s0.2,0.1,0.2,0.2c0.1,0.1,0.2,0.1,0.2,0.2s0.2,0.1,0.3,0.2c0.1,0.1,0.2,0.1,0.2,0.2
					c0.1,0.1,0.1,0.1,0.2,0.2c0,0.1,0.1,0.1,0.1,0.2c0,0,0,0.1,0,0.1c0,0.1-0.1,0.2-0.1,0.3c-0.1,0.2-0.2,0.3-0.4,0.5
					c-0.2,0.2-0.4,0.4-0.7,0.7L29.1,40l0,0L29,40.1l0,0l0,0l0,0l0,0l0,0c0,0-0.1,0.1-0.1,0.1c0,0-0.1,0.1-0.2,0.2s-0.1,0.1-0.1,0.1
					c0,0-0.1,0.1-0.1,0.1l0,0l0,0h0h0c0,0-0.1,0-0.1,0c0,0-0.1,0-0.1-0.1c0,0-0.1-0.1-0.1-0.1c0-0.1-0.1-0.1-0.2-0.2l0-0.1l0-0.1
					l0-0.1l-0.1-0.1l-0.1-0.1L27.4,40L27.3,40l-0.1-0.1c-0.1-0.1-0.2-0.3-0.3-0.4c-0.1-0.1-0.2-0.3-0.4-0.4
					c-0.1-0.1-0.3-0.2-0.5-0.3c-0.2-0.1-0.4-0.1-0.5-0.2h0h0h0h0c-0.1,0-0.3,0-0.4,0c-0.1,0-0.3,0.1-0.4,0.1
					c-0.1,0.1-0.2,0.1-0.4,0.2s-0.2,0.1-0.3,0.2l-0.1,0l-0.1,0l-0.1,0l-0.1,0c-0.3,0.2-0.5,0.3-0.8,0.4c-0.3,0.1-0.5,0.3-0.8,0.4
					c-0.3,0.1-0.5,0.2-0.8,0.3c-0.3,0.1-0.6,0.2-0.9,0.2c-0.1,0-0.2,0.1-0.3,0.1c-0.1,0-0.2,0.1-0.2,0.2c-0.1,0.1-0.1,0.1-0.2,0.2
					c0,0.1-0.1,0.2-0.1,0.3c0,0.1,0,0.2,0,0.3c0,0.1,0,0.2,0,0.3s0,0.2,0,0.3s0,0.2,0,0.3c0,0.1,0,0.1,0,0.2s0,0.1,0,0.2
					s0,0.1,0,0.2s0,0.1,0,0.2c0,0.1,0,0.2,0,0.3c0,0.1,0,0.1,0,0.2c0,0.1,0,0.1-0.1,0.2c0,0.1-0.1,0.1-0.1,0.1
					c-0.1,0.1-0.2,0.1-0.3,0.2c-0.1,0-0.3,0.1-0.4,0.1c-0.1,0-0.3,0-0.4,0c-0.1,0-0.3,0-0.4,0h-0.1h-0.1h-0.1h-0.1h0l-0.3,0
					c-0.1,0-0.2,0-0.3,0c-0.1,0-0.2,0-0.2,0c0,0-0.1,0-0.1-0.1c0,0,0,0,0,0c0,0,0-0.1,0-0.1c0-0.1,0-0.1,0-0.2c0-0.1,0-0.2,0-0.3
					c0,0,0-0.1,0-0.2c0-0.1,0-0.1,0-0.2c0-0.1,0-0.1,0-0.2c0-0.1,0-0.1,0-0.2c0-0.1,0-0.2,0-0.4c0-0.1,0-0.2,0-0.4
					c0-0.1,0-0.3,0-0.4s0-0.3,0-0.4c0-0.1,0-0.2-0.1-0.4c0-0.1-0.1-0.2-0.2-0.3c-0.1-0.1-0.2-0.2-0.3-0.2c-0.1-0.1-0.2-0.1-0.4-0.1
					c-0.4,0-0.7-0.1-1-0.2c-0.3-0.1-0.7-0.2-1-0.3c-0.3-0.1-0.6-0.3-0.9-0.5c-0.3-0.2-0.6-0.4-0.9-0.6c0,0-0.1,0-0.1-0.1
					c0,0-0.1,0-0.1,0c0,0-0.1,0-0.1,0c0,0-0.1,0-0.1,0c0,0-0.1,0-0.1,0c0,0-0.1,0-0.1,0s-0.1,0-0.1,0c0,0-0.1,0-0.1,0
					c-0.1,0-0.1,0-0.2,0c-0.1,0-0.1,0-0.2,0c-0.1,0-0.1,0.1-0.2,0.1c-0.1,0-0.1,0.1-0.1,0.1c0,0-0.1,0.1-0.1,0.1
					c0,0-0.1,0.1-0.1,0.1l-0.1,0.1l-0.1,0.2c-0.1,0.1-0.2,0.2-0.3,0.3s-0.2,0.2-0.3,0.3c-0.1,0.1-0.2,0.2-0.3,0.3
					c-0.1,0.1-0.2,0.1-0.2,0.1l0,0l0,0h0h0c-0.1,0-0.3,0-0.4-0.1c-0.1-0.1-0.3-0.1-0.4-0.2c-0.1-0.1-0.3-0.2-0.4-0.3
					c-0.1-0.1-0.2-0.2-0.4-0.4l-0.1-0.1l-0.1-0.1l-0.1-0.1l-0.1-0.1l-0.1-0.1l-0.1-0.1l-0.1-0.1L6.3,39c-0.1-0.1-0.2-0.2-0.3-0.3
					c-0.1-0.1-0.2-0.2-0.2-0.3c-0.1-0.1-0.1-0.2-0.1-0.2c0-0.1,0-0.2,0-0.2c0-0.1,0.1-0.1,0.1-0.2c0.1-0.1,0.1-0.2,0.2-0.2
					C6,37.4,6,37.4,6.1,37.3s0.2-0.1,0.3-0.2L6.5,37l0.1-0.1l0.1-0.1c0,0,0.1-0.1,0.1-0.1l0,0c0.1-0.1,0.2-0.2,0.3-0.3
					c0.1-0.1,0.2-0.2,0.2-0.3c0.1-0.1,0.1-0.3,0.1-0.4c0-0.2,0-0.4-0.1-0.6c0-0.1-0.1-0.2-0.1-0.3c0-0.1-0.1-0.2-0.1-0.3
					c0-0.1-0.1-0.2-0.1-0.3s-0.1-0.2-0.2-0.3l-0.1-0.2c0-0.1-0.1-0.1-0.1-0.2c0-0.1-0.1-0.1-0.1-0.2c0-0.1-0.1-0.1-0.1-0.2
					c-0.1-0.2-0.1-0.3-0.2-0.5S6.2,32.2,6.2,32c0-0.2-0.1-0.3-0.1-0.5S6,31.2,6,31.1c0-0.1-0.1-0.2-0.1-0.3
					c-0.1-0.1-0.1-0.2-0.2-0.2c-0.1-0.1-0.2-0.1-0.3-0.2c-0.1,0-0.2-0.1-0.3-0.1h0h0h0h0l-0.4,0c-0.1,0-0.3,0-0.4,0s-0.3,0-0.4,0
					s-0.3,0-0.4,0l-0.2,0H3.1H3H2.9H2.8c-0.1,0-0.2,0-0.2,0c-0.1,0-0.1,0-0.2-0.1c0,0-0.1-0.1-0.1-0.2c0-0.1-0.1-0.2-0.1-0.3
					c0-0.2-0.1-0.4-0.1-0.6s0-0.4-0.1-0.6s0-0.4,0-0.6c0-0.2,0-0.3,0-0.5l0-0.2c0-0.1,0-0.2,0-0.2s0-0.2,0-0.3c0-0.1,0-0.2,0.1-0.2
					c0-0.1,0.1-0.1,0.1-0.2l0,0c0,0,0,0,0.1,0c0,0,0.1,0,0.1,0c0.1,0,0.1,0,0.2,0c0.2,0,0.3,0,0.5,0s0.3,0,0.5,0.1
					c0.2,0,0.3,0.1,0.4,0.1c0.1,0,0.2,0,0.3,0.1l0.1,0l0.1,0h0.1h0.1c0.1,0,0.2,0,0.3-0.1c0.1,0,0.2-0.1,0.3-0.2
					c0.1-0.1,0.2-0.1,0.2-0.2c0.1-0.1,0.1-0.2,0.1-0.3c0.1-0.4,0.2-0.7,0.3-1.1c0.1-0.4,0.3-0.7,0.4-1.1c0.2-0.3,0.3-0.7,0.5-1
					c0.2-0.3,0.4-0.7,0.7-1c0.1-0.1,0.1-0.2,0.2-0.3c0-0.1,0-0.2,0-0.3c0-0.1,0-0.2-0.1-0.3c0-0.1-0.1-0.2-0.2-0.3
					c0-0.1-0.1-0.1-0.1-0.2c-0.1-0.1-0.1-0.1-0.2-0.2s-0.1-0.1-0.2-0.2L7,20c-0.2-0.2-0.4-0.4-0.6-0.6c-0.1-0.1-0.2-0.3-0.3-0.4
					C6,18.9,6,18.7,6,18.6c0-0.1,0-0.2,0.1-0.3c0.1-0.1,0.2-0.3,0.3-0.4c0.1-0.1,0.3-0.3,0.4-0.4s0.3-0.3,0.4-0.4
					c0.1-0.1,0.2-0.2,0.3-0.2c0.1,0,0.1-0.1,0.2-0.1c0.1,0,0.1,0,0.2-0.1c0.1,0,0.1,0,0.2,0c0.1,0,0.1,0,0.2,0c0.1,0,0.2,0,0.3,0.1
					c0.1,0.1,0.2,0.1,0.3,0.2C9,17,9.1,17.1,9.2,17.3c0.1,0.1,0.2,0.3,0.4,0.4l0.1,0.1l0.1,0.1l0.1,0.1L9.8,18
					c0,0.1,0.1,0.2,0.2,0.2c0.1,0.1,0.1,0.1,0.2,0.2c0.1,0,0.2,0.1,0.2,0.1c0.1,0,0.2,0,0.3,0c0,0,0.1,0,0.1,0c0,0,0.1,0,0.1,0
					c0,0,0.1,0,0.1-0.1c0,0,0.1,0,0.1-0.1c0.3-0.2,0.5-0.3,0.8-0.5c0.3-0.1,0.5-0.3,0.8-0.4c0.3-0.1,0.6-0.2,0.8-0.4
					s0.6-0.2,0.9-0.3l0,0l0.1,0l0.1,0l0.1,0c0.1,0,0.1-0.1,0.2-0.1s0.2-0.1,0.2-0.1c0.1,0,0.2-0.1,0.2-0.1c0.1-0.1,0.1-0.1,0.2-0.2
					c0.1-0.1,0.2-0.2,0.2-0.4c0.1-0.1,0.1-0.3,0.1-0.4c0-0.1,0-0.3,0.1-0.4c0-0.1,0-0.3,0-0.4c0-0.1,0-0.1,0-0.2c0-0.1,0-0.1,0-0.2
					s0-0.1,0-0.2s0-0.1,0-0.2c0-0.1,0-0.1,0-0.2s0-0.1,0-0.2c0,0,0-0.1,0-0.1c0,0,0-0.1,0-0.1c0-0.2,0.1-0.3,0.3-0.3
					c0.1,0,0.2-0.1,0.3-0.1c0.1,0,0.3,0,0.5,0l0.2,0l0.5,0l0.3,0l0.3,0l0.3,0l0.2,0h0.1H19h0.1h0.1c0.1,0,0.1,0,0.2,0
					c0.1,0,0.1,0,0.2,0c0.1,0,0.1,0,0.2,0.1c0.1,0,0.1,0,0.2,0.1c0,0,0,0,0,0.1c0,0,0,0.1,0,0.1s0,0.1,0,0.1c0,0,0,0.1,0,0.1
					s0,0.1,0,0.1c0,0,0,0.1,0,0.1c0,0,0,0.1,0,0.1c0,0,0,0.1,0,0.2c0,0,0,0.1,0,0.1c0,0,0,0.1,0,0.1s0,0.1,0,0.1s0,0.1,0,0.1
					c0,0.1,0,0.2,0,0.3c0,0.1,0,0.2,0,0.4c0,0.1,0,0.2,0.1,0.4c0,0.1,0.1,0.3,0.2,0.4c0.1,0.1,0.2,0.2,0.3,0.3
					c0.1,0.1,0.2,0.2,0.3,0.2c0.1,0.1,0.2,0.1,0.3,0.2c0.1,0,0.2,0.1,0.3,0.1l0.3,0.1c0.3,0.1,0.6,0.2,0.8,0.3s0.5,0.2,0.8,0.3
					c0.3,0.1,0.5,0.2,0.8,0.4s0.5,0.3,0.8,0.4l0,0l0,0l0.1,0l0.1,0c0,0,0.1,0,0.1,0c0,0,0.1,0,0.1,0c0,0,0.1,0,0.1,0
					c0,0,0.1,0,0.1,0c0.1,0,0.1,0,0.2,0c0.1,0,0.1,0,0.2-0.1c0.1,0,0.1-0.1,0.2-0.1c0.1,0,0.1-0.1,0.2-0.1c0,0,0.1-0.1,0.1-0.1
					c0-0.1,0.1-0.1,0.1-0.2l0.1-0.2l0.1-0.2c0.1-0.1,0.2-0.2,0.3-0.3s0.2-0.2,0.3-0.3c0.1-0.1,0.2-0.2,0.3-0.3
					c0.1-0.1,0.2-0.1,0.3-0.2l0.1,0l0,0l0,0c0,0,0,0,0,0c0.1,0,0.1,0,0.2,0c0.1,0,0.1,0.1,0.2,0.1c0.1,0.1,0.1,0.1,0.2,0.2
					s0.1,0.1,0.2,0.2l0.1,0.1l0.1,0.1l0.1,0.1c0,0,0.1,0.1,0.1,0.1l0.1,0.1l0.1,0.1l0.1,0.1l0.1,0.1c0.2,0.2,0.4,0.3,0.5,0.4
					c0.1,0.1,0.2,0.2,0.3,0.4c0.1,0.1,0.1,0.2,0.1,0.3c0,0.1,0,0.2-0.1,0.3c0,0-0.1,0.1-0.1,0.1c0,0-0.1,0.1-0.2,0.1
					c-0.1,0-0.1,0.1-0.2,0.1c-0.1,0-0.1,0.1-0.2,0.1c-0.1,0-0.1,0.1-0.2,0.1s-0.1,0.1-0.2,0.1S29,20,29,20c-0.1,0.1-0.1,0.1-0.2,0.2
					c-0.1,0.1-0.2,0.3-0.3,0.5c-0.1,0.1-0.1,0.3-0.1,0.4c0,0.1,0,0.3,0,0.4c0,0.2,0.1,0.3,0.1,0.5c0,0.1,0.1,0.1,0.1,0.2
					s0.1,0.1,0.1,0.2c0,0.1,0.1,0.1,0.1,0.2l0.1,0.2c0,0.1,0.1,0.1,0.1,0.2s0.1,0.1,0.1,0.2s0.1,0.1,0.1,0.2s0,0.1,0.1,0.2
					c0,0.1,0.1,0.2,0.1,0.3s0.1,0.2,0.1,0.3c0,0.1,0.1,0.2,0.1,0.3c0,0.1,0.1,0.2,0.1,0.3l0.1,0.3c0,0.1,0.1,0.2,0.1,0.3
					c0,0.1,0.1,0.2,0.1,0.3c0,0.1,0.1,0.2,0.1,0.3c0,0.1,0.1,0.2,0.1,0.3c0.1,0.1,0.1,0.2,0.2,0.2c0.1,0.1,0.2,0.1,0.3,0.1
					c0.1,0,0.2,0.1,0.3,0.1l0.2,0l0.2,0l0.2,0h0.2c0.1,0,0.3,0,0.4,0c0.1,0,0.3,0,0.4,0s0.3,0,0.4,0c0.1,0,0.2,0,0.4,0.1
					c0.1,0,0.2,0.1,0.3,0.1c0.1,0.1,0.1,0.1,0.2,0.2c0,0.1,0.1,0.3,0.1,0.4c0,0.2,0,0.4,0,0.6c0,0.1,0,0.1,0,0.2s0,0.1,0,0.2
					c0,0.1,0,0.1,0,0.2s0,0.1,0,0.2c0,0,0,0.1,0,0.1s0,0.1,0,0.1s0,0.1,0,0.1s0,0.1,0,0.1c0,0.2,0,0.4,0,0.5c0,0.1,0,0.2,0,0.3
					c0,0.1-0.1,0.1-0.1,0.2C33.6,30.2,33.5,30.2,33.5,30.2"/>
				<path id="Path_14169" class="st8" d="M17.9,34.9c-3.4,0-6.2-2.8-6.2-6.2c0-2.5,1.5-4.7,3.8-5.7c3.2-1.2,6.8,0.5,8,3.7
					c1.1,3-0.3,6.3-3.1,7.7C19.6,34.8,18.8,34.9,17.9,34.9 M17.9,24.6c-2.3,0-4.2,1.9-4.2,4.2c0,2.3,1.9,4.2,4.2,4.2
					c2.3,0,4.2-1.9,4.2-4.2c0-1.7-1-3.2-2.5-3.8C19,24.7,18.5,24.6,17.9,24.6"/>
			</g>
		</g>
	</g>
	<g id="Group_24929" transform="translate(277.38 155.674)">
		<g>
			<defs>
				<polygon id="SVGID_00000168105137701402116200000016848336993968832146_" points="0,10.9 27.6,10.7 27.6,38.5 0,38.6 				"/>
			</defs>
			<clipPath id="SVGID_00000157991181021896407370000013128999850662559422_">
				<use xlink:href="#SVGID_00000168105137701402116200000016848336993968832146_"  style="overflow:visible;"/>
			</clipPath>
			<g id="Group_24927-2" style="clip-path:url(#SVGID_00000157991181021896407370000013128999850662559422_);">
				<path id="Path_14167-2" class="st7" d="M27.6,25.1c0,0,0-0.1,0-0.1c0,0,0-0.1,0-0.1c0,0,0-0.1,0-0.1c0,0,0-0.1,0-0.1
					c0,0,0-0.1,0-0.1s0-0.1,0-0.1s0-0.1,0-0.1s0-0.1,0-0.1c0-0.2,0-0.4,0-0.6c0-0.2,0-0.4,0-0.6c0-0.2-0.1-0.4-0.2-0.6
					c-0.1-0.2-0.2-0.3-0.3-0.5c-0.1-0.1-0.3-0.2-0.4-0.2c-0.2-0.1-0.3-0.1-0.5-0.1c-0.2,0-0.4-0.1-0.6-0.1c-0.2,0-0.4,0-0.6,0h-0.1
					h-0.2h-0.1h-0.1l0-0.1l0-0.1l0-0.1l0-0.1c0-0.1-0.1-0.2-0.1-0.4c0-0.1-0.1-0.2-0.1-0.4c0-0.1-0.1-0.2-0.1-0.4
					c0-0.1-0.1-0.2-0.1-0.4c0,0,0-0.1,0-0.1c0,0,0-0.1,0-0.1c0,0,0-0.1-0.1-0.1l-0.1-0.1l-0.1-0.1l-0.1-0.1c0,0,0-0.1-0.1-0.1
					c0,0,0-0.1,0-0.1c0,0,0.1-0.1,0.1-0.1c0,0,0.1-0.1,0.2-0.1c0.1,0,0.1-0.1,0.2-0.1l0.2-0.1c0.1-0.1,0.2-0.1,0.3-0.2
					s0.2-0.1,0.2-0.2c0.1-0.1,0.1-0.1,0.2-0.2c0.1-0.1,0.1-0.1,0.1-0.2c0.1-0.1,0.1-0.2,0.2-0.3c0.1-0.1,0.1-0.2,0.1-0.3
					c0-0.1,0.1-0.2,0.1-0.3c0-0.1,0-0.3,0-0.4c0-0.1-0.1-0.3-0.2-0.4c-0.1-0.1-0.2-0.3-0.3-0.4c-0.1-0.1-0.2-0.2-0.3-0.3
					c-0.1-0.1-0.2-0.2-0.3-0.3l-0.1-0.1L23.8,15L23.7,15l-0.1-0.1l-0.1-0.1l-0.1-0.1l-0.1-0.1l-0.1-0.1c-0.1-0.1-0.2-0.2-0.3-0.3
					s-0.2-0.2-0.3-0.3c-0.1-0.1-0.2-0.2-0.3-0.3c-0.1-0.1-0.2-0.1-0.4-0.2c0,0-0.1,0-0.1,0s-0.1,0-0.1,0c0,0-0.1,0-0.1,0
					c0,0-0.1,0-0.1,0c-0.2,0-0.4,0.1-0.6,0.1c-0.2,0.1-0.4,0.2-0.6,0.4c-0.2,0.2-0.4,0.3-0.5,0.5c-0.2,0.2-0.3,0.4-0.5,0.5l0,0l0,0
					l0,0l0,0c-0.1-0.1-0.2-0.1-0.3-0.1c-0.1,0-0.2-0.1-0.3-0.1c-0.1,0-0.2-0.1-0.3-0.1l-0.3-0.1L18,14.3l-0.2-0.1l-0.2-0.1L17.4,14
					l-0.1,0c-0.1,0-0.2-0.1-0.2-0.1c0,0-0.1,0-0.1,0c0,0,0-0.1-0.1-0.1c0,0,0-0.1,0-0.2c0,0,0-0.1,0-0.1c0,0,0-0.1,0-0.1
					c0,0,0-0.1,0-0.2c0-0.1,0-0.1,0-0.2s0-0.1,0-0.2c0-0.1,0-0.1,0-0.2s0-0.1,0-0.2c0-0.1,0-0.2,0-0.2c0-0.2-0.1-0.4-0.2-0.6
					c-0.1-0.2-0.2-0.3-0.4-0.4c-0.2-0.1-0.3-0.2-0.5-0.2c-0.2-0.1-0.4-0.1-0.7-0.1c-0.1,0-0.2,0-0.2,0c-0.1,0-0.2,0-0.2,0
					c-0.1,0-0.2,0-0.2,0l-0.2,0l-0.1,0l-0.1,0l-0.1,0l-0.1,0l-0.1,0l-0.1,0l-0.1,0L13,11c-0.2,0-0.5,0-0.7,0.1
					c-0.2,0-0.5,0.1-0.7,0.2c-0.2,0.1-0.4,0.3-0.6,0.5c-0.2,0.3-0.2,0.6-0.2,0.9c0,0.1,0,0.1,0,0.2c0,0.1,0,0.1,0,0.2
					c0,0.1,0,0.1,0,0.2s0,0.1,0,0.2s0,0.1,0,0.2s0,0.1,0,0.2c0,0.1,0,0.1,0,0.2c0,0,0,0.1,0,0.1l0,0l0,0l0,0v0l0,0l0,0l0,0l0,0
					l-0.1,0l-0.1,0l-0.1,0l-0.1,0c-0.2,0.1-0.3,0.1-0.5,0.2c-0.2,0.1-0.3,0.1-0.5,0.2c-0.2,0.1-0.3,0.2-0.5,0.2
					c-0.2,0.1-0.3,0.2-0.5,0.2c-0.1-0.2-0.3-0.3-0.4-0.5c-0.1-0.2-0.3-0.3-0.5-0.4C7.4,14,7.2,13.9,7,13.8c-0.2-0.1-0.4-0.1-0.6-0.1
					H6.3c-0.2,0-0.5,0.1-0.7,0.2c-0.2,0.1-0.4,0.2-0.6,0.4c-0.2,0.2-0.4,0.3-0.6,0.5C4.2,15,4,15.2,3.9,15.3l-0.1,0.1l-0.1,0.1
					l-0.1,0.1l-0.1,0.1c-0.1,0.1-0.2,0.2-0.3,0.3c-0.1,0.1-0.1,0.2-0.2,0.3c0,0.1-0.1,0.2-0.1,0.3c0,0.1,0,0.2,0,0.3
					c0,0.2,0,0.4,0.1,0.6c0.1,0.2,0.2,0.3,0.3,0.5c0.1,0.2,0.3,0.3,0.4,0.5C3.8,18.7,4,18.8,4.1,19l0,0l0,0l0,0l0,0
					c-0.1,0.2-0.3,0.4-0.4,0.6c-0.1,0.2-0.2,0.4-0.3,0.6c-0.1,0.2-0.2,0.4-0.3,0.6c-0.1,0.2-0.2,0.4-0.2,0.7c-0.1,0-0.2,0-0.3,0
					c-0.1,0-0.2,0-0.2,0c-0.1,0-0.2,0-0.2,0c-0.1,0-0.1,0-0.2,0c-0.2,0-0.4,0-0.5,0c-0.2,0-0.3,0.1-0.5,0.1c-0.1,0-0.3,0.1-0.4,0.2
					c-0.1,0.1-0.2,0.1-0.3,0.2c-0.2,0.2-0.3,0.4-0.4,0.6C0.1,23,0,23.2,0,23.5c0,0.3,0,0.5,0,0.8c0,0.3,0,0.5,0.1,0.8
					c0,0,0,0.1,0,0.1l0,0.1c0,0,0,0.1,0,0.1c0,0,0,0.1,0,0.1v0.1v0.1v0.1v0.1c0,0.2,0,0.3,0,0.5c0,0.2,0.1,0.4,0.1,0.5
					c0.1,0.2,0.1,0.3,0.2,0.5c0.1,0.2,0.3,0.3,0.4,0.4c0.1,0,0.2,0.1,0.3,0.1c0.1,0,0.2,0.1,0.3,0.1c0.1,0,0.2,0,0.3,0
					c0.1,0,0.2,0,0.4,0c0.1,0,0.2,0,0.3,0s0.2,0,0.3,0s0.2,0,0.3,0l0.3,0c0,0.2,0.1,0.3,0.1,0.5c0,0.2,0.1,0.3,0.1,0.4
					c0.1,0.1,0.1,0.3,0.2,0.4c0.1,0.1,0.1,0.3,0.2,0.4c0,0,0,0,0,0.1s0,0,0,0.1l0,0.1l0,0.1l0,0l0,0.1l0,0.1l0,0.1l0,0l0,0l0,0
					c0,0,0,0,0,0.1c0,0-0.1,0.1-0.1,0.1c0,0-0.1,0.1-0.1,0.1s-0.1,0.1-0.1,0.1l-0.2,0.1c-0.1,0.1-0.3,0.2-0.4,0.4
					c-0.1,0.1-0.2,0.3-0.3,0.4c-0.1,0.2-0.2,0.3-0.2,0.5c0,0.2,0,0.4,0.1,0.6c0.1,0.3,0.3,0.6,0.5,0.9C3.4,33.7,3.7,34,4,34.3
					c0.3,0.3,0.6,0.5,1,0.8c0.3,0.2,0.5,0.3,0.8,0.5c0,0,0.1,0,0.1,0c0,0,0.1,0,0.1,0c0,0,0.1,0,0.1,0c0,0,0.1,0,0.1,0
					c0.2,0,0.4,0,0.6-0.1c0.2-0.1,0.4-0.2,0.5-0.3C7.7,35.1,7.8,35,8,34.8c0.2-0.1,0.3-0.3,0.4-0.4c0.2,0.1,0.4,0.2,0.6,0.4
					c0.2,0.1,0.4,0.2,0.6,0.3c0.2,0.1,0.4,0.2,0.6,0.2s0.4,0.1,0.7,0.2c0,0,0,0,0,0.1c0,0,0,0,0,0.1l0,0.1c0,0,0,0,0,0.1
					c0,0.2-0.1,0.4-0.1,0.6c0,0.2,0,0.4,0,0.6c0,0.2,0,0.4,0.1,0.6c0.1,0.2,0.2,0.4,0.3,0.5c0.1,0.1,0.2,0.2,0.3,0.3
					c0.1,0.1,0.3,0.1,0.4,0.2c0.1,0,0.3,0.1,0.4,0.1c0.2,0,0.3,0,0.5,0h0.4h0.1h0.1h0.1h0.1h0.1l0.2,0l0.2,0h0.2h0.2
					c0.1,0,0.2,0,0.3,0s0.2,0,0.3,0c0.1,0,0.2,0,0.4-0.1c0.1,0,0.2-0.1,0.3-0.1c0.1-0.1,0.3-0.1,0.4-0.2c0.1-0.1,0.2-0.2,0.3-0.3
					c0.1-0.1,0.2-0.2,0.2-0.3c0.1-0.1,0.1-0.3,0.1-0.4c0-0.1,0-0.2,0-0.2c0-0.1,0-0.2,0-0.3c0-0.1,0-0.2,0-0.3c0-0.1,0-0.2-0.1-0.3
					c0-0.1,0-0.1,0-0.2s0-0.1,0-0.2c0-0.1,0-0.1,0-0.2c0,0,0-0.1,0-0.1c0,0,0.1-0.1,0.1-0.1c0.1,0,0.1-0.1,0.2-0.1s0.2-0.1,0.3-0.1
					l0.2-0.1l0.2-0.1c0.1,0,0.1,0,0.2-0.1s0.1,0,0.2-0.1s0.1,0,0.2-0.1l0.1,0l0.1-0.1l0.1-0.1l0.1-0.1c0.1,0,0.1-0.1,0.2-0.1
					c0.1,0,0.1-0.1,0.2-0.1c0.1,0,0.1-0.1,0.2-0.1c0.1,0,0.1,0,0.2,0c0,0,0,0,0.1,0c0,0,0.1,0,0.1,0c0,0,0.1,0,0.1,0.1
					c0,0,0.1,0.1,0.1,0.1c0,0,0.1,0.1,0.1,0.1c0,0,0.1,0.1,0.1,0.1c0,0,0.1,0.1,0.1,0.1s0.1,0.1,0.1,0.2c0.1,0.1,0.2,0.2,0.3,0.3
					c0.1,0.1,0.2,0.2,0.3,0.3c0.1,0.1,0.2,0.2,0.4,0.2c0.1,0.1,0.3,0.1,0.4,0.1c0.1,0,0.1,0,0.2,0c0.1,0,0.1,0,0.2,0
					c0.1,0,0.1,0,0.2-0.1c0.1,0,0.1-0.1,0.2-0.1c0.2-0.1,0.4-0.3,0.6-0.5c0.2-0.2,0.4-0.4,0.6-0.6c0.2-0.2,0.4-0.4,0.6-0.7
					c0.2-0.2,0.3-0.4,0.5-0.7c0.1-0.2,0.2-0.5,0.3-0.8c0-0.2,0-0.4-0.1-0.6c-0.1-0.2-0.2-0.4-0.3-0.5c-0.1-0.2-0.3-0.3-0.5-0.5
					L24,30.7l-0.1-0.1l-0.1-0.1l-0.1-0.1c-0.1-0.1-0.1-0.1-0.2-0.2c0,0-0.1-0.1-0.1-0.1c0-0.1,0-0.1,0-0.2c0-0.1,0.1-0.2,0.1-0.3
					c0.1-0.2,0.2-0.4,0.2-0.5c0.1-0.2,0.1-0.4,0.2-0.5c0.1-0.2,0.1-0.4,0.2-0.5c0.1-0.2,0.1-0.4,0.2-0.5h0h0h0h0l0.2,0l0.3,0
					c0.1,0,0.2,0,0.3,0s0.2,0,0.3,0c0.2,0,0.3,0,0.4,0c0.1,0,0.3,0,0.4-0.1c0.1,0,0.2-0.1,0.3-0.1c0.1,0,0.2-0.1,0.3-0.1
					c0.2-0.1,0.3-0.3,0.4-0.4c0.1-0.2,0.2-0.4,0.2-0.6c0-0.2,0-0.4,0-0.6C27.6,25.4,27.6,25.2,27.6,25.1 M13.8,30.3
					c-1.3,0-2.5-0.5-3.4-1.4c-0.9-0.9-1.4-2.2-1.4-3.5c0-2,1.2-3.8,3-4.5c2.5-1.1,5.3,0.1,6.4,2.5c0,0,0,0,0,0
					c1,2.5-0.1,5.4-2.6,6.5C15.1,30.1,14.4,30.3,13.8,30.3"/>
				<path id="Path_14168-2" class="st8" d="M27.6,25.1c0,0,0-0.1,0-0.1c0,0,0-0.1,0-0.1c0,0,0-0.1,0-0.1c0,0,0-0.1,0-0.1
					c0,0,0-0.1,0-0.1s0-0.1,0-0.1s0-0.1,0-0.1s0-0.1,0-0.1c0-0.2,0-0.4,0-0.6c0-0.2,0-0.4,0-0.6c0-0.2-0.1-0.4-0.2-0.6
					c-0.1-0.2-0.2-0.3-0.3-0.5c-0.1-0.1-0.3-0.2-0.4-0.2c-0.2-0.1-0.3-0.1-0.5-0.1c-0.2,0-0.4-0.1-0.6-0.1c-0.2,0-0.4,0-0.6,0h-0.1
					h-0.2h-0.1h-0.1l0-0.1l0-0.1l0-0.1l0-0.1c0-0.1-0.1-0.2-0.1-0.4c0-0.1-0.1-0.2-0.1-0.4c0-0.1-0.1-0.2-0.1-0.4
					c0-0.1-0.1-0.2-0.1-0.4c0,0,0-0.1,0-0.1c0,0,0-0.1,0-0.1c0,0,0-0.1-0.1-0.1l-0.1-0.1l-0.1-0.1l-0.1-0.1c0,0,0-0.1-0.1-0.1
					c0,0,0-0.1,0-0.1c0,0,0.1-0.1,0.1-0.1c0,0,0.1-0.1,0.2-0.1c0.1,0,0.1-0.1,0.2-0.1l0.2-0.1c0.1-0.1,0.2-0.1,0.3-0.2
					s0.2-0.1,0.2-0.2c0.1-0.1,0.1-0.1,0.2-0.2c0.1-0.1,0.1-0.1,0.1-0.2c0.1-0.1,0.1-0.2,0.2-0.3c0.1-0.1,0.1-0.2,0.1-0.3
					c0-0.1,0.1-0.2,0.1-0.3c0-0.1,0-0.3,0-0.4c0-0.1-0.1-0.3-0.2-0.4c-0.1-0.1-0.2-0.3-0.3-0.4c-0.1-0.1-0.2-0.2-0.3-0.3
					c-0.1-0.1-0.2-0.2-0.3-0.3l-0.1-0.1L23.8,15L23.7,15l-0.1-0.1l-0.1-0.1l-0.1-0.1l-0.1-0.1l-0.1-0.1c-0.1-0.1-0.2-0.2-0.3-0.3
					s-0.2-0.2-0.3-0.3c-0.1-0.1-0.2-0.2-0.3-0.3c-0.1-0.1-0.2-0.1-0.4-0.2c0,0-0.1,0-0.1,0s-0.1,0-0.1,0c0,0-0.1,0-0.1,0
					c0,0-0.1,0-0.1,0c-0.2,0-0.4,0.1-0.6,0.1c-0.2,0.1-0.4,0.2-0.6,0.4c-0.2,0.2-0.4,0.3-0.5,0.5c-0.2,0.2-0.3,0.4-0.5,0.5l0,0l0,0
					l0,0l0,0c-0.1-0.1-0.2-0.1-0.3-0.1c-0.1,0-0.2-0.1-0.3-0.1c-0.1,0-0.2-0.1-0.3-0.1l-0.3-0.1L18,14.3l-0.2-0.1l-0.2-0.1L17.4,14
					l-0.1,0c-0.1,0-0.2-0.1-0.2-0.1c0,0-0.1,0-0.1,0c0,0,0-0.1-0.1-0.1c0,0,0-0.1,0-0.2c0,0,0-0.1,0-0.1c0,0,0-0.1,0-0.1
					c0,0,0-0.1,0-0.2c0-0.1,0-0.1,0-0.2s0-0.1,0-0.2c0-0.1,0-0.1,0-0.2s0-0.1,0-0.2c0-0.1,0-0.2,0-0.2c0-0.2-0.1-0.4-0.2-0.6
					c-0.1-0.2-0.2-0.3-0.4-0.4c-0.2-0.1-0.3-0.2-0.5-0.2c-0.2-0.1-0.4-0.1-0.7-0.1c-0.1,0-0.2,0-0.2,0c-0.1,0-0.2,0-0.2,0
					c-0.1,0-0.2,0-0.2,0l-0.2,0l-0.1,0l-0.1,0l-0.1,0l-0.1,0l-0.1,0l-0.1,0l-0.1,0L13,11c-0.2,0-0.5,0-0.7,0.1
					c-0.2,0-0.5,0.1-0.7,0.2c-0.2,0.1-0.4,0.3-0.6,0.5c-0.2,0.3-0.2,0.6-0.2,0.9c0,0.1,0,0.1,0,0.2c0,0.1,0,0.1,0,0.2
					c0,0.1,0,0.1,0,0.2s0,0.1,0,0.2s0,0.1,0,0.2s0,0.1,0,0.2c0,0.1,0,0.1,0,0.2c0,0,0,0.1,0,0.1l0,0l0,0l0,0v0l0,0l0,0l0,0l0,0
					l-0.1,0l-0.1,0l-0.1,0l-0.1,0c-0.2,0.1-0.3,0.1-0.5,0.2c-0.2,0.1-0.3,0.1-0.5,0.2c-0.2,0.1-0.3,0.2-0.5,0.2
					c-0.2,0.1-0.3,0.2-0.5,0.2c-0.1-0.2-0.3-0.3-0.4-0.5c-0.1-0.2-0.3-0.3-0.5-0.4C7.4,14,7.2,13.9,7,13.8c-0.2-0.1-0.4-0.1-0.6-0.1
					H6.3c-0.2,0-0.5,0.1-0.7,0.2c-0.2,0.1-0.4,0.2-0.6,0.4c-0.2,0.2-0.4,0.3-0.6,0.5C4.2,15,4,15.2,3.9,15.3l-0.1,0.1l-0.1,0.1
					l-0.1,0.1l-0.1,0.1c-0.1,0.1-0.2,0.2-0.3,0.3c-0.1,0.1-0.1,0.2-0.2,0.3c0,0.1-0.1,0.2-0.1,0.3c0,0.1,0,0.2,0,0.3
					c0,0.2,0,0.4,0.1,0.6c0.1,0.2,0.2,0.3,0.3,0.5c0.1,0.2,0.3,0.3,0.4,0.5C3.8,18.7,4,18.8,4.1,19l0,0l0,0l0,0l0,0
					c-0.1,0.2-0.3,0.4-0.4,0.6c-0.1,0.2-0.2,0.4-0.3,0.6c-0.1,0.2-0.2,0.4-0.3,0.6c-0.1,0.2-0.2,0.4-0.2,0.7c-0.1,0-0.2,0-0.3,0
					c-0.1,0-0.2,0-0.2,0c-0.1,0-0.2,0-0.2,0c-0.1,0-0.1,0-0.2,0c-0.2,0-0.4,0-0.5,0c-0.2,0-0.3,0.1-0.5,0.1c-0.1,0-0.3,0.1-0.4,0.2
					c-0.1,0.1-0.2,0.1-0.3,0.2c-0.2,0.2-0.3,0.4-0.4,0.6C0.1,23,0,23.2,0,23.5c0,0.3,0,0.5,0,0.8c0,0.3,0,0.5,0.1,0.8
					c0,0,0,0.1,0,0.1l0,0.1c0,0,0,0.1,0,0.1c0,0,0,0.1,0,0.1v0.1v0.1v0.1v0.1c0,0.2,0,0.3,0,0.5c0,0.2,0.1,0.4,0.1,0.5
					c0.1,0.2,0.1,0.3,0.2,0.5c0.1,0.2,0.3,0.3,0.4,0.4c0.1,0,0.2,0.1,0.3,0.1c0.1,0,0.2,0.1,0.3,0.1c0.1,0,0.2,0,0.3,0
					c0.1,0,0.2,0,0.4,0c0.1,0,0.2,0,0.3,0s0.2,0,0.3,0s0.2,0,0.3,0l0.3,0c0,0.2,0.1,0.3,0.1,0.5c0,0.2,0.1,0.3,0.1,0.4
					c0.1,0.1,0.1,0.3,0.2,0.4c0.1,0.1,0.1,0.3,0.2,0.4c0,0,0,0,0,0.1s0,0,0,0.1l0,0.1l0,0.1l0,0l0,0.1l0,0.1l0,0.1l0,0l0,0l0,0
					c0,0,0,0,0,0.1c0,0-0.1,0.1-0.1,0.1c0,0-0.1,0.1-0.1,0.1s-0.1,0.1-0.1,0.1l-0.2,0.1c-0.1,0.1-0.3,0.2-0.4,0.4
					c-0.1,0.1-0.2,0.3-0.3,0.4c-0.1,0.2-0.2,0.3-0.2,0.5c0,0.2,0,0.4,0.1,0.6c0.1,0.3,0.3,0.6,0.5,0.9C3.4,33.7,3.7,34,4,34.3
					c0.3,0.3,0.6,0.5,1,0.8c0.3,0.2,0.5,0.3,0.8,0.5c0,0,0.1,0,0.1,0c0,0,0.1,0,0.1,0c0,0,0.1,0,0.1,0c0,0,0.1,0,0.1,0
					c0.2,0,0.4,0,0.6-0.1c0.2-0.1,0.4-0.2,0.5-0.3C7.7,35.1,7.8,35,8,34.8c0.2-0.1,0.3-0.3,0.4-0.4c0.2,0.1,0.4,0.2,0.6,0.4
					c0.2,0.1,0.4,0.2,0.6,0.3c0.2,0.1,0.4,0.2,0.6,0.2s0.4,0.1,0.7,0.2c0,0,0,0,0,0.1c0,0,0,0,0,0.1l0,0.1c0,0,0,0,0,0.1
					c0,0.2-0.1,0.4-0.1,0.6c0,0.2,0,0.4,0,0.6c0,0.2,0,0.4,0.1,0.6c0.1,0.2,0.2,0.4,0.3,0.5c0.1,0.1,0.2,0.2,0.3,0.3
					c0.1,0.1,0.3,0.1,0.4,0.2c0.1,0,0.3,0.1,0.4,0.1c0.2,0,0.3,0,0.5,0h0.4h0.1h0.1h0.1h0.1h0.1l0.2,0l0.2,0h0.2h0.2
					c0.1,0,0.2,0,0.3,0s0.2,0,0.3,0c0.1,0,0.2,0,0.4-0.1c0.1,0,0.2-0.1,0.3-0.1c0.1-0.1,0.3-0.1,0.4-0.2c0.1-0.1,0.2-0.2,0.3-0.3
					c0.1-0.1,0.2-0.2,0.2-0.3c0.1-0.1,0.1-0.3,0.1-0.4c0-0.1,0-0.2,0-0.2c0-0.1,0-0.2,0-0.3c0-0.1,0-0.2,0-0.3c0-0.1,0-0.2-0.1-0.3
					c0-0.1,0-0.1,0-0.2s0-0.1,0-0.2c0-0.1,0-0.1,0-0.2c0,0,0-0.1,0-0.1c0,0,0.1-0.1,0.1-0.1c0.1,0,0.1-0.1,0.2-0.1s0.2-0.1,0.3-0.1
					l0.2-0.1l0.2-0.1c0.1,0,0.1,0,0.2-0.1s0.1,0,0.2-0.1s0.1,0,0.2-0.1l0.1,0l0.1-0.1l0.1-0.1l0.1-0.1c0.1,0,0.1-0.1,0.2-0.1
					c0.1,0,0.1-0.1,0.2-0.1c0.1,0,0.1-0.1,0.2-0.1c0.1,0,0.1,0,0.2,0c0,0,0,0,0.1,0c0,0,0.1,0,0.1,0c0,0,0.1,0,0.1,0.1
					c0,0,0.1,0.1,0.1,0.1c0,0,0.1,0.1,0.1,0.1c0,0,0.1,0.1,0.1,0.1c0,0,0.1,0.1,0.1,0.1s0.1,0.1,0.1,0.2c0.1,0.1,0.2,0.2,0.3,0.3
					c0.1,0.1,0.2,0.2,0.3,0.3c0.1,0.1,0.2,0.2,0.4,0.2c0.1,0.1,0.3,0.1,0.4,0.1c0.1,0,0.1,0,0.2,0c0.1,0,0.1,0,0.2,0
					c0.1,0,0.1,0,0.2-0.1c0.1,0,0.1-0.1,0.2-0.1c0.2-0.1,0.4-0.3,0.6-0.5c0.2-0.2,0.4-0.4,0.6-0.6c0.2-0.2,0.4-0.4,0.6-0.7
					c0.2-0.2,0.3-0.4,0.5-0.7c0.1-0.2,0.2-0.5,0.3-0.8c0-0.2,0-0.4-0.1-0.6c-0.1-0.2-0.2-0.4-0.3-0.5c-0.1-0.2-0.3-0.3-0.5-0.5
					L24,30.7l-0.1-0.1l-0.1-0.1l-0.1-0.1c-0.1-0.1-0.1-0.1-0.2-0.2c0,0-0.1-0.1-0.1-0.1c0-0.1,0-0.1,0-0.2c0-0.1,0.1-0.2,0.1-0.3
					c0.1-0.2,0.2-0.4,0.2-0.5c0.1-0.2,0.1-0.4,0.2-0.5c0.1-0.2,0.1-0.4,0.2-0.5c0.1-0.2,0.1-0.4,0.2-0.5h0h0h0h0l0.2,0l0.3,0
					c0.1,0,0.2,0,0.3,0s0.2,0,0.3,0c0.2,0,0.3,0,0.4,0c0.1,0,0.3,0,0.4-0.1c0.1,0,0.2-0.1,0.3-0.1c0.1,0,0.2-0.1,0.3-0.1
					c0.2-0.1,0.3-0.3,0.4-0.4c0.1-0.2,0.2-0.4,0.2-0.6c0-0.2,0-0.4,0-0.6C27.6,25.4,27.6,25.2,27.6,25.1 M25.8,25.9c0,0-0.1,0-0.1,0
					c0,0-0.1,0-0.1,0c0,0-0.1,0-0.2,0c-0.1,0-0.1,0-0.2,0c-0.1,0-0.1,0-0.2,0l-0.2,0l-0.2,0l-0.2,0l-0.2,0l-0.2,0l-0.2,0h-0.2l0,0
					c-0.1,0-0.1,0-0.2,0c-0.1,0-0.1,0-0.2,0.1c0,0-0.1,0.1-0.1,0.1c0,0-0.1,0.1-0.1,0.1c0,0-0.1,0.1-0.1,0.1c0,0,0,0,0,0.1
					s0,0.1,0,0.1c0,0.2-0.1,0.3-0.2,0.5s-0.1,0.3-0.2,0.5s-0.1,0.3-0.2,0.5s-0.1,0.3-0.2,0.5l-0.1,0.3c0,0.1-0.1,0.2-0.1,0.3
					c0,0.1-0.1,0.2-0.1,0.3c0,0.1-0.1,0.2-0.1,0.3c-0.1,0.1-0.1,0.3-0.1,0.4c0,0.1,0,0.2,0,0.4c0,0.1,0.1,0.2,0.1,0.4
					c0.1,0.1,0.1,0.3,0.2,0.4c0,0.1,0.1,0.1,0.1,0.2c0.1,0.1,0.1,0.1,0.2,0.1s0.1,0.1,0.2,0.1s0.1,0.1,0.2,0.1s0.1,0.1,0.2,0.1
					s0.1,0.1,0.2,0.1c0.1,0,0.1,0.1,0.1,0.1c0,0,0.1,0.1,0.1,0.1c0,0,0,0.1,0,0.1c0,0.1-0.1,0.1-0.1,0.2c-0.1,0.1-0.2,0.2-0.3,0.4
					c-0.1,0.1-0.3,0.3-0.5,0.5l0,0l0,0l0,0l0,0l0,0l0,0l0,0.1l0,0l-0.1,0.1c0,0-0.1,0.1-0.1,0.1c0,0-0.1,0.1-0.1,0.1
					c0,0-0.1,0-0.1,0.1l0,0h0h0h0c0,0,0,0-0.1,0c0,0-0.1,0-0.1-0.1c0,0-0.1-0.1-0.1-0.1c0,0-0.1-0.1-0.1-0.1l0,0l0,0l0,0l0,0l0-0.1
					l0-0.1l0-0.1l0-0.1c-0.1-0.1-0.2-0.2-0.2-0.3c-0.1-0.1-0.2-0.2-0.3-0.3c-0.1-0.1-0.2-0.2-0.4-0.2c-0.1-0.1-0.3-0.1-0.4-0.1h0h0
					h0h0c-0.1,0-0.2,0-0.3,0c-0.1,0-0.2,0.1-0.3,0.1c-0.1,0-0.2,0.1-0.3,0.1s-0.2,0.1-0.2,0.1l0,0l0,0l0,0l0,0
					c-0.2,0.1-0.4,0.2-0.6,0.3s-0.4,0.2-0.6,0.3c-0.2,0.1-0.4,0.2-0.6,0.2c-0.2,0.1-0.4,0.1-0.7,0.2c-0.1,0-0.1,0-0.2,0.1
					c-0.1,0-0.1,0.1-0.2,0.1c-0.1,0.1-0.1,0.1-0.1,0.2c0,0.1-0.1,0.1-0.1,0.2c0,0.1,0,0.2,0,0.3c0,0.1,0,0.2,0,0.2s0,0.2,0,0.2
					s0,0.2,0,0.2c0,0,0,0.1,0,0.1c0,0,0,0.1,0,0.1c0,0,0,0.1,0,0.1s0,0.1,0,0.1c0,0.1,0,0.1,0,0.2c0,0.1,0,0.1,0,0.2
					c0,0,0,0.1-0.1,0.1c0,0-0.1,0.1-0.1,0.1c-0.1,0.1-0.1,0.1-0.2,0.1c-0.1,0-0.2,0.1-0.3,0.1c-0.1,0-0.2,0-0.3,0
					c-0.1,0-0.2,0-0.3,0h-0.3h-0.1h0l-0.3,0c-0.1,0-0.2,0-0.2,0c-0.1,0-0.1,0-0.2,0c0,0-0.1,0-0.1,0c0,0,0,0,0,0c0,0,0-0.1,0-0.1
					c0-0.1,0-0.1,0-0.2c0-0.1,0-0.1,0-0.2c0,0,0-0.1,0-0.1c0,0,0-0.1,0-0.1c0,0,0-0.1,0-0.1l0-0.1c0-0.1,0-0.2,0-0.3s0-0.2,0-0.3
					s0-0.2,0-0.3c0-0.1,0-0.2,0-0.3c0-0.1,0-0.2-0.1-0.3c0-0.1-0.1-0.2-0.2-0.2c-0.1-0.1-0.1-0.1-0.2-0.2C12,34,11.9,34,11.8,34
					c-0.3,0-0.5-0.1-0.8-0.1c-0.3-0.1-0.5-0.1-0.8-0.2c-0.2-0.1-0.5-0.2-0.7-0.4c-0.2-0.1-0.5-0.3-0.7-0.5c0,0,0,0-0.1,0
					c0,0,0,0-0.1,0c0,0,0,0-0.1,0c0,0,0,0-0.1,0c0,0,0,0-0.1,0l-0.1,0l-0.1,0H8.3c0,0-0.1,0-0.1,0c0,0-0.1,0-0.1,0
					c0,0-0.1,0-0.1,0.1c0,0-0.1,0.1-0.1,0.1c0,0-0.1,0.1-0.1,0.1c0,0-0.1,0.1-0.1,0.1l-0.1,0.1l-0.1,0.1c-0.1,0.1-0.1,0.1-0.2,0.2
					S7.1,33.6,7,33.7c-0.1,0.1-0.1,0.1-0.2,0.2c-0.1,0-0.1,0.1-0.2,0.1l0,0l0,0h0h0c-0.1,0-0.2,0-0.3-0.1c-0.1-0.1-0.2-0.1-0.3-0.2
					c-0.1-0.1-0.2-0.2-0.3-0.3c-0.1-0.1-0.2-0.2-0.3-0.3l-0.1-0.1l-0.1-0.1L5.1,33L5,33l-0.1,0l-0.1,0l-0.1,0l-0.1-0.1
					c-0.1-0.1-0.2-0.2-0.3-0.2c-0.1-0.1-0.1-0.1-0.2-0.2c0-0.1-0.1-0.1-0.1-0.2c0-0.1,0-0.1,0-0.2c0-0.1,0.1-0.1,0.1-0.2
					c0.1-0.1,0.1-0.1,0.2-0.2c0.1-0.1,0.1-0.1,0.2-0.2s0.1-0.1,0.2-0.2L5,31.2l0.1-0.1l0.1-0.1L5.2,31l0,0c0.1-0.1,0.2-0.2,0.2-0.2
					c0.1-0.1,0.1-0.2,0.2-0.3c0-0.1,0.1-0.2,0.1-0.3c0-0.1,0-0.3,0-0.4c0-0.1,0-0.2-0.1-0.3c0-0.1-0.1-0.2-0.1-0.2S5.4,29.1,5.4,29
					s-0.1-0.2-0.1-0.2l-0.1-0.2c0,0-0.1-0.1-0.1-0.1s0-0.1-0.1-0.1s0-0.1-0.1-0.1c0-0.1-0.1-0.3-0.1-0.4s-0.1-0.3-0.1-0.4
					S4.7,27.1,4.7,27s-0.1-0.2-0.1-0.3c0-0.1-0.1-0.2-0.1-0.2c0-0.1-0.1-0.1-0.2-0.2c-0.1-0.1-0.1-0.1-0.2-0.1c-0.1,0-0.2,0-0.2,0h0
					h0h0l-0.3,0l-0.3,0c-0.1,0-0.2,0-0.3,0c-0.1,0-0.2,0-0.3,0l-0.2,0H2.4H2.3H2.2H2.1c-0.1,0-0.1,0-0.2,0c0,0-0.1,0-0.1,0
					c0,0-0.1-0.1-0.1-0.1c0-0.1,0-0.2-0.1-0.2c0-0.2-0.1-0.3-0.1-0.5s0-0.3,0-0.5s0-0.3,0-0.4c0-0.1,0-0.3,0-0.4l0-0.1
					c0-0.1,0-0.1,0-0.2c0-0.1,0-0.1,0-0.2c0-0.1,0-0.1,0.1-0.2c0,0,0-0.1,0.1-0.1l0,0c0,0,0,0,0.1,0c0,0,0.1,0,0.1,0
					c0,0,0.1,0,0.2,0c0.1,0,0.3,0,0.4,0c0.1,0,0.3,0,0.4,0c0.1,0,0.2,0,0.3,0.1c0.1,0,0.2,0,0.2,0l0,0l0,0h0h0c0.1,0,0.2,0,0.3,0
					c0.1,0,0.2-0.1,0.2-0.1C4.2,23.1,4.3,23,4.3,23c0-0.1,0.1-0.2,0.1-0.2c0.1-0.3,0.1-0.6,0.2-0.9c0.2-0.6,0.4-1.1,0.8-1.6
					c0.2-0.3,0.3-0.5,0.5-0.8C6,19.4,6,19.3,6.1,19.2c0-0.1,0-0.2,0-0.3c0-0.1,0-0.2-0.1-0.2c0-0.1-0.1-0.1-0.1-0.2
					c0,0-0.1-0.1-0.1-0.1c0,0-0.1-0.1-0.1-0.1l-0.1-0.1L5.4,18c-0.2-0.2-0.3-0.3-0.4-0.4c-0.1-0.1-0.2-0.2-0.3-0.3
					c-0.1-0.1-0.1-0.2-0.1-0.3c0-0.1,0-0.2,0.1-0.3c0.1-0.1,0.1-0.2,0.2-0.3c0.1-0.1,0.2-0.2,0.3-0.3c0.1-0.1,0.2-0.2,0.3-0.3
					c0.1-0.1,0.2-0.1,0.3-0.2c0,0,0.1,0,0.1-0.1c0,0,0.1,0,0.1,0c0,0,0.1,0,0.1,0c0,0,0.1,0,0.1,0c0.1,0,0.2,0,0.3,0.1
					c0.1,0,0.2,0.1,0.2,0.2c0.1,0.1,0.2,0.2,0.2,0.2c0.1,0.1,0.2,0.2,0.3,0.3l0,0.1l0,0.1l0,0.1l0,0.1c0,0.1,0.1,0.1,0.1,0.2
					c0,0,0.1,0.1,0.2,0.1c0.1,0,0.1,0.1,0.2,0.1c0.1,0,0.1,0,0.2,0c0,0,0.1,0,0.1,0c0,0,0.1,0,0.1,0c0,0,0.1,0,0.1,0
					c0,0,0.1,0,0.1-0.1c0.2-0.1,0.4-0.3,0.6-0.4s0.4-0.2,0.6-0.3s0.4-0.2,0.6-0.3s0.4-0.2,0.7-0.3l0,0l0.1,0l0.1,0l0,0
					c0.1,0,0.1,0,0.2-0.1s0.1-0.1,0.2-0.1c0.1,0,0.1-0.1,0.2-0.1c0.1,0,0.1-0.1,0.2-0.1c0.1-0.1,0.1-0.2,0.2-0.3
					c0-0.1,0.1-0.2,0.1-0.3c0-0.1,0-0.2,0-0.3c0-0.1,0-0.2,0-0.3c0,0,0-0.1,0-0.1s0-0.1,0-0.1c0,0,0-0.1,0-0.1s0-0.1,0-0.1
					s0-0.1,0-0.1s0-0.1,0-0.1c0,0,0-0.1,0-0.1c0,0,0-0.1,0-0.1c0-0.1,0.1-0.2,0.2-0.3c0.1,0,0.2-0.1,0.3-0.1c0.1,0,0.2,0,0.4,0
					l0.2,0l0.4,0l0.2,0l0.2,0l0.2,0l0.2,0h0.1h0.1h0h0c0.1,0,0.1,0,0.2,0c0.1,0,0.2,0,0.3,0.1c0,0,0.1,0,0.1,0.1c0,0,0,0,0,0
					c0,0,0,0,0,0.1s0,0.1,0,0.1c0,0,0,0.1,0,0.1s0,0.1,0,0.1c0,0,0,0.1,0,0.1s0,0.1,0,0.1c0,0,0,0.1,0,0.1c0,0,0,0.1,0,0.1
					c0,0,0,0.1,0,0.1c0,0,0,0.1,0,0.1s0,0.1,0,0.1c0,0.1,0,0.2,0,0.3c0,0.1,0,0.2,0,0.3c0,0.1,0,0.2,0.1,0.3c0,0.1,0.1,0.2,0.1,0.3
					c0.1,0.1,0.1,0.2,0.2,0.3c0.1,0.1,0.1,0.1,0.2,0.2c0.1,0,0.2,0.1,0.2,0.1c0.1,0,0.2,0.1,0.2,0.1l0.3,0.1
					c0.2,0.1,0.4,0.2,0.6,0.2s0.4,0.2,0.6,0.2c0.2,0.1,0.4,0.2,0.6,0.3c0.2,0.1,0.4,0.2,0.6,0.3l0,0l0,0l0,0l0,0c0,0,0.1,0,0.1,0
					c0,0,0.1,0,0.1,0c0,0,0.1,0,0.1,0c0,0,0.1,0,0.1,0c0.1,0,0.1,0,0.2,0c0,0,0.1,0,0.1,0c0,0,0.1,0,0.1-0.1c0,0,0.1-0.1,0.1-0.1
					c0,0,0.1-0.1,0.1-0.1l0.1-0.1l0.1-0.1l0.1-0.1c0.1-0.1,0.1-0.2,0.2-0.3c0.1-0.1,0.1-0.2,0.2-0.2c0.1-0.1,0.1-0.1,0.2-0.2
					c0.1-0.1,0.1-0.1,0.2-0.1l0,0l0,0l0,0h0c0,0,0.1,0,0.1,0c0.1,0,0.1,0.1,0.1,0.1c0,0,0.1,0.1,0.2,0.1s0.1,0.1,0.2,0.2l0.1,0.1
					l0.1,0.1l0.1,0.1l0.1,0.1l0.1,0.1l0.1,0.1l0.1,0.1l0.1,0.1c0.2,0.1,0.3,0.2,0.4,0.3c0.1,0.1,0.2,0.2,0.2,0.3
					c0,0.1,0.1,0.2,0.1,0.2c0,0.1,0,0.2-0.1,0.2c0,0-0.1,0.1-0.1,0.1c0,0-0.1,0.1-0.1,0.1c0,0-0.1,0.1-0.1,0.1l-0.2,0.1
					c-0.1,0-0.1,0.1-0.2,0.1s-0.1,0.1-0.2,0.1s-0.1,0.1-0.2,0.1c-0.1,0-0.1,0.1-0.1,0.1c-0.1,0.1-0.2,0.2-0.3,0.4
					c-0.1,0.1-0.1,0.2-0.1,0.3c0,0.1,0,0.2,0,0.3c0,0.1,0.1,0.2,0.1,0.4c0,0.1,0,0.1,0.1,0.2c0,0.1,0,0.1,0.1,0.2s0.1,0.1,0.1,0.2
					l0.1,0.1l0.1,0.1c0,0,0,0.1,0.1,0.1s0,0.1,0.1,0.1s0,0.1,0.1,0.1c0,0.1,0.1,0.2,0.1,0.2c0,0.1,0.1,0.2,0.1,0.2
					c0,0.1,0,0.2,0.1,0.2s0,0.2,0.1,0.2l0.1,0.2c0,0.1,0,0.1,0.1,0.2c0,0.1,0,0.1,0.1,0.2c0,0.1,0,0.1,0.1,0.2
					c0,0.1,0.1,0.2,0.1,0.2c0,0.1,0.1,0.1,0.2,0.2c0.1,0,0.1,0.1,0.2,0.1c0.1,0,0.2,0,0.2,0.1l0.2,0l0.2,0h0.2h0.2l0.3,0
					c0.1,0,0.2,0,0.3,0s0.2,0,0.3,0c0.1,0,0.2,0,0.3,0.1c0.1,0,0.2,0.1,0.2,0.1c0.1,0,0.1,0.1,0.1,0.2c0,0.1,0.1,0.2,0.1,0.3
					c0,0.1,0,0.3,0,0.5c0,0,0,0.1,0,0.1c0,0,0,0.1,0,0.1c0,0,0,0.1,0,0.1c0,0,0,0.1,0,0.1c0,0,0,0.1,0,0.1c0,0,0,0.1,0,0.1
					c0,0,0,0.1,0,0.1c0,0,0,0.1,0,0.1c0,0.2,0,0.3,0,0.4c0,0.1,0,0.2,0,0.2c0,0.1,0,0.1-0.1,0.1C25.9,25.9,25.8,25.9,25.8,25.9"/>
				<path id="Path_14169-2" class="st8" d="M13.8,29.6c-0.6,0-1.3-0.1-1.9-0.4C10.2,28.5,9,26.7,9,24.8c0-1.9,1.1-3.7,2.9-4.4
					c1.8-0.8,3.9-0.4,5.2,1c1.4,1.4,1.8,3.5,1,5.3c-0.5,1.2-1.4,2.1-2.5,2.6C15.1,29.5,14.4,29.6,13.8,29.6 M13.8,21.5
					c-0.4,0-0.9,0.1-1.3,0.3c-1.7,0.7-2.4,2.6-1.7,4.3c0.2,0.4,0.4,0.7,0.7,1c0.3,0.3,0.6,0.5,1,0.7c0.8,0.3,1.7,0.3,2.5,0
					c1.7-0.7,2.4-2.6,1.7-4.3c-0.2-0.4-0.4-0.7-0.7-1c-0.3-0.3-0.6-0.5-1-0.7C14.7,21.6,14.2,21.5,13.8,21.5"/>
			</g>
		</g>
	</g>
	<g id="Group_24931" transform="translate(126.829 127.877)">
		<path id="Union_1" class="st4" d="M28,33.4l-16.9-1.2l-0.1,0l-0.1,0l-0.1,0l-0.1,0l-0.1,0l-0.1,0l-0.1,0l-0.1,0l-0.1,0l-0.1,0
			l-0.1,0l-0.1,0l-0.1,0l-0.1,0l-0.1,0l-0.1,0l-0.1,0l-0.1,0l-0.1,0l-0.1,0l-0.1,0l-0.1-0.1l-0.1-0.1l-0.1-0.1l0-0.1l0-0.1l0-0.1
			c0,0,0,0,0-0.1s0,0,0-0.1c0,0,0,0,0-0.1c0,0,0,0,0-0.1c0,0,0,0,0-0.1c0,0,0,0,0-0.1c0,0,0,0,0-0.1c0,0,0,0,0-0.1c0,0,0,0,0-0.1
			s0,0,0-0.1c0,0,0,0,0-0.1s0-0.1,0-0.1c0,0,0-0.1,0-0.1c0,0,0-0.1,0-0.1c0,0,0-0.1,0-0.1c0,0,0-0.1,0-0.1c0,0,0-0.1,0-0.1
			c0,0,0-0.1,0-0.1s0-0.1,0-0.1s0-0.1,0-0.1c0,0,0-0.1,0-0.1c0,0,0-0.1,0-0.1c0,0,0-0.1,0-0.1c0,0,0-0.1,0-0.1c0,0,0-0.1,0-0.1
			c0,0,0-0.1,0-0.1c0,0,0-0.1,0-0.1L9,29l0.1-0.1l0.1-0.1l0.1-0.1l0.1-0.1l0.1-0.1l0.1-0.1l0.1-0.1l0.1-0.1l0.1-0.1l10.9-12.6
			l0.1-0.1l0.1-0.1l0.1-0.1l0.1-0.1l0.1-0.1l0.1-0.1l0.1-0.1l0.1-0.1l0.1-0.1l0.1-0.1l0.1-0.1l0.1-0.1l0.1-0.1l0.1-0.1l0.1-0.1
			l0.1-0.1l0.1-0.1l0.1-0.1l0.1-0.1l0.1-0.1l0.1-0.1l0.1-0.1l0.1-0.1l0.1-0.1l0.1-0.1l0.1-0.1l0.1-0.1l0.1-0.1l0.1-0.1l0.1-0.1
			l0.1-0.1l0.1-0.1l0.1-0.1l0.1-0.1l0.1-0.1l0.1-0.1l0.1,0l0.1,0l0.1,0l0.1,0l0.1,0l0.1,0l0.1,0l0.1,0l0.1,0l0.1,0l0.1,0l0.1,0
			l0.1,0l0.1,0l0.1,0l0.1,0l0.1,0l0.1,0l0.1,0l0.1,0l0.1,0h0.1h0.1H28h0.1l0.1,0l0.1,0l0.1,0l24.9,2.5l0.1,0l0.1,0l0.1,0l0.1,0
			l0.1,0l0.1,0l0.1,0l0.1,0l0.1,0l0.1,0l0.1,0l0.1,0l0.1,0l0.1,0l0.1,0l0.1,0l0.1,0l0.1,0l0.1,0l0.1,0.1l0.1,0.1l0,0.1l0,0.1l0,0.1
			l0,0.1c0,0,0,0,0,0.1c0,0,0,0,0,0.1c0,0,0,0,0,0.1c0,0,0,0,0,0.1c0,0,0,0,0,0.1s0,0,0,0.1c0,0,0,0,0,0.1c0,0,0,0,0,0.1
			c0,0,0,0,0,0.1s0,0,0,0.1c0,0,0,0,0,0.1c0,0,0,0,0,0.1c0,0,0,0,0,0.1c0,0,0,0.1,0,0.1c0,0,0,0.1,0,0.1c0,0,0,0.1,0,0.1
			c0,0,0,0.1,0,0.1s0,0.1,0,0.1s0,0.1,0,0.1c0,0,0,0.1,0,0.1c0,0,0,0.1,0,0.1s0,0.1,0,0.1s0,0.1,0,0.1c0,0,0,0.1,0,0.1
			c0,0,0,0.1,0,0.1c0,0,0,0.1,0,0.1l0,0.1l0,0.1l0,0.1L55.1,18l-0.1,0.1L55,18.2L55,18.3l-0.1,0.1l-0.1,0.1l-0.1,0.1l-0.1,0.1
			l-0.1,0.1l-0.1,0.1l-10.9,12l-0.1,0.1L43.5,31l-0.1,0.1l-0.1,0.1l-0.1,0.1l-0.1,0.1L43,31.4l-0.1,0.1l-0.1,0.1l-0.1,0.1l-0.1,0.1
			l-0.1,0.1l-0.1,0.1L42.3,32l-0.1,0.1l-0.1,0.1L42,32.2l-0.1,0.1l-0.1,0.1l-0.1,0.1l-0.1,0.1l-0.1,0.1l-0.1,0.1l-0.1,0.1L41,32.8
			l-0.1,0.1l-0.1,0.1L40.6,33L40.5,33l-0.1,0.1l-0.1,0.1l-0.1,0.1L40,33.2l-0.1,0.1l-0.1,0l-0.1,0l-0.1,0l-0.1,0l-0.1,0l-0.1,0
			l-0.1,0l-0.1,0l-0.1,0l-0.1,0l-0.1,0l-0.1,0l-0.1,0l-0.1,0l-0.1,0l-0.1,0l-0.1,0l-0.1,0l-0.1,0l-0.1,0l-0.1,0l-0.1,0l-0.1,0
			l-0.1,0h-0.1h-0.1h-0.1h-0.1h-0.1l-0.1,0l-1.5-0.1L31,38L28,33.4z"/>
		<path id="Line_621-4" class="st5" d="M24.8,19L45.8,21"/>
		<path id="Line_622-4" class="st5" d="M20.2,24.3l11,0.9"/>
	</g>
	<g id="Group_24933" transform="translate(185.088 197.939)">
		<path id="Union_1-2" class="st4" d="M11.7,24.9L25,21.7c0.1,0,0.3,0,0.4-0.1c0.1,0,0.2,0,0.4,0c0.1,0,0.2,0,0.4,0.1
			c0.1,0,0.2,0.1,0.4,0.1c0.1,0,0.2,0.1,0.3,0.2c0.1,0.1,0.2,0.1,0.3,0.2c0.1,0.1,0.2,0.2,0.3,0.3c0.1,0.1,0.2,0.2,0.3,0.3
			c0.1,0.1,0.2,0.2,0.3,0.4c0.1,0.1,0.2,0.3,0.3,0.4c0.1,0.1,0.2,0.3,0.2,0.4c0.1,0.2,0.1,0.3,0.2,0.5c0.1,0.2,0.1,0.3,0.2,0.5
			c0.1,0.2,0.1,0.4,0.1,0.5c0,0.2,0.1,0.4,0.1,0.6c0,0.2,0.1,0.4,0.1,0.6l2,20c0,0.2,0,0.4,0,0.6s0,0.4,0,0.6c0,0.2,0,0.4,0,0.6
			c0,0.2,0,0.4-0.1,0.6c0,0.2-0.1,0.4-0.1,0.6c0,0.2-0.1,0.4-0.1,0.5c-0.1,0.2-0.1,0.3-0.2,0.5c-0.1,0.2-0.1,0.3-0.2,0.5
			c-0.1,0.2-0.1,0.3-0.2,0.4c-0.1,0.1-0.2,0.3-0.3,0.4c-0.1,0.1-0.2,0.2-0.3,0.4c-0.1,0.1-0.2,0.2-0.3,0.3c-0.1,0.1-0.2,0.2-0.3,0.3
			c-0.1,0.1-0.2,0.2-0.3,0.2c-0.1,0.1-0.2,0.1-0.4,0.2c-0.1,0-0.2,0.1-0.4,0.1L8.2,57.3c-0.2,0-0.5,0.1-0.7,0c-0.1,0-0.2,0-0.3-0.1
			c-0.1,0-0.2-0.1-0.3-0.1C6.7,57,6.6,57,6.5,56.9c-0.1-0.1-0.2-0.1-0.3-0.2c-0.1-0.1-0.2-0.2-0.3-0.3c-0.1-0.1-0.2-0.2-0.3-0.3
			s-0.2-0.2-0.3-0.4c-0.1-0.1-0.2-0.3-0.2-0.4C5,55.2,5,55,4.9,54.9c-0.1-0.2-0.1-0.3-0.2-0.5s-0.1-0.3-0.2-0.5
			c-0.1-0.2-0.1-0.4-0.1-0.5c0-0.2-0.1-0.4-0.1-0.6c0-0.2-0.1-0.4-0.1-0.6L2.3,33c0-0.2,0-0.4,0-0.6c0-0.2,0-0.4,0-0.6
			c0-0.2,0-0.4,0-0.6c0-0.2,0-0.4,0.1-0.6c0-0.2,0.1-0.4,0.1-0.5s0.1-0.3,0.1-0.5c0-0.2,0.1-0.3,0.2-0.5C2.8,29,2.9,28.8,3,28.7
			c0.1-0.1,0.1-0.3,0.2-0.4s0.1-0.3,0.2-0.4c0.1-0.1,0.2-0.2,0.3-0.4c0.1-0.1,0.2-0.2,0.3-0.3C4,27.1,4.1,27,4.2,26.9
			c0.1-0.1,0.2-0.2,0.3-0.2c0.1-0.1,0.2-0.1,0.3-0.2c0.1,0,0.2-0.1,0.4-0.1l1.2-0.3l-0.7-6.7L11.7,24.9z"/>
		<path id="Line_621-5" class="st5" d="M25.5,43.4L8.8,46.8"/>
		<path id="Line_622-5" class="st5" d="M24.7,35L16,36.9"/>
	</g>
	<g id="Group_24932" transform="translate(83.872 154.737)">
		<path id="Union_6" class="st4" d="M32.9,32l-11.3,0.5c-0.1,0-0.3,0-0.4,0c-0.1,0-0.3,0-0.4,0s-0.3-0.1-0.4-0.1
			c-0.1,0-0.3-0.1-0.4-0.1s-0.3-0.1-0.5-0.2c-0.2-0.1-0.3-0.1-0.5-0.2s-0.3-0.1-0.5-0.2c-0.2-0.1-0.3-0.2-0.5-0.2
			c-0.2-0.1-0.3-0.2-0.5-0.3c-0.2-0.1-0.3-0.2-0.5-0.3c-0.2-0.1-0.3-0.2-0.5-0.3c-0.2-0.1-0.3-0.2-0.5-0.3s-0.3-0.2-0.4-0.4
			c-0.1-0.1-0.3-0.3-0.4-0.4c-0.1-0.1-0.3-0.3-0.4-0.4c-0.1-0.1-0.3-0.3-0.4-0.4l-9.3-11c-0.1-0.1-0.2-0.3-0.3-0.4
			c-0.1-0.1-0.2-0.3-0.3-0.4c-0.1-0.1-0.2-0.3-0.3-0.4c-0.1-0.1-0.1-0.3-0.2-0.4c-0.1-0.1-0.1-0.3-0.2-0.4C4,15.5,4,15.4,4,15.2
			c0-0.1-0.1-0.2-0.1-0.3c0-0.1,0-0.2,0-0.3c0-0.1,0-0.2,0-0.3c0-0.1,0-0.2,0.1-0.3C4,14,4,13.9,4.1,13.8c0-0.1,0.1-0.1,0.2-0.2
			c0.1-0.1,0.1-0.1,0.2-0.2c0.1-0.1,0.2-0.1,0.3-0.1c0.1,0,0.2-0.1,0.3-0.1c0.1,0,0.2,0,0.4-0.1l16.8-1.1c0.1,0,0.3,0,0.4,0
			c0.1,0,0.3,0,0.4,0s0.3,0,0.4,0.1c0.2,0,0.3,0.1,0.5,0.1c0.2,0,0.3,0.1,0.5,0.2c0.2,0.1,0.3,0.1,0.5,0.2c0.2,0.1,0.3,0.2,0.5,0.2
			c0.2,0.1,0.3,0.2,0.5,0.3c0.2,0.1,0.3,0.2,0.5,0.3c0.2,0.1,0.3,0.2,0.5,0.3c0.2,0.1,0.3,0.2,0.5,0.3c0.2,0.1,0.3,0.2,0.5,0.4
			c0.2,0.1,0.3,0.3,0.5,0.4c0.1,0.1,0.3,0.3,0.4,0.4c0.1,0.1,0.3,0.3,0.4,0.4c0.1,0.1,0.3,0.3,0.4,0.4l9.3,11.3
			c0.1,0.1,0.2,0.3,0.3,0.4c0.1,0.1,0.2,0.3,0.3,0.4c0.1,0.1,0.2,0.3,0.2,0.4s0.1,0.3,0.2,0.4c0.1,0.1,0.1,0.3,0.1,0.4
			c0,0.1,0.1,0.2,0.1,0.4c0,0.1,0,0.2,0,0.3c0,0.1,0,0.2,0,0.3c0,0.1,0,0.2,0,0.3c0,0.1-0.1,0.2-0.1,0.3c0,0.1-0.1,0.2-0.1,0.2
			c-0.1,0.1-0.1,0.1-0.2,0.2c-0.1,0.1-0.1,0.1-0.2,0.2c-0.1,0-0.2,0.1-0.3,0.1c-0.1,0-0.2,0.1-0.3,0.1c-0.1,0-0.2,0-0.4,0l-0.6,0
			l3.5,4.2L32.9,32z"/>
		<path id="Line_621-6" class="st5" d="M11.7,19.5l14.9-0.9"/>
		<path id="Line_622-6" class="st5" d="M16,24.6l7.6-0.4"/>
	</g>
	<g id="Group_24936" transform="translate(279.812 212.554)">
		<g>
			<defs>
				<rect id="SVGID_00000146479279117599184130000010256358259045693319_" x="0" y="10.7" width="156.5" height="59.5"/>
			</defs>
			<clipPath id="SVGID_00000123434622026895826250000011767440134585896882_">
				<use xlink:href="#SVGID_00000146479279117599184130000010256358259045693319_"  style="overflow:visible;"/>
			</clipPath>
			<g id="Group_24902" style="clip-path:url(#SVGID_00000123434622026895826250000011767440134585896882_);">
				<path id="Path_14146" class="st0" d="M6.1,29.3h75l-6.4-11.5H9.7L2.3,29.3H6.1z"/>
			</g>
		</g>
	</g>
	<path id="_45" class="st7" d="M319,251.7v9.2h-2.4l1.1-9.2h-2.2l-1.4,11.7h4.9v10h2.3v-21.7H319z M326.1,259.8
		c-0.1,0-0.1-0.1-0.2-0.1c-0.1,0-0.1,0-0.2-0.1c-0.1,0-0.1,0-0.1-0.1c0,0-0.1,0-0.1-0.1c0-0.1,0-0.4,0.1-0.8c0-0.4,0.1-0.9,0.1-1.4
		c0.1-0.5,0.1-1.1,0.2-1.7c0.1-0.5,0.1-1,0.1-1.4h3.5l0.1-2.5h-5.9l-1,11.1h2.1c0-0.1,0.1-0.3,0.2-0.4c0.1-0.1,0.2-0.2,0.3-0.3
		c0.1-0.1,0.3-0.2,0.4-0.2c0.2-0.1,0.3-0.1,0.5-0.1c0.3,0,0.5,0.1,0.7,0.2c0.2,0.2,0.4,0.5,0.5,0.8c0.1,0.5,0.2,1,0.3,1.4
		c0.1,0.6,0.1,1.3,0.1,2.2c0,0.5,0,1.1-0.1,1.6c0,0.5-0.1,0.9-0.2,1.4c-0.1,0.4-0.2,0.7-0.4,1c-0.1,0.2-0.4,0.4-0.6,0.4
		c-0.2,0-0.4-0.1-0.6-0.3c-0.2-0.2-0.3-0.5-0.4-0.8c-0.1-0.4-0.2-0.7-0.2-1.1c0-0.4-0.1-0.8-0.1-1.3h-2.5c0,1,0.1,2,0.3,2.9
		c0.2,0.7,0.5,1.3,0.9,1.8c0.6,0.8,1.5,1.2,2.4,1.2c0.7,0,1.5-0.3,2-0.8c0.5-0.5,0.9-1.2,1.2-1.9c0.3-0.7,0.4-1.5,0.5-2.3
		c0.1-0.6,0.1-1.3,0.1-1.9v-0.7c0-0.8,0-1.5-0.1-2.3c0-0.7-0.2-1.3-0.4-2c-0.2-0.6-0.5-1-1-1.4c-0.5-0.4-1.2-0.6-1.8-0.5h-0.2
		c-0.1,0-0.1,0-0.2,0c-0.1,0-0.1,0-0.2,0S326.2,259.8,326.1,259.8z"/>
</g>
<path id="path4" class="st17" d="M149.3,39.3c0.1,2.1,0.9,2.9,15,2.7c0.4,0,0.7,0.8,1,2.1c0.6,3.6-0.2,24.4-6.5,27
	c-2.1,1-4.6,1-6.6-0.1c-1.6-0.7-2.6-2.4-2.5-4.1c0-5.8-4.7-4.8-4.7,0.1c0.1,2.7,1.4,5.3,3.6,7c2.8,2,10.1,2.8,14-1.1
	c3.7-3.7,6.7-12.1,6.5-31c-0.2-1.2,1.1-4.8-3-4.8c-1.8,0.1-3.8,0.5-6.9,0.9C154.4,38.6,149.6,37.8,149.3,39.3z"/>
<path id="path6" class="st17" d="M197.1,35.9c-0.6,0-1.2,0-1.9,0c-4.8,0.3-12,2.8-12.3,9.3c0,0.7,2.6,0.5,4-1.6
	c1.9-2.8,4.2-4,9.7-3.9c2.6,0.1,5,1.1,6.9,2.8c4.5,5.2,1.7,14.7,1.6,14.7c-6.3-3.6-12.7-4.7-17.3-3.2c-8,2.5-9.1,11.4-1.7,15.3
	c7,3.7,17.3,0.4,17.3,0.4c0.1,1.3,0.6,2.5,1.4,3.6c1.6,2,4.5,2.4,6.5,0.8c0.1-0.1,0.2-0.2,0.3-0.3c2-1.8,0.7-4.2-1.4-2.2
	c-0.5,0.5-3.3,1.5-3.3-3.4c0-4.3,1.4-8.7,3-14c0.9-2.6,1-5.5,0.2-8.2C209.2,42.2,206.3,36.1,197.1,35.9L197.1,35.9z M191.4,56.9
	c5.8,0,13.3,3.5,13.3,3.5l-1,5.6c-3.4,0.9-6.8,1.4-10.3,1.7c-1.3,0-9,0.7-8.6-5.7C185.1,58.1,188,56.9,191.4,56.9L191.4,56.9z"/>
<path id="path8" class="st17" d="M221.9,41.6c0.2-0.9,0.2-3.3,6.1-3.7c1.9-0.1,4.7,0.8,4.9,3.8c0,0.5,1.1-1.9,4.3-3.1
	c2.4-0.8,9.5-2.1,13,2.5c0.8,1,1.3,2.1,1.5,3.3c1.2-1.8,1.6-3.2,3.3-4.4c2.7-2,14.9-5.1,17.3,6c0.7,3.4-0.2,6.6-1.2,13.5
	c-0.5,3.9-1,6.8,0.6,9s5-0.2,5.7-0.7c1.7-1.2,3.5,0.2,0.4,3.2c-2.2,2.1-10,3.6-11.1-1.4c-1.1-4.8,0.8-18.6,0.5-22.9
	c-0.5-6.7-10.1-6.5-12.5,0.2c-0.7,2.5-1.1,5.1-1.1,7.7c-0.3,5.6,1.3,17.3-2.5,17.9c-1,0.2-1.7-1.1-1.8-3.1
	c-0.3-5.6-0.2-11.5-0.1-15.5c0.2-5-0.6-7-2-8.9c-3-4.1-10.8-6.3-14,3.4c-1.2,3.7-2.1,15-2.5,22c-0.2,3.3-1.7,3.2-2.5,3.2
	c-0.5,0-1.7-0.5-1.6-2.3c0.2-7.6,2.5-26.1,2.5-28c0-2.3-2.5-2.2-4.5-0.2C222.9,44.9,221.6,42.7,221.9,41.6L221.9,41.6z"/>
<path id="path10" class="st18" d="M186.4,13.2c3.1-3.4,6.6-7.8,16.3-8.5c5.1-0.3,0.7-3.4-3.8-3.2c-3,0.2-8.7,1.3-12.5,4.7
	c-1.6,1.6-3.1,3.4-4.4,5.3c-1.8-0.8-3.5-1.6-5.2-2.6c-7.4-4-22.2-6.7-30.7,10.4c-0.4,1-0.7,2.1-0.9,3.1c-2.9-0.8-6-1.1-9-1
	c-5.8,0.2-14.5,3.2-17.7,14.7c0,0-1.1,4.9,1.3,7.7c1.1,1.3,3.3,3.7,3.3,3.7c-2.7,0.6-5.2,1.8-7.3,3.4c-5.1,4.1-7.7,14.2-4.2,19.8
	c2.4,3.8,3.9,5,7.6,6.4c1.7,0.5,3.5,0.8,5.2,0.7c-0.8,1.3-1.4,2.7-1.8,4.1c-0.6,2.7-0.4,5.5,0.5,8.2c1,3.1,3.1,5.7,6,7.3
	c4.6,2.5,5.4-0.1,2.6-2.2c-2-1.5-3.1-2.1-4.3-4.1c-1.2-2-3.2-9.3,1.3-14.1c2.8-3,1.3-3.7-1.5-3.2c-4.7,0.9-10.2-1.8-11.7-5
	c-3.4-7.3,2.3-15.8,10.7-17.3s4.2-3.1,1-5.7c-7.2-5.9-1.4-14.7,1-16.6c4.6-3.1,10.4-3.9,15.8-2.3c8,2.8,3.1-0.2,6.9-6.8
	c3.9-6.6,13.2-13.9,25.6-7c2.2,1.3,3.9,2.6,4.9,3.1C183.8,17.4,183.7,16.3,186.4,13.2L186.4,13.2z"/>
<path id="path12" class="st18" d="M296.6,72.1c2.7,7.5-1.2,15.8-8.8,18.5c-0.4,0.2-0.8,0.3-1.3,0.4c-4.5,1.2-8.4-0.2-8.6,0.5
	c-0.7,2.5,5.7,12.5-3.3,21.8c-8.7,9-23.8,0.3-24,1.3c-0.9,3.9-1.3,6.1-7.7,9c-3.5,1.6-10.8,0.5-9.4,2.5c1.6,2.3,2.1,2.9,9.4,1.3
	c3-0.7,5.6-2.2,7.7-4.5c1.4-1.4,2.1-3.2,2.8-3.5c0.4-0.2,13.5,4.8,23.5-1.3c9.5-5.7,6.5-20.5,6.5-21.2c-0.1-0.6,0.4-1.2,1-1.2
	c0.1,0,0.1,0,0.2,0c4.7-0.4,10.1-3.3,14.7-9c7.1-8.9-1-19.6-0.6-20.1c1.3-1.2,4.3-2.8,6.3-10.4c1.3-5-0.3-8.4-2.1-9.7
	c-0.9-0.6-2-0.6-2.9,0c0,0,3.4,3.6-0.9,11.4c-2.5,4.6-7.7,7.1-7.7,7.5C291.5,65.9,295,67.8,296.6,72.1z"/>
<path id="path14" class="st17" d="M165.3,88.9c-3.2-0.5-6.3,1.7-6.9,4.9c-0.7,2.6-0.4,3.2,1.3,4.7c1.3,1.2,5.5,1.6,6,0.1
	c0.5-1.6-0.7-1.9-1.7-1.9c-0.8,0-3.4,0.5-3.1-2.4s2.7-2.9,4.9-3.3C168.1,90.6,166.9,89.1,165.3,88.9z"/>
<path id="path16" class="st17" d="M173.8,89.4c-2.4,0-3.3,2.3-3.9,4.4c0,0-1.1,4,0.8,5.3c1.5,1.3,3.8,1.2,5.2-0.2
	c1.8-1.6,2.7-4,2.3-6.4C177.5,90.6,175.7,89.4,173.8,89.4z M174.5,92.2c0.2,0,0.4,0,0.6,0.2c0.3,0.2,0.5,0.6,0.4,1.3
	c0,0.3-0.2,0.8-0.2,0.8s-0.8,2.2-1.8,2.6c-1,0.3-1.7,0.3-2-0.7c0-1,0.3-1.9,0.9-2.7C172.8,92.8,173.6,92.3,174.5,92.2L174.5,92.2z"
	/>
<path id="path18" class="st17" d="M182.4,90.4c0.3,1.7,0.3,3.4,0,5c-0.7,2.1-1.5,3.3-0.6,4.1c1.1,0.9,3.1-2.9,3.7-4.5
	c0.8-1.9,2.8-5.1,3.2-2.1c0.4,3.1-1.1,5.3-0.9,6.3c0.1,0.7,0.9,1.1,1.8,0.3c1.2-1.2,1.9-4.6,2.8-6.1c0.5-0.9,2.2-2.5,2.5-0.1
	c0.2,1.7-1,4.6-0.1,5.9c0.7,1,2,0.2,2.3-1.6c0.3-1.7,1.3-7.9-2.9-8.2c-1.3-0.1-2.2,0.9-3.1,2.5c-0.4,0.7,0.2-2.4-2.2-2.8
	c-2.3-0.4-2.4,0.9-3.1,1.8c-0.7,0.8,0.2-3.1-1.7-2.5C182.4,89,182.3,89.4,182.4,90.4z"/>
<path id="path20" class="st17" d="M201.2,90.3c0.3,1.6,0.2,3.3-0.1,4.9c-0.6,2.3-0.8,3.2,0.2,3.9c1,0.6,1.6-1.4,2.2-2.9
	s1.7-3.7,2.5-3.6c0.8,0.1,1.6,1.6,0.8,3.2c-0.8,1.6-1.2,3.4,0.4,3.7s1.6-2.1,2.3-4.2c0.5-1.5,1.7-3.2,1.9-1.7
	c0.3,1.8-1.6,4.6,0.6,5.6c0.8,0.3,1.4,0.1,1.7-1.8c0.2-1.8,0.2-5.5-0.9-6.9c-1.1-1.4-2.6-0.2-3.3,1c-0.4,0.8-1.4-1.2-2.8-1.5
	c-1.2-0.3-2.4,0.2-3,1.3c-0.7,1.1,0.1-2.3-1.4-2.3C200.8,89.1,201.2,89.4,201.2,90.3z"/>
<path id="path22" class="st17" d="M223.2,89.5c-0.5,0-1,0.1-1.4,0.3c-5,2.4-3.9,5.7-3.6,6.7c0.6,2.2,1.5,3.5,3.2,3.6
	c1.9,0,3.6-1,4.7-2.5c0.5-0.8-1.5-0.2-3.4,0.5c-1,0.2-2.1-0.4-2.3-1.5c0-0.1,0-0.3,0-0.4c0.2-1.4,1.7-0.6,3.8-1.2
	c1.4-0.4,1.3-1.3,1.2-3.5C225.1,90.4,224.2,89.5,223.2,89.5L223.2,89.5z M222.7,91.9c0.6,0,1,0.4,0.7,1c-0.1,0.3-0.7,0.6-1.5,0.3
	c-0.3-0.1-0.4-0.3-0.3-0.6c0,0,0-0.1,0-0.1C221.8,92.1,222.2,91.8,222.7,91.9L222.7,91.9z"/>
<path id="path24" class="st17" d="M230.2,91.2c0.2,1.7,0.1,3.3-0.4,4.9c-0.6,1.6-0.7,3.1,0.6,3.2s1.6-1.9,2.1-3.2
	c0.8-1.9,1.9-3.8,2.5-3c0.6,1.1,0.7,2.5,0.2,3.7c-0.3,1.4-0.1,3,1.1,2.4c1.2-0.6,1.8-3.8,1.7-4.8s-0.2-2.4-1.6-3.2
	c-1.9-1.1-2.8-0.7-3.4,0.2c-0.4,0.5,0-2.2-2.3-1.2C230.1,90.3,230.1,90.8,230.2,91.2z"/>
<path id="path26" class="st17" d="M244.7,83.3c-0.7,0-1.4,0.5-1.4,1.3c-0.1,0.9,0.4,1.9-0.7,2c-0.9,0.1-1.7,0.2-2.6,0.1
	c0,0-1.2,0.6-0.7,1.6c0.2,0.6,0.9,1,1.5,0.8c0.1,0,0.2-0.1,0.3-0.2c0.7-0.3,1.9-0.9,1.8,0s-0.6,5.6-0.8,6.6c-0.2,1-1.1,3.3,0,3.9
	c1.1,0.5,2.3,0.3,3.2-0.5c0.6-0.4,1.2-0.9,1.6-1.5c0.6-0.8,0-1.4-0.9-0.9c-0.5,0.3-0.9,0.7-1.5,0.9c0.2-1.4,0.4-3.1,0.5-4.3
	c0.1-1.7-0.1-4.9,1.5-4.9c1.6,0,1.4-0.3,2.4-0.4c1-0.1,2.8-0.3,2.5-1.1s-0.9-0.8-2.4-0.7c-1.5,0.2-3.2,1-2.9,0.1
	c0.2-1,0.9-2.2-0.6-2.6C245.3,83.3,245,83.2,244.7,83.3z"/>
<path id="path28" class="st17" d="M254.7,89.6c-1.9,0.4-2.5,0.7-3.3,2.6c-0.6,1.4,0.2,2,1.4,2.8c1.2,0.6,2.5,1,3.8,1.2
	c0.6,0.2,0.6,0.6-1,0.9c-1.4,0.1-2.8,0.1-4.2,0c-0.9,0.1-2.2,0.3-1.3,1.4c0.8,1,4,1.3,5.6,0.9c1.7-0.4,4.6-1.2,4.3-3.2
	c-0.3-2-1.6-2-3.5-2.8c-1.8-0.7-2.2-1.3-0.4-1.6c1.8-0.3,0.5,0.4,1.6,0.6s2.2-1.2,1.6-2.1C258.6,89.5,256.5,89.2,254.7,89.6
	L254.7,89.6z"/>
</svg>
