<?xml version="1.0" encoding="utf-8"?>
<!-- Generator: Adobe Illustrator 26.1.0, SVG Export Plug-In . SVG Version: 6.00 Build 0)  -->
<svg version="1.1" id="Layer_1" xmlns="http://www.w3.org/2000/svg" xmlns:xlink="http://www.w3.org/1999/xlink" x="0px" y="0px"
	 viewBox="0 0 210.5 137.5" style="enable-background:new 0 0 210.5 137.5;" xml:space="preserve">
<style type="text/css">
	.st0{fill:#0E1254;}
	.st1{fill:#FFFFFF;}
</style>
<g id="g30" transform="translate(-180.774 -128.839)">
	<path id="path4" class="st0" d="M223.2,170.6c0.1,2.3,1,3.1,16.1,2.9c0.5,0,0.8,0.9,1,2.3c0.6,3.9-0.2,26.3-7,29.1
		c-2.3,1.1-4.9,1.1-7.2-0.2c-1.7-0.8-2.8-2.5-2.7-4.4c0-6.3-5.1-5.2-5,0.1c0.1,3,1.5,5.7,3.9,7.5c3,2.2,10.9,3,15.1-1.2
		c4-4,7.2-13.1,7-33.3c-0.2-1.3,1.2-5.2-3.2-5.1c-2,0.1-4.1,0.5-7.4,1C228.7,169.9,223.5,168.9,223.2,170.6z"/>
	<path id="path6" class="st0" d="M274.7,166.9c-0.7,0-1.3,0-2.1,0c-5.1,0.3-12.9,3-13.2,10c0,0.8,2.8,0.6,4.3-1.7
		c2.1-3,4.6-4.3,10.4-4.2c2.8,0.1,5.4,1.2,7.5,3c4.9,5.6,1.8,15.9,1.7,15.8c-6.8-3.9-13.7-5-18.6-3.4c-8.6,2.7-9.8,12.3-1.8,16.4
		c7.6,3.9,18.6,0.5,18.6,0.5c0.1,1.4,0.6,2.7,1.5,3.8c1.7,2.2,4.9,2.6,7,0.9c0.1-0.1,0.2-0.2,0.3-0.3c2.2-2,0.7-4.5-1.6-2.4
		c-0.5,0.5-3.6,1.6-3.6-3.7c0-4.6,1.5-9.4,3.3-15.1c0.8-2.6,1.2-4.6,0.2-8.9C287.7,173.7,284.5,167.2,274.7,166.9L274.7,166.9z
		 M268.5,189.5c6.2,0.1,14.3,3.7,14.3,3.7l-1.1,6c-1.2,0.6-9.7,1.9-11,1.9s-9.7,0.7-9.3-6.2C261.7,190.8,264.8,189.5,268.5,189.5
		L268.5,189.5z"/>
	<path id="path8" class="st0" d="M301.3,173.1c0.3-0.9,0.2-3.6,6.5-4c2.1-0.1,5.1,0.9,5.3,4.1c0,0.5,1.1-2,4.7-3.3
		c2.5-0.9,10.2-2.2,14,2.7c0.8,1,1.4,2.2,1.6,3.6c1.3-2,1.7-3.4,3.5-4.8c2.9-2.1,16-5.5,18.6,6.5c0.8,3.6-0.2,7.1-1.2,14.5
		c-0.6,4.2-1.1,7.3,0.6,9.7s5.3-0.2,6.1-0.7c1.8-1.3,3.8,0.3,0.4,3.5c-2.4,2.3-10.8,3.8-12-1.5c-1.2-5.2,0.9-20,0.5-24.7
		c-0.5-7.2-10.9-7-13.5,0.2c-0.8,2.7-1.2,5.5-1.2,8.3c-0.3,6,1.4,18.6-2.7,19.2c-1.1,0.2-1.8-1.2-1.9-3.3c-0.3-6-0.2-12.4-0.1-16.7
		c0.2-5.4-0.7-7.5-2.2-9.6c-3.2-4.4-11.6-6.8-15.1,3.6c-1.3,4-2.3,16.2-2.7,23.7c-0.2,3.6-1.8,3.5-2.6,3.5c-0.5,0-1.8-0.5-1.8-2.5
		c0.2-8.2,2.7-28.1,2.7-30.1c0-2.5-2.7-2.4-4.8-0.2C302.4,176.7,301,174.2,301.3,173.1L301.3,173.1z"/>
	<path id="path10" class="st1" d="M263.2,141.4c3.3-3.7,7.1-8.4,17.6-9.1c5.5-0.4,0.7-3.7-4.1-3.5c-3.2,0.2-9.3,1.4-13.5,5
		c-1.8,1.7-3.4,3.7-4.7,5.7c-1.9-0.8-3.8-1.8-5.6-2.8c-7.9-4.3-23.9-7.2-33.1,11.2c-0.4,1.1-0.8,2.2-1,3.4c-3.2-0.8-6.4-1.2-9.7-1.1
		c-6.2,0.2-15.7,3.4-19.1,15.8c0,0-1.1,5.3,1.4,8.2c1.1,1.4,3.5,4,3.5,4c-2.9,0.6-5.6,1.9-7.9,3.7c-5.5,4.4-8.3,15.3-4.5,21.3
		c2.6,4.1,4.3,5.4,8.2,6.8c1.8,0.6,3.7,0.8,5.6,0.7c-0.8,1.4-1.5,2.9-1.9,4.4c-0.6,2.9-0.4,6,0.6,8.8c1.1,3.4,3.4,6.2,6.5,7.9
		c5,2.7,5.8-0.1,2.8-2.4c-2.2-1.6-3.3-2.2-4.6-4.4s-3.4-10,1.4-15.2c3-3.3,1.4-4-1.6-3.4c-5.1,0.9-10.9-1.9-12.5-5.3
		c-3.6-7.8,2.4-17,11.5-18.6s4.6-3.3,1.1-6.1c-7.8-6.3-1.6-15.8,1.1-17.9c3.5-2.7,10.9-4.6,17-2.5c8.7,3,3.3-0.2,7.4-7.3
		c4.2-7.1,14.3-15,27.6-7.5c2.4,1.4,4.2,2.8,5.3,3.3C260.3,145.9,260.2,144.8,263.2,141.4L263.2,141.4z"/>
	<path id="path12" class="st1" d="M381.7,205.9c1.3,3.3,0.9,8.8-0.6,11.9c-2.2,4-5.9,7.1-10.2,8.5c-4.9,1.3-9.1-0.2-9.3,0.5
		c-0.7,2.6,6.1,13.5-3.5,23.4c-9.4,9.6-25.6,0.3-25.9,1.4c-0.9,4.2-1.4,6.6-8.3,9.6c-3.8,1.7-11.6,0.6-10.1,2.7
		c1.7,2.5,2.2,3.1,10.1,1.4c3.2-0.7,6.1-2.4,8.3-4.8c1.5-1.5,2.2-3.5,3-3.7c0.5-0.2,14.6,5.1,25.3-1.4c10.2-6.2,7-22.1,7-22.8
		c-0.1-0.7,0.4-1.3,1.1-1.3c0.1,0,0.1,0,0.2,0c5.1-0.4,10.8-3.5,15.8-9.7c7.7-9.6-1.1-21.1-0.6-21.6c1.4-1.3,4.7-3.1,6.8-11.2
		c1.4-5.4-0.4-9-2.2-10.4c-1-0.6-2.2-0.6-3.1,0c0,0,3.6,3.9-1,12.3c-2.7,5-8.2,7.7-8.2,8.1C376.2,199.2,380,201.3,381.7,205.9z"/>
	<path id="path14" class="st0" d="M240.4,224c-0.7-0.1-5.7-0.6-7.4,5.2c-0.8,2.8-0.4,3.5,1.4,5.1c1.4,1.3,6,1.7,6.5,0.1
		c0.5-1.7-0.8-2-1.8-2c-0.9,0-3.6,0.5-3.3-2.6s3-3.2,5.3-3.6S242.1,224.2,240.4,224z"/>
	<path id="path16" class="st0" d="M249.5,224.6c-2.6,0-3.5,2.5-4.3,4.7c0,0-1.2,4.3,0.8,5.7c1.6,1.4,4.1,1.3,5.6-0.2
		c1.8-1.5,3.1-4.8,2.5-6.9C253.6,225.8,251.6,224.5,249.5,224.6z M250.3,227.6c0.2,0,0.5,0,0.6,0.2c0.3,0.2,0.5,0.7,0.4,1.5
		c-0.1,0.3-0.2,0.8-0.2,0.8s-0.8,2.4-1.9,2.8c-1,0.4-1.9,0.3-2.1-0.8s0.7-2.6,0.9-2.9C248.5,228.2,249.4,227.7,250.3,227.6
		L250.3,227.6z"/>
	<path id="path18" class="st0" d="M258.8,225.6c0,0,0.5,3.6,0,5.4c-0.7,2.3-1.7,3.6-0.6,4.4c1.2,0.9,3.3-3.2,4-4.8
		c0.8-2,3-5.5,3.4-2.3c0.4,3.4-1.1,5.7-0.9,6.8c0.1,0.8,1,1.2,1.9,0.3c1.2-1.3,2.1-4.9,3-6.6c0.5-1,2.3-2.7,2.7-0.1
		c0.2,1.8-1.1,4.9-0.1,6.3c0.8,1.1,2.2,0.2,2.5-1.7s1.4-8.5-3.1-8.9c-1.4-0.1-2.4,0.9-3.4,2.7c-0.4,0.7,0.3-2.6-2.4-3
		c-2.5-0.4-2.5,1-3.4,1.9c-0.8,0.9,0.2-3.3-1.8-2.6C258.8,224.1,258.8,224.6,258.8,225.6z"/>
	<path id="path20" class="st0" d="M279.1,225.5c0.3,1.7,0.3,3.5-0.1,5.2c-0.6,2.5-0.9,3.5,0.2,4.1s1.7-1.5,2.4-3.1s1.8-4,2.7-3.9
		s1.7,1.7,0.8,3.5c-0.8,1.7-1.2,3.7,0.4,4s1.7-2.3,2.5-4.5c0.6-1.6,1.8-3.4,2.1-1.8c0.3,2-1.7,5,0.6,6c0.8,0.4,1.6,0.1,1.8-1.9
		s0.2-5.9-1-7.4s-2.8-0.2-3.5,1.1c-0.5,0.9-1.5-1.3-3-1.6c-1.3-0.4-2.6,0.2-3.2,1.4c-0.7,1.2,0.1-2.5-1.5-2.5
		C278.7,224.2,279.1,224.6,279.1,225.5L279.1,225.5z"/>
	<path id="path22" class="st0" d="M302.7,224.6c-0.5,0-1,0.1-1.5,0.3c-5.4,2.6-4.2,6.2-3.9,7.2c0.7,2.4,1.6,3.8,3.4,3.8
		c2-0.1,3.9-1.1,5-2.7c0.5-0.9-1.6-0.2-3.7,0.5c-1.1,0.2-2.2-0.5-2.4-1.6c0-0.1,0-0.3,0-0.4c0.2-1.5,1.9-0.7,4.1-1.3
		c1.5-0.4,1.4-1.4,1.2-3.8C304.8,225.6,303.9,224.7,302.7,224.6L302.7,224.6z M302.2,227.2c0.7,0,1.1,0.4,0.8,1.1
		c-0.1,0.3-0.8,0.6-1.6,0.3c-0.3-0.1-0.4-0.4-0.4-0.6c0,0,0-0.1,0.1-0.1C301.2,227.4,301.7,227.1,302.2,227.2L302.2,227.2z"/>
	<path id="path24" class="st0" d="M310.2,226.4c0.2,1.8,0.1,3.6-0.5,5.3c-0.6,1.7-0.8,3.3,0.6,3.5s1.7-2.1,2.3-3.5
		c0.9-2.1,2.1-4,2.6-3.2c0.8,1.2,0.6,2.5,0.2,4s-0.1,3.2,1.2,2.6s2-4.1,1.8-5.2s-0.2-2.6-1.7-3.5c-2-1.2-3-0.8-3.6,0.2
		c-0.4,0.6,0-2.4-2.5-1.3C310.2,225.5,310.2,226,310.2,226.4z"/>
	<path id="path26" class="st0" d="M325.9,217.9c-0.8,0-1.5,0.6-1.5,1.4c-0.1,1,0.4,2-0.7,2.2c-0.9,0.1-1.9,0.2-2.8,0.1
		c0,0-1.2,0.6-0.7,1.7c0.2,0.7,0.9,1.1,1.6,0.8c0.1,0,0.2-0.1,0.4-0.2c0.8-0.4,2.1-1,2,0s-0.7,6-0.9,7.1s-1.2,3.6,0,4.2
		c1.2,0.5,2.5,0.3,3.5-0.5c0.7-0.4,1.2-1,1.7-1.6c0.6-0.9,0-1.5-0.9-1c-0.5,0.4-1,0.7-1.6,1c0.2-1.5,0.4-3.3,0.5-4.6
		c0.1-1.8-0.1-5.3,1.6-5.3s1.5-0.4,2.6-0.5c1.1-0.1,3-0.4,2.7-1.2s-1-0.9-2.6-0.7s-3.4,1.1-3.2,0.1s1-2.4-0.6-2.8
		C326.6,217.9,326.2,217.9,325.9,217.9z"/>
	<path id="path28" class="st0" d="M336.6,224.8c-2,0.5-2.7,0.8-3.6,2.8c-0.6,1.5,0.2,2.2,1.5,3s3.4,1.1,4,1.2s0.6,0.6-1,1
		s-3.5-0.1-4.5,0s-2.3,0.3-1.4,1.5c0.8,1.1,4.3,1.4,6.1,1s5-1.3,4.6-3.4s-1.8-2.2-3.7-3s-2.4-1.4-0.4-1.7s0.6,0.5,1.7,0.6
		s2.4-1.3,1.7-2.2S338.6,224.3,336.6,224.8L336.6,224.8z"/>
</g>
</svg>
