<?xml version="1.0" encoding="utf-8"?>
<!-- Generator: Adobe Illustrator 26.1.0, SVG Export Plug-In . SVG Version: 6.00 Build 0)  -->
<svg version="1.1" id="Layer_1" xmlns="http://www.w3.org/2000/svg" xmlns:xlink="http://www.w3.org/1999/xlink" x="0px" y="0px"
	 viewBox="0 0 66 66" style="enable-background:new 0 0 66 66;" xml:space="preserve">
<style type="text/css">
	.st0{fill:#E4E7FF;}
	.st1{fill:#0E1541;}
	.st2{fill:#FFFFFF;}
	.st3{fill:none;stroke:#FFFFFF;}
</style>
<g id="Group_24969" transform="translate(-343 -12)">
	<circle id="Ellipse_882" class="st0" cx="376" cy="45" r="33"/>
	<g id="Group_24952" transform="translate(346.485 18.083)">
		<g id="Group_24953" transform="translate(0 0)">
			<path id="Path_14174" class="st1" d="M58.7,36.3c0.2,1.3-0.2,2.6-1,3.6c-1.2,1.7-3.1,2.9-5.2,3.2h-0.1c-0.2,0-0.4,0.2-0.4,0.4
				c0,0,0,0,0,0c0,0.2,1,5.5-2.3,7.5c-2.6,1.6-5.7-1.1-8.4,0.4c-1.2,0.8-2.5,1.5-3.8,2c-2.8,0.8-7.4-0.4-10.3-0.6
				c-4-0.4-7.8-0.8-11.2-3.1c-4.6-2.9-7.4-8-7.4-13.4c0-2.2-3-1-3.7-3.4c-0.3-1-0.4-2-0.2-3c0.2-0.5,0.4-1.1,0.7-1.5
				c-0.7,0-1.3,0-2-0.2c-1.2-0.4-2.3-1.2-2.8-2.4c-1.3-2.1-0.3-5.8,1.6-7.4c0.8-0.6,1.7-1.1,2.7-1.3c0,0-0.8-0.9-1.2-1.4
				c-0.5-0.9-0.7-1.9-0.5-2.9c0.7-3.1,3.4-5.4,6.6-5.5c1.1,0,2.3,0.1,3.3,0.4c0.1-0.4,0.2-0.8,0.4-1.2c3.2-6.4,8.7-5.4,11.5-3.9
				c0.6,0.4,1.3,0.7,1.9,1c0.5-0.7,1-1.4,1.6-2c1.3-1,3-1.7,4.7-1.8c0.8-0.1,1.6,0.2,2.2,0.7C35.2,0.9,35.1,1,35.1,1s0.1,0,0.4,0
				C45.7,0.6,54.6,8.2,56,18.4c0.4,2.7,1.2,5.3,2.3,7.7c1,2.4,1.3,4.7-0.8,6.7C56.1,34.1,57.2,35.4,58.7,36.3"/>
			<path id="Path_14175" class="st2" d="M22.6,13.6c0.1,1.8,0.8,2.5,12.7,2.3c0.4,0,0.6,0.7,0.8,1.8c0.5,3.1-0.1,20.7-5.5,22.9
				c-1.8,0.9-3.9,0.8-5.6-0.1c-1.4-0.6-2.2-2-2.1-3.5c0-4.9-4-4.1-4,0.1c0.1,2.3,1.2,4.5,3.1,5.9c2.4,1.7,8.6,2.4,11.9-0.9
				c3.1-3.1,5.7-10.3,5.5-26.3c-0.2-1,1-4.1-2.5-4c-1.6,0.1-3.2,0.4-5.8,0.8C26.9,13.1,22.8,12.4,22.6,13.6"/>
			<path id="Path_14176" class="st3" d="M22.6,13.6c0.1,1.8,0.8,2.5,12.7,2.3c0.4,0,0.6,0.7,0.8,1.8c0.5,3.1-0.1,20.7-5.5,22.9
				c-1.8,0.9-3.9,0.8-5.6-0.1c-1.4-0.6-2.2-2-2.1-3.5c0-4.9-4-4.1-4,0.1c0.1,2.3,1.2,4.5,3.1,5.9c2.4,1.7,8.6,2.4,11.9-0.9
				c3.1-3.1,5.7-10.3,5.5-26.3c-0.2-1,1-4.1-2.5-4c-1.6,0.1-3.2,0.4-5.8,0.8C26.9,13.1,22.8,12.4,22.6,13.6z"/>
			<path id="Path_14177" class="st2" d="M37.4,1c-0.2,0.2-0.5,0.2-0.8,0.2c-2.4,0-4.7,1.2-6.1,3.2h0c-1,1.2-1,1.6-1.9,1.1
				c-0.4-0.2-1-0.7-1.8-1.2c-4.6-2.6-8.1,0.1-9.5,2.6c-1.4,2.4,0.4,3.6-2.6,2.5c-2-0.6-4.1-0.3-5.9,0.9c-0.9,0.7-3.1,4-0.4,6.2
				c1.2,1,2.8,1.6-0.4,2.1s-5.2,3.7-4,6.5c1,1.4,2.7,2.2,4.3,1.9c1.1-0.2,1.6,0,0.6,1.2c-1.7,1.8-0.9,4.5-0.5,5.3
				c0.4,0.6,0.9,1.1,1.6,1.5c0.6,0.5,0.8,1,0.4,1.1v0c-0.2,0.1-0.7,0-1.4-0.3c-1.1-0.6-1.9-1.6-2.2-2.7c-0.3-1-0.4-2-0.2-3
				c0.2-0.5,0.4-1.1,0.7-1.5c-0.7,0-1.3,0-2-0.2c-1.2-0.4-2.3-1.2-2.8-2.4c-1.3-2.1-0.3-5.8,1.6-7.4c0.8-0.6,1.7-1.1,2.7-1.3
				c0,0-0.8-0.9-1.2-1.4c-0.5-0.9-0.7-1.9-0.5-2.9c0.7-3.1,3.4-5.4,6.6-5.5c1.1,0,2.3,0.1,3.3,0.4c0.1-0.4,0.2-0.8,0.4-1.2
				c3.2-6.4,8.7-5.4,11.5-3.9c0.6,0.4,1.3,0.7,1.9,1c0.5-0.7,1-1.4,1.6-2c1.3-1,3-1.7,4.7-1.8c0.8-0.1,1.6,0.2,2.2,0.7
				C37.5,0.8,37.5,0.9,37.4,1C37.4,1,37.4,1,37.4,1"/>
			<path id="Path_14178" class="st2" d="M54.8,31.7C54.8,31.7,54.8,31.7,54.8,31.7c0.6,1,1,2.1,1.2,3.3c0.2,1.2-0.2,2.5-1,3.4
				c-1.3,1.6-3.2,2.7-5.2,3h-0.1c-0.2,0-0.4,0.2-0.4,0.4c0,0,0,0,0,0c0,0.2,1.1,5.1-2.3,7c-3.6,2-8.2,0.4-8.4,0.4
				c-0.2,0.1-0.5,0.7-1,1.1c-0.7,0.8-1.7,1.3-2.7,1.5c-2.6,0.5-2.8,0.3-3.4-0.4l0,0c-0.5-0.6,2.1-0.3,3.4-0.8c2.3-0.9,2.4-1.7,2.7-3
				c0.1-0.3,5.5,2.5,8.6-0.4c3.2-3.1,0.9-6.4,1.2-7.2c0.1-0.2,1.5,0.2,3.1-0.1c0.2,0,0.3-0.1,0.5-0.1c2.5-0.7,3.9-3.3,3.2-5.8
				c0-0.1-0.1-0.2-0.1-0.3c-0.5-0.8-1.1-1.6-1.8-2.2c1.1-0.6,2-1.5,2.7-2.5c1.4-2.4,0.5-3.6,0.3-3.8l0,0c0.3-0.2,0.7-0.2,1,0
				c0.9,0.8,1.2,2.1,0.8,3.2C56.8,29.7,55.9,30.9,54.8,31.7"/>
		</g>
	</g>
</g>
</svg>
