<?xml version="1.0" encoding="utf-8"?>
<!-- Generator: Adobe Illustrator 26.1.0, SVG Export Plug-In . SVG Version: 6.00 Build 0)  -->
<svg version="1.1" id="Layer_1" xmlns="http://www.w3.org/2000/svg" xmlns:xlink="http://www.w3.org/1999/xlink" x="0px" y="0px"
	 viewBox="0 0 24 24" style="enable-background:new 0 0 24 24;" xml:space="preserve">
<style type="text/css">
	.st0{fill:none;stroke:#FFFFFF;stroke-width:1.5;stroke-linecap:round;stroke-linejoin:round;}
	.st1{fill:none;}
</style>
<g id="vuesax_linear_key" transform="translate(-684 -188)">
	<g id="key">
		<path id="Vector" class="st0" d="M703.8,202.9c-2,2-4.9,2.7-7.6,1.9l-4.7,4.7c-0.4,0.4-0.9,0.5-1.5,0.5l-2.2-0.3
			c-0.8-0.1-1.4-0.7-1.5-1.5L686,206c0-0.5,0.1-1.1,0.5-1.5l4.7-4.7c-1.2-4,1-8.2,5-9.5c4-1.2,8.2,1,9.5,5
			C706.5,198,705.8,200.9,703.8,202.9L703.8,202.9z"/>
		<path id="Vector-2" class="st0" d="M690.9,205.5l2.3,2.3"/>
		<path id="Vector-3" class="st0" d="M700,197.5c0,0.8-0.7,1.5-1.5,1.5s-1.5-0.7-1.5-1.5s0.7-1.5,1.5-1.5S700,196.7,700,197.5z"/>
		<path id="Vector-4" class="st1" d="M708,212h-24v-24h24V212z"/>
	</g>
</g>
</svg>
