<?xml version="1.0" encoding="utf-8"?>
<!-- Generator: Adobe Illustrator 26.1.0, SVG Export Plug-In . SVG Version: 6.00 Build 0)  -->
<svg version="1.1" id="key" xmlns="http://www.w3.org/2000/svg" xmlns:xlink="http://www.w3.org/1999/xlink" x="0px" y="0px"
	 viewBox="0 0 21 21" style="enable-background:new 0 0 21 21;" xml:space="preserve">
<style type="text/css">
	.st0{fill:none;stroke:#090E58;stroke-linecap:round;stroke-linejoin:round;}
	.st1{fill:none;}
</style>
<path id="Vector" class="st0" d="M17.3,13.1c-1.7,1.7-4.3,2.4-6.6,1.6l-4.1,4.1c-0.4,0.3-0.8,0.5-1.3,0.4L3.3,19
	c-0.7-0.1-1.2-0.6-1.3-1.3l-0.3-1.9c0-0.5,0.1-0.9,0.4-1.3l4.1-4.1c-1.1-3.5,0.9-7.2,4.4-8.3s7.2,0.9,8.3,4.4
	C19.7,8.8,19.1,11.3,17.3,13.1L17.3,13.1z"/>
<path id="Vector-2" class="st0" d="M6,15.3l2,2"/>
<path id="Vector-3" class="st0" d="M14,8.3c0,0.7-0.6,1.3-1.3,1.3c-0.7,0-1.3-0.6-1.3-1.3C11.4,7.6,12,7,12.7,7c0,0,0,0,0,0
	C13.4,7,14,7.6,14,8.3C14,8.3,14,8.3,14,8.3z"/>
<path id="Vector-4" class="st1" d="M21,21H0V0h21V21z"/>
</svg>
