<svg id="logout" xmlns="http://www.w3.org/2000/svg" width="24.558" height="29.325" viewBox="0 0 24.558 29.325">
  <path id="Path_14183" data-name="Path 14183" d="M10.875,28.575a1.25,1.25,0,1,1,0-2.5,12.162,12.162,0,1,0,0-24.325,1.25,1.25,0,1,1,0-2.5A14.662,14.662,0,0,1,21.243,24.28,14.567,14.567,0,0,1,10.875,28.575Z" transform="translate(-0.98 0.75)" fill="#090e58"/>
  <path id="Union_13" data-name="Union 13" d="M-1451.682-2258.319l-4.952-4.952a1.248,1.248,0,0,1-.366-.884,1.247,1.247,0,0,1,.366-.884l5.6-5.6a1.25,1.25,0,0,1,1.769,0,1.25,1.25,0,0,1,0,1.768l-3.493,3.492h11.114a1.25,1.25,0,0,1,1.25,1.25,1.25,1.25,0,0,1-1.25,1.25H-1452.7l2.788,2.787a1.25,1.25,0,0,1,0,1.768,1.245,1.245,0,0,1-.885.366A1.245,1.245,0,0,1-1451.682-2258.319Z" transform="translate(1457 2278.787)" fill="#090e58"/>
</svg>
