<?xml version="1.0" encoding="utf-8"?>
<!-- Generator: Adobe Illustrator 26.1.0, SVG Export Plug-In . SVG Version: 6.00 Build 0)  -->
<svg version="1.1" id="Layer_1" xmlns="http://www.w3.org/2000/svg" xmlns:xlink="http://www.w3.org/1999/xlink" x="0px" y="0px"
	 viewBox="0 0 35.1 34.6" style="enable-background:new 0 0 35.1 34.6;" xml:space="preserve">
<style type="text/css">
	.st0{fill:none;stroke:#090E58;stroke-width:3;stroke-linecap:round;stroke-linejoin:round;}
	.st1{fill:none;stroke:#090E58;stroke-width:3.0016;stroke-linecap:round;stroke-linejoin:round;stroke-miterlimit:4.0021;}
	.st2{fill:none;}
</style>
<g id="vuesax_linear_message-tick" transform="translate(1.757)">
	<g id="message-tick">
		<path id="Vector" class="st0" d="M30.5,10.7v8.6c0.1,1.9-0.6,3.8-2,5.2c-1.4,1.3-3.3,2-5.2,2v3.1c0,0.8-0.6,1.4-1.4,1.4
			c-0.3,0-0.6-0.1-0.8-0.2l-6.4-4.3h-3c0.1-0.4,0.2-0.9,0.2-1.3c0-1.4-0.5-2.8-1.5-3.8c-1.1-1.2-2.6-1.9-4.3-1.9
			c-1.6,0-3,0.6-4.1,1.7c-0.1-0.6-0.2-1.2-0.2-1.8v-8.6c-0.2-3.7,2.6-7,6.4-7.2c0.3,0,0.5,0,0.8,0h14.4c3.7-0.2,7,2.6,7.2,6.4
			C30.5,10.1,30.5,10.4,30.5,10.7z"/>
		<g id="Group" transform="translate(0.573 19.384)">
			<path id="Vector-2" class="st0" d="M11.2,5.7c0,1-0.3,2.1-0.8,3c-0.3,0.5-0.7,1-1.1,1.4c-1,0.9-2.4,1.4-3.8,1.4
				c-2,0-3.9-1.1-4.9-2.8C0,7.8-0.3,6.8-0.3,5.7C-0.3,2.6,2.3,0,5.5,0S11.2,2.6,11.2,5.7z"/>
			<path id="Vector-3" class="st1" d="M-0.8,13.8l2.7-3.1"/>
		</g>
		<path id="Vector-4" class="st0" d="M11.1,15.1h10.1"/>
		<path id="Vector-5" class="st2" d="M-1.1,0h34.5v34.5H-1.1V0z"/>
	</g>
</g>
</svg>
