<?xml version="1.0" encoding="utf-8"?>
<!-- Generator: Adobe Illustrator 26.1.0, SVG Export Plug-In . SVG Version: 6.00 Build 0)  -->
<svg version="1.1" id="vuesax_linear_messages" xmlns="http://www.w3.org/2000/svg" xmlns:xlink="http://www.w3.org/1999/xlink"
	 x="0px" y="0px" viewBox="0 0 41.8 41.8" style="enable-background:new 0 0 41.8 41.8;" xml:space="preserve">
<style type="text/css">
	.st0{fill:none;stroke:#090E58;stroke-width:3;stroke-linecap:round;stroke-linejoin:round;}
	.st1{fill:none;}
</style>
<g id="messages">
	<g id="Group" transform="translate(3.481 10.443)">
		<path id="Vector" class="st0" d="M27.8,8.3v7c0,0.4,0,0.9-0.1,1.3c-0.4,4.7-3.2,7-8.3,7h-0.7c-0.4,0-0.9,0.2-1.1,0.6L15.6,27
			c-0.6,0.9-1.8,1.2-2.7,0.6c-0.3-0.2-0.5-0.4-0.6-0.6l-2.1-2.8c-0.3-0.3-0.7-0.5-1.1-0.6H8.3c-5.5,0-8.3-1.4-8.3-8.3v-7
			c0-5.1,2.3-7.9,7-8.3C7.5,0,7.9,0,8.3,0h11.1C25,0,27.8,2.8,27.8,8.3z"/>
	</g>
	<path id="Vector-2" class="st0" d="M38.3,11.8v7c0,5.1-2.3,7.9-7,8.3c0.1-0.4,0.1-0.9,0.1-1.3v-7c0-5.6-2.8-8.3-8.3-8.3H11.8
		c-0.4,0-0.9,0-1.3,0.1c0.4-4.7,3.2-7,8.3-7h11.1C35.5,3.5,38.3,6.3,38.3,11.8z"/>
	<path id="Vector-3" class="st1" d="M0,0h41.8v41.8H0V0z"/>
	<path id="Vector-4" class="st0" d="M23.5,23.1L23.5,23.1"/>
	<path id="Vector-5" class="st0" d="M17.4,23.1L17.4,23.1"/>
	<path id="Vector-6" class="st0" d="M11.3,23.1L11.3,23.1"/>
</g>
</svg>
