<?xml version="1.0" encoding="utf-8"?>
<!-- Generator: Adobe Illustrator 26.1.0, SVG Export Plug-In . SVG Version: 6.00 Build 0)  -->
<svg version="1.1" id="vuesax_linear_message-time" xmlns="http://www.w3.org/2000/svg" xmlns:xlink="http://www.w3.org/1999/xlink"
	 x="0px" y="0px" viewBox="0 0 35.8 35.8" style="enable-background:new 0 0 35.8 35.8;" xml:space="preserve">
<style type="text/css">
	.st0{fill:none;stroke:#090E58;stroke-width:3;stroke-linecap:round;stroke-linejoin:round;}
	.st1{fill:none;}
</style>
<g id="message-time">
	<path id="Vector" class="st0" d="M32.2,11.5v8.5c0.1,1.9-0.6,3.7-2,5.1C28.8,26.4,27,27,25,27v3c0,0.8-0.7,1.4-1.4,1.4
		c-0.3,0-0.5-0.1-0.8-0.2L16.5,27h-3c0.1-0.4,0.2-0.9,0.2-1.3c0-1.4-0.5-2.7-1.5-3.8C11.1,20.7,9.5,20,7.9,20c-1.5,0-3,0.6-4.1,1.7
		c-0.1-0.6-0.2-1.2-0.2-1.8v-8.5c0-4.2,2.9-7,7.1-7H25C29.3,4.4,32.2,7.3,32.2,11.5z"/>
	<g id="Group" transform="translate(2.214 20.259)">
		<path id="Vector-2" class="st0" d="M11.1,5.6c0,3.1-2.6,5.5-5.6,5.5C2.5,11,0,8.6,0,5.6C0,2.5,2.4,0,5.5-0.1s5.6,2.4,5.6,5.5
			C11.1,5.5,11.1,5.5,11.1,5.6z"/>
		<path id="Vector-3" class="st0" d="M5.9,3.8v2.1L4.2,7"/>
	</g>
	<path id="Vector-4" class="st0" d="M14.5,15.7l3.5,3.3l6-6"/>
	<path id="Vector-5" class="st1" d="M0,0h35.8v35.8H0V0z"/>
</g>
</svg>
