<?xml version="1.0" encoding="utf-8"?>
<!-- Generator: Adobe Illustrator 26.1.0, SVG Export Plug-In . SVG Version: 6.00 Build 0)  -->
<svg version="1.1" id="Layer_1" xmlns="http://www.w3.org/2000/svg" xmlns:xlink="http://www.w3.org/1999/xlink" x="0px" y="0px"
	 viewBox="0 0 26.1 26.1" style="enable-background:new 0 0 26.1 26.1;" xml:space="preserve">
<style type="text/css">
	.st0{fill:none;stroke:#292D32;stroke-width:2;stroke-linecap:round;stroke-linejoin:round;}
	.st1{fill:none;}
</style>
<g id="Group" transform="translate(-241.994 -384.002)">
	<path id="Vector" class="st0" d="M256.8,388.9L246.7,399c-0.4,0.5-0.7,1.1-0.8,1.7l-0.5,3.9c-0.2,1,0.4,2,1.4,2.2
		c0.3,0.1,0.5,0.1,0.8,0l3.9-0.5c0.6-0.1,1.2-0.4,1.7-0.8l10.2-10.2c1.7-1.7,2.6-3.8,0-6.4C260.6,386.3,258.6,387.1,256.8,388.9z"/>
	<path id="Vector-2" class="st0" d="M255.4,390.3c0.9,3.1,3.3,5.5,6.4,6.4"/>
</g>
<rect class="st1" width="26.1" height="26.1"/>
</svg>
