<?xml version="1.0" encoding="utf-8"?>
<!-- Generator: Adobe Illustrator 26.1.0, SVG Export Plug-In . SVG Version: 6.00 Build 0)  -->
<svg version="1.1" id="Layer_1" xmlns="http://www.w3.org/2000/svg" xmlns:xlink="http://www.w3.org/1999/xlink" x="0px" y="0px"
	 viewBox="0 0 19 19" style="enable-background:new 0 0 19 19;" xml:space="preserve">
<style type="text/css">
	.st0{fill:#090E58;}
	.st1{fill:none;}
	.st2{fill:none;stroke:#090E58;}
</style>
<g id="Group_24810" transform="translate(-800 -759)">
	<path id="Icon_open-question-mark" class="st0" d="M809.5,764c-0.8,0-1.5,0.2-2.1,0.7c-0.4,0.4-0.6,0.9-0.7,1.4l1.1,0.1
		c0-0.3,0.2-0.6,0.3-0.8c0.4-0.3,0.8-0.5,1.3-0.4c0.5,0,1,0.1,1.4,0.4c0.2,0.2,0.3,0.5,0.3,0.7c0,0.9-0.4,1.2-0.9,1.7
		c-0.8,0.6-1.3,1.5-1.3,2.5v0.3h1.1v-0.3c0-0.7,0.3-1.3,0.9-1.7c0.8-0.6,1.3-1.5,1.3-2.5c0-0.6-0.2-1.2-0.7-1.6
		C811,764.2,810.3,763.9,809.5,764z M808.9,771.9v1.1h1.1v-1.1H808.9z"/>
	<g id="Ellipse_852" transform="translate(800 759)">
		<circle class="st1" cx="9.5" cy="9.5" r="9.5"/>
		<circle class="st2" cx="9.5" cy="9.5" r="9"/>
	</g>
</g>
</svg>
