<?xml version="1.0" encoding="utf-8"?>
<!-- Generator: Adobe Illustrator 26.1.0, SVG Export Plug-In . SVG Version: 6.00 Build 0)  -->
<svg version="1.1" id="Layer_1" xmlns="http://www.w3.org/2000/svg" xmlns:xlink="http://www.w3.org/1999/xlink" x="0px" y="0px"
	 viewBox="0 0 20 20" style="enable-background:new 0 0 20 20;" xml:space="preserve">
<style type="text/css">
	.st0{fill:#FF9966;stroke:#FF9966;stroke-miterlimit:10;}
	.st1{fill:none;stroke:#FF9966;stroke-miterlimit:10;}
	.st2{fill:none;stroke:#FF9966;}
</style>
<path id="Icon_open-question-mark" class="st0" d="M10,5.5c-0.8,0-1.5,0.2-2.1,0.7C7.5,6.6,7.3,7.1,7.2,7.6l1.1,0.1
	c0-0.3,0.2-0.6,0.3-0.8C9,6.6,9.4,6.4,9.9,6.5c0.5,0,1,0.1,1.4,0.4c0.2,0.2,0.3,0.5,0.3,0.7c0,0.9-0.4,1.2-0.9,1.7
	c-0.8,0.6-1.3,1.5-1.3,2.5v0.3h1.1v-0.3c0-0.7,0.3-1.3,0.9-1.7c0.8-0.6,1.3-1.5,1.3-2.5C12.7,7,12.5,6.4,12,6
	C11.5,5.7,10.8,5.4,10,5.5z M9.4,13.4v1.1h1.1v-1.1H9.4z"/>
<g id="Ellipse_852" transform="translate(800 759)">
	<circle class="st1" cx="-790" cy="-749" r="9.5"/>
	<circle class="st2" cx="-790" cy="-749" r="9"/>
</g>
</svg>
