<?xml version="1.0" encoding="utf-8"?>
<!-- Generator: Adobe Illustrator 26.1.0, SVG Export Plug-In . SVG Version: 6.00 Build 0)  -->
<svg version="1.1" id="Layer_1" xmlns="http://www.w3.org/2000/svg" xmlns:xlink="http://www.w3.org/1999/xlink" x="0px" y="0px"
	 viewBox="0 0 23 22" style="enable-background:new 0 0 23 22;" xml:space="preserve">
<style type="text/css">
	.st0{fill:none;}
	.st1{fill:#F7806E;}
	.st2{fill:none;stroke:#F7806E;stroke-width:2;}
</style>
<g>
	<g>
		<path class="st0" d="M15.9,0c0.3,0,0.5,0.1,0.7,0.3l6.1,5.9C22.9,6.3,23,6.6,23,6.9v8.3c0,0.3-0.1,0.5-0.3,0.7l-6.1,5.9
			c-0.2,0.2-0.4,0.3-0.7,0.3H7.1c-0.3,0-0.5-0.1-0.7-0.3l-6.1-5.9C0.1,15.7,0,15.4,0,15.1V6.9c0-0.3,0.1-0.5,0.3-0.7l6.1-5.9
			C6.6,0.1,6.9,0,7.1,0L15.9,0z"/>
		<path class="st1" d="M7.5,2L2,7.3v7.4L7.5,20h7.9l5.5-5.3V7.3L15.5,2H7.5z M7.1,0h8.7c0.3,0,0.5,0.1,0.7,0.3l6.1,5.9
			C22.9,6.3,23,6.6,23,6.9v8.3c0,0.3-0.1,0.5-0.3,0.7l-6.1,5.9c-0.2,0.2-0.4,0.3-0.7,0.3H7.1c-0.3,0-0.5-0.1-0.7-0.3l-6.1-5.9
			C0.1,15.7,0,15.4,0,15.1V6.9c0-0.3,0.1-0.5,0.3-0.7l6.1-5.9C6.6,0.1,6.9,0,7.1,0z"/>
	</g>
	<g>
		<path class="st2" d="M11.8,5.7v6.7"/>
		<path class="st2" d="M10.5,15h2.7"/>
	</g>
</g>
</svg>
