<?xml version="1.0" encoding="utf-8"?>
<!-- Generator: Adobe Illustrator 26.2.1, SVG Export Plug-In . SVG Version: 6.00 Build 0)  -->
<svg version="1.1" id="Layer_1" xmlns="http://www.w3.org/2000/svg" xmlns:xlink="http://www.w3.org/1999/xlink" x="0px" y="0px"
	 viewBox="0 0 207.3 82.7" style="enable-background:new 0 0 207.3 82.7;" xml:space="preserve">
<style type="text/css">
	.st0{clip-path:url(#SVGID_00000139990205237535657560000010873457548288653461_);}
	.st1{fill:#FFFFFF;}
	.st2{fill:#090E58;}
	.st3{clip-path:url(#SVGID_00000008130778677640567250000004589966836566978462_);}
	.st4{fill:#F7806E;}
</style>
<g id="Group_24975" transform="translate(-866.09 -256.517)">
	<g id="Group_24971" transform="translate(866.09 291.321)">
		<g>
			<defs>
				<rect id="SVGID_1_" y="0" width="37.2" height="37.1"/>
			</defs>
			<clipPath id="SVGID_00000132802918480406553870000005661742024420165009_">
				<use xlink:href="#SVGID_1_"  style="overflow:visible;"/>
			</clipPath>
			<g id="Group_24927" style="clip-path:url(#SVGID_00000132802918480406553870000005661742024420165009_);">
				<path id="Path_14167" class="st1" d="M37.1,19.2c0,0,0-0.1,0-0.1c0,0,0-0.1,0-0.1c0,0,0-0.1,0-0.1s0-0.1,0-0.1c0,0,0-0.1,0-0.1
					s0-0.1,0-0.2s0-0.1,0-0.2s0-0.1,0-0.2c0-0.2,0-0.5,0-0.8c0-0.3,0-0.6-0.1-0.8c0-0.3-0.1-0.5-0.2-0.8c-0.1-0.2-0.3-0.5-0.5-0.6
					c-0.2-0.1-0.4-0.3-0.6-0.3c-0.2-0.1-0.5-0.2-0.7-0.2c-0.3,0-0.5-0.1-0.8-0.1c-0.3,0-0.6,0-0.8,0h-0.2h-0.2h-0.2h-0.1l0-0.1
					l0-0.1l0-0.1l0-0.1c0-0.2-0.1-0.3-0.1-0.5s-0.1-0.3-0.1-0.5s-0.1-0.3-0.2-0.5s-0.1-0.3-0.2-0.5c0,0,0-0.1-0.1-0.1s0-0.1-0.1-0.1
					s0-0.1-0.1-0.1l-0.1-0.1l-0.1-0.1c0,0-0.1-0.1-0.1-0.1s-0.1-0.1-0.1-0.1s0-0.1-0.1-0.1c0,0,0.1-0.1,0.2-0.1
					c0.1,0,0.1-0.1,0.2-0.2s0.2-0.1,0.2-0.2l0.2-0.1c0.1-0.1,0.2-0.2,0.3-0.2s0.2-0.1,0.3-0.2c0.1-0.1,0.2-0.1,0.3-0.2
					c0.1-0.1,0.1-0.1,0.2-0.2c0.1-0.1,0.1-0.2,0.2-0.3c0.1-0.1,0.1-0.3,0.2-0.4c0-0.1,0.1-0.3,0.1-0.5c0-0.2,0-0.4-0.1-0.5
					c-0.1-0.2-0.1-0.4-0.2-0.6c-0.1-0.2-0.2-0.3-0.4-0.5c-0.1-0.2-0.3-0.3-0.4-0.4c-0.2-0.1-0.3-0.3-0.5-0.4l-0.1-0.1l-0.1-0.1
					l-0.1-0.1l-0.1-0.1c0,0-0.1-0.1-0.1-0.1l-0.1-0.1l-0.1-0.1l-0.1-0.1c-0.1-0.1-0.3-0.3-0.4-0.4s-0.3-0.3-0.4-0.4
					c-0.1-0.1-0.3-0.2-0.4-0.4c-0.1-0.1-0.3-0.2-0.5-0.3c-0.1,0-0.1,0-0.2-0.1c-0.1,0-0.1,0-0.2,0c-0.1,0-0.1,0-0.2,0
					c-0.1,0-0.1,0-0.2,0c-0.3,0-0.6,0.1-0.8,0.2c-0.3,0.1-0.5,0.3-0.8,0.5c-0.2,0.2-0.5,0.4-0.7,0.7c-0.2,0.2-0.4,0.5-0.6,0.7l0,0
					l0,0l0,0l0,0c-0.1-0.1-0.3-0.1-0.4-0.2s-0.3-0.1-0.4-0.2c-0.1-0.1-0.3-0.1-0.4-0.2l-0.4-0.2l-0.3-0.1l-0.3-0.1l-0.3-0.1
					c-0.1,0-0.2-0.1-0.3-0.1l-0.1-0.1c-0.1-0.1-0.2-0.1-0.3-0.1c-0.1,0-0.1-0.1-0.2-0.1c0,0-0.1-0.1-0.1-0.2c0-0.1,0-0.1-0.1-0.3
					c0-0.1,0-0.1,0-0.2c0-0.1,0-0.1,0-0.2s0-0.1,0-0.2s0-0.1,0-0.2c0-0.1,0-0.2,0-0.3s0-0.2,0-0.3s0-0.2,0-0.3c0-0.1,0-0.2,0-0.3
					c-0.1-0.3-0.2-0.5-0.3-0.8c-0.1-0.2-0.3-0.4-0.5-0.5c-0.2-0.2-0.5-0.3-0.7-0.3C20.8,0,20.5,0,20.2,0c-0.1,0-0.2,0-0.3,0
					s-0.2,0-0.3,0s-0.2,0-0.3,0l-0.3,0l-0.2,0l-0.2,0l-0.2,0l-0.2,0l-0.2,0l-0.2,0l-0.2,0l-0.2,0c-0.3,0-0.7,0-1,0.1
					c-0.3,0-0.7,0.1-1,0.3c-0.3,0.1-0.6,0.4-0.7,0.6c-0.2,0.4-0.3,0.8-0.3,1.2c0,0.1,0,0.1,0,0.2s0,0.1,0,0.2s0,0.1,0,0.2
					s0,0.1,0,0.2c0,0.1,0,0.2,0,0.3s0,0.2,0,0.3c0,0.1,0,0.2,0,0.2c0,0.1,0,0.1,0,0.2l0,0l0,0l0,0l0,0l0,0l0,0l0,0l0,0l-0.1,0
					l-0.1,0l-0.1,0l-0.1,0c-0.2,0.1-0.5,0.2-0.7,0.3C13,4.8,12.8,4.9,12.6,5c-0.2,0.1-0.4,0.2-0.6,0.3c-0.2,0.1-0.4,0.2-0.6,0.3
					C11.2,5.4,11,5.2,10.8,5c-0.2-0.2-0.4-0.4-0.6-0.6C9.9,4.2,9.7,4.1,9.4,4C9.1,3.8,8.8,3.8,8.5,3.8H8.4C8.1,3.8,7.8,3.9,7.5,4
					C7.2,4.2,6.9,4.4,6.7,4.6C6.4,4.8,6.1,5,5.9,5.3C5.6,5.5,5.4,5.8,5.2,6L5.1,6.1L5,6.3L4.9,6.4L4.8,6.5C4.6,6.6,4.5,6.8,4.4,6.9
					C4.3,7.1,4.2,7.2,4.1,7.4C4.1,7.5,4,7.6,4,7.8c0,0.1,0,0.3,0,0.5C3.9,8.5,4,8.8,4.1,9c0.1,0.2,0.2,0.5,0.4,0.7
					c0.2,0.2,0.3,0.4,0.5,0.6c0.2,0.2,0.4,0.4,0.6,0.6l0.1,0.1L5.7,11L5.8,11l0.1,0c-0.2,0.3-0.3,0.5-0.5,0.8
					c-0.2,0.3-0.3,0.5-0.4,0.8c-0.1,0.3-0.3,0.6-0.4,0.9c-0.1,0.3-0.2,0.6-0.3,0.9c-0.1,0-0.2,0-0.3,0c-0.1,0-0.2,0-0.3,0
					c-0.1,0-0.2,0-0.3,0c-0.1,0-0.2,0-0.3,0c-0.2,0-0.5,0-0.7,0c-0.2,0-0.4,0.1-0.6,0.1c-0.2,0.1-0.4,0.1-0.5,0.2
					c-0.2,0.1-0.3,0.2-0.4,0.3c-0.2,0.2-0.4,0.5-0.5,0.8c-0.1,0.3-0.2,0.7-0.2,1c0,0.4,0,0.7,0,1.1c0,0.4,0.1,0.7,0.1,1
					c0,0,0,0.1,0,0.1l0,0.1c0,0,0,0.1,0,0.1c0,0,0,0.1,0,0.1l0,0.1l0,0.1l0,0.1l0,0.1c0,0.2,0,0.5,0.1,0.7c0,0.2,0.1,0.5,0.1,0.7
					c0.1,0.2,0.2,0.5,0.3,0.7c0.2,0.2,0.4,0.4,0.6,0.5c0.1,0.1,0.2,0.1,0.3,0.2c0.1,0,0.3,0.1,0.4,0.1c0.1,0,0.3,0.1,0.4,0.1
					c0.2,0,0.3,0,0.5,0c0.1,0,0.2,0,0.4,0s0.2,0,0.4,0s0.2,0,0.4,0s0.2,0,0.3,0c0.1,0.2,0.1,0.4,0.2,0.6c0.1,0.2,0.1,0.4,0.2,0.6
					C4.8,24,4.9,24.2,5,24.4c0.1,0.2,0.1,0.4,0.2,0.5c0,0,0,0,0,0.1s0,0.1,0,0.1l0.1,0.1l0.1,0.1l0,0.1l0,0.1l0,0.1l0,0.1l0,0.1
					l0,0.1c0,0,0,0,0,0.1c0,0,0,0,0,0.1c0,0.1-0.1,0.1-0.1,0.2c0,0.1-0.1,0.1-0.2,0.2S5,26.2,4.9,26.3s-0.1,0.1-0.2,0.2
					c-0.2,0.2-0.3,0.3-0.5,0.5c-0.2,0.2-0.3,0.4-0.5,0.6c-0.1,0.2-0.2,0.4-0.3,0.7c0,0.3,0,0.5,0.1,0.8c0.2,0.4,0.4,0.8,0.7,1.1
					c0.4,0.4,0.7,0.8,1.2,1.2c0.4,0.4,0.9,0.7,1.3,1c0.4,0.3,0.7,0.5,1.1,0.6c0.1,0,0.1,0,0.2,0.1c0.1,0,0.1,0,0.2,0
					c0.1,0,0.1,0,0.2,0s0.1,0,0.2,0c0.3,0,0.6-0.1,0.8-0.2c0.3-0.1,0.5-0.2,0.7-0.4c0.2-0.2,0.4-0.4,0.7-0.6
					c0.2-0.2,0.4-0.4,0.6-0.6c0.3,0.2,0.5,0.3,0.8,0.5c0.3,0.1,0.6,0.3,0.8,0.4c0.3,0.1,0.6,0.2,0.9,0.3c0.3,0.1,0.6,0.2,0.9,0.2
					c0,0,0,0.1,0,0.1c0,0,0,0.1,0,0.1l0,0.1c0,0,0,0.1,0,0.1c0,0.3-0.1,0.5-0.1,0.8c0,0.3,0,0.6,0,0.8c0,0.3,0.1,0.5,0.1,0.8
					c0.1,0.2,0.2,0.5,0.4,0.7c0.1,0.1,0.3,0.3,0.5,0.4c0.2,0.1,0.4,0.2,0.5,0.2c0.2,0,0.4,0.1,0.6,0.1c0.2,0,0.4,0,0.6,0h0.5H18h0.1
					h0.1h0.1l0.1,0l0.2,0l0.2,0l0.2,0h0.2c0.1,0,0.3,0,0.4,0s0.3,0,0.4,0c0.2,0,0.3-0.1,0.5-0.1c0.2,0,0.3-0.1,0.5-0.1
					c0.2-0.1,0.4-0.2,0.5-0.3c0.2-0.1,0.3-0.2,0.4-0.4c0.1-0.1,0.2-0.3,0.3-0.5c0.1-0.2,0.1-0.4,0.2-0.6c0-0.1,0-0.2,0-0.3
					c0-0.1,0-0.2,0-0.3c0-0.1,0-0.2-0.1-0.3s0-0.2-0.1-0.3c0-0.1,0-0.2-0.1-0.3s0-0.2,0-0.3c0-0.1,0-0.2,0-0.2c0-0.1,0-0.1,0-0.2
					c0.1-0.1,0.1-0.1,0.2-0.1c0.1,0,0.2-0.1,0.3-0.1s0.2-0.1,0.4-0.1s0.2-0.1,0.3-0.1l0.3-0.1c0.1,0,0.2-0.1,0.3-0.1
					s0.2-0.1,0.2-0.1s0.1-0.1,0.2-0.1s0.1-0.1,0.2-0.1l0.2-0.1l0.2-0.1l0.1-0.1c0.1-0.1,0.2-0.1,0.3-0.2s0.2-0.1,0.3-0.1
					c0.1,0,0.2-0.1,0.2-0.1c0.1,0,0.1,0,0.2,0c0,0,0.1,0,0.1,0c0,0,0.1,0,0.1,0c0,0,0.1,0,0.1,0.1c0.1,0,0.1,0.1,0.2,0.1
					c0.1,0.1,0.1,0.1,0.2,0.2s0.1,0.1,0.2,0.2S27,32,27.1,32c0.1,0.1,0.1,0.1,0.2,0.2c0.1,0.1,0.2,0.3,0.4,0.4
					c0.1,0.1,0.3,0.3,0.4,0.4c0.1,0.1,0.3,0.2,0.5,0.3c0.2,0.1,0.4,0.1,0.6,0.1c0.1,0,0.2,0,0.3,0c0.1,0,0.2,0,0.3-0.1
					c0.1,0,0.2-0.1,0.3-0.1c0.1,0,0.2-0.1,0.3-0.2c0.3-0.2,0.6-0.4,0.9-0.6c0.3-0.2,0.6-0.5,0.8-0.8c0.3-0.3,0.5-0.6,0.8-0.9
					c0.2-0.3,0.4-0.6,0.6-0.9c0.2-0.3,0.3-0.7,0.4-1c0-0.3,0-0.6-0.1-0.8c-0.1-0.3-0.3-0.5-0.5-0.7c-0.2-0.2-0.4-0.4-0.7-0.6
					l-0.1-0.1l-0.1-0.1l-0.1-0.1L32,26.4c-0.1-0.1-0.2-0.2-0.3-0.2c-0.1-0.1-0.1-0.1-0.1-0.2c0-0.1,0-0.2,0-0.3
					c0-0.1,0.1-0.2,0.2-0.4c0.1-0.2,0.2-0.5,0.3-0.7c0.1-0.2,0.2-0.5,0.3-0.7c0.1-0.2,0.2-0.5,0.2-0.7c0.1-0.2,0.2-0.5,0.2-0.7h0.1
					h0.1H33H33l0.3,0c0.1,0,0.2,0,0.3,0s0.2,0,0.3,0s0.2,0,0.3,0c0.2,0,0.4,0,0.6,0c0.2,0,0.3,0,0.5-0.1c0.2,0,0.3-0.1,0.4-0.1
					c0.1-0.1,0.3-0.1,0.4-0.2c0.2-0.1,0.4-0.4,0.6-0.6c0.1-0.2,0.2-0.5,0.2-0.7c0-0.3,0.1-0.5,0-0.8C37.2,19.6,37.1,19.4,37.1,19.2
					 M18.6,26C15,26,12,23.1,12,19.5c0-3.6,2.9-6.5,6.6-6.5c3.6,0,6.5,2.9,6.5,6.6c0,2.6-1.6,5-4,6C20.3,25.9,19.5,26,18.6,26"/>
				<path id="Path_14168" class="st2" d="M37.1,19.2c0,0,0-0.1,0-0.1c0,0,0-0.1,0-0.1c0,0,0-0.1,0-0.1s0-0.1,0-0.1c0,0,0-0.1,0-0.1
					s0-0.1,0-0.2s0-0.1,0-0.2s0-0.1,0-0.2c0-0.2,0-0.5,0-0.8c0-0.3,0-0.6-0.1-0.8c0-0.3-0.1-0.5-0.2-0.8c-0.1-0.2-0.3-0.5-0.5-0.6
					c-0.2-0.1-0.4-0.3-0.6-0.3c-0.2-0.1-0.5-0.2-0.7-0.2c-0.3,0-0.5-0.1-0.8-0.1c-0.3,0-0.6,0-0.8,0h-0.2h-0.2h-0.2h-0.1l0-0.1
					l0-0.1l0-0.1l0-0.1c0-0.2-0.1-0.3-0.1-0.5s-0.1-0.3-0.1-0.5s-0.1-0.3-0.2-0.5s-0.1-0.3-0.2-0.5c0,0,0-0.1-0.1-0.1s0-0.1-0.1-0.1
					s0-0.1-0.1-0.1l-0.1-0.1l-0.1-0.1c0,0-0.1-0.1-0.1-0.1s-0.1-0.1-0.1-0.1s0-0.1-0.1-0.1c0,0,0.1-0.1,0.2-0.1
					c0.1,0,0.1-0.1,0.2-0.2s0.2-0.1,0.2-0.2l0.2-0.1c0.1-0.1,0.2-0.2,0.3-0.2s0.2-0.1,0.3-0.2c0.1-0.1,0.2-0.1,0.3-0.2
					c0.1-0.1,0.1-0.1,0.2-0.2c0.1-0.1,0.1-0.2,0.2-0.3c0.1-0.1,0.1-0.3,0.2-0.4c0-0.1,0.1-0.3,0.1-0.5c0-0.2,0-0.4-0.1-0.5
					c-0.1-0.2-0.1-0.4-0.2-0.6c-0.1-0.2-0.2-0.3-0.4-0.5c-0.1-0.2-0.3-0.3-0.4-0.4c-0.2-0.1-0.3-0.3-0.5-0.4l-0.1-0.1l-0.1-0.1
					l-0.1-0.1l-0.1-0.1c0,0-0.1-0.1-0.1-0.1l-0.1-0.1l-0.1-0.1l-0.1-0.1c-0.1-0.1-0.3-0.3-0.4-0.4s-0.3-0.3-0.4-0.4
					c-0.1-0.1-0.3-0.2-0.4-0.4c-0.1-0.1-0.3-0.2-0.5-0.3c-0.1,0-0.1,0-0.2-0.1c-0.1,0-0.1,0-0.2,0c-0.1,0-0.1,0-0.2,0
					c-0.1,0-0.1,0-0.2,0c-0.3,0-0.6,0.1-0.8,0.2c-0.3,0.1-0.5,0.3-0.8,0.5c-0.2,0.2-0.5,0.4-0.7,0.7c-0.2,0.2-0.4,0.5-0.6,0.7l0,0
					l0,0l0,0l0,0c-0.1-0.1-0.3-0.1-0.4-0.2s-0.3-0.1-0.4-0.2c-0.1-0.1-0.3-0.1-0.4-0.2l-0.4-0.2l-0.3-0.1l-0.3-0.1l-0.3-0.1
					c-0.1,0-0.2-0.1-0.3-0.1l-0.1-0.1c-0.1-0.1-0.2-0.1-0.3-0.1c-0.1,0-0.1-0.1-0.2-0.1c0,0-0.1-0.1-0.1-0.2c0-0.1,0-0.1-0.1-0.3
					c0-0.1,0-0.1,0-0.2c0-0.1,0-0.1,0-0.2s0-0.1,0-0.2s0-0.1,0-0.2c0-0.1,0-0.2,0-0.3s0-0.2,0-0.3s0-0.2,0-0.3c0-0.1,0-0.2,0-0.3
					c-0.1-0.3-0.2-0.5-0.3-0.8c-0.1-0.2-0.3-0.4-0.5-0.5c-0.2-0.2-0.5-0.3-0.7-0.3C20.8,0,20.5,0,20.2,0c-0.1,0-0.2,0-0.3,0
					s-0.2,0-0.3,0s-0.2,0-0.3,0l-0.3,0l-0.2,0l-0.2,0l-0.2,0l-0.2,0l-0.2,0l-0.2,0l-0.2,0l-0.2,0c-0.3,0-0.7,0-1,0.1
					c-0.3,0-0.7,0.1-1,0.3c-0.3,0.1-0.6,0.4-0.7,0.6c-0.2,0.4-0.3,0.8-0.3,1.2c0,0.1,0,0.1,0,0.2s0,0.1,0,0.2s0,0.1,0,0.2
					s0,0.1,0,0.2c0,0.1,0,0.2,0,0.3s0,0.2,0,0.3c0,0.1,0,0.2,0,0.2c0,0.1,0,0.1,0,0.2l0,0l0,0l0,0l0,0l0,0l0,0l0,0l0,0l-0.1,0
					l-0.1,0l-0.1,0l-0.1,0c-0.2,0.1-0.5,0.2-0.7,0.3C13,4.8,12.8,4.9,12.6,5c-0.2,0.1-0.4,0.2-0.6,0.3c-0.2,0.1-0.4,0.2-0.6,0.3
					C11.2,5.4,11,5.2,10.8,5c-0.2-0.2-0.4-0.4-0.6-0.6C9.9,4.2,9.7,4.1,9.4,4C9.1,3.8,8.8,3.8,8.5,3.8H8.4C8.1,3.8,7.8,3.9,7.5,4
					C7.2,4.2,6.9,4.4,6.7,4.6C6.4,4.8,6.1,5,5.9,5.3C5.6,5.5,5.4,5.8,5.2,6L5.1,6.1L5,6.3L4.9,6.4L4.8,6.5C4.6,6.6,4.5,6.8,4.4,6.9
					C4.3,7.1,4.2,7.2,4.1,7.4C4.1,7.5,4,7.6,4,7.8c0,0.1,0,0.3,0,0.5C3.9,8.5,4,8.8,4.1,9c0.1,0.2,0.2,0.5,0.4,0.7
					c0.2,0.2,0.3,0.4,0.5,0.6c0.2,0.2,0.4,0.4,0.6,0.6l0.1,0.1L5.7,11L5.8,11l0.1,0c-0.2,0.3-0.3,0.5-0.5,0.8
					c-0.2,0.3-0.3,0.5-0.4,0.8c-0.1,0.3-0.3,0.6-0.4,0.9c-0.1,0.3-0.2,0.6-0.3,0.9c-0.1,0-0.2,0-0.3,0c-0.1,0-0.2,0-0.3,0
					c-0.1,0-0.2,0-0.3,0c-0.1,0-0.2,0-0.3,0c-0.2,0-0.5,0-0.7,0c-0.2,0-0.4,0.1-0.6,0.1c-0.2,0.1-0.4,0.1-0.5,0.2
					c-0.2,0.1-0.3,0.2-0.4,0.3c-0.2,0.2-0.4,0.5-0.5,0.8c-0.1,0.3-0.2,0.7-0.2,1c0,0.4,0,0.7,0,1.1c0,0.4,0.1,0.7,0.1,1
					c0,0,0,0.1,0,0.1l0,0.1c0,0,0,0.1,0,0.1c0,0,0,0.1,0,0.1l0,0.1l0,0.1l0,0.1l0,0.1c0,0.2,0,0.5,0.1,0.7c0,0.2,0.1,0.5,0.1,0.7
					c0.1,0.2,0.2,0.5,0.3,0.7c0.2,0.2,0.4,0.4,0.6,0.5c0.1,0.1,0.2,0.1,0.3,0.2c0.1,0,0.3,0.1,0.4,0.1c0.1,0,0.3,0.1,0.4,0.1
					c0.2,0,0.3,0,0.5,0c0.1,0,0.2,0,0.4,0s0.2,0,0.4,0s0.2,0,0.4,0s0.2,0,0.3,0c0.1,0.2,0.1,0.4,0.2,0.6c0.1,0.2,0.1,0.4,0.2,0.6
					C4.8,24,4.9,24.2,5,24.4c0.1,0.2,0.1,0.4,0.2,0.5c0,0,0,0,0,0.1s0,0.1,0,0.1l0.1,0.1l0.1,0.1l0,0.1l0,0.1l0,0.1l0,0.1l0,0.1
					l0,0.1c0,0,0,0,0,0.1c0,0,0,0,0,0.1c0,0.1-0.1,0.1-0.1,0.2c0,0.1-0.1,0.1-0.2,0.2S5,26.2,4.9,26.3s-0.1,0.1-0.2,0.2
					c-0.2,0.2-0.3,0.3-0.5,0.5c-0.2,0.2-0.3,0.4-0.5,0.6c-0.1,0.2-0.2,0.4-0.3,0.7c0,0.3,0,0.5,0.1,0.8c0.2,0.4,0.4,0.8,0.7,1.1
					c0.4,0.4,0.7,0.8,1.2,1.2c0.4,0.4,0.9,0.7,1.3,1c0.4,0.3,0.7,0.5,1.1,0.6c0.1,0,0.1,0,0.2,0.1c0.1,0,0.1,0,0.2,0
					c0.1,0,0.1,0,0.2,0s0.1,0,0.2,0c0.3,0,0.6-0.1,0.8-0.2c0.3-0.1,0.5-0.2,0.7-0.4c0.2-0.2,0.4-0.4,0.7-0.6
					c0.2-0.2,0.4-0.4,0.6-0.6c0.3,0.2,0.5,0.3,0.8,0.5c0.3,0.1,0.6,0.3,0.8,0.4c0.3,0.1,0.6,0.2,0.9,0.3c0.3,0.1,0.6,0.2,0.9,0.2
					c0,0,0,0.1,0,0.1c0,0,0,0.1,0,0.1l0,0.1c0,0,0,0.1,0,0.1c0,0.3-0.1,0.5-0.1,0.8c0,0.3,0,0.6,0,0.8c0,0.3,0.1,0.5,0.1,0.8
					c0.1,0.2,0.2,0.5,0.4,0.7c0.1,0.1,0.3,0.3,0.5,0.4c0.2,0.1,0.4,0.2,0.5,0.2c0.2,0,0.4,0.1,0.6,0.1c0.2,0,0.4,0,0.6,0h0.5H18h0.1
					h0.1h0.1l0.1,0l0.2,0l0.2,0l0.2,0h0.2c0.1,0,0.3,0,0.4,0s0.3,0,0.4,0c0.2,0,0.3-0.1,0.5-0.1c0.2,0,0.3-0.1,0.5-0.1
					c0.2-0.1,0.4-0.2,0.5-0.3c0.2-0.1,0.3-0.2,0.4-0.4c0.1-0.1,0.2-0.3,0.3-0.5c0.1-0.2,0.1-0.4,0.2-0.6c0-0.1,0-0.2,0-0.3
					c0-0.1,0-0.2,0-0.3c0-0.1,0-0.2-0.1-0.3s0-0.2-0.1-0.3c0-0.1,0-0.2-0.1-0.3s0-0.2,0-0.3c0-0.1,0-0.2,0-0.2c0-0.1,0-0.1,0-0.2
					c0.1-0.1,0.1-0.1,0.2-0.1c0.1,0,0.2-0.1,0.3-0.1s0.2-0.1,0.4-0.1s0.2-0.1,0.3-0.1l0.3-0.1c0.1,0,0.2-0.1,0.3-0.1
					s0.2-0.1,0.2-0.1s0.1-0.1,0.2-0.1s0.1-0.1,0.2-0.1l0.2-0.1l0.2-0.1l0.1-0.1c0.1-0.1,0.2-0.1,0.3-0.2s0.2-0.1,0.3-0.1
					c0.1,0,0.2-0.1,0.2-0.1c0.1,0,0.1,0,0.2,0c0,0,0.1,0,0.1,0c0,0,0.1,0,0.1,0c0,0,0.1,0,0.1,0.1c0.1,0,0.1,0.1,0.2,0.1
					c0.1,0.1,0.1,0.1,0.2,0.2s0.1,0.1,0.2,0.2S27,32,27.1,32c0.1,0.1,0.1,0.1,0.2,0.2c0.1,0.1,0.2,0.3,0.4,0.4
					c0.1,0.1,0.3,0.3,0.4,0.4c0.1,0.1,0.3,0.2,0.5,0.3c0.2,0.1,0.4,0.1,0.6,0.1c0.1,0,0.2,0,0.3,0c0.1,0,0.2,0,0.3-0.1
					c0.1,0,0.2-0.1,0.3-0.1c0.1,0,0.2-0.1,0.3-0.2c0.3-0.2,0.6-0.4,0.9-0.6c0.3-0.2,0.6-0.5,0.8-0.8c0.3-0.3,0.5-0.6,0.8-0.9
					c0.2-0.3,0.4-0.6,0.6-0.9c0.2-0.3,0.3-0.7,0.4-1c0-0.3,0-0.6-0.1-0.8c-0.1-0.3-0.3-0.5-0.5-0.7c-0.2-0.2-0.4-0.4-0.7-0.6
					l-0.1-0.1l-0.1-0.1l-0.1-0.1L32,26.4c-0.1-0.1-0.2-0.2-0.3-0.2c-0.1-0.1-0.1-0.1-0.1-0.2c0-0.1,0-0.2,0-0.3
					c0-0.1,0.1-0.2,0.2-0.4c0.1-0.2,0.2-0.5,0.3-0.7c0.1-0.2,0.2-0.5,0.3-0.7c0.1-0.2,0.2-0.5,0.2-0.7c0.1-0.2,0.2-0.5,0.2-0.7h0.1
					h0.1H33H33l0.3,0c0.1,0,0.2,0,0.3,0s0.2,0,0.3,0s0.2,0,0.3,0c0.2,0,0.4,0,0.6,0c0.2,0,0.3,0,0.5-0.1c0.2,0,0.3-0.1,0.4-0.1
					c0.1-0.1,0.3-0.1,0.4-0.2c0.2-0.1,0.4-0.4,0.6-0.6c0.1-0.2,0.2-0.5,0.2-0.7c0-0.3,0.1-0.5,0-0.8C37.2,19.6,37.1,19.4,37.1,19.2
					 M34.7,20.3c0,0-0.1,0-0.2,0c-0.1,0-0.1,0-0.2,0s-0.1,0-0.2,0c-0.1,0-0.2,0-0.2,0c-0.1,0-0.2,0-0.2,0l-0.2,0l-0.2,0l-0.2,0
					l-0.2,0l-0.2,0l-0.2,0c-0.1,0-0.1,0-0.2,0l0,0c-0.1,0-0.2,0-0.2,0c-0.1,0-0.1,0-0.2,0.1c-0.1,0-0.1,0.1-0.2,0.1
					c-0.1,0-0.1,0.1-0.2,0.2c0,0.1-0.1,0.1-0.1,0.2c0,0,0,0.1,0,0.1c0,0,0,0.1,0,0.1c-0.1,0.2-0.1,0.4-0.2,0.6s-0.2,0.4-0.2,0.6
					s-0.2,0.4-0.2,0.6s-0.2,0.4-0.2,0.6c-0.1,0.1-0.1,0.3-0.2,0.4s-0.1,0.3-0.2,0.4c-0.1,0.1-0.1,0.3-0.2,0.4
					c-0.1,0.1-0.1,0.3-0.2,0.4c-0.1,0.2-0.1,0.4-0.1,0.5c0,0.2,0,0.3,0,0.5c0,0.2,0.1,0.3,0.2,0.5c0.1,0.2,0.2,0.3,0.3,0.5
					c0.1,0.1,0.1,0.2,0.2,0.2c0.1,0.1,0.1,0.1,0.2,0.2s0.2,0.1,0.2,0.2s0.2,0.1,0.3,0.2s0.2,0.1,0.3,0.2s0.2,0.1,0.2,0.2
					c0.1,0.1,0.1,0.1,0.2,0.2c0,0.1,0.1,0.1,0.1,0.2c0,0,0,0.1,0,0.1c0,0.1-0.1,0.2-0.1,0.3c-0.1,0.2-0.2,0.3-0.4,0.5
					c-0.2,0.2-0.4,0.4-0.7,0.7l-0.1,0.1l-0.1,0l0,0l0,0l0,0l0,0l0,0l0,0c0,0-0.1,0.1-0.1,0.1S29.7,31,29.6,31s-0.1,0.1-0.2,0.1
					c0,0-0.1,0.1-0.1,0.1l0,0l0,0h0h0c0,0-0.1,0-0.1,0c0,0-0.1,0-0.1-0.1c0,0-0.1-0.1-0.1-0.1c0-0.1-0.1-0.1-0.2-0.2l0-0.1l0-0.1
					l-0.1-0.1l-0.1-0.1c0,0,0-0.1-0.1-0.1l-0.1-0.1l-0.1-0.1l-0.1-0.1c-0.1-0.1-0.2-0.3-0.3-0.4c-0.1-0.1-0.3-0.3-0.4-0.4
					c-0.1-0.1-0.3-0.2-0.5-0.3c-0.2-0.1-0.4-0.1-0.6-0.2l0,0h0h0h0c-0.1,0-0.3,0-0.4,0.1c-0.1,0-0.3,0.1-0.4,0.1
					c-0.1,0.1-0.2,0.1-0.4,0.2s-0.2,0.1-0.3,0.2l-0.1,0l-0.1,0l-0.1,0l-0.1,0c-0.3,0.2-0.6,0.3-0.8,0.4s-0.5,0.3-0.8,0.4
					c-0.3,0.1-0.6,0.2-0.8,0.3c-0.3,0.1-0.6,0.2-0.9,0.2c-0.1,0-0.2,0.1-0.3,0.1c-0.1,0-0.2,0.1-0.2,0.2c-0.1,0.1-0.1,0.2-0.2,0.2
					c0,0.1-0.1,0.2-0.1,0.3c0,0.1,0,0.2,0,0.3s0,0.2,0,0.3s0,0.2,0,0.3s0,0.2,0,0.3c0,0.1,0,0.1,0,0.2s0,0.1,0,0.2s0,0.1,0,0.2
					s0,0.1,0,0.2c0,0.1,0,0.2,0,0.3c0,0.1,0,0.2,0,0.2c0,0.1,0,0.1-0.1,0.2c0,0.1-0.1,0.1-0.1,0.1c-0.1,0.1-0.2,0.2-0.3,0.2
					c-0.1,0.1-0.3,0.1-0.4,0.1c-0.1,0-0.3,0-0.5,0c-0.2,0-0.3,0-0.5,0h-0.1h-0.1h-0.1H18h0l-0.4,0c-0.1,0-0.2,0-0.3,0
					c-0.1,0-0.2,0-0.2,0c-0.1,0-0.1,0-0.1-0.1c0,0,0,0,0,0c0,0,0-0.1,0-0.1c0-0.1,0-0.1,0-0.2c0-0.1,0-0.2,0-0.3c0-0.1,0-0.1,0-0.2
					s0-0.1,0-0.2c0-0.1,0-0.1,0-0.2c0-0.1,0-0.1,0-0.2c0-0.1,0-0.3,0-0.4s0-0.3,0-0.4s0-0.3,0-0.4s0-0.3,0-0.4c0-0.1,0-0.3-0.1-0.4
					c-0.1-0.1-0.1-0.2-0.2-0.3c-0.1-0.1-0.2-0.2-0.3-0.2C16.2,31,16.1,31,15.9,31c-0.4,0-0.7-0.1-1.1-0.2c-0.3-0.1-0.7-0.2-1-0.3
					c-0.3-0.1-0.7-0.3-1-0.5c-0.3-0.2-0.6-0.4-0.9-0.6c0,0-0.1,0-0.1-0.1c0,0-0.1,0-0.1-0.1c0,0-0.1,0-0.1,0s-0.1,0-0.1,0
					c0,0-0.1,0-0.1,0s-0.1,0-0.1,0c0,0-0.1,0-0.1,0c0,0-0.1,0-0.1,0c-0.1,0-0.1,0-0.2,0c-0.1,0-0.1,0-0.2,0.1
					c-0.1,0-0.1,0.1-0.2,0.1c-0.1,0-0.1,0.1-0.2,0.1c0,0-0.1,0.1-0.1,0.1s-0.1,0.1-0.1,0.1l-0.1,0.1L10,30c-0.1,0.1-0.2,0.2-0.3,0.3
					s-0.2,0.2-0.3,0.3c-0.1,0.1-0.2,0.2-0.3,0.3C9,30.9,8.9,31,8.9,31l0,0l0,0h0h0c-0.1,0-0.3,0-0.4-0.1c-0.1-0.1-0.3-0.2-0.4-0.3
					c-0.1-0.1-0.3-0.2-0.4-0.3c-0.1-0.1-0.3-0.2-0.4-0.4L7,29.9L7,29.8l-0.1-0.1l-0.1-0.1l-0.1-0.1l-0.1-0.1l-0.1-0.1l-0.1-0.1
					c-0.1-0.1-0.2-0.2-0.3-0.3C6.1,29,6,28.9,5.9,28.8c-0.1-0.1-0.1-0.2-0.1-0.3c0-0.1,0-0.2,0-0.2c0-0.1,0.1-0.2,0.1-0.2
					C6,28,6,27.9,6.1,27.8c0.1-0.1,0.2-0.2,0.3-0.2s0.2-0.2,0.3-0.2l0.1-0.1l0.1-0.1L7,27.1C7,27.1,7,27,7.1,27l0,0
					c0.1-0.1,0.2-0.2,0.3-0.3c0.1-0.1,0.2-0.2,0.2-0.3c0.1-0.1,0.1-0.3,0.1-0.4c0-0.2,0-0.4-0.1-0.6c0-0.1-0.1-0.2-0.1-0.3
					c0-0.1-0.1-0.2-0.1-0.3s-0.1-0.2-0.2-0.3S7.2,24.1,7.1,24L7,23.8c0-0.1-0.1-0.1-0.1-0.2s-0.1-0.1-0.1-0.2s-0.1-0.1-0.1-0.2
					c-0.1-0.2-0.1-0.4-0.2-0.5s-0.1-0.4-0.2-0.5s-0.1-0.3-0.1-0.5s-0.1-0.3-0.1-0.5c0-0.1-0.1-0.2-0.1-0.3c-0.1-0.1-0.1-0.2-0.2-0.2
					c-0.1-0.1-0.2-0.1-0.3-0.2c-0.1,0-0.2-0.1-0.3-0.1h0h0h0h0l-0.4,0c-0.1,0-0.3,0-0.4,0s-0.3,0-0.4,0s-0.3,0-0.4,0l-0.2,0H3.2H3.1
					H3H2.9c-0.1,0-0.2,0-0.2,0c-0.1,0-0.1,0-0.2-0.1c0,0-0.1-0.1-0.1-0.2c0-0.1-0.1-0.2-0.1-0.3c0-0.2-0.1-0.4-0.1-0.7
					s0-0.4-0.1-0.6s0-0.4,0-0.6c0-0.2,0-0.4,0-0.5l0-0.2c0-0.1,0-0.2,0-0.3s0-0.2,0.1-0.3c0-0.1,0-0.2,0.1-0.3
					c0-0.1,0.1-0.1,0.1-0.2l0,0c0,0,0.1,0,0.1,0c0,0,0.1,0,0.1,0c0.1,0,0.1,0,0.2,0c0.2,0,0.3,0,0.5,0s0.4,0,0.5,0.1
					s0.3,0.1,0.4,0.1s0.2,0,0.3,0.1l0.1,0l0.1,0h0.1H5c0.1,0,0.2,0,0.4-0.1c0.1,0,0.2-0.1,0.3-0.2c0.1-0.1,0.2-0.2,0.2-0.2
					C5.9,16.1,5.9,16,6,15.9c0.1-0.4,0.2-0.8,0.3-1.1c0.3-0.8,0.6-1.5,1-2.2c0.2-0.3,0.4-0.7,0.7-1c0.1-0.1,0.1-0.2,0.2-0.3
					c0-0.1,0-0.2,0-0.3c0-0.1-0.1-0.2-0.1-0.3c0-0.1-0.1-0.2-0.2-0.3c0-0.1-0.1-0.1-0.2-0.2C7.7,10.1,7.7,10,7.6,10
					C7.5,9.9,7.5,9.8,7.4,9.8L7.2,9.6C7,9.4,6.8,9.2,6.6,9C6.5,8.9,6.4,8.8,6.3,8.6C6.2,8.5,6.2,8.4,6.2,8.2c0-0.1,0.1-0.2,0.1-0.3
					c0.1-0.1,0.2-0.3,0.3-0.4C6.7,7.3,6.9,7.2,7,7s0.3-0.3,0.4-0.4c0.1-0.1,0.2-0.2,0.4-0.2C7.9,6.4,8,6.3,8,6.3
					c0.1,0,0.1,0,0.2-0.1c0.1,0,0.1,0,0.2,0c0.1,0,0.1,0,0.2,0c0.1,0,0.2,0,0.4,0.1C9,6.3,9.1,6.4,9.2,6.5c0.1,0.1,0.2,0.2,0.3,0.3
					c0.1,0.1,0.2,0.3,0.4,0.4L10,7.3l0.1,0.1l0.1,0.1l0.1,0.1c0,0.1,0.1,0.2,0.2,0.2c0.1,0.1,0.1,0.1,0.2,0.2c0.1,0,0.2,0.1,0.2,0.1
					c0.1,0,0.2,0,0.3,0c0,0,0.1,0,0.1,0c0,0,0.1,0,0.1,0c0,0,0.1,0,0.1-0.1c0,0,0.1,0,0.1-0.1c0.3-0.2,0.5-0.3,0.8-0.5
					S13,7.1,13.3,7s0.6-0.3,0.9-0.4s0.6-0.2,0.9-0.3l0,0l0.1,0l0.1,0l0.1,0c0.1,0,0.2-0.1,0.2-0.1S15.7,6,15.8,6
					c0.1,0,0.2-0.1,0.2-0.1c0.1-0.1,0.1-0.1,0.2-0.2c0.1-0.1,0.2-0.2,0.2-0.4c0.1-0.1,0.1-0.3,0.1-0.4c0-0.1,0.1-0.3,0.1-0.4
					c0-0.1,0-0.3,0-0.4c0-0.1,0-0.1,0-0.2s0-0.1,0-0.2s0-0.1,0-0.2s0-0.1,0-0.2s0-0.1,0-0.2s0-0.1,0-0.2c0,0,0-0.1,0-0.1
					c0,0,0-0.1,0-0.1c0-0.2,0.1-0.3,0.3-0.4c0.1,0,0.2-0.1,0.3-0.1c0.1,0,0.3,0,0.5,0l0.2,0l0.5,0l0.3,0l0.3,0l0.3,0l0.3,0h0.1h0.1
					h0.1h0.1c0.1,0,0.1,0,0.2,0c0.1,0,0.1,0,0.2,0c0.1,0,0.1,0,0.2,0.1c0.1,0,0.1,0.1,0.2,0.1c0,0,0,0,0,0.1c0,0,0,0.1,0,0.1
					s0,0.1,0,0.1s0,0.1,0,0.1s0,0.1,0,0.1s0,0.1,0,0.1s0,0.1,0,0.1s0,0.1,0,0.2c0,0,0,0.1,0,0.1c0,0,0,0.1,0,0.1s0,0.1,0,0.2
					s0,0.1,0,0.2c0,0.1,0,0.2,0,0.3c0,0.1,0,0.2,0,0.4c0,0.1,0,0.3,0.1,0.4c0,0.1,0.1,0.3,0.2,0.4c0.1,0.1,0.2,0.3,0.3,0.4
					c0.1,0.1,0.2,0.2,0.3,0.2C21.5,6,21.6,6,21.7,6.1c0.1,0,0.2,0.1,0.3,0.1l0.3,0.1c0.3,0.1,0.6,0.2,0.9,0.3s0.6,0.2,0.8,0.3
					s0.5,0.2,0.8,0.4s0.5,0.3,0.8,0.4l0,0l0.1,0l0.1,0l0.1,0c0,0,0.1,0,0.1,0c0,0,0.1,0,0.1,0c0,0,0.1,0,0.1,0c0,0,0.1,0,0.1,0
					c0.1,0,0.1,0,0.2,0c0.1,0,0.1,0,0.2-0.1c0.1,0,0.1-0.1,0.2-0.1c0,0,0.1-0.1,0.1-0.1c0,0,0.1-0.1,0.1-0.2c0-0.1,0.1-0.1,0.1-0.2
					l0.1-0.2L27.6,7c0.1-0.1,0.2-0.2,0.3-0.3s0.2-0.2,0.3-0.3c0.1-0.1,0.2-0.2,0.3-0.3c0.1-0.1,0.2-0.1,0.3-0.2l0.1,0c0,0,0,0,0.1,0
					c0,0,0,0,0,0c0,0,0,0,0,0c0.1,0,0.1,0,0.2,0.1c0.1,0,0.1,0.1,0.2,0.1c0.1,0.1,0.1,0.1,0.2,0.2s0.1,0.2,0.2,0.2l0.1,0.1l0.1,0.1
					l0.1,0.1c0,0,0.1,0.1,0.1,0.1L30.3,7l0.1,0.1l0.1,0.1l0.1,0.1c0.2,0.2,0.4,0.3,0.5,0.5c0.1,0.1,0.2,0.2,0.3,0.4
					c0.1,0.1,0.1,0.2,0.1,0.3c0,0.1,0,0.2-0.1,0.3c0,0-0.1,0.1-0.1,0.1c-0.1,0-0.1,0.1-0.2,0.1c-0.1,0-0.1,0.1-0.2,0.1
					s-0.1,0.1-0.2,0.1s-0.1,0.1-0.2,0.1s-0.1,0.1-0.2,0.1s-0.1,0.1-0.2,0.2c-0.1,0.1-0.1,0.1-0.2,0.2c-0.1,0.1-0.2,0.3-0.3,0.5
					c-0.1,0.1-0.1,0.3-0.1,0.4c0,0.1,0,0.3,0,0.4c0,0.2,0.1,0.3,0.1,0.5c0,0.1,0.1,0.2,0.1,0.2s0.1,0.1,0.1,0.2s0.1,0.1,0.1,0.2
					s0.1,0.1,0.1,0.2s0.1,0.1,0.1,0.2s0.1,0.1,0.1,0.2s0.1,0.1,0.1,0.2s0,0.1,0.1,0.2c0,0.1,0.1,0.2,0.1,0.3s0.1,0.2,0.1,0.3
					c0,0.1,0.1,0.2,0.1,0.3s0.1,0.2,0.1,0.3l0.1,0.3c0,0.1,0.1,0.2,0.1,0.3c0,0.1,0.1,0.2,0.1,0.3c0,0.1,0.1,0.2,0.1,0.3
					c0,0.1,0.1,0.2,0.1,0.3c0.1,0.1,0.1,0.2,0.2,0.2c0.1,0.1,0.2,0.1,0.3,0.2c0.1,0,0.2,0.1,0.3,0.1l0.2,0l0.2,0l0.2,0h0.2
					c0.1,0,0.3,0,0.4,0s0.3,0,0.4,0s0.3,0,0.4,0c0.1,0,0.2,0,0.4,0.1c0.1,0,0.2,0.1,0.3,0.1c0.1,0.1,0.1,0.2,0.2,0.3
					c0,0.1,0.1,0.3,0.1,0.4c0,0.2,0,0.4,0,0.6c0,0.1,0,0.1,0,0.2s0,0.1,0,0.2s0,0.1,0,0.2s0,0.1,0,0.2c0,0,0,0.1,0,0.1s0,0.1,0,0.1
					s0,0.1,0,0.1s0,0.1,0,0.1c0,0.2,0,0.4,0,0.5c0,0.1,0,0.2,0,0.3c0,0.1-0.1,0.1-0.1,0.2C34.9,20.2,34.8,20.3,34.7,20.3"/>
				<path id="Path_14169" class="st2" d="M18.6,25.2c-3.6,0-6.4-2.9-6.4-6.4c0-2.6,1.5-4.9,3.9-5.9c3.3-1.4,7,0.2,8.4,3.4
					c1.4,3.3-0.2,7-3.4,8.4C20.3,25,19.5,25.2,18.6,25.2 M18.6,14.4c-2.4,0-4.3,1.9-4.3,4.3s1.9,4.3,4.3,4.3c2.4,0,4.3-1.9,4.3-4.3
					c0-1.7-1-3.3-2.6-4C19.8,14.5,19.2,14.4,18.6,14.4"/>
			</g>
		</g>
	</g>
	<g id="Group_24972" transform="translate(1027.152 262.854)">
		<g>
			<defs>
				<rect id="SVGID_00000013173191031102039560000017213742622937533575_" x="0" y="0" width="28.5" height="28.5"/>
			</defs>
			<clipPath id="SVGID_00000072989617570364842030000013515883623283005865_">
				<use xlink:href="#SVGID_00000013173191031102039560000017213742622937533575_"  style="overflow:visible;"/>
			</clipPath>
			<g id="Group_24927-2" style="clip-path:url(#SVGID_00000072989617570364842030000013515883623283005865_);">
				<path id="Path_14167-2" class="st1" d="M28.5,14.7c0,0,0-0.1,0-0.1s0-0.1,0-0.1c0,0,0-0.1,0-0.1c0,0,0-0.1,0-0.1
					c0,0,0-0.1,0-0.1s0-0.1,0-0.1s0-0.1,0-0.1s0-0.1,0-0.1c0-0.2,0-0.4,0-0.6c0-0.2,0-0.4,0-0.6c0-0.2-0.1-0.4-0.2-0.6
					c-0.1-0.2-0.2-0.3-0.4-0.5c-0.1-0.1-0.3-0.2-0.4-0.3c-0.2-0.1-0.4-0.1-0.5-0.1c-0.2,0-0.4-0.1-0.6-0.1c-0.2,0-0.4,0-0.6,0h-0.1
					h-0.2h-0.2h-0.1l0-0.1l0-0.1l0-0.1l0-0.1c0-0.1-0.1-0.2-0.1-0.4s-0.1-0.2-0.1-0.4s-0.1-0.2-0.1-0.4s-0.1-0.2-0.1-0.4
					c0,0,0-0.1,0-0.1s0-0.1,0-0.1s0-0.1-0.1-0.1l-0.1-0.1l-0.1-0.1l-0.1-0.1c0,0,0-0.1-0.1-0.1s0-0.1,0-0.1c0,0,0.1-0.1,0.1-0.1
					c0,0,0.1-0.1,0.2-0.1s0.1-0.1,0.2-0.1L24.8,8C24.9,8,24.9,7.9,25,7.9s0.2-0.1,0.2-0.2c0.1-0.1,0.1-0.1,0.2-0.2
					c0.1-0.1,0.1-0.1,0.2-0.2c0.1-0.1,0.1-0.2,0.2-0.3c0.1-0.1,0.1-0.2,0.1-0.3c0-0.1,0.1-0.2,0.1-0.3c0-0.1,0-0.3,0-0.4
					c0-0.2-0.1-0.3-0.2-0.4c-0.1-0.1-0.2-0.3-0.3-0.4c-0.1-0.1-0.2-0.2-0.3-0.3c-0.1-0.1-0.2-0.2-0.3-0.3l-0.1-0.1l-0.1-0.1
					l-0.1-0.1l-0.1-0.1l-0.1-0.1l-0.1-0.1L24.1,4L24,3.9c-0.1-0.1-0.2-0.2-0.3-0.3s-0.2-0.2-0.3-0.3c-0.1-0.1-0.2-0.2-0.3-0.3
					c-0.1-0.1-0.2-0.1-0.4-0.2c0,0-0.1,0-0.1,0c0,0-0.1,0-0.1,0c0,0-0.1,0-0.1,0c0,0-0.1,0-0.1,0c-0.2,0-0.4,0.1-0.6,0.1
					c-0.2,0.1-0.4,0.2-0.6,0.4c-0.2,0.2-0.4,0.3-0.5,0.5c-0.2,0.2-0.3,0.4-0.5,0.5l0,0l0,0l0,0l0,0c-0.1-0.1-0.2-0.1-0.3-0.2
					c-0.1,0-0.2-0.1-0.3-0.1c-0.1,0-0.2-0.1-0.3-0.1l-0.3-0.1l-0.2-0.1l-0.2-0.1l-0.2-0.1l-0.2-0.1l-0.1-0.1c-0.1,0-0.2-0.1-0.2-0.1
					c0,0-0.1-0.1-0.1-0.1c0,0-0.1-0.1-0.1-0.1c0,0,0-0.1,0-0.2c0,0,0-0.1,0-0.1c0,0,0-0.1,0-0.1s0-0.1,0-0.2s0-0.1,0-0.2
					s0-0.1,0-0.2c0-0.1,0-0.1,0-0.2s0-0.2,0-0.2c0-0.1,0-0.2,0-0.2c0-0.2-0.1-0.4-0.2-0.6c-0.1-0.2-0.2-0.3-0.4-0.4
					c-0.2-0.1-0.3-0.2-0.5-0.3C15.9,0,15.7,0,15.5,0c-0.1,0-0.2,0-0.2,0S15.1,0,15,0s-0.2,0-0.2,0l-0.2,0l-0.1,0l-0.1,0l-0.1,0
					l-0.1,0l-0.1,0l-0.1,0l-0.1,0l-0.1,0c-0.2,0-0.5,0-0.8,0.1c-0.3,0-0.5,0.1-0.7,0.2c-0.2,0.1-0.4,0.3-0.6,0.5
					c-0.2,0.3-0.3,0.6-0.3,0.9c0,0.1,0,0.1,0,0.2c0,0.1,0,0.1,0,0.2s0,0.1,0,0.2s0,0.1,0,0.2s0,0.1,0,0.2s0,0.1,0,0.2
					c0,0.1,0,0.1,0,0.2c0,0.1,0,0.1,0,0.1l0,0l0,0l0,0v0l0,0l0,0l0,0l0,0l-0.1,0l-0.1,0l-0.1,0l-0.1,0c-0.2,0.1-0.4,0.1-0.5,0.2
					C10,3.7,9.8,3.8,9.7,3.8C9.5,3.9,9.3,4,9.2,4.1C9,4.2,8.9,4.2,8.7,4.3C8.6,4.2,8.4,4,8.3,3.8C8.1,3.7,8,3.5,7.8,3.4
					C7.6,3.2,7.4,3.1,7.2,3C7,2.9,6.8,2.9,6.6,2.9H6.5C6.2,2.9,6,3,5.8,3.1C5.5,3.2,5.3,3.3,5.1,3.5C4.9,3.7,4.7,3.9,4.5,4
					C4.3,4.2,4.2,4.4,4,4.6L3.9,4.7L3.8,4.8L3.7,4.9L3.7,5C3.6,5.1,3.5,5.2,3.4,5.3C3.3,5.4,3.2,5.5,3.2,5.6C3.1,5.8,3.1,5.9,3.1,6
					c0,0.1,0,0.2,0,0.3c0,0.2,0,0.4,0.1,0.6c0.1,0.2,0.2,0.4,0.3,0.5c0.1,0.2,0.3,0.3,0.4,0.5C4,8.1,4.1,8.2,4.3,8.4l0,0l0,0l0,0
					l0,0C4.3,8.7,4.2,8.9,4.1,9.1C4,9.3,3.8,9.5,3.7,9.7c-0.1,0.2-0.2,0.4-0.3,0.7s-0.2,0.4-0.2,0.7c-0.1,0-0.2,0-0.3,0
					c-0.1,0-0.2,0-0.2,0c-0.1,0-0.2,0-0.2,0c-0.1,0-0.2,0-0.2,0c-0.2,0-0.4,0-0.5,0c-0.2,0-0.3,0.1-0.5,0.1c-0.1,0-0.3,0.1-0.4,0.2
					c-0.1,0.1-0.2,0.2-0.3,0.2c-0.2,0.2-0.3,0.4-0.4,0.6C0.1,12.4,0,12.7,0,12.9c0,0.3,0,0.5,0,0.8c0,0.3,0,0.5,0.1,0.8
					c0,0,0,0.1,0,0.1l0,0.1c0,0,0,0.1,0,0.1c0,0,0,0.1,0,0.1V15V15v0.1v0.1c0,0.2,0,0.3,0,0.5c0,0.2,0.1,0.4,0.1,0.6
					c0.1,0.2,0.1,0.4,0.2,0.5C0.7,16.9,0.8,17,1,17.1c0.1,0,0.2,0.1,0.3,0.1c0.1,0,0.2,0.1,0.3,0.1c0.1,0,0.2,0,0.3,0
					c0.1,0,0.2,0,0.4,0c0.1,0,0.2,0,0.3,0s0.2,0,0.3,0s0.2,0,0.3,0l0.3,0c0,0.2,0.1,0.3,0.1,0.5c0,0.2,0.1,0.3,0.2,0.5
					c0.1,0.1,0.1,0.3,0.2,0.4C3.9,18.8,3.9,19,4,19.1c0,0,0,0,0,0.1s0,0,0,0.1l0,0.1l0,0.1l0,0l0,0.1l0,0.1l0,0.1l0,0l0,0
					c0,0,0,0,0,0s0,0,0,0.1c0,0-0.1,0.1-0.1,0.1C4,19.9,4,20,3.9,20s-0.1,0.1-0.1,0.1l-0.2,0.1c-0.1,0.1-0.3,0.2-0.4,0.4
					C3.1,20.8,3,21,2.9,21.1c-0.1,0.2-0.2,0.3-0.2,0.5c0,0.2,0,0.4,0.1,0.6c0.1,0.3,0.3,0.6,0.5,0.9c0.3,0.3,0.6,0.6,0.9,0.9
					c0.3,0.3,0.7,0.6,1,0.8c0.3,0.2,0.6,0.4,0.9,0.5c0,0,0.1,0,0.1,0s0.1,0,0.1,0c0,0,0.1,0,0.1,0c0,0,0.1,0,0.1,0
					c0.2,0,0.4,0,0.6-0.1c0.2-0.1,0.4-0.2,0.6-0.3c0.2-0.1,0.3-0.3,0.5-0.4c0.2-0.2,0.3-0.3,0.4-0.5c0.2,0.1,0.4,0.3,0.6,0.4
					s0.4,0.2,0.6,0.3c0.2,0.1,0.4,0.2,0.7,0.2c0.2,0.1,0.5,0.1,0.7,0.2c0,0,0,0,0,0.1c0,0,0,0,0,0.1l0,0.1c0,0,0,0,0,0.1
					c0,0.2-0.1,0.4-0.1,0.6c0,0.2,0,0.4,0,0.6c0,0.2,0,0.4,0.1,0.6c0.1,0.2,0.2,0.4,0.3,0.5c0.1,0.1,0.2,0.2,0.3,0.3
					c0.1,0.1,0.3,0.1,0.4,0.2c0.2,0,0.3,0.1,0.5,0.1c0.2,0,0.3,0,0.5,0h0.4h0.1h0.1H14h0.1h0.1l0.2,0l0.2,0h0.2h0.2
					c0.1,0,0.2,0,0.3,0s0.2,0,0.3,0c0.1,0,0.2,0,0.4-0.1c0.1,0,0.2-0.1,0.4-0.1c0.1-0.1,0.3-0.1,0.4-0.2c0.1-0.1,0.2-0.2,0.3-0.3
					c0.1-0.1,0.2-0.2,0.2-0.3c0.1-0.1,0.1-0.3,0.1-0.4c0-0.1,0-0.2,0-0.2c0-0.1,0-0.2,0-0.3c0-0.1,0-0.2,0-0.3s0-0.2-0.1-0.3
					c0-0.1,0-0.1,0-0.2s0-0.1,0-0.2c0-0.1,0-0.1,0-0.2c0,0,0-0.1,0-0.1c0,0,0.1-0.1,0.1-0.1c0.1,0,0.1-0.1,0.2-0.1s0.2-0.1,0.3-0.1
					l0.2-0.1l0.2-0.1c0.1,0,0.1,0,0.2-0.1s0.1,0,0.2-0.1s0.1,0,0.2-0.1s0.1,0,0.1-0.1l0.1-0.1l0.1-0.1l0.1-0.1
					c0.1,0,0.1-0.1,0.2-0.1s0.1-0.1,0.2-0.1c0.1,0,0.1-0.1,0.2-0.1c0.1,0,0.1,0,0.2,0c0,0,0,0,0.1,0c0,0,0.1,0,0.1,0
					c0,0,0.1,0,0.1,0.1c0,0,0.1,0.1,0.1,0.1c0,0,0.1,0.1,0.1,0.1s0.1,0.1,0.1,0.1s0.1,0.1,0.1,0.2s0.1,0.1,0.1,0.2
					c0.1,0.1,0.2,0.2,0.3,0.3c0.1,0.1,0.2,0.2,0.3,0.3c0.1,0.1,0.2,0.2,0.4,0.2c0.1,0.1,0.3,0.1,0.4,0.1c0.1,0,0.1,0,0.2,0
					c0.1,0,0.1,0,0.2,0c0.1,0,0.1,0,0.2-0.1c0.1,0,0.1-0.1,0.2-0.1c0.2-0.1,0.4-0.3,0.7-0.5c0.2-0.2,0.4-0.4,0.6-0.6
					c0.2-0.2,0.4-0.4,0.6-0.7c0.2-0.2,0.3-0.5,0.5-0.7c0.2-0.2,0.3-0.5,0.3-0.8c0-0.2,0-0.4-0.1-0.6c-0.1-0.2-0.2-0.4-0.4-0.5
					c-0.2-0.2-0.3-0.3-0.5-0.5l-0.1-0.1l-0.1-0.1l-0.1-0.1l-0.1-0.1c-0.1-0.1-0.1-0.1-0.2-0.2c0,0-0.1-0.1-0.1-0.2
					c0-0.1,0-0.1,0-0.2c0-0.1,0.1-0.2,0.1-0.3c0.1-0.2,0.2-0.4,0.2-0.6s0.1-0.4,0.2-0.6c0.1-0.2,0.1-0.4,0.2-0.6s0.1-0.4,0.2-0.6h0
					h0h0h0l0.2,0l0.3,0c0.1,0,0.2,0,0.3,0s0.2,0,0.3,0c0.2,0,0.3,0,0.5,0c0.1,0,0.3,0,0.4-0.1c0.1,0,0.2-0.1,0.3-0.1
					c0.1,0,0.2-0.1,0.3-0.1c0.2-0.1,0.3-0.3,0.4-0.5c0.1-0.2,0.2-0.4,0.2-0.6c0-0.2,0-0.4,0-0.6C28.5,15.1,28.5,14.9,28.5,14.7
					 M14.3,20c-2.8,0-5-2.2-5-5c0-2.8,2.2-5,5-5c2.8,0,5,2.2,5,5c0,2-1.2,3.8-3.1,4.6C15.6,19.8,14.9,20,14.3,20"/>
				<path id="Path_14168-2" class="st2" d="M28.5,14.7c0,0,0-0.1,0-0.1s0-0.1,0-0.1c0,0,0-0.1,0-0.1c0,0,0-0.1,0-0.1
					c0,0,0-0.1,0-0.1s0-0.1,0-0.1s0-0.1,0-0.1s0-0.1,0-0.1c0-0.2,0-0.4,0-0.6c0-0.2,0-0.4,0-0.6c0-0.2-0.1-0.4-0.2-0.6
					c-0.1-0.2-0.2-0.3-0.4-0.5c-0.1-0.1-0.3-0.2-0.4-0.3c-0.2-0.1-0.4-0.1-0.5-0.1c-0.2,0-0.4-0.1-0.6-0.1c-0.2,0-0.4,0-0.6,0h-0.1
					h-0.2h-0.2h-0.1l0-0.1l0-0.1l0-0.1l0-0.1c0-0.1-0.1-0.2-0.1-0.4s-0.1-0.2-0.1-0.4s-0.1-0.2-0.1-0.4s-0.1-0.2-0.1-0.4
					c0,0,0-0.1,0-0.1s0-0.1,0-0.1s0-0.1-0.1-0.1l-0.1-0.1l-0.1-0.1l-0.1-0.1c0,0,0-0.1-0.1-0.1s0-0.1,0-0.1c0,0,0.1-0.1,0.1-0.1
					c0,0,0.1-0.1,0.2-0.1s0.1-0.1,0.2-0.1L24.8,8C24.9,8,24.9,7.9,25,7.9s0.2-0.1,0.2-0.2c0.1-0.1,0.1-0.1,0.2-0.2
					c0.1-0.1,0.1-0.1,0.2-0.2c0.1-0.1,0.1-0.2,0.2-0.3c0.1-0.1,0.1-0.2,0.1-0.3c0-0.1,0.1-0.2,0.1-0.3c0-0.1,0-0.3,0-0.4
					c0-0.2-0.1-0.3-0.2-0.4c-0.1-0.1-0.2-0.3-0.3-0.4c-0.1-0.1-0.2-0.2-0.3-0.3c-0.1-0.1-0.2-0.2-0.3-0.3l-0.1-0.1l-0.1-0.1
					l-0.1-0.1l-0.1-0.1l-0.1-0.1l-0.1-0.1L24.1,4L24,3.9c-0.1-0.1-0.2-0.2-0.3-0.3s-0.2-0.2-0.3-0.3c-0.1-0.1-0.2-0.2-0.3-0.3
					c-0.1-0.1-0.2-0.1-0.4-0.2c0,0-0.1,0-0.1,0c0,0-0.1,0-0.1,0c0,0-0.1,0-0.1,0c0,0-0.1,0-0.1,0c-0.2,0-0.4,0.1-0.6,0.1
					c-0.2,0.1-0.4,0.2-0.6,0.4c-0.2,0.2-0.4,0.3-0.5,0.5c-0.2,0.2-0.3,0.4-0.5,0.5l0,0l0,0l0,0l0,0c-0.1-0.1-0.2-0.1-0.3-0.2
					c-0.1,0-0.2-0.1-0.3-0.1c-0.1,0-0.2-0.1-0.3-0.1l-0.3-0.1l-0.2-0.1l-0.2-0.1l-0.2-0.1l-0.2-0.1l-0.1-0.1c-0.1,0-0.2-0.1-0.2-0.1
					c0,0-0.1-0.1-0.1-0.1c0,0-0.1-0.1-0.1-0.1c0,0,0-0.1,0-0.2c0,0,0-0.1,0-0.1c0,0,0-0.1,0-0.1s0-0.1,0-0.2s0-0.1,0-0.2
					s0-0.1,0-0.2c0-0.1,0-0.1,0-0.2s0-0.2,0-0.2c0-0.1,0-0.2,0-0.2c0-0.2-0.1-0.4-0.2-0.6c-0.1-0.2-0.2-0.3-0.4-0.4
					c-0.2-0.1-0.3-0.2-0.5-0.3C15.9,0,15.7,0,15.5,0c-0.1,0-0.2,0-0.2,0S15.1,0,15,0s-0.2,0-0.2,0l-0.2,0l-0.1,0l-0.1,0l-0.1,0
					l-0.1,0l-0.1,0l-0.1,0l-0.1,0l-0.1,0c-0.2,0-0.5,0-0.8,0.1c-0.3,0-0.5,0.1-0.7,0.2c-0.2,0.1-0.4,0.3-0.6,0.5
					c-0.2,0.3-0.3,0.6-0.3,0.9c0,0.1,0,0.1,0,0.2c0,0.1,0,0.1,0,0.2s0,0.1,0,0.2s0,0.1,0,0.2s0,0.1,0,0.2s0,0.1,0,0.2
					c0,0.1,0,0.1,0,0.2c0,0.1,0,0.1,0,0.1l0,0l0,0l0,0v0l0,0l0,0l0,0l0,0l-0.1,0l-0.1,0l-0.1,0l-0.1,0c-0.2,0.1-0.4,0.1-0.5,0.2
					C10,3.7,9.8,3.8,9.7,3.8C9.5,3.9,9.3,4,9.2,4.1C9,4.2,8.9,4.2,8.7,4.3C8.6,4.2,8.4,4,8.3,3.8C8.1,3.7,8,3.5,7.8,3.4
					C7.6,3.2,7.4,3.1,7.2,3C7,2.9,6.8,2.9,6.6,2.9H6.5C6.2,2.9,6,3,5.8,3.1C5.5,3.2,5.3,3.3,5.1,3.5C4.9,3.7,4.7,3.9,4.5,4
					C4.3,4.2,4.2,4.4,4,4.6L3.9,4.7L3.8,4.8L3.7,4.9L3.7,5C3.6,5.1,3.5,5.2,3.4,5.3C3.3,5.4,3.2,5.5,3.2,5.6C3.1,5.8,3.1,5.9,3.1,6
					c0,0.1,0,0.2,0,0.3c0,0.2,0,0.4,0.1,0.6c0.1,0.2,0.2,0.4,0.3,0.5c0.1,0.2,0.3,0.3,0.4,0.5C4,8.1,4.1,8.2,4.3,8.4l0,0l0,0l0,0
					l0,0C4.3,8.7,4.2,8.9,4.1,9.1C4,9.3,3.8,9.5,3.7,9.7c-0.1,0.2-0.2,0.4-0.3,0.7s-0.2,0.4-0.2,0.7c-0.1,0-0.2,0-0.3,0
					c-0.1,0-0.2,0-0.2,0c-0.1,0-0.2,0-0.2,0c-0.1,0-0.2,0-0.2,0c-0.2,0-0.4,0-0.5,0c-0.2,0-0.3,0.1-0.5,0.1c-0.1,0-0.3,0.1-0.4,0.2
					c-0.1,0.1-0.2,0.2-0.3,0.2c-0.2,0.2-0.3,0.4-0.4,0.6C0.1,12.4,0,12.7,0,12.9c0,0.3,0,0.5,0,0.8c0,0.3,0,0.5,0.1,0.8
					c0,0,0,0.1,0,0.1l0,0.1c0,0,0,0.1,0,0.1c0,0,0,0.1,0,0.1V15V15v0.1v0.1c0,0.2,0,0.3,0,0.5c0,0.2,0.1,0.4,0.1,0.6
					c0.1,0.2,0.1,0.4,0.2,0.5C0.7,16.9,0.8,17,1,17.1c0.1,0,0.2,0.1,0.3,0.1c0.1,0,0.2,0.1,0.3,0.1c0.1,0,0.2,0,0.3,0
					c0.1,0,0.2,0,0.4,0c0.1,0,0.2,0,0.3,0s0.2,0,0.3,0s0.2,0,0.3,0l0.3,0c0,0.2,0.1,0.3,0.1,0.5c0,0.2,0.1,0.3,0.2,0.5
					c0.1,0.1,0.1,0.3,0.2,0.4C3.9,18.8,3.9,19,4,19.1c0,0,0,0,0,0.1s0,0,0,0.1l0,0.1l0,0.1l0,0l0,0.1l0,0.1l0,0.1l0,0l0,0
					c0,0,0,0,0,0s0,0,0,0.1c0,0-0.1,0.1-0.1,0.1C4,19.9,4,20,3.9,20s-0.1,0.1-0.1,0.1l-0.2,0.1c-0.1,0.1-0.3,0.2-0.4,0.4
					C3.1,20.8,3,21,2.9,21.1c-0.1,0.2-0.2,0.3-0.2,0.5c0,0.2,0,0.4,0.1,0.6c0.1,0.3,0.3,0.6,0.5,0.9c0.3,0.3,0.6,0.6,0.9,0.9
					c0.3,0.3,0.7,0.6,1,0.8c0.3,0.2,0.6,0.4,0.9,0.5c0,0,0.1,0,0.1,0s0.1,0,0.1,0c0,0,0.1,0,0.1,0c0,0,0.1,0,0.1,0
					c0.2,0,0.4,0,0.6-0.1c0.2-0.1,0.4-0.2,0.6-0.3c0.2-0.1,0.3-0.3,0.5-0.4c0.2-0.2,0.3-0.3,0.4-0.5c0.2,0.1,0.4,0.3,0.6,0.4
					s0.4,0.2,0.6,0.3c0.2,0.1,0.4,0.2,0.7,0.2c0.2,0.1,0.5,0.1,0.7,0.2c0,0,0,0,0,0.1c0,0,0,0,0,0.1l0,0.1c0,0,0,0,0,0.1
					c0,0.2-0.1,0.4-0.1,0.6c0,0.2,0,0.4,0,0.6c0,0.2,0,0.4,0.1,0.6c0.1,0.2,0.2,0.4,0.3,0.5c0.1,0.1,0.2,0.2,0.3,0.3
					c0.1,0.1,0.3,0.1,0.4,0.2c0.2,0,0.3,0.1,0.5,0.1c0.2,0,0.3,0,0.5,0h0.4h0.1h0.1H14h0.1h0.1l0.2,0l0.2,0h0.2h0.2
					c0.1,0,0.2,0,0.3,0s0.2,0,0.3,0c0.1,0,0.2,0,0.4-0.1c0.1,0,0.2-0.1,0.4-0.1c0.1-0.1,0.3-0.1,0.4-0.2c0.1-0.1,0.2-0.2,0.3-0.3
					c0.1-0.1,0.2-0.2,0.2-0.3c0.1-0.1,0.1-0.3,0.1-0.4c0-0.1,0-0.2,0-0.2c0-0.1,0-0.2,0-0.3c0-0.1,0-0.2,0-0.3s0-0.2-0.1-0.3
					c0-0.1,0-0.1,0-0.2s0-0.1,0-0.2c0-0.1,0-0.1,0-0.2c0,0,0-0.1,0-0.1c0,0,0.1-0.1,0.1-0.1c0.1,0,0.1-0.1,0.2-0.1s0.2-0.1,0.3-0.1
					l0.2-0.1l0.2-0.1c0.1,0,0.1,0,0.2-0.1s0.1,0,0.2-0.1s0.1,0,0.2-0.1s0.1,0,0.1-0.1l0.1-0.1l0.1-0.1l0.1-0.1
					c0.1,0,0.1-0.1,0.2-0.1s0.1-0.1,0.2-0.1c0.1,0,0.1-0.1,0.2-0.1c0.1,0,0.1,0,0.2,0c0,0,0,0,0.1,0c0,0,0.1,0,0.1,0
					c0,0,0.1,0,0.1,0.1c0,0,0.1,0.1,0.1,0.1c0,0,0.1,0.1,0.1,0.1s0.1,0.1,0.1,0.1s0.1,0.1,0.1,0.2s0.1,0.1,0.1,0.2
					c0.1,0.1,0.2,0.2,0.3,0.3c0.1,0.1,0.2,0.2,0.3,0.3c0.1,0.1,0.2,0.2,0.4,0.2c0.1,0.1,0.3,0.1,0.4,0.1c0.1,0,0.1,0,0.2,0
					c0.1,0,0.1,0,0.2,0c0.1,0,0.1,0,0.2-0.1c0.1,0,0.1-0.1,0.2-0.1c0.2-0.1,0.4-0.3,0.7-0.5c0.2-0.2,0.4-0.4,0.6-0.6
					c0.2-0.2,0.4-0.4,0.6-0.7c0.2-0.2,0.3-0.5,0.5-0.7c0.2-0.2,0.3-0.5,0.3-0.8c0-0.2,0-0.4-0.1-0.6c-0.1-0.2-0.2-0.4-0.4-0.5
					c-0.2-0.2-0.3-0.3-0.5-0.5l-0.1-0.1l-0.1-0.1l-0.1-0.1l-0.1-0.1c-0.1-0.1-0.1-0.1-0.2-0.2c0,0-0.1-0.1-0.1-0.2
					c0-0.1,0-0.1,0-0.2c0-0.1,0.1-0.2,0.1-0.3c0.1-0.2,0.2-0.4,0.2-0.6s0.1-0.4,0.2-0.6c0.1-0.2,0.1-0.4,0.2-0.6s0.1-0.4,0.2-0.6h0
					h0h0h0l0.2,0l0.3,0c0.1,0,0.2,0,0.3,0s0.2,0,0.3,0c0.2,0,0.3,0,0.5,0c0.1,0,0.3,0,0.4-0.1c0.1,0,0.2-0.1,0.3-0.1
					c0.1,0,0.2-0.1,0.3-0.1c0.2-0.1,0.3-0.3,0.4-0.5c0.1-0.2,0.2-0.4,0.2-0.6c0-0.2,0-0.4,0-0.6C28.5,15.1,28.5,14.9,28.5,14.7
					 M26.6,15.5c0,0-0.1,0-0.1,0c0,0-0.1,0-0.1,0c0,0-0.1,0-0.2,0c-0.1,0-0.1,0-0.2,0c-0.1,0-0.1,0-0.2,0l-0.2,0l-0.2,0l-0.2,0
					l-0.2,0l-0.2,0l-0.2,0h-0.2l0,0c-0.1,0-0.1,0-0.2,0c-0.1,0-0.1,0-0.2,0.1c-0.1,0-0.1,0.1-0.1,0.1c0,0-0.1,0.1-0.1,0.1
					c0,0-0.1,0.1-0.1,0.1c0,0,0,0.1,0,0.1s0,0.1,0,0.1c-0.1,0.2-0.1,0.3-0.2,0.5s-0.1,0.3-0.2,0.5s-0.1,0.3-0.2,0.5
					s-0.1,0.3-0.2,0.5L23,18.3c0,0.1-0.1,0.2-0.1,0.3c0,0.1-0.1,0.2-0.1,0.3c0,0.1-0.1,0.2-0.1,0.3c-0.1,0.1-0.1,0.3-0.1,0.4
					c0,0.1,0,0.3,0,0.4c0,0.1,0.1,0.2,0.1,0.4c0.1,0.1,0.1,0.3,0.2,0.4c0,0.1,0.1,0.1,0.2,0.2c0.1,0.1,0.1,0.1,0.2,0.2
					s0.1,0.1,0.2,0.1s0.1,0.1,0.2,0.1s0.1,0.1,0.2,0.1s0.1,0.1,0.2,0.1c0.1,0,0.1,0.1,0.1,0.1c0,0,0.1,0.1,0.1,0.1c0,0,0,0.1,0,0.1
					c0,0.1-0.1,0.1-0.1,0.2c-0.1,0.1-0.2,0.3-0.3,0.4c-0.1,0.2-0.3,0.3-0.5,0.6l0,0l0,0l0,0l0,0l0,0l0,0l0,0l0,0l-0.1,0.1
					c0,0-0.1,0.1-0.1,0.1s-0.1,0.1-0.1,0.1c0,0-0.1,0-0.1,0.1l0,0h0h0h0c0,0,0,0-0.1,0c0,0-0.1,0-0.1-0.1c0,0-0.1-0.1-0.1-0.1
					c0,0-0.1-0.1-0.1-0.1l0,0l0,0l0,0l0,0l-0.1-0.1l-0.1-0.1l-0.1-0.1l-0.1-0.1c-0.1-0.1-0.2-0.2-0.3-0.3c-0.1-0.1-0.2-0.2-0.3-0.3
					c-0.1-0.1-0.2-0.2-0.4-0.2c-0.1-0.1-0.3-0.1-0.4-0.1h0h0h0h0c-0.1,0-0.2,0-0.3,0c-0.1,0-0.2,0.1-0.3,0.1c-0.1,0-0.2,0.1-0.3,0.1
					s-0.2,0.1-0.3,0.1l0,0l0,0l0,0l0,0c-0.2,0.1-0.4,0.2-0.6,0.3s-0.4,0.2-0.6,0.3c-0.2,0.1-0.4,0.2-0.6,0.2
					c-0.2,0.1-0.5,0.1-0.7,0.2c-0.1,0-0.1,0-0.2,0.1c-0.1,0-0.1,0.1-0.2,0.1c-0.1,0.1-0.1,0.1-0.1,0.2c0,0.1-0.1,0.1-0.1,0.2
					c0,0.1,0,0.2,0,0.3s0,0.2,0,0.3s0,0.2,0,0.2s0,0.2,0,0.2c0,0,0,0.1,0,0.1s0,0.1,0,0.1s0,0.1,0,0.1s0,0.1,0,0.1
					c0,0.1,0,0.1,0,0.2c0,0.1,0,0.1,0,0.2c0,0.1,0,0.1-0.1,0.1c0,0-0.1,0.1-0.1,0.1c-0.1,0.1-0.1,0.1-0.2,0.2
					c-0.1,0-0.2,0.1-0.3,0.1c-0.1,0-0.2,0-0.3,0c-0.1,0-0.2,0-0.3,0H14h-0.1h-0.1h0l-0.3,0c-0.1,0-0.2,0-0.2,0c-0.1,0-0.1,0-0.2,0
					c0,0-0.1,0-0.1-0.1c0,0,0,0,0,0c0,0,0-0.1,0-0.1c0-0.1,0-0.1,0-0.2c0-0.1,0-0.1,0-0.2c0,0,0-0.1,0-0.1s0-0.1,0-0.1
					c0,0,0-0.1,0-0.1l0-0.1c0-0.1,0-0.2,0-0.3s0-0.2,0-0.3s0-0.2,0-0.3s0-0.2,0-0.3c0-0.1,0-0.2-0.1-0.3c0-0.1-0.1-0.2-0.2-0.2
					c-0.1-0.1-0.1-0.1-0.2-0.2c-0.1,0-0.2-0.1-0.3-0.1c-0.3,0-0.6-0.1-0.8-0.1c-0.3-0.1-0.5-0.1-0.8-0.2c-0.3-0.1-0.5-0.2-0.7-0.4
					c-0.2-0.1-0.5-0.3-0.7-0.5c0,0,0,0-0.1,0s0,0-0.1,0c0,0,0,0-0.1,0s0,0-0.1,0c0,0,0,0-0.1,0c0,0,0,0-0.1,0c0,0,0,0-0.1,0H8.6
					c0,0-0.1,0-0.1,0c0,0-0.1,0-0.1,0c0,0-0.1,0-0.1,0.1c0,0-0.1,0.1-0.1,0.1c0,0-0.1,0.1-0.1,0.1c0,0-0.1,0.1-0.1,0.1l-0.1,0.1
					L7.7,23c-0.1,0.1-0.1,0.1-0.2,0.2s-0.2,0.2-0.2,0.3c-0.1,0.1-0.2,0.1-0.2,0.2c-0.1,0-0.1,0.1-0.2,0.1l0,0l0,0h0h0
					c-0.1,0-0.2,0-0.3-0.1c-0.1-0.1-0.2-0.1-0.3-0.2c-0.1-0.1-0.2-0.2-0.3-0.3c-0.1-0.1-0.2-0.2-0.3-0.3l-0.1-0.1l-0.1-0.1l-0.1-0.1
					l-0.1-0.1l-0.1,0l-0.1-0.1L5,22.6L5,22.5c-0.1-0.1-0.2-0.2-0.3-0.2c-0.1-0.1-0.1-0.1-0.2-0.2c0-0.1-0.1-0.1-0.1-0.2
					c0-0.1,0-0.1,0-0.2c0-0.1,0.1-0.1,0.1-0.2c0.1-0.1,0.1-0.1,0.2-0.2c0.1-0.1,0.1-0.1,0.2-0.2S5,21,5.1,21l0.1-0.1l0.1-0.1
					l0.1-0.1l0.1-0.1l0,0c0.1-0.1,0.2-0.2,0.2-0.2c0.1-0.1,0.1-0.2,0.2-0.3c0-0.1,0.1-0.2,0.1-0.3c0-0.1,0-0.3,0-0.4
					c0-0.1,0-0.2-0.1-0.3c0-0.1-0.1-0.2-0.1-0.3s-0.1-0.2-0.1-0.2s-0.1-0.2-0.1-0.2l-0.1-0.2c0-0.1-0.1-0.1-0.1-0.2s0-0.1-0.1-0.1
					s0-0.1-0.1-0.1c-0.1-0.1-0.1-0.3-0.1-0.4S5,17.1,4.9,17s-0.1-0.3-0.1-0.4s-0.1-0.2-0.1-0.3c0-0.1-0.1-0.2-0.1-0.2
					c0-0.1-0.1-0.1-0.2-0.2c-0.1-0.1-0.1-0.1-0.2-0.1c-0.1,0-0.2,0-0.2,0h0h0h0l-0.3,0l-0.3,0c-0.1,0-0.2,0-0.3,0s-0.2,0-0.3,0
					l-0.2,0H2.4H2.4H2.2c-0.1,0-0.1,0-0.2,0c0,0-0.1,0-0.1,0c0,0-0.1-0.1-0.1-0.1c0-0.1,0-0.2-0.1-0.2c0-0.2-0.1-0.3-0.1-0.5
					s0-0.3,0-0.5s0-0.3,0-0.5c0-0.1,0-0.3,0-0.4l0-0.1c0-0.1,0-0.1,0-0.2s0-0.1,0-0.2c0-0.1,0-0.1,0.1-0.2c0,0,0.1-0.1,0.1-0.1l0,0
					c0,0,0,0,0.1,0c0,0,0.1,0,0.1,0c0,0,0.1,0,0.2,0c0.1,0,0.3,0,0.4,0s0.3,0,0.4,0.1s0.2,0,0.3,0.1s0.2,0,0.2,0l0,0l0,0h0h0
					c0.1,0,0.2,0,0.3,0c0.1,0,0.2-0.1,0.2-0.1c0.1-0.1,0.1-0.1,0.2-0.2c0-0.1,0.1-0.2,0.1-0.2c0.1-0.3,0.2-0.6,0.3-0.9
					C4.9,11,5,10.7,5.2,10.4c0.1-0.3,0.3-0.5,0.4-0.8C5.8,9.4,6,9.1,6.1,8.9c0.1-0.1,0.1-0.2,0.1-0.3c0-0.1,0-0.2,0-0.3
					c0-0.1,0-0.2-0.1-0.2c0-0.1-0.1-0.2-0.1-0.2C6,7.8,6,7.8,6,7.8S5.9,7.7,5.8,7.6L5.7,7.5L5.5,7.4C5.4,7.2,5.2,7.1,5.1,6.9
					C5,6.8,4.9,6.7,4.8,6.6C4.8,6.5,4.7,6.4,4.7,6.3c0-0.1,0-0.2,0.1-0.3C4.9,5.9,5,5.8,5.1,5.7c0.1-0.1,0.2-0.2,0.3-0.3
					s0.2-0.2,0.3-0.3C5.8,5,5.9,4.9,6,4.9c0.1,0,0.1,0,0.1-0.1c0,0,0.1,0,0.1,0c0,0,0.1,0,0.1,0c0,0,0.1,0,0.1,0
					c0.1,0,0.2,0,0.3,0.1C6.9,4.8,7,4.9,7.1,5C7.2,5,7.3,5.1,7.3,5.2c0.1,0.1,0.2,0.2,0.3,0.3l0,0.1l0,0.1l0,0.1l0,0.1
					c0,0.1,0.1,0.1,0.1,0.2C8,6,8,6.1,8.1,6.1c0.1,0,0.1,0.1,0.2,0.1c0.1,0,0.1,0,0.2,0c0,0,0.1,0,0.1,0c0,0,0.1,0,0.1,0
					c0,0,0.1,0,0.1,0c0,0,0.1,0,0.1-0.1c0.2-0.1,0.4-0.3,0.6-0.4s0.4-0.2,0.6-0.3s0.4-0.2,0.7-0.3s0.5-0.2,0.7-0.3l0,0l0.1,0l0.1,0
					l0,0c0.1,0,0.1,0,0.2-0.1s0.1-0.1,0.2-0.1c0.1,0,0.1-0.1,0.2-0.1c0.1,0,0.1-0.1,0.2-0.1c0.1-0.1,0.1-0.2,0.2-0.3
					c0-0.1,0.1-0.2,0.1-0.3c0-0.1,0-0.2,0-0.3c0-0.1,0-0.2,0-0.3c0,0,0-0.1,0-0.1s0-0.1,0-0.1s0-0.1,0-0.1s0-0.1,0-0.1s0-0.1,0-0.1
					s0-0.1,0-0.1c0,0,0-0.1,0-0.1c0,0,0-0.1,0-0.1c0-0.1,0.1-0.2,0.2-0.3c0.1,0,0.2-0.1,0.3-0.1c0.1,0,0.2,0,0.4,0l0.2,0l0.4,0
					l0.2,0l0.2,0l0.2,0l0.2,0h0.1h0.1h0.1c0.1,0,0.1,0,0.2,0c0,0,0.1,0,0.1,0c0,0,0.1,0,0.1,0c0,0,0.1,0,0.1,0.1c0,0,0,0,0,0
					c0,0,0,0,0,0.1s0,0.1,0,0.1c0,0,0,0.1,0,0.1s0,0.1,0,0.1s0,0.1,0,0.1s0,0.1,0,0.1s0,0.1,0,0.1c0,0,0,0.1,0,0.1c0,0,0,0.1,0,0.1
					s0,0.1,0,0.1s0,0.1,0,0.1c0,0.1,0,0.2,0,0.3c0,0.1,0,0.2,0,0.3c0,0.1,0,0.2,0.1,0.3c0,0.1,0.1,0.2,0.1,0.3
					c0.1,0.1,0.1,0.2,0.2,0.3c0.1,0.1,0.1,0.1,0.2,0.2c0.1,0,0.2,0.1,0.2,0.1c0.1,0,0.2,0.1,0.3,0.1l0.3,0.1
					c0.2,0.1,0.5,0.2,0.7,0.2s0.4,0.2,0.6,0.2s0.4,0.2,0.6,0.3s0.4,0.2,0.6,0.3l0,0l0,0l0,0l0,0c0,0,0.1,0,0.1,0c0,0,0.1,0,0.1,0
					c0,0,0.1,0,0.1,0c0,0,0.1,0,0.1,0c0.1,0,0.1,0,0.1,0c0,0,0.1,0,0.1,0c0,0,0.1,0,0.1-0.1c0,0,0.1-0.1,0.1-0.1
					c0,0,0.1-0.1,0.1-0.1l0.1-0.1L21,5.5l0.1-0.1c0.1-0.1,0.1-0.2,0.2-0.3s0.2-0.2,0.2-0.2c0.1-0.1,0.1-0.1,0.2-0.2
					C21.9,4.6,22,4.5,22,4.5l0,0l0,0l0,0h0c0,0,0.1,0,0.1,0c0.1,0,0.1,0.1,0.1,0.1c0,0,0.1,0.1,0.2,0.2s0.1,0.1,0.2,0.2L22.9,5
					L23,5.1L23,5.2l0.1,0.1l0.1,0.1l0.1,0.1l0.1,0.1l0.1,0.1c0.2,0.1,0.3,0.3,0.4,0.4C23.9,6,24,6.1,24.1,6.2c0,0.1,0.1,0.2,0.1,0.2
					c0,0.1,0,0.2-0.1,0.2c0,0-0.1,0.1-0.1,0.1c0,0-0.1,0.1-0.1,0.1c0,0-0.1,0.1-0.1,0.1l-0.2,0.1c-0.1,0-0.1,0.1-0.2,0.1
					s-0.1,0.1-0.2,0.1S23.1,7.4,23,7.4c-0.1,0-0.1,0.1-0.2,0.1c-0.1,0.1-0.2,0.2-0.3,0.4c-0.1,0.1-0.1,0.2-0.1,0.3
					c0,0.1,0,0.2,0,0.3c0,0.1,0.1,0.2,0.1,0.4c0,0.1,0,0.1,0.1,0.2s0,0.1,0.1,0.2s0.1,0.1,0.1,0.2l0.1,0.2L23,9.7c0,0,0,0.1,0.1,0.1
					s0,0.1,0.1,0.1s0,0.1,0.1,0.1c0,0.1,0.1,0.2,0.1,0.2c0,0.1,0.1,0.2,0.1,0.2c0,0.1,0,0.2,0.1,0.3c0,0.1,0,0.2,0.1,0.2l0.1,0.2
					c0,0.1,0,0.1,0.1,0.2c0,0.1,0,0.2,0.1,0.2s0,0.1,0.1,0.2c0,0.1,0.1,0.2,0.1,0.2c0,0.1,0.1,0.1,0.2,0.2c0.1,0,0.1,0.1,0.2,0.1
					c0.1,0,0.2,0,0.2,0.1l0.2,0l0.2,0H25h0.2l0.3,0c0.1,0,0.2,0,0.3,0s0.2,0,0.3,0c0.1,0,0.2,0,0.3,0.1c0.1,0,0.2,0.1,0.2,0.1
					c0.1,0,0.1,0.1,0.1,0.2c0,0.1,0.1,0.2,0.1,0.3c0,0.1,0,0.3,0,0.5c0,0,0,0.1,0,0.1c0,0,0,0.1,0,0.1s0,0.1,0,0.1s0,0.1,0,0.1
					s0,0.1,0,0.1s0,0.1,0,0.1s0,0.1,0,0.1s0,0.1,0,0.1c0,0.2,0,0.3,0,0.4c0,0.1,0,0.2,0,0.2c0,0.1,0,0.1-0.1,0.1
					C26.7,15.5,26.7,15.5,26.6,15.5"/>
				<path id="Path_14169-2" class="st2" d="M14.3,19.3c-2.7,0-4.9-2.2-4.9-4.9c0-2,1.2-3.8,3-4.5c2.5-1,5.4,0.2,6.4,2.7
					c1,2.5-0.1,5.3-2.6,6.4C15.6,19.2,14.9,19.3,14.3,19.3 M14.3,11c-1.8,0-3.3,1.5-3.3,3.3c0,1.8,1.5,3.3,3.3,3.3
					c1.8,0,3.3-1.5,3.3-3.3c0-1.3-0.8-2.5-2-3.1C15.2,11.1,14.7,11,14.3,11"/>
			</g>
		</g>
	</g>
	<g id="Group_24973" transform="translate(952.091 262.902)">
		<path id="Path_251" class="st4" d="M10.5,20.9C4.7,20.9,0,16.2,0,10.4c0-4.2,2.5-8,6.4-9.6c5.3-2.2,11.5,0.2,13.7,5.6
			s-0.2,11.5-5.6,13.7l0,0C13.2,20.6,11.9,20.9,10.5,20.9z M10.5,5.5c-2.7,0-5,2.2-5,5s2.2,5,5,5c0.7,0,1.3-0.1,1.9-0.4
			c1.2-0.5,2.1-1.5,2.6-2.6c0.5-1.2,0.5-2.6,0-3.9C14.3,6.7,12.5,5.5,10.5,5.5L10.5,5.5z"/>
	</g>
	<g id="Group_24976" transform="translate(1003.78 309.884)">
		<path id="Path_251-2" class="st4" d="M5.7,11.4C2.5,11.4,0,8.8,0,5.7c0-2.3,1.4-4.3,3.5-5.2c2.9-1.2,6.2,0.1,7.5,3s-0.1,6.2-3,7.5
			C7.2,11.2,6.4,11.4,5.7,11.4z M5.7,3C4.2,3,3,4.2,3,5.7c0,1.5,1.2,2.7,2.7,2.7c0.4,0,0.7-0.1,1-0.2c0.6-0.3,1.2-0.8,1.4-1.4
			c0.3-0.7,0.3-1.4,0-2.1C7.8,3.6,6.8,3,5.7,3z"/>
	</g>
	<path id="Path_14182" class="st4" d="M907.7,262.7l6.2,2.2l-6.2,2.2l-2.2,6.2l-2.2-6.2l-6.2-2.2l6.2-2.2l2.2-6.2L907.7,262.7z"/>
	<g id="Group_24974" transform="translate(1037.901 303.292)">
		<path id="Path_3384" class="st2" d="M27.5,12.1c0,0-1.7,1.5-4.2,3.8s-5.9,5.3-9.3,8.3s-6.8,6-9.4,8.2S0.1,36,0,35.9
			s1.4-1.8,3.7-4.2s5.5-5.6,8.7-8.7s6.4-6.3,8.8-8.7s4-3.9,4-3.9L27.5,12.1z"/>
		<path id="Path_3385" class="st2" d="M28.8,6.7c0,0,0.4,0.1,1,0.2c0.6,0.1,1.5,0.3,2.3,0.5c0.8,0.2,1.6,0.5,2.3,0.8
			c0.6,0.3,1,0.6,1,0.9s-0.4,0.6-1,0.9c-0.7,0.3-1.5,0.6-2.3,0.8c-0.8,0.2-1.7,0.4-2.3,0.5s-1,0.2-1,0.2s-0.1,0.4-0.2,1
			s-0.3,1.5-0.5,2.3c-0.2,0.8-0.5,1.6-0.8,2.3c-0.3,0.6-0.6,1-0.9,1c-0.3,0-0.6-0.4-0.9-1c-0.3-0.7-0.6-1.5-0.8-2.3
			c-0.2-0.8-0.4-1.7-0.5-2.3s-0.2-1-0.2-1s-0.6-0.1-1.4-0.2c-0.8-0.1-1.9-0.3-3.1-0.5c-1-0.2-2.1-0.5-3.1-0.8
			c-0.8-0.3-1.4-0.6-1.4-0.9s0.6-0.6,1.4-0.9c1-0.3,2-0.6,3.1-0.8c1.1-0.2,2.2-0.4,3.1-0.5S24,6.7,24,6.7s0.1-0.4,0.2-1
			s0.3-1.5,0.5-2.3C25,2.6,25.2,1.8,25.5,1c0.3-0.6,0.6-1,0.9-1s0.6,0.4,0.9,1c0.3,0.7,0.6,1.5,0.8,2.3c0.2,0.8,0.4,1.7,0.5,2.3
			S28.8,6.7,28.8,6.7z"/>
	</g>
</g>
</svg>
