<?xml version="1.0" encoding="utf-8"?>
<!-- Generator: Adobe Illustrator 26.1.0, SVG Export Plug-In . SVG Version: 6.00 Build 0)  -->
<svg version="1.1" id="trash" xmlns="http://www.w3.org/2000/svg" xmlns:xlink="http://www.w3.org/1999/xlink" x="0px" y="0px"
	 viewBox="0 0 28.3 28.3" style="enable-background:new 0 0 28.3 28.3;" xml:space="preserve">
<style type="text/css">
	.st0{fill:none;stroke:#B72828;stroke-width:2;stroke-linecap:round;stroke-linejoin:round;}
	.st1{fill:none;}
</style>
<path id="Vector" class="st0" d="M24.7,7c-3.9-0.4-7.9-0.6-11.8-0.6c-2.3,0-4.7,0.1-7,0.4L3.5,7"/>
<path id="Vector-2" class="st0" d="M10,5.9l0.3-1.5c0.2-1.1,0.3-2,2.3-2h3.1c2,0,2.1,0.9,2.3,2l0.3,1.5"/>
<path id="Vector-3" class="st0" d="M22.2,10.8l-0.8,11.9c-0.1,1.8-0.2,3.3-3.5,3.3h-7.6c-3.3,0-3.4-1.4-3.5-3.3L6.1,10.8"/>
<path id="Vector-4" class="st0" d="M12.2,19.4h3.9"/>
<path id="Vector-5" class="st0" d="M11.2,14.7h5.9"/>
<path id="Vector-6" class="st1" d="M0,0h28.3v28.3H0V0z"/>
</svg>
