
<svg version="1.1" id="Layer_1" xmlns="http://www.w3.org/2000/svg" xmlns:xlink="http://www.w3.org/1999/xlink" x="0px" y="0px"
	 viewBox="0 0 22.2 27.9" style="enable-background:new 0 0 22.2 27.9;" xml:space="preserve">
<style type="text/css">
	.st0{clip-path:url(#SVGID_00000112613322188769673020000002715474761712239759_);}
	.st1{fill:#FFFFFF;stroke:#FFFFFF;}
</style>
<g>
	<g>
		<defs>
			<rect id="SVGID_1_" width="22.2" height="27.9"/>
		</defs>
		<clipPath id="SVGID_00000145059083175530509640000005773933522908628364_">
			<use xlink:href="#SVGID_1_"  style="overflow:visible;"/>
		</clipPath>
		<g id="Group_24922" style="clip-path:url(#SVGID_00000145059083175530509640000005773933522908628364_);">
			<path id="Path_14159" class="st1" d="M8.4,13L8.4,13C8.3,13,8.4,13,8.4,13H8.3H8.2c0,0-0.2-0.1-0.1,0c0.1,0,0,0,0,0H8
				c-0.1,0-0.1-0.1-0.2-0.1c-0.1-0.1-0.3-0.2-0.4-0.3l-0.2-0.1c-0.1-0.1,0.1,0.1,0,0L7,12.2c-0.1-0.1-0.1-0.1-0.2-0.2l-0.1-0.1
				l-0.1-0.1c0,0,0.1,0.1,0,0l-0.1-0.1l-0.1-0.1c-0.1-0.1-0.1-0.1-0.2-0.2S6.1,11.3,6,11.2s0,0,0,0l0,0l-0.1-0.1
				c0.1-0.1,0-0.2-0.1-0.4c0,0,0,0,0-0.1s0,0,0,0s0-0.1-0.1-0.1c0-0.1-0.1-0.2-0.1-0.2c0-0.1-0.1-0.3-0.1-0.4c0,0,0,0,0-0.1
				s0,0,0,0.1V9.8c0-0.1,0-0.2,0-0.3c0-0.2,0-0.4,0-0.6s0-0.3,0-0.5c0-0.1,0-0.2,0-0.2V8.1v0.1V8.1c0-0.3,0.1-0.7,0.2-1
				c0-0.2,0.1-0.3,0.1-0.5c0-0.1,0.1-0.2,0.1-0.2s0,0,0-0.1c0,0,0,0.1,0,0c0,0,0-0.1,0.1-0.1C6.1,5.7,6.2,5.4,6.3,5
				c0-0.1,0.1-0.2,0.1-0.2V4.7c0-0.1,0,0,0,0s0-0.1,0.1-0.1c0.1-0.2,0.2-0.3,0.2-0.5C6.7,4,6.8,4,6.8,3.9c0,0,0-0.1,0.1-0.1
				S7,3.7,7,3.7s-0.1,0.1,0,0l0,0l0.1-0.1c0.1-0.1,0.1-0.1,0.2-0.2l0.1-0.1c0,0,0.1-0.1,0,0s0,0,0,0l0.1-0.1C7.7,3.1,7.8,3,8,2.9
				s0.3-0.2,0.5-0.3l0.1-0.1h0.1c-0.1,0,0.1,0,0.1,0l0.1-0.1c0.3-0.1,0.7-0.2,1-0.4c0.3-0.1,0.7-0.3,1-0.4H11c0.1,0-0.1,0-0.1,0
				s0,0,0.1,0s0.2,0,0.3,0c0.2,0,0.3,0,0.5,0s0.4,0,0.5,0s0.2,0,0.3,0s0,0-0.1,0c0,0,0,0,0.1,0h0.1c0.4,0.1,0.7,0.1,1,0.2
				c0.1,0,0.2,0,0.3,0.1h0.1c0,0,0.1,0,0,0s0,0,0,0C14.2,2,14.4,2,14.5,2.1c0.1,0,0.1,0.1,0.2,0.1s0,0,0,0l0,0l0.1,0.1
				c0.1,0.1,0.2,0.2,0.4,0.3c0.1,0.1,0.2,0.1,0.3,0.2l0,0c0,0-0.1-0.1,0,0S15.6,3,15.7,3c0.1,0.1,0.2,0.2,0.3,0.3s0.2,0.2,0.4,0.3
				c0.1,0.1,0.1,0.1,0.2,0.2l0,0c0,0-0.1-0.1,0,0s0,0.2,0,0.2c0.2,0.3,0.4,0.6,0.5,0.9c0,0.1,0.1,0.1,0.1,0.2c0,0,0,0.1,0.1,0.1
				c0,0,0,0.1,0,0l0,0c0.1,0.2,0.1,0.3,0.2,0.5c0.1,0.3,0.3,0.7,0.3,1c0,0.1,0,0.2,0.1,0.3c0,0,0,0,0,0.1c0,0,0-0.1,0,0s0,0.1,0,0.1
				c0,0.2,0,0.4,0.1,0.6C18,7.9,18,8,18,8s0,0,0,0.1c0,0,0-0.1,0-0.1v0.1c0,0.2-0.1,0.3-0.2,0.5s-0.1,0.3-0.2,0.5
				c0,0.1-0.1,0.2-0.1,0.2c0,0.1,0,0,0,0s0,0,0,0.1c0,0,0,0.1-0.1,0.1c0,0.1-0.1,0.2-0.1,0.3v0.1V10c0,0.1,0,0,0,0
				c0,0.1-0.1,0.1-0.1,0.2c0,0.1-0.1,0.2-0.1,0.2c-0.1,0.1-0.2,0.3-0.3,0.4c0,0.1-0.1,0.1-0.1,0.2l-0.1,0.1c0,0,0,0,0,0.1
				s0.1-0.1,0,0c-0.2,0.3-0.4,0.6-0.7,0.8c-0.1,0.1-0.1,0.1-0.2,0.2c-0.1,0.1,0.1,0,0,0c0,0-0.1,0-0.1,0.1c-0.2,0.1-0.3,0.2-0.5,0.3
				c-0.1,0.1-0.1,0.1-0.2,0.2c-0.1,0.1,0.1-0.1,0,0l-0.1,0.1c-0.1,0.1-0.3,0.2-0.4,0.3l-0.1,0.1c0,0,0,0-0.1,0c0,0,0.1,0,0,0
				S14,13.4,14,13.4c-0.2,0.1-0.3,0.1-0.5,0.2c-0.3,0.1-0.7,0.2-1,0.3c-0.1,0-0.2,0-0.3,0.1s0.1,0,0,0h-0.1h-0.2
				c-0.2,0-0.4,0-0.6,0.1c-0.4,0-0.7,0-1.1,0h-0.1c-0.1,0,0.1,0,0,0s-0.2,0-0.3,0c-0.2,0-0.4,0-0.5-0.1c-0.2,0-0.3-0.1-0.5-0.1
				c0,0,0.1,0.1,0.1,0c0,0,0,0-0.1,0c0,0-0.1,0-0.1-0.1c-0.1-0.1-0.2-0.1-0.3-0.1s-0.2,0-0.2,0c-0.1,0,0,0,0,0s0,0-0.1,0
				c0,0-0.1,0-0.1-0.1c-0.1,0-0.1-0.1-0.2-0.1s-0.2-0.1-0.2-0.2c0,0,0.1,0.1,0,0l0,0l-0.1-0.1c-0.1-0.1-0.1-0.1-0.2-0.2
				c-0.1-0.1-0.2-0.2-0.3-0.4c-0.2-0.3-0.5-0.5-0.7-0.7c-0.1-0.1-0.3-0.3-0.4-0.4l-0.2-0.2l0,0l0,0l-0.1-0.1c0,0,0-0.1-0.1-0.1l0,0
				v0.1c0,0-0.1-0.1-0.1-0.2c-0.1-0.1-0.1-0.3-0.1-0.4c-0.1-0.3-0.3-0.7-0.5-1C5,9.3,4.9,9.1,4.8,9c0,0,0-0.1-0.1-0.1c0,0,0,0,0-0.1
				v0.1c0-0.1-0.1-0.2-0.1-0.2c0-0.1,0-0.1-0.1-0.2c0,0,0,0,0-0.1s0,0.1,0,0.1V8.4c0-0.2,0-0.4-0.1-0.6s0-0.4,0-0.6V7.1
				c0,0,0,0,0-0.1s0,0.1,0,0.1c0-0.1,0-0.2,0-0.3c0-0.1,0-0.2,0.1-0.2V6.5c0,0,0,0,0-0.1c0,0,0,0.1,0,0C4.7,6.3,4.8,6.1,4.9,6
				C5,5.7,5.3,5.4,5.5,5.1V5l0,0c0-0.1,0,0,0,0c0.1-0.1,0.1-0.1,0.2-0.2C5.8,4.6,5.9,4.5,6,4.4S6.3,4.2,6.4,4c0.1,0,0.1-0.1,0.2-0.1
				l0.1-0.1c0,0-0.1,0.1,0,0l0.1-0.1C7,3.5,7.2,3.3,7.5,3l0.1-0.1l0,0l0,0c0.1-0.1,0.1-0.1,0.2-0.2l0.5-0.3c0.3-0.2,0.6-0.4,1-0.5
				c0.1,0,0.2-0.1,0.2-0.1l0.1-0.1h0.1c0.1,0-0.1,0,0,0c0.2-0.1,0.3-0.1,0.5-0.2s0.4-0.1,0.5-0.2c0.1,0,0.2,0,0.2-0.1H11h0.1
				c0.1,0-0.1,0,0,0c0.4-0.1,0.7-0.1,1.1-0.1c0.2,0,0.3,0,0.5,0c0.1,0,0.2,0,0.3,0c0,0,0,0,0.1,0H13h0.1c0.2,0,0.3,0.1,0.5,0.1
				c0.1,0,0.2,0,0.2,0.1h0.1c0.1,0,0,0,0,0s0,0,0.1,0c0.2,0.1,0.3,0.1,0.4,0.2c0.1,0,0.1,0.1,0.2,0.1l0.1,0.1l0,0c0,0-0.1-0.1,0,0
				c0.3,0.2,0.5,0.4,0.8,0.7c0.1,0.1,0.2,0.2,0.3,0.4l0,0l0,0c0,0,0,0.1,0.1,0.1c0,0.1,0,0.2,0.1,0.2c0.2,0.3,0.4,0.6,0.6,0.8
				c0,0,0,0.1,0.1,0.1c0,0,0-0.1,0,0c0,0,0,0,0,0.1c0,0.1,0.1,0.2,0.1,0.3s0.1,0.2,0.1,0.3L17,4.8c0,0,0-0.1,0,0s0,0.1,0.1,0.1
				c0.2,0.3,0.3,0.7,0.4,1.1c0.1,0.3,0.2,0.7,0.3,1v0.1c0,0.1,0,0,0,0s0,0,0,0.1s0,0.2,0,0.3s0,0.2,0,0.3c0,0.1,0-0.1,0,0v0.1
				c-0.1,0.3-0.1,0.7-0.2,1c0,0.1-0.1,0.2-0.1,0.2c0,0.1,0-0.1,0,0c0,0,0,0.1-0.1,0.1c-0.1,0.2-0.1,0.3-0.2,0.5
				c-0.1,0.3-0.3,0.6-0.5,0.9c-0.3,0.6-0.7,1.1-1.1,1.7c-0.1,0.1,0.1-0.1,0,0c0,0,0,0.1-0.1,0.1c-0.1,0.1-0.1,0.1-0.2,0.2l-0.1,0.1
				c0,0-0.1,0.1,0,0s0,0-0.1,0H15c-0.3,0.2-0.6,0.4-0.9,0.6c0,0-0.1,0,0,0c0,0,0,0-0.1,0h-0.1c-0.1,0-0.2,0.1-0.2,0.1
				c-0.2,0-0.4,0.1-0.5,0.1c-0.4,0.1-0.7,0.2-1.1,0.3c-0.2,0-0.4,0.1-0.6,0.1c0,0,0,0-0.1,0c0,0,0.1,0,0,0h-0.1c-0.1,0-0.2,0-0.3,0
				c-0.2,0-0.3,0-0.5,0c-0.1,0,0.1,0,0.1,0s0,0-0.1,0h-0.1c-0.1,0-0.2,0-0.3-0.1c-0.2,0-0.3-0.1-0.5-0.1c-0.1,0-0.1,0-0.2-0.1
				c0,0-0.2-0.1-0.1,0s0,0,0,0c-0.1,0,0.1,0,0.1,0s-0.1-0.1,0,0s0,0,0,0c-0.1-0.2-0.2-0.3-0.3-0.4c0,0,0,0-0.1-0.1c0,0,0,0,0,0.1
				c0,0,0,0,0-0.1L8.4,14c0,0,0,0,0.1,0c-0.1-0.1-0.1-0.1,0,0l0.1,0.1c0.1,0.1,0.1,0.1,0.2,0.2c0.2,0.1,0.4,0.3,0.6,0.4
				c0.3,0.2,0.6,0.1,0.8-0.2s0.1-0.6-0.2-0.8l0,0l-0.1-0.1l-0.1-0.1c0.1,0,0.1,0.1,0,0H9.7l-0.1-0.1c-0.2-0.1-0.3-0.3-0.5-0.4
				c-0.3-0.2-0.6,0-0.8,0.2c-0.1,0.2-0.1,0.4,0,0.6C8.4,13.9,8.4,14,8.5,14c0,0,0.1,0,0.1,0.1c0,0,0.1,0.1,0.1,0s0,0,0,0v0.1
				c0.1,0.1,0.2,0.2,0.3,0.3c0.2,0.1,0.4,0.2,0.6,0.2c0.2,0,0.3,0.1,0.5,0.1c0.8,0.2,1.7,0.2,2.5-0.1c0.4-0.1,0.8-0.2,1.2-0.3
				s0.7-0.2,1.1-0.3c0.4-0.2,0.7-0.4,1-0.7c0.3-0.2,0.6-0.5,0.8-0.8c0.9-1.2,1.7-2.5,2.2-3.9c0.1-0.3,0.2-0.7,0.3-1
				c0-0.2,0.1-0.4,0.1-0.7c0-0.2,0-0.5-0.1-0.7c-0.1-0.4-0.1-0.7-0.3-1.1c-0.1-0.2-0.2-0.4-0.2-0.5s-0.2-0.4-0.2-0.6
				c0-0.1-0.1-0.2-0.2-0.3c0,0,0-0.1,0,0s0,0,0,0s0-0.1-0.1-0.1c-0.1-0.2-0.2-0.4-0.3-0.6c-0.2-0.3-0.4-0.6-0.6-0.9
				c-0.4-0.6-1-1.1-1.5-1.6c-0.3-0.2-0.6-0.4-1-0.6c-0.4-0.1-0.7-0.3-1.1-0.3C12.6,0,11.8,0,11.1,0.1c-0.4,0.1-0.8,0.2-1.2,0.3
				C9.5,0.6,9.1,0.7,8.7,0.9C8.4,1.1,8,1.3,7.7,1.5C7.3,1.7,7,1.9,6.7,2.2C6.6,2.3,6.4,2.4,6.3,2.6c0,0-0.1,0.1-0.2,0.1
				c0,0-0.1,0.1,0,0l0,0L6,2.8C5.8,3,5.7,3.1,5.5,3.3C5.4,3.4,5.3,3.5,5.1,3.7C4.9,3.9,4.6,4.3,4.4,4.6C4.2,4.9,4,5.2,3.8,5.5
				S3.5,6.2,3.4,6.6C3.3,7,3.3,7.4,3.4,7.8c0,0.4,0.1,0.8,0.2,1.2c0.1,0.4,0.3,0.7,0.5,1c0.1,0.1,0.2,0.3,0.3,0.4c0,0,0,0.1,0.1,0.1
				v-0.1c0,0,0,0,0,0.1s0.1,0.2,0.1,0.2c0.1,0.4,0.2,0.7,0.4,1c0,0.3,0.2,0.4,0.3,0.6c0.1,0.1,0.3,0.3,0.4,0.4
				C6,13,6.2,13.2,6.4,13.5c0.3,0.3,0.6,0.6,0.9,0.8c0.2,0.1,0.3,0.2,0.5,0.3c0.1,0.1,0.2,0.1,0.3,0.1s0.2,0,0.3,0.1c0,0,0,0,0.1,0
				H8.4c0,0,0.1,0,0.1,0.1C8.6,15,8.7,15,8.9,15c0.1,0,0.3,0,0.5,0.1c0.4,0.1,0.8,0.1,1.2,0.1c0.8,0,1.6-0.1,2.4-0.2
				c0.7-0.1,1.4-0.4,2.1-0.7c0.2-0.1,0.3-0.2,0.4-0.3c0.1-0.1,0.2-0.2,0.3-0.2l0.1-0.1l0,0l0,0c-0.1,0.1,0,0,0,0H16
				c0,0,0.1,0,0.1-0.1c0.1,0,0.2-0.1,0.2-0.1c0.2-0.1,0.3-0.3,0.5-0.4c0.5-0.6,0.9-1.2,1.3-1.9c0.1-0.2,0.2-0.4,0.3-0.6l0.1-0.2
				c0-0.1,0,0.1,0,0c0,0,0,0,0-0.1c0,0,0-0.1,0.1-0.1C18.8,9.8,18.9,9.4,19,9s0.2-0.8,0.1-1.2c0-0.4-0.1-0.8-0.2-1.2
				c-0.1-0.4-0.2-0.7-0.4-1.1c-0.1-0.2-0.2-0.4-0.3-0.6c-0.1-0.2-0.2-0.3-0.3-0.5c-0.1-0.3-0.3-0.7-0.6-1c-0.1-0.2-0.3-0.3-0.5-0.5
				c-0.1-0.1-0.2-0.2-0.3-0.3c-0.1-0.1-0.2-0.2-0.3-0.3c0.1-0.3,0-0.3-0.1-0.4l0,0c0,0,0.1,0.1,0,0S16,1.8,15.9,1.7
				c-0.3-0.2-0.6-0.4-0.9-0.6c-0.4-0.2-0.7-0.3-1.1-0.4c-0.4-0.1-0.7-0.2-1.1-0.2c-0.8-0.1-1.6,0-2.4,0.1C10,0.8,9.7,0.9,9.3,1.1
				C8.9,1.2,8.6,1.3,8.2,1.5c-0.7,0.3-1.4,0.7-2,1.3C5.7,3.4,5.4,4.1,5.1,4.9C5.1,5,5,5.1,5,5.1v0.1c0,0.1,0,0,0,0v0.1
				C4.9,5.5,4.8,5.7,4.7,5.9c-0.1,0.3-0.2,0.7-0.3,1C4.3,7.7,4.2,8.4,4.2,9.2c0,0.4,0.1,0.8,0.2,1.2s0.3,0.7,0.5,1.1
				c0.2,0.3,0.5,0.7,0.7,0.9l0.1,0.1c0,0,0.1,0.1,0,0.1c-0.1-0.1,0.1,0.1,0.1,0.1l0,0l0.1,0.1C6,12.9,6.2,13,6.3,13.1
				c0.6,0.5,1.3,0.8,2,0.9c0.3,0,0.6-0.3,0.6-0.6C9,13.2,8.7,13,8.4,13"/>
			<path id="Path_14160" class="st1" d="M5.6,12.3L5.6,12.3c0.3-0.1,0.3-0.1,0.2-0.1c0,0,0,0-0.1,0s-0.2,0-0.3,0
				c-0.1,0-0.3,0.1-0.4,0.1c-0.3,0.1-0.5,0.3-0.8,0.5c-0.5,0.3-0.9,0.7-1.3,1.1c-0.2,0.2-0.3,0.4-0.5,0.6C2.2,14.7,2,15,1.9,15.2
				c-0.1,0.1-0.1,0.2-0.2,0.3c0,0-0.1,0.1,0,0s0,0,0,0l-0.1,0.2c-0.2,0.2-0.3,0.5-0.5,0.8s-0.3,0.6-0.4,0.9s-0.1,0.5-0.2,0.8
				c-0.2,0.6-0.3,1.1-0.5,1.7c0,0.7,0,1.3,0,1.9c0,0.3,0,0.6,0,0.9s0.1,0.6,0.1,0.9c0,0.7,0.1,1.4,0.2,2.1c0.1,0.3,0.2,0.6,0.2,0.9
				c0,0.4,0.3,0.7,0.7,0.8c0.3,0.1,0.6-0.1,0.7-0.4c0.1-0.3-0.1-0.6-0.4-0.7l0,0c-0.1,0,0.1,0,0.1,0.1s0.1,0.2,0.1,0.1
				c0,0,0.1,0.1,0,0.1l0,0c0-0.1,0-0.2-0.1-0.3c-0.1-0.3-0.1-0.5-0.2-0.8v-0.1c0-0.1,0,0.1,0,0s0-0.1,0-0.2s0-0.3-0.1-0.4
				c0-0.3,0-0.6-0.1-0.9c0-0.3,0-0.6-0.1-0.9c0-0.3-0.1-0.6-0.1-0.9s0-0.6,0-0.9c0-0.1,0-0.3,0-0.4v-0.1c0,0.1,0,0,0,0
				c0-0.1,0-0.2,0-0.2c0.1-0.6,0.3-1.1,0.4-1.6c0.1-0.3,0.1-0.5,0.2-0.8c0-0.1,0-0.1,0-0.2v-0.1c0-0.1-0.1,0.1,0,0s0.1-0.3,0.2-0.4
				c0.1-0.2,0.2-0.5,0.4-0.7v-0.1c0.1-0.1,0,0,0,0c0-0.1,0.1-0.1,0.1-0.2c0.1-0.1,0.2-0.3,0.3-0.4c0.4,0,0.5-0.2,0.5-0.3
				c0,0,0,0,0-0.1c0,0.1,0,0.1,0,0s0.1-0.1,0.1-0.2c0.2-0.2,0.3-0.4,0.5-0.6c0.2-0.2,0.4-0.4,0.6-0.6c0.1-0.1,0.2-0.2,0.3-0.3
				c0,0,0,0,0.1-0.1H4.6L4.8,14c0.1,0,0.1-0.1,0.2-0.1c0.1-0.1,0.2-0.2,0.4-0.3c0.1,0,0.1-0.1,0.2-0.1c0.1-0.1,0,0,0,0h0.1
				c0.1,0,0.1,0,0.2-0.1l0,0c0.1,0,0.1,0,0,0H6c0.2,0,0.5-0.1,0.6-0.3c0.2-0.2,0.2-0.6,0-0.8C6.2,12.1,5.9,12.1,5.6,12.3"/>
			<path id="Path_14161" class="st1" d="M17,13L17,13l-0.4,0.4c0.1,0,0,0-0.1,0c0.1,0-0.1,0-0.1,0c0.1,0,0,0-0.1,0c0,0,0,0,0.1,0
				s0.2,0.1,0.2,0.1s0.2,0.1,0.3,0.1l0.1,0.1h0.1c0.1,0-0.1-0.1,0,0c0.2,0.1,0.3,0.3,0.5,0.4c0.2,0.2,0.3,0.3,0.5,0.5l0.1,0.1
				c0,0-0.1-0.1,0,0l0.1,0.1c0.1,0.1,0.1,0.2,0.2,0.3c0.1,0.2,0.3,0.4,0.4,0.6s0.2,0.4,0.4,0.6c0.1,0.1,0.1,0.2,0.1,0.3
				c0,0.1,0-0.1,0,0v0.1c0,0.1,0.1,0.1,0.1,0.2c0.2,0.4,0.3,0.9,0.5,1.3c0.1,0.5,0.2,1,0.3,1.5c0.1,0.2,0.1,0.5,0.2,0.7
				c0,0.1,0,0.1,0,0.2v0.1c0-0.1,0-0.1,0,0s0,0.3,0.1,0.4s0,0.3,0.1,0.4v0.2v0.1c0,0,0,0,0,0.1v-0.1c0,0.1,0,0.1,0,0.2s0,0.1,0,0.2
				s0,0.3,0.1,0.4c0.1,0.5,0.1,1.1,0.1,1.6c0,0.3,0,0.6,0,0.8c0,0.1,0,0.3,0,0.4v0.1c0,0.1,0,0.1,0,0s0-0.1,0,0s0,0.1,0,0.2
				c-0.1,0.3,0.2,0.6,0.5,0.7s0.6-0.1,0.7-0.4c0-0.1,0.1-0.3,0.1-0.4s0-0.3,0-0.4c0-0.3,0-0.5,0-0.8c0-0.5,0-1-0.1-1.5
				c-0.1-0.6-0.1-1.1-0.2-1.6c0,0,0-0.1,0,0v-0.1c0-0.1,0-0.1,0-0.2c0-0.2-0.1-0.3-0.1-0.5c0-0.3-0.1-0.5-0.2-0.7
				c-0.1-0.5-0.2-1-0.4-1.5c-0.1-0.5-0.3-0.9-0.5-1.4S20.3,16,20,15.5c-0.3-0.4-0.6-0.9-0.9-1.3c-0.2-0.2-0.4-0.4-0.6-0.6
				c-0.2-0.2-0.4-0.3-0.6-0.5s-0.5-0.3-0.7-0.4c-0.3-0.2-0.6-0.3-1-0.2c-0.2,0.1-0.3,0.2-0.4,0.4V13c0,0.2,0,0.3,0.1,0.4
				c0.2,0.3,0.5,0.4,0.8,0.2C16.9,13.3,17,13.2,17,13"/>
			<path id="Path_14162" class="st1" d="M16.3,11.7L16.3,11.7c-0.3,0.1-0.4,0.3-0.4,0.5s0.1,0.5,0.3,0.6c0.1,0.1,0.3,0.1,0.4,0.2
				c0,0,0.1,0,0.1,0.1c-0.2-0.1,0,0,0.1,0c0.1,0.1,0.2,0.1,0.3,0.2c0.1,0-0.1-0.1,0,0h0.1c0.1,0,0.1,0.1,0.2,0.1
				c0.1,0.1,0.2,0.1,0.2,0.2l0.1,0.1l0.1,0.1c0,0.1-0.1-0.1,0,0c0.2,0.2,0.3,0.4,0.4,0.6s0.3,0.4,0.4,0.6c0.1,0.1,0.1,0.2,0.1,0.3
				v0.1c0.1,0.1,0-0.1,0,0s0.1,0.1,0.1,0.2c0.1,0.2,0.2,0.5,0.3,0.7c0,0.1,0.1,0.2,0.1,0.3c0.1,0.2,0.1,0.3,0.2,0.4
				c0,0,0,0.1,0.1,0.1c-0.1-0.1,0-0.1,0,0v0.1c0,0.1,0.1,0.2,0.1,0.4c0.1,0.2,0.1,0.5,0.2,0.7s0.1,0.5,0.2,0.7
				c0,0.1,0.1,0.2,0.1,0.3v0.1c0,0.1,0-0.1,0,0s0,0.1,0,0.2c0,0.3,0.1,0.5,0.1,0.8c0,0.1,0,0.2,0,0.2v0.1c0-0.1,0-0.1,0,0
				s0,0.1,0,0.1c0,0.1,0,0.3,0,0.4c0,0.3,0.1,0.6,0.1,0.9c0,0.1,0,0.1,0,0.2v0.1c0,0.1,0,0,0,0c0,0.1,0,0.1,0,0.2s0,0.1,0,0.2
				c0,0.3,0.1,0.6,0.2,1v0.1c0,0.1,0-0.1,0,0s0,0.1,0,0.2s0,0.3,0,0.4c0,0.6,0,1.2,0.1,1.8c0,0.3,0.3,0.6,0.6,0.5
				c0.3,0,0.5-0.3,0.5-0.6l-0.1-1.7c0-0.3,0-0.5,0-0.8c0-0.2,0-0.3-0.1-0.5v-0.1c0,0,0,0,0,0.1c0,0,0,0,0-0.1s0-0.1,0-0.2
				c0-0.3,0-0.6-0.1-0.8c0-0.1-0.1-0.3-0.1-0.4s0-0.1,0-0.2c0,0,0,0.1,0,0v-0.1c0-0.3,0-0.5-0.1-0.8c0-0.1,0-0.1,0-0.2
				c0,0.1,0,0.1,0,0s0-0.1,0-0.2s0-0.3-0.1-0.4c0-0.3-0.1-0.6-0.1-0.9c-0.1-0.3-0.1-0.5-0.2-0.7s-0.1-0.5-0.2-0.7
				c0-0.1-0.1-0.2-0.1-0.3s-0.1-0.2-0.1-0.3c-0.1-0.1-0.1-0.3-0.2-0.4c0,0,0,0,0-0.1c0.1,0.1,0,0.1,0,0s0-0.1-0.1-0.2
				c-0.1-0.2-0.2-0.5-0.3-0.7c-0.2-0.5-0.5-1-0.7-1.4c-0.1-0.2-0.3-0.4-0.5-0.7c-0.2-0.2-0.4-0.5-0.6-0.7s-0.5-0.4-0.7-0.5
				C17.2,12.1,17,12,16.8,12h-0.1c-0.1,0,0.1,0.1,0,0c-0.1,0-0.1-0.1-0.2-0.1c0,0.4-0.1,0.7-0.1,1.1l0,0c0.3-0.1,0.5-0.4,0.4-0.7
				C16.9,11.7,16.6,11.5,16.3,11.7"/>
			<path id="Path_14163" class="st1" d="M6.3,12.2C6,12,5.6,11.9,5.3,12c-0.2,0.1-0.5,0.2-0.7,0.3c-0.2,0.2-0.5,0.3-0.7,0.5
				c-0.3,0.1-0.5,0.3-0.7,0.5c-0.1,0.1-0.2,0.2-0.3,0.4l-0.1,0.1c0,0,0,0.1-0.1,0.1c-0.1,0.1,0.1-0.1,0,0c-0.2,0.2-0.4,0.4-0.5,0.6
				c-0.4,0.5-0.7,1-0.9,1.6c-0.1,0.3-0.2,0.5-0.3,0.8s-0.2,0.6-0.3,0.9c-0.2,0.6-0.2,1.2-0.3,1.8c0,0.6,0,1.2,0,1.8
				c0,0.6,0,1.2,0.1,1.8c0,0.1,0,0.2,0.1,0.3c0,0.1,0-0.1,0,0v0.1c0,0.2,0,0.3,0,0.5c0,0.3,0.1,0.7,0.1,1s0,0.5,0.1,0.8
				s0.1,0.6,0.3,0.8c0.2,0.1,0.4,0.2,0.6,0.1c0.2,0.2,0.3,0,0.4-0.2l0,0C2.2,26.3,2,26,1.7,25.9l0,0C1.4,25.8,1.1,26,1,26.3l0,0
				L2,26c-0.1,0,0,0.2,0,0.2c0-0.1,0.1,0.2,0,0.1v-0.1c0,0,0,0,0-0.1c0,0.2,0,0.1,0,0.1v-0.1c0-0.2,0-0.4-0.1-0.6
				c0-0.3-0.1-0.6-0.1-0.8c0-0.3,0-0.6-0.1-0.9c0-0.1,0-0.2,0-0.3c0-0.1,0,0.1,0,0v-0.1c0-0.1,0-0.3-0.1-0.4c0-0.3,0-0.6,0-0.9
				c0-0.6,0-1.2,0-1.8c0-0.3,0-0.6,0-0.8v-0.1c0,0,0,0.1,0,0s0-0.1,0-0.2s0.1-0.3,0.1-0.4c0-0.3,0.1-0.5,0.2-0.8
				c0-0.1,0.1-0.2,0.1-0.4c0.1-0.1,0,0.1,0,0v-0.1c0-0.1,0.1-0.1,0.1-0.2c0.2-0.5,0.5-1,0.7-1.5c0.1-0.1,0.1-0.2,0.2-0.3l0.1-0.1
				c0,0,0.1-0.1,0,0c0,0,0.1-0.1,0.1-0.2c0.2-0.2,0.4-0.4,0.5-0.6c0-0.1,0.1-0.1,0.1-0.2c0-0.1,0.1-0.1,0.1-0.2c0,0-0.1,0.1,0,0
				c0,0,0,0,0.1-0.1s0,0,0.1-0.1s-0.1,0,0,0c0.2-0.2,0.5-0.3,0.8-0.5c0.1-0.1,0.2-0.2,0.4-0.2c0.1,0,0.1-0.1,0.2-0.1h0.1
				c0,0-0.1,0,0,0s0.2-0.1,0.3-0.1c0,0-0.2,0-0.1,0h0.1c-0.1,0-0.1,0-0.1,0s0,0-0.1,0c-0.1-0.1-0.1-0.1-0.1,0c0.2,0.2,0.6,0.2,0.8,0
				S6.5,12.5,6.3,12.2"/>
			<path id="Path_14164" class="st1" d="M2.2,26.1c-0.2-0.2-0.4-0.2-0.7-0.2c-0.2,0-0.3,0.1-0.4,0.2S1,26.3,1,26.5
				C1,26.8,1.3,27,1.6,27s0.6-0.1,0.9-0.1s0.6,0.1,0.9,0c0.2,0,0.3,0,0.5,0c0,0,0.1,0,0,0H4h0.3c0.3,0,0.7,0,1,0s0.6,0,1,0h0.2
				c0.1,0,0.1,0,0.2,0H6.6h0.1h0.1c0.1,0,0.2,0,0.4,0c0.1,0,0.3,0,0.4,0s-0.1,0,0,0h0.1c0.1,0,0.3,0,0.4,0c0.3,0,0.6,0,0.9,0
				c0.3,0,0.6,0,0.9,0s0.6,0,0.9,0c0.3,0,0.7,0,1,0c0.1,0,0.1,0,0.2,0c0.1,0-0.1,0,0,0h0.2c0.2,0,0.3,0,0.5,0c0.6,0,1.3-0.1,1.9-0.1
				c0.6,0,1.3,0,1.9-0.1c0.2,0,0.4-0.1,0.6-0.1c0.1,0,0,0,0,0c0.1,0,0.1,0,0.2,0s0.2,0,0.3,0c0.2,0,0.3,0,0.5,0c0.1,0,0.2,0,0.4-0.1
				h0.1c-0.1,0-0.1,0-0.1,0h0.1c0.4,0,0.8,0,1.1-0.1l0.2-0.1c0,0-0.1,0,0,0s0.1,0,0.2,0c0.2,0,0.4,0,0.5,0c0.3,0,0.6-0.3,0.6-0.6
				c0-0.3-0.3-0.6-0.6-0.6c-0.3,0-0.7,0-1,0.1h-0.1c-0.1,0,0.1,0,0,0s-0.1,0-0.2,0h-0.5c-0.2,0-0.4,0-0.6,0.1c-0.1,0-0.1,0-0.2,0
				c0.1,0,0.1,0,0,0s-0.1,0-0.2,0c-0.2,0-0.3,0-0.5,0c-0.1,0-0.1,0-0.2,0H17h-0.2l0,0c-0.1,0-0.1,0-0.2,0h-0.2c-0.2,0-0.3,0-0.5,0
				c-0.3,0-0.6,0-0.9,0c-0.6,0-1.3,0-1.9,0.1c-0.1,0-0.3,0-0.4,0s-0.3,0-0.5,0c0.2,0,0,0,0,0H12c-0.1,0-0.1,0-0.2,0
				c-0.2,0-0.3,0-0.5,0c-0.3,0-0.7,0-1,0s-0.6,0-0.9,0c-0.3,0-0.6,0-1,0c-0.1,0-0.3,0-0.4,0H7.9c0.2,0,0,0,0,0c-0.1,0-0.3,0-0.4,0
				s-0.3,0-0.4,0H7c-0.1,0,0.1,0,0,0s-0.2,0-0.4,0c-0.3,0-0.6,0-1,0s-0.7,0.1-1.1,0H4.4c0.1,0,0.1,0,0,0H4.3H4.1c-0.2,0-0.4,0-0.7,0
				c-0.2,0-0.4,0-0.5,0s-0.3,0-0.5,0c-0.4,0-0.7,0.1-1,0.1c0,0.4,0,0.8,0,1.2h0.1H1.4c-0.1,0-0.1,0-0.2-0.1c0.2,0.2,0.6,0.2,0.8,0
				S2.4,26.3,2.2,26.1L2.2,26.1"/>
			<path id="Path_14165" class="st1" d="M1.3,26.6C1.4,26.7,1.4,26.7,1.3,26.6c0.2,0.1,0.2,0.3,0.2,0.5l-0.1,0.3
				c0,0-0.3,0.2-0.3,0.1h0.1c0.1,0,0.2,0,0.3,0H1.4c0,0,0,0,0.1,0h0.1c0.1,0,0.2,0,0.3,0.1c0.4,0.1,0.8,0.1,1.2,0.1s0.8,0,1.1,0
				c0.2,0,0.4,0,0.6,0s0.4,0,0.6,0h0.1H5.4h0.1c0.1,0,0.3,0,0.4,0s0.2,0,0.3,0c0.1,0-0.1,0,0,0h0.2c0.2,0,0.5,0.1,0.7,0.1
				s0.4,0,0.6,0c0.8,0,1.5,0.2,2.3,0.2c0.4,0,0.8,0,1.2,0s0.8,0,1.2,0c0.8,0,1.6-0.1,2.4-0.1s1.6-0.1,2.4-0.1s1.6,0,2.3-0.1
				c0.2,0,0.4,0,0.5-0.1c0.1,0,0.2,0,0.4-0.1c0.1,0-0.1,0-0.1,0s0,0,0.1,0h0.1c0.2,0,0.4,0,0.7-0.1c0,0,0,0,0.1,0s0,0,0,0s0,0,0.1,0
				s0.1,0,0.2,0c0.2,0,0.4-0.1,0.6-0.2c0.2-0.2,0.3-0.5,0.2-0.8c0-0.1,0-0.1-0.1-0.2c0,0,0-0.1,0,0s0,0,0,0v-0.1
				c0-0.1,0-0.2-0.1-0.3v-0.1l0,0c0-0.1,0,0,0,0.1c0-0.1,0-0.2-0.1-0.4v-0.1c0,0,0,0,0-0.1c0,0,0,0.1,0,0l-1.2,0.1
				c0,0.1,0,0.2,0,0.2c0,0.3,0.3,0.6,0.6,0.5c0.3,0,0.5-0.3,0.5-0.6c0-0.1,0-0.2,0-0.2c0-0.3-0.3-0.6-0.6-0.5
				c-0.3,0-0.5,0.3-0.5,0.6c0,0.1,0,0.2,0.1,0.4c0,0,0,0.1,0,0s0,0,0,0.1s0,0.2,0.1,0.3v0.1c0,0,0,0,0,0.1s0,0,0,0
				c0,0.1,0,0.2,0.1,0.4c0,0.1,0,0.1,0.1,0.2c0,0.1,0-0.1,0-0.1s0,0.1,0,0s0.1-0.2,0.2-0.3h0.1c0,0-0.1,0,0,0c-0.1,0,0.2,0,0,0
				s-0.3,0-0.5,0.1H21c0,0,0,0-0.1,0c0,0,0.1,0,0,0s-0.2,0-0.3,0c-0.1,0-0.3,0-0.4,0.1h-0.1c0,0-0.1,0,0,0s0,0,0,0
				c-0.2,0-0.4,0-0.6,0.1c-0.8,0.1-1.6,0.1-2.3,0.1c-0.8,0-1.6,0.1-2.4,0.1s-1.6,0.1-2.4,0.1c-0.4,0-0.8,0-1.2,0s-0.8,0-1.2,0
				c-0.8,0-1.6-0.2-2.4-0.2c-0.1,0-0.2,0-0.3,0H7.2H7.1c-0.1,0,0,0,0,0c-0.1,0-0.2,0-0.3,0c-0.1,0-0.3,0-0.4,0s-0.2,0-0.3,0
				c-0.1,0,0,0,0,0s0,0-0.1,0H5.9c-0.2,0-0.4,0-0.7,0c-0.4,0-0.8,0-1.2,0c-0.4,0-0.8,0-1.1,0c-0.1,0-0.2,0-0.3,0H2.3
				c-0.1,0,0.1,0,0.1,0H2.3c-0.2,0-0.3-0.1-0.5-0.1c-0.5-0.1-1.2-0.1-1.3,0.5c0,0.2,0,0.3,0.1,0.5c0.1,0.1,0.2,0.2,0.3,0.3
				c0.3,0.2,0.6,0,0.8-0.2c0.1-0.1,0.1-0.3,0-0.4C1.6,26.8,1.5,26.7,1.3,26.6"/>
		</g>
	</g>
</g>
</svg>
