<?xml version="1.0" encoding="UTF-8" standalone="no"?>
<svg
   xmlns:dc="http://purl.org/dc/elements/1.1/"
   xmlns:cc="http://creativecommons.org/ns#"
   xmlns:rdf="http://www.w3.org/1999/02/22-rdf-syntax-ns#"
   xmlns:svg="http://www.w3.org/2000/svg"
   xmlns="http://www.w3.org/2000/svg"
   xmlns:sodipodi="http://sodipodi.sourceforge.net/DTD/sodipodi-0.dtd"
   xmlns:inkscape="http://www.inkscape.org/namespaces/inkscape"
   inkscape:version="1.0 (4035a4fb49, 2020-05-01)"
   height="313.59793"
   width="480.33121"
   sodipodi:docname="jamcomments_logo.svg"
   xml:space="preserve"
   viewBox="0 0 480.3312 313.59792"
   y="0px"
   x="0px"
   id="Vrstva_1"
   version="1.1"><metadata
   id="metadata37"><rdf:RDF><cc:Work
       rdf:about=""><dc:format>image/svg+xml</dc:format><dc:type
         rdf:resource="http://purl.org/dc/dcmitype/StillImage" /><dc:title></dc:title></cc:Work></rdf:RDF></metadata><defs
   id="defs35" /><sodipodi:namedview
   inkscape:current-layer="Vrstva_1"
   inkscape:window-maximized="0"
   inkscape:window-y="0"
   inkscape:window-x="0"
   inkscape:cy="259.08345"
   inkscape:cx="329.25594"
   inkscape:zoom="1.246006"
   showgrid="false"
   id="namedview33"
   inkscape:window-height="977"
   inkscape:window-width="1919"
   inkscape:pageshadow="2"
   inkscape:pageopacity="0"
   guidetolerance="10"
   gridtolerance="10"
   objecttolerance="10"
   borderopacity="1"
   bordercolor="#666666"
   pagecolor="#ffffff" />
<style
   id="style2"
   type="text/css">
	.st0{fill:#050504;}
	.st1{fill:url(#SVGID_1_);}
	.st2{fill:#180E0F;}
	.st3{fill:#FF6600;}
</style>
<g
   transform="translate(-180.77372,-128.83865)"
   id="g30">
	<path
   id="path4"
   d="m 277.67,224.03 c 0.23,5.2 2.33,7.15 36.72,6.54 1.06,-0.03 1.84,2 2.36,5.2 1.43,8.86 -0.41,60.03 -15.97,66.28 -6.49,2.61 -11.32,2.3 -16.33,-0.36 -3.11,-1.65 -6.11,-4.29 -6.22,-10.09 -0.08,-14.3 -11.59,-11.8 -11.47,0.24 0.37,6.16 3.02,13 8.86,17.14 6.92,4.91 24.78,6.91 34.38,-2.74 9.07,-9.11 16.52,-29.79 15.86,-76.07 -0.56,-2.86 2.75,-11.83 -7.33,-11.68 -4.5,0.19 -9.26,1.12 -16.84,2.24 -11.56,1.69 -23.44,-0.38 -24.02,3.3 z"
   class="st0" />
	<path
   id="path6"
   d="m 395.01,215.67 c -1.5,-0.04 -3.06,-0.03 -4.69,0.06 -11.72,0.63 -29.35,6.76 -30.14,22.91 -0.09,1.79 6.3,1.34 9.89,-3.9 4.75,-6.95 10.42,-9.74 23.71,-9.6 6.4,0.07 14.01,3.47 17.06,6.94 11.17,12.69 4.11,36.19 3.81,36.03 -15.5,-8.81 -31.25,-11.42 -42.49,-7.85 -19.59,6.21 -22.39,28 -4.1,37.49 17.29,8.97 42.46,1.08 42.46,1.08 0,0 0.21,4.93 3.48,8.77 3.51,4.13 10.69,6.92 16.83,1.39 4.95,-4.45 1.62,-10.26 -3.56,-5.4 -1.23,1.15 -8.22,3.66 -8.22,-8.43 0,-10.56 3.35,-21.39 7.44,-34.43 1.88,-5.99 2.78,-10.38 0.46,-20.2 -2.18,-9.3 -9.49,-24.19 -31.94,-24.86 z m -13.98,51.68 c 14.24,0.12 32.73,8.52 32.73,8.52 l -2.53,13.69 c -2.7,1.35 -22.05,4.23 -25.18,4.23 -3.13,0 -22.05,1.69 -21.12,-14.11 0.55,-9.49 7.56,-12.4 16.1,-12.33 z"
   class="st0" />
	<path
   id="path8"
   d="m 455.84,229.83 c 0.59,-2.12 0.55,-8.21 14.86,-9.07 4.73,-0.29 11.56,2.01 12.05,9.39 0.08,1.21 2.59,-4.66 10.68,-7.57 5.78,-2.07 23.21,-5.05 31.91,6.12 2.43,3.12 2.51,4.13 3.67,8.1 3.06,-4.51 3.85,-7.8 8.03,-10.86 6.64,-4.87 36.6,-12.58 42.48,14.83 1.77,8.24 -0.55,16.09 -2.84,33.17 -1.29,9.58 -2.47,16.64 1.4,22.03 3.87,5.39 12.18,-0.43 13.98,-1.67 4.2,-2.88 8.56,0.58 1.02,7.93 -5.37,5.24 -24.65,8.72 -27.35,-3.41 -2.63,-11.85 1.98,-45.58 1.23,-56.27 -1.13,-16.37 -24.89,-15.96 -30.74,0.41 -1.74,4.87 -2.42,11.49 -2.81,18.91 -0.73,13.79 3.27,42.54 -6.05,43.9 -2.53,0.37 -4.09,-2.68 -4.35,-7.61 -0.72,-13.73 -0.4,-28.3 -0.27,-38.07 0.51,-12.29 -1.58,-17.19 -4.98,-21.79 -7.39,-9.98 -26.45,-15.57 -34.38,8.31 -3.02,9.1 -5.25,36.96 -6.21,54.05 -0.46,8.11 -4.06,7.93 -6.02,7.93 -1.16,0 -4.12,-1.25 -4.01,-5.64 0.48,-18.62 6.05,-64.19 6.05,-68.73 0,-5.67 -6.05,-5.51 -10.98,-0.38 -3.97,4.15 -7.1,-1.39 -6.37,-4.01 z"
   class="st0" />
	<path
   id="path10"
   d="m 368.78,157.52 c 7.5,-8.42 16.26,-19.21 40.11,-20.77 12.44,-0.81 1.68,-8.46 -9.41,-7.88 -7.35,0.38 -21.28,3.21 -30.78,11.52 -4.89,4.27 -10.67,12.87 -10.79,13.05 -0.23,0.34 -7.53,-3.63 -12.69,-6.41 -18.07,-9.74 -54.54,-16.46 -75.44,25.64 -0.95,1.92 -2.38,7.67 -2.33,7.67 0.05,0 -10.04,-2.88 -22.04,-2.47 -14.26,0.49 -35.71,7.8 -43.56,36.05 0,0 -2.58,12.03 3.13,18.8 2.61,3.09 8.05,9.12 8.06,9.15 0.06,0.25 -9.05,1.25 -18.03,8.44 -12.54,10.05 -18.88,34.88 -10.29,48.55 5.92,9.41 9.7,12.29 18.66,15.61 5.19,1.93 13.11,1.84 12.84,1.63 -0.08,-0.06 -2.98,4.87 -4.35,10.1 -1.1,4.24 -1.35,12.15 1.3,20.03 2.29,6.82 6.76,13.62 14.72,17.98 11.36,6.23 13.19,-0.27 6.35,-5.4 -4.92,-3.68 -7.56,-5.1 -10.46,-9.99 -2.9,-4.89 -7.76,-22.91 3.19,-34.73 6.94,-7.49 3.2,-9.03 -3.75,-7.76 -11.64,2.13 -24.95,-4.3 -28.63,-12.19 -8.31,-17.83 5.56,-38.75 26.24,-42.52 20.68,-3.77 10.39,-7.61 2.52,-14 -17.79,-14.46 -3.56,-36.15 2.41,-40.74 7.92,-6.08 24.94,-10.45 38.68,-5.62 19.77,6.95 7.6,-0.57 16.97,-16.67 9.47,-16.28 32.52,-34.2 62.88,-17.16 5.51,3.09 9.68,6.5 12.12,7.64 5.84,2.76 5.53,0.12 12.37,-7.55 z"
   class="st0" />
	<path
   id="path12"
   d="m 639.26,304.59 c 2.89,7.58 1.96,20.04 -1.3,27.12 -3.58,7.75 -13.88,16.85 -23.37,19.34 -11.09,2.91 -20.67,-0.52 -21.13,1.11 -1.68,6.02 14.02,30.76 -8.03,53.45 -21.39,22.01 -58.42,0.79 -58.98,3.29 -2.13,9.55 -3.17,15.02 -18.83,22 -8.68,3.87 -26.49,1.33 -23.11,6.13 3.94,5.59 5.11,7.16 23.11,3.22 10.26,-2.24 16,-8.07 18.83,-11.03 3.32,-3.47 5.08,-7.9 6.78,-8.53 1.03,-0.38 33.25,11.73 57.79,-3.12 23.23,-14.05 15.92,-50.41 16.01,-52.07 0.09,-1.74 0.74,-2.87 2.92,-3.07 11.53,-1.02 24.75,-8.05 35.98,-22.11 17.47,-21.85 -2.55,-48.21 -1.4,-49.34 3.1,-3.05 10.63,-6.96 15.43,-25.61 3.17,-12.32 -0.8,-20.56 -5.12,-23.81 -3.25,-2.44 -7.14,0 -7.14,0 0,0 8.31,8.8 -2.21,28.07 -6.21,11.39 -18.79,17.51 -18.8,18.46 0,1.33 8.6,6.06 12.57,16.5 z"
   class="st0" />
	<path
   id="path14"
   d="m 316.88,345.93 c -1.69,-0.23 -13.1,-1.39 -16.95,11.92 -1.82,6.3 -0.91,7.97 3.16,11.64 3.19,2.88 13.6,3.87 14.79,0.14 1.23,-3.86 -1.75,-4.65 -4.21,-4.57 -2,0.07 -8.29,1.16 -7.55,-5.88 0.73,-7.05 6.74,-7.19 12.12,-8.15 5.4,-0.97 2.46,-4.58 -1.36,-5.1 z"
   class="st0" />
	<path
   id="path16"
   d="m 337.61,347.27 c -5.86,0 -8.1,5.74 -9.7,10.76 0,0 -2.73,9.81 1.89,12.98 4.94,3.39 9.11,2.67 12.82,-0.45 4.07,-3.43 7,-10.85 5.68,-15.79 -1.41,-5.23 -6.43,-7.51 -10.69,-7.5 z m 1.8,6.79 c 0.56,-0.02 1.08,0.1 1.48,0.37 0.77,0.52 1.17,1.59 0.87,3.31 -0.12,0.66 -0.37,1.88 -0.37,1.88 0,0 -1.91,5.42 -4.42,6.33 -2.37,0.86 -4.29,0.74 -4.88,-1.77 -0.58,-2.51 1.66,-6.02 2.09,-6.68 1.36,-2.09 3.54,-3.39 5.23,-3.44 z"
   class="st0" />
	<path
   id="path18"
   d="m 358.88,349.56 c 0,0 1.24,8.25 -0.07,12.36 -1.69,5.27 -3.79,8.14 -1.4,10.02 2.66,2.09 7.57,-7.22 9.06,-10.93 1.86,-4.62 6.82,-12.5 7.74,-5.21 0.97,7.65 -2.59,13.05 -2.13,15.58 0.34,1.84 2.33,2.73 4.3,0.62 2.83,-3.05 4.76,-11.27 6.85,-15.05 1.23,-2.21 5.32,-6.19 6.12,-0.13 0.54,4.06 -2.57,11.22 -0.23,14.47 1.76,2.45 5,0.43 5.65,-3.82 0.65,-4.25 3.2,-19.49 -7.15,-20.21 -3.16,-0.22 -5.42,2.09 -7.7,6.09 -0.97,1.7 0.6,-5.87 -5.45,-6.81 -5.66,-0.88 -5.79,2.26 -7.68,4.32 -1.83,2 0.38,-7.52 -4.07,-6.03 -3.88,1.33 -4.04,2.44 -3.84,4.73 z"
   class="st0" />
	<path
   id="path20"
   d="m 405.03,349.38 c 0,0 1.2,6.34 -0.2,11.95 -1.4,5.61 -1.99,7.95 0.53,9.46 2.52,1.51 3.96,-3.43 5.47,-7.01 1.51,-3.58 4.13,-9.09 6.17,-8.81 2.04,0.28 3.82,3.95 1.93,7.96 -1.86,3.95 -2.83,8.37 0.89,9.11 3.72,0.74 3.84,-5.2 5.61,-10.34 1.26,-3.65 4.13,-7.8 4.76,-4.09 0.76,4.55 -3.87,11.32 1.41,13.64 1.92,0.85 3.56,0.17 4.17,-4.35 0.61,-4.52 0.46,-13.57 -2.25,-16.94 -2.71,-3.38 -6.48,-0.47 -8.09,2.56 -1.06,1.99 -3.5,-2.89 -6.78,-3.59 -3.28,-0.7 -5.69,0.46 -7.39,3.19 -1.7,2.72 0.21,-5.76 -3.51,-5.76 -3.61,0.02 -2.72,0.91 -2.72,3.02 z"
   class="st0" />
	<path
   id="path22"
   d="m 459.02,347.38 c -1,-0.05 -2.14,0.18 -3.39,0.79 -12.34,5.96 -9.63,14.05 -8.96,16.37 1.56,5.46 3.59,8.71 7.75,8.72 4.85,0.01 9.73,-3.19 11.45,-6.18 1.18,-2.05 -3.61,-0.55 -8.42,1.13 -2.8,0.98 -6.06,-2.21 -5.68,-4.58 0.53,-3.32 4.23,-1.55 9.32,-2.9 3.46,-0.92 3.2,-3.14 2.83,-8.66 -0.13,-1.99 -1.9,-4.56 -4.9,-4.69 z m -1.31,5.81 c 1.49,0 2.46,0.97 1.81,2.44 -0.32,0.72 -1.79,1.45 -3.75,0.73 -1.1,-0.41 -0.89,-1.29 -0.71,-1.73 0.2,-0.5 1.09,-1.44 2.65,-1.44 z"
   class="st0" />
	<path
   id="path24"
   d="m 476.16,351.51 c 0,0 0.96,6.53 -1.06,12.1 -1.43,3.93 -1.83,7.52 1.44,7.93 3.28,0.41 3.83,-4.78 5.21,-7.89 2.06,-4.69 4.78,-9.24 6.03,-7.33 1.77,2.71 1.27,5.62 0.47,9.07 -0.81,3.45 -0.19,7.25 2.78,5.84 2.97,-1.42 4.5,-9.29 4.06,-11.84 -0.44,-2.55 -0.49,-5.92 -3.91,-7.97 -4.59,-2.76 -6.81,-1.76 -8.29,0.41 -0.91,1.33 -0.02,-5.43 -5.72,-2.97 -1.08,0.44 -1.09,1.68 -1.01,2.65 z"
   class="st0" />
	<path
   id="path26"
   d="m 511.84,332.08 c -2.12,0.13 -3.35,1.41 -3.52,3.08 -0.24,2.24 1,4.56 -1.62,4.99 -2.61,0.43 -6.41,0.33 -6.41,0.33 0,0 -2.85,1.48 -1.66,3.85 1.19,2.38 2.71,2.33 4.51,1.52 1.81,-0.81 4.75,-2.23 4.51,0.05 -0.24,2.28 -1.57,13.78 -2.04,16.3 -0.47,2.52 -2.73,8.21 0.1,9.5 3.42,1.56 5.81,0.14 7.88,-1.23 2.07,-1.38 3.67,-3.25 3.97,-3.69 1.43,-2.08 0.01,-3.49 -2.11,-2.31 -0.82,0.46 -2.33,1.82 -3.58,2.31 0.49,-3.33 0.95,-7.58 1.15,-10.57 0.29,-4.18 -0.19,-12.02 3.75,-12.12 3.94,-0.1 3.49,-0.86 5.85,-1.03 2.54,-0.18 6.78,-0.8 6.16,-2.8 -0.62,-2 -2.22,-2.01 -5.93,-1.63 -3.71,0.38 -7.75,2.56 -7.22,0.18 0.52,-2.37 2.23,-5.51 -1.38,-6.46 -0.9,-0.24 -1.71,-0.32 -2.41,-0.27 z"
   class="st0" />
	<path
   id="path28"
   d="m 536.39,347.7 c -4.66,1.09 -6.15,1.72 -8.21,6.41 -1.47,3.33 0.57,4.99 3.39,6.89 2.82,1.9 7.83,2.4 9.23,2.84 1.4,0.44 1.37,1.4 -2.39,2.23 -3.75,0.83 -7.92,-0.18 -10.22,-0.05 -2.3,0.13 -5.31,0.75 -3.27,3.42 1.85,2.43 9.72,3.18 13.83,2.32 4.12,-0.86 11.3,-2.91 10.46,-7.75 -0.84,-4.84 -4.01,-5.03 -8.53,-6.81 -4.52,-1.77 -5.47,-3.13 -0.93,-3.94 4.53,-0.81 1.34,1.03 3.95,1.42 2.61,0.38 5.48,-2.89 3.83,-5.04 -1.67,-2.14 -6.75,-2.97 -11.14,-1.94 z"
   class="st0" />
</g>
</svg>
