<?xml version="1.0" encoding="utf-8"?>
<!-- Generator: Adobe Illustrator 24.1.0, SVG Export Plug-In . SVG Version: 6.00 Build 0)  -->
<svg version="1.1" id="Vrstva_1" xmlns="http://www.w3.org/2000/svg" xmlns:xlink="http://www.w3.org/1999/xlink" x="0px" y="0px"
	 viewBox="0 0 438.25 438.25" style="enable-background:new 0 0 438.25 438.25;" xml:space="preserve">
<style type="text/css">
	.st0{fill:#050504;}
	.st1{fill:url(#SVGID_1_);}
	.st2{fill:#180E0F;}
	.st3{fill:#FF6600;}
</style>
<circle class="st3" cx="219.12" cy="219.12" r="211.31"/>
<g>
	<path class="st0" d="M185.76,178.55c0.26,5.76,2.58,7.91,40.66,7.24c1.18-0.03,2.04,2.22,2.61,5.76
		c1.58,9.81-0.46,66.48-17.68,73.4c-7.18,2.89-12.53,2.54-18.08-0.41c-3.44-1.83-6.76-4.75-6.89-11.17
		c-0.09-15.84-12.83-13.07-12.7,0.27c0.41,6.82,3.34,14.39,9.81,18.98c7.66,5.44,27.44,7.65,38.07-3.04
		c10.04-10.09,18.3-32.99,17.56-84.24c-0.62-3.16,3.05-13.1-8.12-12.93c-4.99,0.21-10.25,1.24-18.64,2.48
		C199.56,176.77,186.4,174.47,185.76,178.55z"/>
	<path class="st0" d="M286.65,104.9c8.31-9.33,18-21.27,44.41-23c13.77-0.9,1.86-9.37-10.42-8.73c-8.13,0.42-23.57,3.56-34.08,12.76
		c-5.41,4.73-11.82,14.25-11.95,14.44c-0.25,0.37-8.34-4.02-14.05-7.09c-20.01-10.79-60.39-18.23-83.53,28.39
		c-1.06,2.13-2.63,8.49-2.57,8.49c0.06,0-11.12-3.19-24.4-2.74c-15.79,0.54-39.54,8.64-48.24,39.92c0,0-2.86,13.33,3.47,20.82
		c2.89,3.43,8.91,10.1,8.92,10.14c0.07,0.27-10.03,1.38-19.96,9.34c-13.88,11.13-20.91,38.63-11.4,53.76
		c6.55,10.42,10.74,13.6,20.66,17.29c5.75,2.13,14.52,2.04,14.22,1.81c-0.09-0.07-3.3,5.39-4.81,11.18
		c-1.22,4.69-1.49,13.45,1.44,22.18c2.54,7.55,7.49,15.08,16.3,19.91c12.58,6.9,14.61-0.3,7.04-5.97
		c-5.44-4.07-8.37-5.65-11.58-11.06c-3.21-5.41-8.59-25.37,3.54-38.46c7.68-8.29,3.55-9.99-4.15-8.59
		c-12.89,2.35-27.63-4.77-31.71-13.5c-9.21-19.74,6.15-42.91,29.06-47.09c22.9-4.18,11.5-8.43,2.8-15.51
		c-19.7-16.01-3.94-40.04,2.67-45.12c8.77-6.74,27.62-11.57,42.83-6.23c21.89,7.69,8.42-0.63,18.79-18.45
		c10.49-18.03,36.01-37.88,69.63-19c6.1,3.42,10.72,7.2,13.42,8.47C279.43,116.31,279.08,113.4,286.65,104.9z"/>
	<path class="st2" d="M331.78,188.78c-0.1-2.53,1.21-15.82-29.88-16.37c-38.65,0.1-51.07,57.15-34.03,84.51
		c8.85,14.2,16.21,18.18,33.26,18.19c12.32-0.43,24.49-8.02,28.54-21.01c1.52-5.49-5.99,0.64-15.95,5.46
		c-6.08,2.94-13.06,5.39-19.46,4.42c-24.75-2.79-33.55-79.59,8.55-80.7c6.45,0.12,12.7,3.5,16.25,8.97
		C322.61,197.71,332.15,198.39,331.78,188.78z"/>
</g>
</svg>
